<svg xmlns="http://www.w3.org/2000/svg" xmlns:xlink="http://www.w3.org/1999/xlink" contentStyleType="text/css" data-diagram-type="ACTIVITY" height="641px" preserveAspectRatio="none" style="width:233px;height:641px;background:#FFFFFF;" version="1.1" viewBox="0 0 233 641" width="233px" zoomAndPan="magnify"><title>Add Entry</title><defs/><g><g class="header" data-source-line="1"><text fill="#888888" font-family="sans-serif" font-size="10" lengthAdjust="spacing" textLength="36.8604" x="183.1641" y="19.2822">activity</text></g><g class="title" data-source-line="2"><text fill="#000000" font-family="sans-serif" font-size="14" font-weight="bold" lengthAdjust="spacing" textLength="78.0049" x="76.0098" y="45.6357">Add Entry</text></g><ellipse cx="107.5122" cy="69.9375" fill="#222222" rx="10" ry="10" style="stroke:#222222;stroke-width:1;"/><a href="auth-activity.svg" target="_top" title="auth-activity.svg" xlink:actuate="onRequest" xlink:href="auth-activity.svg" xlink:show="new" xlink:title="auth-activity.svg" xlink:type="simple"><rect fill="#FFFF00" height="47.9375" rx="12.5" ry="12.5" style="stroke:#181818;stroke-width:0.5;" width="125.3867" x="44.8188" y="99.9375"/><text fill="#000000" font-family="sans-serif" font-size="12" lengthAdjust="spacing" textLength="104.2148" x="54.8188" y="121.0762">User passes Auth</text><text fill="#000000" font-family="sans-serif" font-size="12" lengthAdjust="spacing" textLength="105.3867" x="54.8188" y="135.0449">for creating entry</text></a><rect fill="#F1F1F1" height="47.9375" rx="12.5" ry="12.5" style="stroke:#181818;stroke-width:0.5;" width="122.7324" x="46.146" y="167.875"/><text fill="#000000" font-family="sans-serif" font-size="12" lengthAdjust="spacing" textLength="102.7324" x="56.146" y="189.0137">Compute hash of</text><text fill="#000000" font-family="sans-serif" font-size="12" lengthAdjust="spacing" textLength="82.8574" x="56.146" y="202.9824">the entry URL</text><a href="fetch-entry.activity.svg" target="_top" title="fetch-entry.activity.svg" xlink:actuate="onRequest" xlink:href="fetch-entry.activity.svg" xlink:show="new" xlink:title="fetch-entry.activity.svg" xlink:type="simple"><rect fill="#FFFF00" height="33.9688" rx="12.5" ry="12.5" style="stroke:#181818;stroke-width:0.5;" width="88.7363" x="63.144" y="284.2148"/><text fill="#000000" font-family="sans-serif" font-size="12" lengthAdjust="spacing" textLength="68.7363" x="73.144" y="305.3535">Fetch entry</text></a><rect fill="#FF0000" height="33.9688" rx="12.5" ry="12.5" style="stroke:#181818;stroke-width:0.5;" width="120.0488" x="47.4878" y="386.5859"/><text fill="#000000" font-family="sans-serif" font-size="12" lengthAdjust="spacing" textLength="100.0488" x="57.4878" y="407.7246">Show fetch error</text><ellipse cx="107.5122" cy="458.0703" fill="none" rx="10" ry="10" style="stroke:#222222;stroke-width:1.5;"/><line style="stroke:#222222;stroke-width:2.5;" x1="101.325" x2="113.6994" y1="451.8831" y2="464.2575"/><line style="stroke:#222222;stroke-width:2.5;" x1="113.6994" x2="101.325" y1="451.8831" y2="464.2575"/><polygon fill="#F1F1F1" points="82.4534,338.1836,132.571,338.1836,144.571,350.1836,132.571,362.1836,82.4534,362.1836,70.4534,350.1836,82.4534,338.1836" style="stroke:#181818;stroke-width:0.5;"/><text fill="#000000" font-family="sans-serif" font-size="11" lengthAdjust="spacing" textLength="13.7017" x="111.5122" y="372.394">no</text><text fill="#000000" font-family="sans-serif" font-size="11" lengthAdjust="spacing" textLength="50.1177" x="82.4534" y="353.9917">Success?</text><text fill="#000000" font-family="sans-serif" font-size="11" lengthAdjust="spacing" textLength="19.0083" x="144.571" y="347.5894">yes</text><polygon fill="#F1F1F1" points="32,235.8125,183.0244,235.8125,195.0244,247.8125,183.0244,259.8125,32,259.8125,20,247.8125,32,235.8125" style="stroke:#181818;stroke-width:0.5;"/><text fill="#000000" font-family="sans-serif" font-size="11" lengthAdjust="spacing" textLength="13.7017" x="111.5122" y="270.0229">no</text><text fill="#000000" font-family="sans-serif" font-size="11" lengthAdjust="spacing" textLength="151.0244" x="32" y="251.6206">Entry with this hash exists?</text><text fill="#000000" font-family="sans-serif" font-size="11" lengthAdjust="spacing" textLength="19.0083" x="195.0244" y="245.2183">yes</text><polygon fill="#F1F1F1" points="107.5122,510.0703,119.5122,522.0703,107.5122,534.0703,95.5122,522.0703,107.5122,510.0703" style="stroke:#181818;stroke-width:0.5;"/><rect fill="#008000" height="33.9688" rx="12.5" ry="12.5" style="stroke:#181818;stroke-width:0.5;" width="87.9219" x="63.5513" y="554.0703"/><text fill="#000000" font-family="sans-serif" font-size="12" lengthAdjust="spacing" textLength="67.9219" x="73.5513" y="575.209">Show entry</text><ellipse cx="107.5122" cy="619.0391" fill="none" rx="11" ry="11" style="stroke:#222222;stroke-width:1;"/><ellipse cx="107.5122" cy="619.0391" fill="#222222" rx="6" ry="6" style="stroke:#222222;stroke-width:1;"/><line style="stroke:#181818;stroke-width:1;" x1="107.5122" x2="107.5122" y1="79.9375" y2="99.9375"/><polygon fill="#181818" points="103.5122,89.9375,107.5122,99.9375,111.5122,89.9375,107.5122,93.9375" style="stroke:#181818;stroke-width:1;"/><line style="stroke:#181818;stroke-width:1;" x1="107.5122" x2="107.5122" y1="147.875" y2="167.875"/><polygon fill="#181818" points="103.5122,157.875,107.5122,167.875,111.5122,157.875,107.5122,161.875" style="stroke:#181818;stroke-width:1;"/><line style="stroke:#181818;stroke-width:1;" x1="107.5122" x2="107.5122" y1="420.5547" y2="448.0703"/><polygon fill="#181818" points="103.5122,438.0703,107.5122,448.0703,111.5122,438.0703,107.5122,442.0703" style="stroke:#181818;stroke-width:1;"/><line style="stroke:#181818;stroke-width:1;" x1="107.5122" x2="107.5122" y1="362.1836" y2="386.5859"/><polygon fill="#181818" points="103.5122,376.5859,107.5122,386.5859,111.5122,376.5859,107.5122,380.5859" style="stroke:#181818;stroke-width:1;"/><line style="stroke:#181818;stroke-width:1;" x1="144.571" x2="177.5366" y1="350.1836" y2="350.1836"/><polygon fill="#181818" points="173.5366,418.0703,177.5366,428.0703,181.5366,418.0703,177.5366,422.0703" style="stroke:#181818;stroke-width:1;"/><line style="stroke:#181818;stroke-width:1;" x1="177.5366" x2="177.5366" y1="350.1836" y2="490.0703"/><line style="stroke:#181818;stroke-width:1;" x1="177.5366" x2="107.5122" y1="490.0703" y2="490.0703"/><line style="stroke:#181818;stroke-width:1;" x1="107.5122" x2="107.5122" y1="490.0703" y2="510.0703"/><polygon fill="#181818" points="103.5122,500.0703,107.5122,510.0703,111.5122,500.0703,107.5122,504.0703" style="stroke:#181818;stroke-width:1;"/><line style="stroke:#181818;stroke-width:1;" x1="107.5122" x2="107.5122" y1="318.1836" y2="338.1836"/><polygon fill="#181818" points="103.5122,328.1836,107.5122,338.1836,111.5122,328.1836,107.5122,332.1836" style="stroke:#181818;stroke-width:1;"/><line style="stroke:#181818;stroke-width:1;" x1="107.5122" x2="107.5122" y1="259.8125" y2="284.2148"/><polygon fill="#181818" points="103.5122,274.2148,107.5122,284.2148,111.5122,274.2148,107.5122,278.2148" style="stroke:#181818;stroke-width:1;"/><line style="stroke:#181818;stroke-width:1;" x1="195.0244" x2="207.0244" y1="247.8125" y2="247.8125"/><polygon fill="#181818" points="203.0244,377.5859,207.0244,387.5859,211.0244,377.5859,207.0244,381.5859" style="stroke:#181818;stroke-width:1;"/><line style="stroke:#181818;stroke-width:1;" x1="207.0244" x2="207.0244" y1="247.8125" y2="522.0703"/><line style="stroke:#181818;stroke-width:1;" x1="207.0244" x2="119.5122" y1="522.0703" y2="522.0703"/><polygon fill="#181818" points="129.5122,518.0703,119.5122,522.0703,129.5122,526.0703,125.5122,522.0703" style="stroke:#181818;stroke-width:1;"/><line style="stroke:#181818;stroke-width:1;" x1="107.5122" x2="107.5122" y1="215.8125" y2="235.8125"/><polygon fill="#181818" points="103.5122,225.8125,107.5122,235.8125,111.5122,225.8125,107.5122,229.8125" style="stroke:#181818;stroke-width:1;"/><line style="stroke:#181818;stroke-width:1;" x1="107.5122" x2="107.5122" y1="534.0703" y2="554.0703"/><polygon fill="#181818" points="103.5122,544.0703,107.5122,554.0703,111.5122,544.0703,107.5122,548.0703" style="stroke:#181818;stroke-width:1;"/><line style="stroke:#181818;stroke-width:1;" x1="107.5122" x2="107.5122" y1="588.0391" y2="608.0391"/><polygon fill="#181818" points="103.5122,598.0391,107.5122,608.0391,111.5122,598.0391,107.5122,602.0391" style="stroke:#181818;stroke-width:1;"/><!--SRC=[ROunRiCm34LtdeA05tj83c0FHL2qKwS6cPmCWaHP0bp94EculdsiA2dGeXn8WF_pVJfIXX8gBVxgPGNnCX8UZC6t86a5O559eE_LB6xtjEtvEbmkrKhZ69Vsn1jXKip4UDXivs1ZGfr8YGy3KWPrqBx6hsaMGgVOORGWZeg6fy-F3hp5-fw9YnU7uZmNAtrx5dvfjXK5h5VY1cXamZh41d2hlhSasktkjFt_Jxvdn_ENV9JpZhFMn7_OMVpDprKbCktHnGLj8QKKK_SZKp3mcDv2wTMGY48vUWIpnEa6]--></g></svg>