<svg xmlns="http://www.w3.org/2000/svg" xmlns:xlink="http://www.w3.org/1999/xlink" contentStyleType="text/css" data-diagram-type="ACTIVITY" height="1335.4167px" preserveAspectRatio="none" style="width:485px;height:1335px;background:#FFFFFF;" version="1.1" viewBox="0 0 485 1335" width="485.4167px" zoomAndPan="magnify"><title>Add Entry</title><defs/><g><g class="header" data-source-line="2"><text fill="#888888" font-family="sans-serif" font-size="20.8333" lengthAdjust="spacing" textLength="76.7924" x="381.5918" y="40.1713">activity</text></g><g class="title" data-source-line="3"><text fill="#000000" font-family="sans-serif" font-size="29.1667" font-weight="bold" lengthAdjust="spacing" textLength="162.5102" x="158.3537" y="95.0745">Add Entry</text></g><ellipse cx="223.9838" cy="145.7031" fill="#222222" rx="20.8333" ry="20.8333" style="stroke:#222222;stroke-width:2.0833;"/><a href="auth-activity.svg" target="_top" title="auth-activity.svg" xlink:actuate="onRequest" xlink:href="auth-activity.svg" xlink:show="new" xlink:title="auth-activity.svg" xlink:type="simple"><rect fill="#FFFF00" height="99.8698" rx="26.0417" ry="26.0417" style="stroke:#181818;stroke-width:1.0417;" width="261.2223" x="93.3726" y="208.2031"/><text fill="#000000" font-family="sans-serif" font-size="25" lengthAdjust="spacing" textLength="217.1143" x="114.2059" y="252.242">User passes Auth</text><text fill="#000000" font-family="sans-serif" font-size="25" lengthAdjust="spacing" textLength="219.5557" x="114.2059" y="281.3436">for creating entry</text></a><rect fill="#F1F1F1" height="99.8698" rx="26.0417" ry="26.0417" style="stroke:#181818;stroke-width:1.0417;" width="255.6925" x="96.1375" y="349.7396"/><text fill="#000000" font-family="sans-serif" font-size="25" lengthAdjust="spacing" textLength="214.0259" x="116.9708" y="393.7785">Compute hash of</text><text fill="#000000" font-family="sans-serif" font-size="25" lengthAdjust="spacing" textLength="172.6196" x="116.9708" y="422.88">the entry URL</text><a href="fetch-entry.activity.svg" target="_top" title="fetch-entry.activity.svg" xlink:actuate="onRequest" xlink:href="fetch-entry.activity.svg" xlink:show="new" xlink:title="fetch-entry.activity.svg" xlink:type="simple"><rect fill="#FFFF00" height="70.7682" rx="26.0417" ry="26.0417" style="stroke:#181818;stroke-width:1.0417;" width="184.8674" x="131.5501" y="592.1143"/><text fill="#000000" font-family="sans-serif" font-size="25" lengthAdjust="spacing" textLength="143.2007" x="152.3834" y="636.1532">Fetch entry</text></a><rect fill="#FF0000" height="70.7682" rx="26.0417" ry="26.0417" style="stroke:#181818;stroke-width:1.0417;" width="250.1017" x="98.9329" y="805.3874"/><text fill="#000000" font-family="sans-serif" font-size="25" lengthAdjust="spacing" textLength="208.4351" x="119.7662" y="849.4263">Show fetch error</text><ellipse cx="223.9838" cy="954.3132" fill="none" rx="20.8333" ry="20.8333" style="stroke:#222222;stroke-width:3.125;"/><line style="stroke:#222222;stroke-width:5.2083;" x1="211.0938" x2="236.8737" y1="941.4232" y2="967.2031"/><line style="stroke:#222222;stroke-width:5.2083;" x1="236.8737" x2="211.0938" y1="941.4232" y2="967.2031"/><polygon fill="#F1F1F1" points="171.7779,704.5492,276.1897,704.5492,301.1897,729.5492,276.1897,754.5492,171.7779,754.5492,146.7779,729.5492,171.7779,704.5492" style="stroke:#181818;stroke-width:1.0417;"/><text fill="#000000" font-family="sans-serif" font-size="22.9167" lengthAdjust="spacing" textLength="28.5451" x="232.3171" y="775.8209">no</text><text fill="#000000" font-family="sans-serif" font-size="22.9167" lengthAdjust="spacing" textLength="104.4118" x="171.7779" y="737.4827">Success?</text><text fill="#000000" font-family="sans-serif" font-size="22.9167" lengthAdjust="spacing" textLength="39.6006" x="301.1897" y="724.1445">yes</text><polygon fill="#F1F1F1" points="66.6667,491.276,381.3009,491.276,406.3009,516.276,381.3009,541.276,66.6667,541.276,41.6667,516.276,66.6667,491.276" style="stroke:#181818;stroke-width:1.0417;"/><text fill="#000000" font-family="sans-serif" font-size="22.9167" lengthAdjust="spacing" textLength="28.5451" x="232.3171" y="562.5478">no</text><text fill="#000000" font-family="sans-serif" font-size="22.9167" lengthAdjust="spacing" textLength="314.6342" x="66.6667" y="524.2096">Entry with this hash exists?</text><text fill="#000000" font-family="sans-serif" font-size="22.9167" lengthAdjust="spacing" textLength="39.6006" x="406.3009" y="510.8714">yes</text><polygon fill="#F1F1F1" points="223.9838,1062.6465,248.9838,1087.6465,223.9838,1112.6465,198.9838,1087.6465,223.9838,1062.6465" style="stroke:#181818;stroke-width:1.0417;"/><rect fill="#008000" height="70.7682" rx="26.0417" ry="26.0417" style="stroke:#181818;stroke-width:1.0417;" width="183.1706" x="132.3985" y="1154.3132"/><text fill="#000000" font-family="sans-serif" font-size="25" lengthAdjust="spacing" textLength="141.5039" x="153.2318" y="1198.3521">Show entry</text><ellipse cx="223.9838" cy="1289.6647" fill="none" rx="22.9167" ry="22.9167" style="stroke:#222222;stroke-width:2.0833;"/><ellipse cx="223.9838" cy="1289.6647" fill="#222222" rx="12.5" ry="12.5" style="stroke:#222222;stroke-width:2.0833;"/><line style="stroke:#181818;stroke-width:2.0833;" x1="223.9838" x2="223.9838" y1="166.5365" y2="208.2031"/><polygon fill="#181818" points="215.6504,187.3698,223.9838,208.2031,232.3171,187.3698,223.9838,195.7031" style="stroke:#181818;stroke-width:2.0833;"/><line style="stroke:#181818;stroke-width:2.0833;" x1="223.9838" x2="223.9838" y1="308.0729" y2="349.7396"/><polygon fill="#181818" points="215.6504,328.9063,223.9838,349.7396,232.3171,328.9063,223.9838,337.2396" style="stroke:#181818;stroke-width:2.0833;"/><line style="stroke:#181818;stroke-width:2.0833;" x1="223.9838" x2="223.9838" y1="876.1556" y2="933.4798"/><polygon fill="#181818" points="215.6504,912.6465,223.9838,933.4798,232.3171,912.6465,223.9838,920.9798" style="stroke:#181818;stroke-width:2.0833;"/><line style="stroke:#181818;stroke-width:2.0833;" x1="223.9838" x2="223.9838" y1="754.5492" y2="805.3874"/><polygon fill="#181818" points="215.6504,784.554,223.9838,805.3874,232.3171,784.554,223.9838,792.8874" style="stroke:#181818;stroke-width:2.0833;"/><line style="stroke:#181818;stroke-width:2.0833;" x1="301.1897" x2="369.868" y1="729.5492" y2="729.5492"/><polygon fill="#181818" points="361.5346,870.9798,369.868,891.8132,378.2013,870.9798,369.868,879.3132" style="stroke:#181818;stroke-width:2.0833;"/><line style="stroke:#181818;stroke-width:2.0833;" x1="369.868" x2="369.868" y1="729.5492" y2="1020.9798"/><line style="stroke:#181818;stroke-width:2.0833;" x1="369.868" x2="223.9838" y1="1020.9798" y2="1020.9798"/><line style="stroke:#181818;stroke-width:2.0833;" x1="223.9838" x2="223.9838" y1="1020.9798" y2="1062.6465"/><polygon fill="#181818" points="215.6504,1041.8132,223.9838,1062.6465,232.3171,1041.8132,223.9838,1050.1465" style="stroke:#181818;stroke-width:2.0833;"/><line style="stroke:#181818;stroke-width:2.0833;" x1="223.9838" x2="223.9838" y1="662.8825" y2="704.5492"/><polygon fill="#181818" points="215.6504,683.7158,223.9838,704.5492,232.3171,683.7158,223.9838,692.0492" style="stroke:#181818;stroke-width:2.0833;"/><line style="stroke:#181818;stroke-width:2.0833;" x1="223.9838" x2="223.9838" y1="541.276" y2="592.1143"/><polygon fill="#181818" points="215.6504,571.2809,223.9838,592.1143,232.3171,571.2809,223.9838,579.6143" style="stroke:#181818;stroke-width:2.0833;"/><line style="stroke:#181818;stroke-width:2.0833;" x1="406.3009" x2="431.3009" y1="516.276" y2="516.276"/><polygon fill="#181818" points="422.9675,786.6374,431.3009,807.4707,439.6342,786.6374,431.3009,794.9707" style="stroke:#181818;stroke-width:2.0833;"/><line style="stroke:#181818;stroke-width:2.0833;" x1="431.3009" x2="431.3009" y1="516.276" y2="1087.6465"/><line style="stroke:#181818;stroke-width:2.0833;" x1="431.3009" x2="248.9838" y1="1087.6465" y2="1087.6465"/><polygon fill="#181818" points="269.8171,1079.3132,248.9838,1087.6465,269.8171,1095.9798,261.4838,1087.6465" style="stroke:#181818;stroke-width:2.0833;"/><line style="stroke:#181818;stroke-width:2.0833;" x1="223.9838" x2="223.9838" y1="449.6094" y2="491.276"/><polygon fill="#181818" points="215.6504,470.4427,223.9838,491.276,232.3171,470.4427,223.9838,478.776" style="stroke:#181818;stroke-width:2.0833;"/><line style="stroke:#181818;stroke-width:2.0833;" x1="223.9838" x2="223.9838" y1="1112.6465" y2="1154.3132"/><polygon fill="#181818" points="215.6504,1133.4798,223.9838,1154.3132,232.3171,1133.4798,223.9838,1141.8132" style="stroke:#181818;stroke-width:2.0833;"/><line style="stroke:#181818;stroke-width:2.0833;" x1="223.9838" x2="223.9838" y1="1225.0814" y2="1266.748"/><polygon fill="#181818" points="215.6504,1245.9147,223.9838,1266.748,232.3171,1245.9147,223.9838,1254.248" style="stroke:#181818;stroke-width:2.0833;"/><!--SRC=[ROwnRiCm34HtVWK1B_QG8EXe3qLGj5Ed1fdS3894MK8SoH3fkFxxMd5Ie4Kva03l-8vyzc5GILtG31wVTZjmf0mbL5hyrSiCugKdt1k3hq7I3C2Yaa3Rgb7Svc7RyhKxdOgP-ZvEzP4Nmg2OYN6_s3w3ZGbr8YK-T4WPr43z4Y_3A8HEiSDeGHoj6Xu_tXlm5ijR9avU78hpl5hfoxFmSxMiA60v4rT0FHEM8LQ0IxMj9T5kSwDj_t_oBJiUl-IZd7SOjIR-myxYRtwk8f6f3ovEQ5TIIZ4rFp850_VfBQozw19HM8_kmInn-0O0]--></g></svg>