<svg xmlns="http://www.w3.org/2000/svg" xmlns:xlink="http://www.w3.org/1999/xlink" contentStyleType="text/css" data-diagram-type="CLASS" height="1273px" preserveAspectRatio="none" style="width:1256px;height:1273px;background:#FFFFFF;" version="1.1" viewBox="0 0 1256 1273" width="1256px" zoomAndPan="magnify"><title>Wallabago Components</title><defs/><g><g class="header" data-source-line="3"><text fill="#888888" font-family="sans-serif" font-size="10" lengthAdjust="spacing" textLength="101.333" x="1140.667" y="9.2822">component diagram</text></g><g class="title" data-source-line="2"><text fill="#000000" font-family="sans-serif" font-size="14" font-weight="bold" lengthAdjust="spacing" textLength="186.4912" x="527.7544" y="35.6357">Wallabago Components</text></g><!--cluster Wallabago--><g class="cluster" data-entity="Wallabago" data-source-line="31" data-uid="ent0005" id="cluster_Wallabago"><rect fill="none" height="1054.98" rx="2.5" ry="2.5" style="stroke:#181818;stroke-width:1;" width="1243" x="7" y="212.6175"/><rect fill="none" height="10" style="stroke:#181818;stroke-width:1;" width="15" x="1230" y="217.6175"/><rect fill="none" height="2" style="stroke:#181818;stroke-width:1;" width="4" x="1228" y="219.6175"/><rect fill="none" height="2" style="stroke:#181818;stroke-width:1;" width="4" x="1228" y="223.6175"/><text fill="#000000" font-family="sans-serif" font-size="14" font-weight="bold" lengthAdjust="spacing" textLength="83.043" x="586.9785" y="238.6126">Wallabago</text></g><!--cluster Database--><g class="cluster" data-entity="Database" data-source-line="144" data-uid="ent0020" id="cluster_Database"><path d="M31,1019.4075 C31,1009.4075 628.5,1009.4075 628.5,1009.4075 C628.5,1009.4075 1226,1009.4075 1226,1019.4075 L1226,1233.5975 C1226,1243.5975 628.5,1243.5975 628.5,1243.5975 C628.5,1243.5975 31,1243.5975 31,1233.5975 L31,1019.4075" fill="#132E32" style="stroke:#FFFFFF;stroke-width:1;"/><path d="M31,1019.4075 C31,1029.4075 628.5,1029.4075 628.5,1029.4075 C628.5,1029.4075 1226,1029.4075 1226,1019.4075" fill="none" style="stroke:#FFFFFF;stroke-width:1;"/><text fill="#FFFFFF" font-family="sans-serif" font-size="14" font-weight="bold" lengthAdjust="spacing" textLength="74.5049" x="591.2476" y="1044.4026">Database</text></g><!--cluster Application--><g class="cluster" data-entity="Application" data-source-line="145" data-uid="ent0021" id="cluster_Application"><rect fill="#132E32" height="127.89" rx="2.5" ry="2.5" style="stroke:#FFFFFF;stroke-width:1;" width="510" x="55" y="1079.5575"/><text fill="#FFFFFF" font-family="sans-serif" font-size="14" font-weight="bold" lengthAdjust="spacing" textLength="89.2979" x="265.3511" y="1094.5526">Application</text></g><!--cluster Identity--><g class="cluster" data-entity="Identity" data-source-line="167" data-uid="ent0025" id="cluster_Identity"><rect fill="#132E32" height="152.19" rx="2.5" ry="2.5" style="stroke:#FFFFFF;stroke-width:1;" width="613" x="589" y="1067.4075"/><text fill="#FFFFFF" font-family="sans-serif" font-size="14" font-weight="bold" lengthAdjust="spacing" textLength="62.002" x="864.499" y="1082.4026">Identity</text></g><!--cluster IdentityProvider--><g class="cluster" data-entity="IdentityProvider" data-source-line="194" data-uid="ent0029" id="cluster_IdentityProvider"><rect fill="none" height="474.71" rx="2.5" ry="2.5" style="stroke:#2F4F4F;stroke-width:1;stroke-dasharray:7,7;" width="232" x="956" y="510.6975"/><rect fill="none" height="10" style="stroke:#2F4F4F;stroke-width:1;stroke-dasharray:7,7;" width="15" x="1168" y="515.6975"/><rect fill="none" height="2" style="stroke:#2F4F4F;stroke-width:1;stroke-dasharray:7,7;" width="4" x="1166" y="517.6975"/><rect fill="none" height="2" style="stroke:#2F4F4F;stroke-width:1;stroke-dasharray:7,7;" width="4" x="1166" y="521.6975"/><text fill="#2F4F4F" font-family="sans-serif" font-size="14" font-weight="bold" lengthAdjust="spacing" textLength="129.1309" x="1007.4346" y="536.6926">IdentityProvider</text></g><!--entity HTTPAPI--><g class="entity" data-entity="HTTPAPI" data-source-line="33" data-uid="ent0006" id="entity_HTTPAPI"><rect fill="#176087" height="60.5938" rx="2.5" ry="2.5" style="stroke:#FFFFFF;stroke-width:0.5;" width="160.8203" x="741.59" y="247.6175"/><text fill="#FFFFFF" font-family="sans-serif" font-size="14" lengthAdjust="spacing" textLength="140.8203" x="751.59" y="270.6126">Wallabago HTTP API</text><line style="stroke:#FFFFFF;stroke-width:1;" x1="742.59" x2="901.4103" y1="273.9144" y2="273.9144"/><text fill="#FFFFFF" font-family="sans-serif" font-size="14" lengthAdjust="spacing" textLength="101.2881" x="751.59" y="290.9095">HTTP handlers</text></g><!--entity WebUI--><g class="entity" data-entity="WebUI" data-source-line="39" data-uid="ent0007" id="entity_WebUI"><rect fill="#176087" height="60.5938" rx="2.5" ry="2.5" style="stroke:#FFFFFF;stroke-width:0.5;" width="148.3174" x="557.84" y="247.6175"/><text fill="#FFFFFF" font-family="sans-serif" font-size="14" lengthAdjust="spacing" textLength="128.3174" x="567.84" y="270.6126">Wallabago Web UI</text><line style="stroke:#FFFFFF;stroke-width:1;" x1="558.84" x2="705.1574" y1="273.9144" y2="273.9144"/><text fill="#FFFFFF" font-family="sans-serif" font-size="14" lengthAdjust="spacing" textLength="108.3428" x="567.84" y="290.9095">HTMX Web App</text></g><!--entity AuthNMiddleware--><g class="entity" data-entity="AuthNMiddleware" data-source-line="46" data-uid="ent0008" id="entity_AuthNMiddleware"><polygon fill="#105080" points="486.4,368.2175,695.6041,368.2175,705.6041,426.9597,695.6041,485.7019,486.4,485.7019,496.4,426.9597" style="stroke:#FFFFFF;stroke-width:0.5;"/><text fill="#FFFFFF" font-family="sans-serif" font-size="14" lengthAdjust="spacing" textLength="128.3789" x="506.4" y="391.2126">AuthN Middleware</text><line style="stroke:#FFFFFF;stroke-width:1;" x1="487.4" x2="704.6041" y1="394.5144" y2="394.5144"/><text fill="#FFFFFF" font-family="sans-serif" font-size="14" lengthAdjust="spacing" textLength="179.2041" x="506.4" y="411.5095">Authentication checks for</text><text fill="#FFFFFF" font-family="sans-serif" font-size="14" lengthAdjust="spacing" textLength="140.9092" x="506.4" y="427.8064">protected resources</text><line style="stroke:#FFFFFF;stroke-width:1;stroke-dasharray:1,2;" x1="487.4" x2="704.6041" y1="435.1081" y2="435.1081"/><text fill="#FFFFFF" font-family="sans-serif" font-size="14" lengthAdjust="spacing" textLength="84.8545" x="506.4" y="452.1032">Used before</text><text fill="#FFFFFF" font-family="sans-serif" font-size="14" lengthAdjust="spacing" textLength="177.8164" x="506.4" y="468.4001">every protected Manager</text></g><!--entity AdminManager--><g class="entity" data-entity="AdminManager" data-source-line="57" data-uid="ent0009" id="entity_AdminManager"><rect fill="#0A2239" height="60.5938" rx="2.5" ry="2.5" style="stroke:#FFFFFF;stroke-width:1;stroke-dasharray:1,3;" width="148.584" x="521.71" y="574.1475"/><text fill="#D3D3D3" font-family="sans-serif" font-size="14" lengthAdjust="spacing" textLength="110.6807" x="531.71" y="597.1426">Admin Manager</text><line style="stroke:#FFFFFF;stroke-width:1;" x1="522.71" x2="669.294" y1="600.4444" y2="600.4444"/><text fill="#D3D3D3" font-family="sans-serif" font-size="14" lengthAdjust="spacing" textLength="128.584" x="531.71" y="617.4395">User Management</text></g><!--entity EntryManager--><g class="entity" data-entity="EntryManager" data-source-line="64" data-uid="ent0010" id="entity_EntryManager"><rect fill="#0A2239" height="60.5938" rx="2.5" ry="2.5" style="stroke:#FFFFFF;stroke-width:1;stroke-dasharray:1,3;" width="123.0654" x="358.47" y="574.1475"/><text fill="#D3D3D3" font-family="sans-serif" font-size="14" lengthAdjust="spacing" textLength="103.0654" x="368.47" y="597.1426">Entry Manager</text><line style="stroke:#FFFFFF;stroke-width:1;" x1="359.47" x2="480.5354" y1="600.4444" y2="600.4444"/><text fill="#D3D3D3" font-family="sans-serif" font-size="14" lengthAdjust="spacing" textLength="82.2295" x="368.47" y="617.4395">Entry CRUD</text></g><!--entity ConversionManager--><g class="entity" data-entity="ConversionManager" data-source-line="70" data-uid="ent0011" id="entity_ConversionManager"><rect fill="#0A2239" height="76.8906" rx="2.5" ry="2.5" style="stroke:#FFFFFF;stroke-width:1;stroke-dasharray:1,3;" width="164.3066" x="147.85" y="565.9975"/><text fill="#D3D3D3" font-family="sans-serif" font-size="14" lengthAdjust="spacing" textLength="144.3066" x="157.85" y="588.9926">Conversion Manager</text><line style="stroke:#FFFFFF;stroke-width:1;" x1="148.85" x2="311.1566" y1="592.2944" y2="592.2944"/><text fill="#D3D3D3" font-family="sans-serif" font-size="14" lengthAdjust="spacing" textLength="118.1113" x="157.85" y="609.2895">Entry conversion</text><text fill="#D3D3D3" font-family="sans-serif" font-size="14" lengthAdjust="spacing" textLength="86.3447" x="157.85" y="625.5864">to EPUB etc.</text></g><!--entity BootstrapManager--><g class="entity" data-entity="BootstrapManager" data-source-line="77" data-uid="ent0012" id="entity_BootstrapManager"><rect fill="#0A2239" height="101.1875" rx="2.5" ry="2.5" style="stroke:#FFFFFF;stroke-width:1;stroke-dasharray:1,3;" width="226.4932" x="708.75" y="553.8475"/><text fill="#D3D3D3" font-family="sans-serif" font-size="14" lengthAdjust="spacing" textLength="134.0459" x="718.75" y="576.8426">Bootstrap Manager</text><line style="stroke:#FFFFFF;stroke-width:1;" x1="709.75" x2="934.2432" y1="580.1444" y2="580.1444"/><text fill="#D3D3D3" font-family="sans-serif" font-size="14" lengthAdjust="spacing" textLength="150.1855" x="718.75" y="597.1395">Application bootstrap</text><line style="stroke:#FFFFFF;stroke-width:1;stroke-dasharray:1,2;" x1="709.75" x2="934.2432" y1="604.4413" y2="604.4413"/><text fill="#D3D3D3" font-family="sans-serif" font-size="14" lengthAdjust="spacing" textLength="200.8672" x="718.75" y="621.4364">Check if bootstrap is needed</text><text fill="#D3D3D3" font-family="sans-serif" font-size="14" lengthAdjust="spacing" textLength="206.4932" x="718.75" y="637.7332">and runs the necessary steps</text></g><!--entity AuthZEngine--><g class="entity" data-entity="AuthZEngine" data-source-line="88" data-uid="ent0013" id="entity_AuthZEngine"><rect fill="#53A2BE" height="60.5938" rx="2.5" ry="2.5" style="stroke:#181818;stroke-width:0.5;" width="160.7998" x="490.6" y="751.6275"/><text fill="#000000" font-family="sans-serif" font-size="14" lengthAdjust="spacing" textLength="94.835" x="500.6" y="774.6226">AuthZ Engine</text><line style="stroke:#181818;stroke-width:1;" x1="491.6" x2="650.3998" y1="777.9244" y2="777.9244"/><text fill="#000000" font-family="sans-serif" font-size="14" lengthAdjust="spacing" textLength="140.7998" x="500.6" y="794.9195">AuthZ policy checks</text></g><!--entity RetrievalEngine--><g class="entity" data-entity="RetrievalEngine" data-source-line="94" data-uid="ent0014" id="entity_RetrievalEngine"><rect fill="#53A2BE" height="76.8906" rx="2.5" ry="2.5" style="stroke:#181818;stroke-width:0.5;" width="153.7656" x="302.12" y="743.4775"/><text fill="#000000" font-family="sans-serif" font-size="14" lengthAdjust="spacing" textLength="115.2744" x="312.12" y="766.4726">Retrieval Engine</text><line style="stroke:#181818;stroke-width:1;" x1="303.12" x2="454.8856" y1="769.7744" y2="769.7744"/><text fill="#000000" font-family="sans-serif" font-size="14" lengthAdjust="spacing" textLength="133.7656" x="312.12" y="786.7695">Retrieval of entries</text><text fill="#000000" font-family="sans-serif" font-size="14" lengthAdjust="spacing" textLength="92.5381" x="312.12" y="803.0664">from the URL</text></g><!--entity ConversionEngine--><g class="entity" data-entity="ConversionEngine" data-source-line="101" data-uid="ent0015" id="entity_ConversionEngine"><rect fill="#53A2BE" height="76.8906" rx="2.5" ry="2.5" style="stroke:#181818;stroke-width:0.5;" width="169.4131" x="23.29" y="743.4775"/><text fill="#000000" font-family="sans-serif" font-size="14" lengthAdjust="spacing" textLength="130.9219" x="33.29" y="766.4726">Conversion Engine</text><line style="stroke:#181818;stroke-width:1;" x1="24.29" x2="191.7031" y1="769.7744" y2="769.7744"/><text fill="#000000" font-family="sans-serif" font-size="14" lengthAdjust="spacing" textLength="149.4131" x="33.29" y="786.7695">Conversion of entries</text><text fill="#000000" font-family="sans-serif" font-size="14" lengthAdjust="spacing" textLength="119.2393" x="33.29" y="803.0664">between formats</text></g><!--entity BootstrapEngine--><g class="entity" data-entity="BootstrapEngine" data-source-line="108" data-uid="ent0016" id="entity_BootstrapEngine"><rect fill="#53A2BE" height="117.4844" rx="2.5" ry="2.5" style="stroke:#181818;stroke-width:0.5;" width="179.0244" x="760.49" y="723.1875"/><text fill="#000000" font-family="sans-serif" font-size="14" lengthAdjust="spacing" textLength="120.6611" x="770.49" y="746.1826">Bootstrap Engine</text><line style="stroke:#181818;stroke-width:1;" x1="761.49" x2="938.5144" y1="749.4844" y2="749.4844"/><text fill="#000000" font-family="sans-serif" font-size="14" lengthAdjust="spacing" textLength="111.166" x="770.49" y="766.4795">Implementation</text><text fill="#000000" font-family="sans-serif" font-size="14" lengthAdjust="spacing" textLength="127.4834" x="770.49" y="782.7764">of bootstrap steps</text><line style="stroke:#181818;stroke-width:1;stroke-dasharray:1,2;" x1="761.49" x2="938.5144" y1="790.0781" y2="790.0781"/><text fill="#000000" font-family="sans-serif" font-size="14" lengthAdjust="spacing" textLength="159.0244" x="770.49" y="807.0732">Initial admin accounts,</text><text fill="#000000" font-family="sans-serif" font-size="14" lengthAdjust="spacing" textLength="119.5742" x="770.49" y="823.3701">clients, identities</text></g><!--entity UserStorage--><g class="entity" data-entity="UserStorage" data-source-line="121" data-uid="ent0017" id="entity_UserStorage"><rect fill="#1D84B5" height="76.8906" rx="2.5" ry="2.5" style="stroke:#181818;stroke-width:0.5;" width="121.9854" x="510.01" y="900.6675"/><text fill="#000000" font-family="sans-serif" font-size="14" lengthAdjust="spacing" textLength="91.1367" x="520.01" y="923.6626">User Storage</text><line style="stroke:#181818;stroke-width:1;" x1="511.01" x2="630.9954" y1="926.9644" y2="926.9644"/><text fill="#000000" font-family="sans-serif" font-size="14" lengthAdjust="spacing" textLength="97.5352" x="520.01" y="943.9595">Store account</text><text fill="#000000" font-family="sans-serif" font-size="14" lengthAdjust="spacing" textLength="81.0469" x="520.01" y="960.2564">information</text></g><!--entity EntryStorage--><g class="entity" data-entity="EntryStorage" data-source-line="128" data-uid="ent0018" id="entity_EntryStorage"><rect fill="#1D84B5" height="76.8906" rx="2.5" ry="2.5" style="stroke:#181818;stroke-width:0.5;" width="116.4756" x="170.76" y="900.6675"/><text fill="#000000" font-family="sans-serif" font-size="14" lengthAdjust="spacing" textLength="96.4756" x="180.76" y="923.6626">Entry Storage</text><line style="stroke:#181818;stroke-width:1;" x1="171.76" x2="286.2356" y1="926.9644" y2="926.9644"/><text fill="#000000" font-family="sans-serif" font-size="14" lengthAdjust="spacing" textLength="90.2891" x="180.76" y="943.9595">Store entries</text><text fill="#000000" font-family="sans-serif" font-size="14" lengthAdjust="spacing" textLength="59.4043" x="180.76" y="960.2564">and files</text></g><!--entity BootstrapStorage--><g class="entity" data-entity="BootstrapStorage" data-source-line="135" data-uid="ent0019" id="entity_BootstrapStorage"><rect fill="#1D84B5" height="76.8906" rx="2.5" ry="2.5" style="stroke:#181818;stroke-width:0.5;" width="147.4561" x="667.27" y="900.6675"/><text fill="#000000" font-family="sans-serif" font-size="14" lengthAdjust="spacing" textLength="127.4561" x="677.27" y="923.6626">Bootstrap Storage</text><line style="stroke:#181818;stroke-width:1;" x1="668.27" x2="813.7261" y1="926.9644" y2="926.9644"/><text fill="#000000" font-family="sans-serif" font-size="14" lengthAdjust="spacing" textLength="104.6514" x="677.27" y="943.9595">Store the state</text><text fill="#000000" font-family="sans-serif" font-size="14" lengthAdjust="spacing" textLength="79.9668" x="677.27" y="960.2564">of boostrap</text></g><!--entity Users--><g class="entity" data-entity="Users" data-source-line="146" data-uid="ent0022" id="entity_Users"><rect fill="#F1F1F1" height="72.8906" rx="2.5" ry="2.5" style="stroke:#181818;stroke-width:0.5;" width="130.3447" x="261.83" y="1118.5575"/><rect fill="#F1F1F1" height="72.8906" rx="2.5" ry="2.5" style="stroke:#181818;stroke-width:0.5;" width="130.3447" x="257.83" y="1114.5575"/><text fill="#000000" font-family="sans-serif" font-size="14" lengthAdjust="spacing" textLength="39.2041" x="265.83" y="1135.5526">Users</text><line style="stroke:#181818;stroke-width:1;" x1="258.83" x2="391.1747" y1="1138.8544" y2="1138.8544"/><text fill="#000000" font-family="sans-serif" font-size="14" lengthAdjust="spacing" textLength="96.7832" x="265.83" y="1155.8495">Admin status,</text><text fill="#000000" font-family="sans-serif" font-size="14" lengthAdjust="spacing" textLength="114.3447" x="265.83" y="1172.1464">preferences etc.</text></g><!--entity Entries--><g class="entity" data-entity="Entries" data-source-line="153" data-uid="ent0023" id="entity_Entries"><rect fill="#F1F1F1" height="72.8906" rx="2.5" ry="2.5" style="stroke:#181818;stroke-width:0.5;" width="148.6514" x="74.67" y="1118.5575"/><rect fill="#F1F1F1" height="72.8906" rx="2.5" ry="2.5" style="stroke:#181818;stroke-width:0.5;" width="148.6514" x="70.67" y="1114.5575"/><text fill="#000000" font-family="sans-serif" font-size="14" lengthAdjust="spacing" textLength="48.7607" x="78.67" y="1135.5526">Entries</text><line style="stroke:#181818;stroke-width:1;" x1="71.67" x2="222.3214" y1="1138.8544" y2="1138.8544"/><text fill="#000000" font-family="sans-serif" font-size="14" lengthAdjust="spacing" textLength="132.6514" x="78.67" y="1155.8495">SQL-based storage</text><text fill="#000000" font-family="sans-serif" font-size="14" lengthAdjust="spacing" textLength="96.7012" x="78.67" y="1172.1464">for entry data</text></g><!--entity Boostrap--><g class="entity" data-entity="Boostrap" data-source-line="160" data-uid="ent0024" id="entity_Boostrap"><rect fill="#F1F1F1" height="56.5938" rx="2.5" ry="2.5" style="stroke:#181818;stroke-width:0.5;" width="118.6553" x="430.67" y="1126.7075"/><rect fill="#F1F1F1" height="56.5938" rx="2.5" ry="2.5" style="stroke:#181818;stroke-width:0.5;" width="118.6553" x="426.67" y="1122.7075"/><text fill="#000000" font-family="sans-serif" font-size="14" lengthAdjust="spacing" textLength="68.2295" x="434.67" y="1143.7026">Bootstrap</text><line style="stroke:#181818;stroke-width:1;" x1="427.67" x2="548.3253" y1="1147.0044" y2="1147.0044"/><text fill="#000000" font-family="sans-serif" font-size="14" lengthAdjust="spacing" textLength="102.6553" x="434.67" y="1163.9995">Boostrap state</text></g><!--entity UserInfo--><g class="entity" data-entity="UserInfo" data-source-line="168" data-uid="ent0026" id="entity_UserInfo"><rect fill="#F1F1F1" height="97.1875" rx="2.5" ry="2.5" style="stroke:#181818;stroke-width:0.5;" width="203.9473" x="609.03" y="1106.4075"/><rect fill="#F1F1F1" height="97.1875" rx="2.5" ry="2.5" style="stroke:#181818;stroke-width:0.5;" width="203.9473" x="605.03" y="1102.4075"/><text fill="#000000" font-family="sans-serif" font-size="14" lengthAdjust="spacing" textLength="62.8564" x="613.03" y="1123.4026">User Info</text><line style="stroke:#181818;stroke-width:1;" x1="606.03" x2="811.9773" y1="1126.7044" y2="1126.7044"/><text fill="#000000" font-family="sans-serif" font-size="14" lengthAdjust="spacing" textLength="132.6514" x="613.03" y="1143.6995">SQL-based storage</text><text fill="#000000" font-family="sans-serif" font-size="14" lengthAdjust="spacing" textLength="121.7549" x="613.03" y="1159.9964">for user accounts</text><line style="stroke:#181818;stroke-width:1;stroke-dasharray:1,2;" x1="606.03" x2="811.9773" y1="1167.2981" y2="1167.2981"/><text fill="#000000" font-family="sans-serif" font-size="14" lengthAdjust="spacing" textLength="187.9473" x="613.03" y="1184.2932">[UserID, Email, Passwords]</text></g><!--entity Tokens--><g class="entity" data-entity="Tokens" data-source-line="177" data-uid="ent0027" id="entity_Tokens"><rect fill="#F1F1F1" height="72.8906" rx="2.5" ry="2.5" style="stroke:#181818;stroke-width:0.5;" width="153.1016" x="852.45" y="1118.5575"/><rect fill="#F1F1F1" height="72.8906" rx="2.5" ry="2.5" style="stroke:#181818;stroke-width:0.5;" width="153.1016" x="848.45" y="1114.5575"/><text fill="#000000" font-family="sans-serif" font-size="14" lengthAdjust="spacing" textLength="50.0049" x="856.45" y="1135.5526">Tokens</text><line style="stroke:#181818;stroke-width:1;" x1="849.45" x2="1004.5516" y1="1138.8544" y2="1138.8544"/><text fill="#000000" font-family="sans-serif" font-size="14" lengthAdjust="spacing" textLength="132.6514" x="856.45" y="1155.8495">SQL-based storage</text><text fill="#000000" font-family="sans-serif" font-size="14" lengthAdjust="spacing" textLength="70.6426" x="856.45" y="1172.1464">for tokens</text></g><!--entity Clients--><g class="entity" data-entity="Clients" data-source-line="184" data-uid="ent0028" id="entity_Clients"><rect fill="#F1F1F1" height="72.8906" rx="2.5" ry="2.5" style="stroke:#181818;stroke-width:0.5;" width="141.8291" x="1044.09" y="1118.5575"/><rect fill="#F1F1F1" height="72.8906" rx="2.5" ry="2.5" style="stroke:#181818;stroke-width:0.5;" width="141.8291" x="1040.09" y="1114.5575"/><text fill="#000000" font-family="sans-serif" font-size="14" lengthAdjust="spacing" textLength="47.8242" x="1048.09" y="1135.5526">Clients</text><line style="stroke:#181818;stroke-width:1;" x1="1041.09" x2="1184.9191" y1="1138.8544" y2="1138.8544"/><text fill="#000000" font-family="sans-serif" font-size="14" lengthAdjust="spacing" textLength="121.3789" x="1048.09" y="1155.8495">Storage for client</text><text fill="#000000" font-family="sans-serif" font-size="14" lengthAdjust="spacing" textLength="77.5811" x="1048.09" y="1172.1464">credentials</text></g><!--entity IdentityManager--><g class="entity" data-entity="IdentityManager" data-source-line="195" data-uid="ent0030" id="entity_IdentityManager"><rect fill="#0A2239" height="117.4844" rx="2.5" ry="2.5" style="stroke:#FFFFFF;stroke-width:1;stroke-dasharray:1,3;" width="197.7754" x="972.11" y="545.6975"/><text fill="#D3D3D3" font-family="sans-serif" font-size="14" lengthAdjust="spacing" textLength="119.4717" x="982.11" y="568.6926">Identity Manager</text><line style="stroke:#FFFFFF;stroke-width:1;" x1="973.11" x2="1168.8854" y1="571.9944" y2="571.9944"/><text fill="#D3D3D3" font-family="sans-serif" font-size="14" lengthAdjust="spacing" textLength="163.8848" x="982.11" y="588.9895">Handles Authentication</text><line style="stroke:#FFFFFF;stroke-width:1;stroke-dasharray:1,2;" x1="973.11" x2="1168.8854" y1="596.2913" y2="596.2913"/><text fill="#D3D3D3" font-family="sans-serif" font-size="14" lengthAdjust="spacing" textLength="109.1699" x="982.11" y="613.2864">Provides claims</text><text fill="#D3D3D3" font-family="sans-serif" font-size="14" lengthAdjust="spacing" textLength="177.7754" x="982.11" y="629.5832">about authenticated user</text><text fill="#D3D3D3" font-family="sans-serif" font-size="14" lengthAdjust="spacing" textLength="103.5918" x="982.11" y="645.8801">[UserId, Email]</text></g><!--entity IdentityStorage--><g class="entity" data-entity="IdentityStorage" data-source-line="205" data-uid="ent0031" id="entity_IdentityStorage"><rect fill="#1D84B5" height="60.5938" rx="2.5" ry="2.5" style="stroke:#181818;stroke-width:0.5;" width="200.7627" x="971.62" y="908.8175"/><text fill="#000000" font-family="sans-serif" font-size="14" lengthAdjust="spacing" textLength="145.0381" x="981.62" y="931.8126">Identity SQL Storage</text><line style="stroke:#181818;stroke-width:1;" x1="972.62" x2="1171.3827" y1="935.1144" y2="935.1144"/><text fill="#000000" font-family="sans-serif" font-size="14" lengthAdjust="spacing" textLength="180.7627" x="981.62" y="952.1095">Store identity-related info</text></g><!--entity User--><g class="entity" data-entity="User" data-source-line="15" data-uid="ent0002" id="entity_User"><ellipse cx="631.9951" cy="119.8275" fill="#F1F1F1" rx="8" ry="8" style="stroke:#181818;stroke-width:0.5;"/><path d="M631.9951,127.8275 L631.9951,154.8275 M618.9951,135.8275 L644.9951,135.8275 M631.9951,154.8275 L618.9951,169.8275 M631.9951,154.8275 L644.9951,169.8275" fill="none" style="stroke:#181818;stroke-width:0.5;"/><text fill="#000000" font-family="sans-serif" font-size="14" lengthAdjust="spacing" textLength="31.9102" x="616.04" y="184.3226">User</text></g><!--entity KOReader--><g class="entity" data-entity="KOReader" data-source-line="19" data-uid="ent0003" id="entity_KOReader"><rect fill="#F1F1F1" height="70.5938" rx="2.5" ry="2.5" style="stroke:#181818;stroke-width:0.5;" width="115.1338" x="844.43" y="114.1775"/><rect fill="#F1F1F1" height="10" style="stroke:#181818;stroke-width:0.5;" width="15" x="939.5638" y="119.1775"/><rect fill="#F1F1F1" height="2" style="stroke:#181818;stroke-width:0.5;" width="4" x="937.5638" y="121.1775"/><rect fill="#F1F1F1" height="2" style="stroke:#181818;stroke-width:0.5;" width="4" x="937.5638" y="125.1775"/><text fill="#000000" font-family="sans-serif" font-size="14" lengthAdjust="spacing" textLength="70.376" x="859.43" y="147.1726">KOReader</text><line style="stroke:#181818;stroke-width:1;stroke-dasharray:1,2;" x1="845.43" x2="958.5638" y1="150.4744" y2="150.4744"/><text fill="#000000" font-family="sans-serif" font-size="14" lengthAdjust="spacing" textLength="75.1338" x="859.43" y="167.4695">Kindle App</text></g><!--entity WallabagAndroid--><g class="entity" data-entity="WallabagAndroid" data-source-line="25" data-uid="ent0004" id="entity_WallabagAndroid"><rect fill="#F1F1F1" height="70.5938" rx="2.5" ry="2.5" style="stroke:#181818;stroke-width:0.5;" width="126.2354" x="682.88" y="114.1775"/><rect fill="#F1F1F1" height="10" style="stroke:#181818;stroke-width:0.5;" width="15" x="789.1154" y="119.1775"/><rect fill="#F1F1F1" height="2" style="stroke:#181818;stroke-width:0.5;" width="4" x="787.1154" y="121.1775"/><rect fill="#F1F1F1" height="2" style="stroke:#181818;stroke-width:0.5;" width="4" x="787.1154" y="125.1775"/><text fill="#000000" font-family="sans-serif" font-size="14" lengthAdjust="spacing" textLength="65.1328" x="697.88" y="147.1726">Wallabag</text><line style="stroke:#181818;stroke-width:1;stroke-dasharray:1,2;" x1="683.88" x2="808.1154" y1="150.4744" y2="150.4744"/><text fill="#000000" font-family="sans-serif" font-size="14" lengthAdjust="spacing" textLength="86.2354" x="697.88" y="167.4695">Android App</text></g><!--link User to KOReader--><g class="link" data-entity-1="User" data-entity-2="KOReader" data-source-line="216" data-uid="lnk32" id="link_User_KOReader"><path codeLine="216" d="M648.42,115.3675 C656.67,102.2175 668.03,88.6075 682.5,81.3275 C732.91,55.9375 755.88,63.7075 809.5,81.3275 C829.78,87.9875 844.6057,97.2011 860.4257,110.0711" fill="none" id="User-to-KOReader" style="stroke:#181818;stroke-width:1;"/><polygon fill="#181818" points="865.08,113.8575,860.6228,105.075,861.2014,110.7021,855.5742,111.2807,865.08,113.8575" style="stroke:#181818;stroke-width:1;"/></g><!--link KOReader to HTTPAPI--><g class="link" data-entity-1="KOReader" data-entity-2="HTTPAPI" data-source-line="217" data-uid="lnk33" id="link_KOReader_HTTPAPI"><path codeLine="217" d="M880.14,185.0275 C867.83,204.4775 855.8291,223.4478 844.0491,242.0578" fill="none" id="KOReader-to-HTTPAPI" style="stroke:#181818;stroke-width:1;"/><polygon fill="#181818" points="840.84,247.1275,849.0334,241.6623,843.5142,242.9028,842.2738,237.3836,840.84,247.1275" style="stroke:#181818;stroke-width:1;"/></g><!--link User to WebUI--><g class="link" data-entity-1="User" data-entity-2="WebUI" data-source-line="218" data-uid="lnk34" id="link_User_WebUI"><path codeLine="218" d="M632,188.0675 C632,206.9975 632,223.6075 632,241.2875" fill="none" id="User-to-WebUI" style="stroke:#181818;stroke-width:1;"/><polygon fill="#181818" points="632,247.2875,636,238.2875,632,242.2875,628,238.2875,632,247.2875" style="stroke:#181818;stroke-width:1;"/></g><!--link User to WallabagAndroid--><g class="link" data-entity-1="User" data-entity-2="WallabagAndroid" data-source-line="219" data-uid="lnk35" id="link_User_WallabagAndroid"><path codeLine="219" d="M648.03,149.4775 C659.51,149.4775 664.99,149.4775 676.47,149.4775" fill="none" id="User-to-WallabagAndroid" style="stroke:#181818;stroke-width:1;"/><polygon fill="#181818" points="682.47,149.4775,673.47,145.4775,677.47,149.4775,673.47,153.4775,682.47,149.4775" style="stroke:#181818;stroke-width:1;"/></g><!--link WallabagAndroid to HTTPAPI--><g class="link" data-entity-1="WallabagAndroid" data-entity-2="HTTPAPI" data-source-line="220" data-uid="lnk36" id="link_WallabagAndroid_HTTPAPI"><path codeLine="220" d="M766.77,185.0275 C778.46,204.4775 789.8182,223.3755 801.0082,241.9855" fill="none" id="WallabagAndroid-to-HTTPAPI" style="stroke:#181818;stroke-width:1;"/><polygon fill="#181818" points="804.1,247.1275,802.8902,237.3532,801.5235,242.8425,796.0342,241.4757,804.1,247.1275" style="stroke:#181818;stroke-width:1;"/></g><!--link WebUI to HTTPAPI--><g class="link" data-entity-1="WebUI" data-entity-2="HTTPAPI" data-source-line="222" data-uid="lnk37" id="link_WebUI_HTTPAPI"><path codeLine="222" d="M706.59,277.9175 C718.16,277.9175 729.73,277.9175 741.3,277.9175" fill="none" id="WebUI-HTTPAPI" style="stroke:#181818;stroke-width:1;"/></g><!--link HTTPAPI to AuthNMiddleware--><g class="link" data-entity-1="HTTPAPI" data-entity-2="AuthNMiddleware" data-source-line="224" data-uid="lnk38" id="link_HTTPAPI_AuthNMiddleware"><path codeLine="224" d="M776.27,308.6775 C750.08,325.7075 721.3489,344.3949 690.1389,364.7049" fill="none" id="HTTPAPI-to-AuthNMiddleware" style="stroke:#181818;stroke-width:1;stroke-dasharray:7,7;"/><polygon fill="#181818" points="685.11,367.9775,694.8351,366.4212,689.3008,365.2503,690.4717,359.716,685.11,367.9775" style="stroke:#181818;stroke-width:1;"/></g><!--link HTTPAPI to IdentityManager--><g class="link" data-entity-1="HTTPAPI" data-entity-2="IdentityManager" data-source-line="225" data-uid="lnk39" id="link_HTTPAPI_IdentityManager"><path codeLine="225" d="M844.76,308.5775 C885.82,362.0875 969.3175,470.9173 1022.6675,540.4473" fill="none" id="HTTPAPI-to-IdentityManager" style="stroke:#181818;stroke-width:1;"/><polygon fill="#181818" points="1026.32,545.2075,1024.0148,535.6322,1023.2763,541.2407,1017.6678,540.5022,1026.32,545.2075" style="stroke:#181818;stroke-width:1;"/></g><!--link HTTPAPI to BootstrapManager--><g class="link" data-entity-1="HTTPAPI" data-entity-2="BootstrapManager" data-source-line="226" data-uid="lnk40" id="link_HTTPAPI_BootstrapManager"><path codeLine="226" d="M822,308.5775 C822,364.2775 822,479.0775 822,547.5175" fill="none" id="HTTPAPI-to-BootstrapManager" style="stroke:#181818;stroke-width:1;"/><polygon fill="#181818" points="822,553.5175,826,544.5175,822,548.5175,818,544.5175,822,553.5175" style="stroke:#181818;stroke-width:1;"/></g><!--link AuthNMiddleware to IdentityManager--><g class="link" data-entity-1="AuthNMiddleware" data-entity-2="IdentityManager" data-source-line="229" data-uid="lnk41" id="link_AuthNMiddleware_IdentityManager"><path codeLine="229" d="M705.7,433.5375 C782.86,441.2875 886.47,459.5975 968,502.6975 C988.23,513.3975 1002.9266,525.0656 1018.8966,541.1056" fill="none" id="AuthNMiddleware-to-IdentityManager" style="stroke:#181818;stroke-width:1;"/><polygon fill="#181818" points="1023.13,545.3575,1019.6146,536.1574,1019.6022,541.8142,1013.9454,541.8019,1023.13,545.3575" style="stroke:#181818;stroke-width:1;"/></g><!--link AuthNMiddleware to EntryManager--><g class="link" data-entity-1="AuthNMiddleware" data-entity-2="EntryManager" data-source-line="230" data-uid="lnk42" id="link_AuthNMiddleware_EntryManager"><path codeLine="230" d="M522.07,485.8675 C515.82,491.4075 509.71,497.0575 504,502.6975 C481.31,525.0975 462.004,548.3916 445.824,569.1916" fill="none" id="AuthNMiddleware-to-EntryManager" style="stroke:#181818;stroke-width:1;stroke-dasharray:7,7;"/><polygon fill="#181818" points="442.14,573.9275,450.8232,569.2797,445.21,569.9809,444.5087,564.3677,442.14,573.9275" style="stroke:#181818;stroke-width:1;"/></g><!--link AuthNMiddleware to ConversionManager--><g class="link" data-entity-1="AuthNMiddleware" data-entity-2="ConversionManager" data-source-line="231" data-uid="lnk43" id="link_AuthNMiddleware_ConversionManager"><path codeLine="231" d="M485.92,448.7075 C439.3,460.3575 385.56,477.7075 341,502.6975 C311.72,519.1175 287.932,540.2553 267.402,561.4753" fill="none" id="AuthNMiddleware-to-ConversionManager" style="stroke:#181818;stroke-width:1;stroke-dasharray:7,7;"/><polygon fill="#181818" points="263.23,565.7875,272.3627,562.1005,266.7066,562.194,266.6131,556.5379,263.23,565.7875" style="stroke:#181818;stroke-width:1;"/></g><!--link AuthNMiddleware to AdminManager--><g class="link" data-entity-1="AuthNMiddleware" data-entity-2="AdminManager" data-source-line="232" data-uid="lnk44" id="link_AuthNMiddleware_AdminManager"><path codeLine="232" d="M596,485.9075 C596,515.4575 596,544.1175 596,568.1075" fill="none" id="AuthNMiddleware-to-AdminManager" style="stroke:#181818;stroke-width:1;stroke-dasharray:7,7;"/><polygon fill="#181818" points="596,574.1075,600,565.1075,596,569.1075,592,565.1075,596,574.1075" style="stroke:#181818;stroke-width:1;"/></g><!--link BootstrapManager to BootstrapStorage--><g class="link" data-entity-1="BootstrapManager" data-entity-2="BootstrapStorage" data-source-line="235" data-uid="lnk45" id="link_BootstrapManager_BootstrapStorage"><path codeLine="235" d="M779.11,655.3875 C764.75,675.1675 750.5,698.9575 743,723.1875 C724.52,782.8975 728.6134,850.5254 734.1734,894.2654" fill="none" id="BootstrapManager-to-BootstrapStorage" style="stroke:#181818;stroke-width:1;"/><polygon fill="#181818" points="734.93,900.2175,737.7632,890.7849,734.2995,895.2574,729.827,891.7937,734.93,900.2175" style="stroke:#181818;stroke-width:1;"/></g><!--link BootstrapManager to BootstrapEngine--><g class="link" data-entity-1="BootstrapManager" data-entity-2="BootstrapEngine" data-source-line="236" data-uid="lnk46" id="link_BootstrapManager_BootstrapEngine"><path codeLine="236" d="M829.95,655.2575 C833.31,676.3375 836.3053,695.1023 839.7953,716.9923" fill="none" id="BootstrapManager-to-BootstrapEngine" style="stroke:#181818;stroke-width:1;"/><polygon fill="#181818" points="840.74,722.9175,843.2731,713.4,839.9528,717.9799,835.3729,714.6595,840.74,722.9175" style="stroke:#181818;stroke-width:1;"/></g><!--link EntryManager to RetrievalEngine--><g class="link" data-entity-1="EntryManager" data-entity-2="RetrievalEngine" data-source-line="238" data-uid="lnk47" id="link_EntryManager_RetrievalEngine"><path codeLine="238" d="M413.04,635.2075 C406.1,664.9375 396.7657,704.895 389.2157,737.195" fill="none" id="EntryManager-to-RetrievalEngine" style="stroke:#181818;stroke-width:1;"/><polygon fill="#181818" points="387.85,743.0375,393.7935,735.1842,388.9881,738.1687,386.0035,733.3633,387.85,743.0375" style="stroke:#181818;stroke-width:1;"/></g><!--link EntryManager to AuthZEngine--><g class="link" data-entity-1="EntryManager" data-entity-2="AuthZEngine" data-source-line="239" data-uid="lnk48" id="link_EntryManager_AuthZEngine"><path codeLine="239" d="M445.62,635.2075 C473.47,667.5775 513.7967,714.4493 541.5967,746.7593" fill="none" id="EntryManager-to-AuthZEngine" style="stroke:#181818;stroke-width:1;stroke-dasharray:7,7;"/><polygon fill="#181818" points="545.51,751.3075,542.6721,741.8764,542.2489,747.5174,536.6079,747.0941,545.51,751.3075" style="stroke:#181818;stroke-width:1;"/></g><!--link EntryManager to EntryStorage--><g class="link" data-entity-1="EntryManager" data-entity-2="EntryStorage" data-source-line="240" data-uid="lnk49" id="link_EntryManager_EntryStorage"><path codeLine="240" d="M373.49,635.0975 C343.97,656.2375 307.26,687.2175 285,723.1875 C250.5,778.9275 237.8042,849.4555 232.7042,894.5555" fill="none" id="EntryManager-to-EntryStorage" style="stroke:#181818;stroke-width:1;"/><polygon fill="#181818" points="232.03,900.5175,237.016,892.024,232.5918,895.5492,229.0666,891.125,232.03,900.5175" style="stroke:#181818;stroke-width:1;"/></g><!--link AdminManager to AuthZEngine--><g class="link" data-entity-1="AdminManager" data-entity-2="AuthZEngine" data-source-line="242" data-uid="lnk50" id="link_AdminManager_AuthZEngine"><path codeLine="242" d="M591.76,635.2075 C587.15,667.5775 580.6657,713.0574 576.0657,745.3674" fill="none" id="AdminManager-to-AuthZEngine" style="stroke:#181818;stroke-width:1;stroke-dasharray:7,7;"/><polygon fill="#181818" points="575.22,751.3075,580.4486,742.9611,575.9247,746.3574,572.5285,741.8336,575.22,751.3075" style="stroke:#181818;stroke-width:1;"/></g><!--link AdminManager to UserStorage--><g class="link" data-entity-1="AdminManager" data-entity-2="UserStorage" data-source-line="243" data-uid="lnk51" id="link_AdminManager_UserStorage"><path codeLine="243" d="M620.97,635.1475 C638.21,657.7075 659.64,690.3375 669,723.1875 C683.3,773.3975 689.05,792.4575 669,840.6675 C659.42,863.7075 645.9164,880.1011 627.9564,896.2111" fill="none" id="AdminManager-to-UserStorage" style="stroke:#181818;stroke-width:1;"/><polygon fill="#181818" points="623.49,900.2175,632.8606,897.1856,627.212,896.8789,627.5187,891.2303,623.49,900.2175" style="stroke:#181818;stroke-width:1;"/></g><!--link ConversionManager to ConversionEngine--><g class="link" data-entity-1="ConversionManager" data-entity-2="ConversionEngine" data-source-line="245" data-uid="lnk52" id="link_ConversionManager_ConversionEngine"><path codeLine="245" d="M203.83,643.0875 C183.31,672.5975 158.3252,708.5413 137.7652,738.1113" fill="none" id="ConversionManager-to-ConversionEngine" style="stroke:#181818;stroke-width:1;"/><polygon fill="#181818" points="134.34,743.0375,142.762,737.9316,137.1943,738.9323,136.1937,733.3647,134.34,743.0375" style="stroke:#181818;stroke-width:1;"/></g><!--link ConversionManager to AuthZEngine--><g class="link" data-entity-1="ConversionManager" data-entity-2="AuthZEngine" data-source-line="246" data-uid="lnk53" id="link_ConversionManager_AuthZEngine"><path codeLine="246" d="M301.37,643.2775 C314.49,650.0275 328.11,656.9075 341,663.1875 C398.94,691.3975 415.83,693.4475 473,723.1875 C489.64,731.8375 502.273,738.9507 518.063,748.3407" fill="none" id="ConversionManager-to-AuthZEngine" style="stroke:#181818;stroke-width:1;stroke-dasharray:7,7;"/><polygon fill="#181818" points="523.22,751.4075,517.529,743.3693,518.9225,748.8519,513.4399,750.2453,523.22,751.4075" style="stroke:#181818;stroke-width:1;"/></g><!--link ConversionManager to EntryStorage--><g class="link" data-entity-1="ConversionManager" data-entity-2="EntryStorage" data-source-line="247" data-uid="lnk54" id="link_ConversionManager_EntryStorage"><path codeLine="247" d="M229.89,643.2775 C229.69,707.3075 229.3287,830.2975 229.1287,894.3075" fill="none" id="ConversionManager-to-EntryStorage" style="stroke:#181818;stroke-width:1;"/><polygon fill="#181818" points="229.11,900.3075,233.1381,891.32,229.1256,895.3075,225.1381,891.295,229.11,900.3075" style="stroke:#181818;stroke-width:1;"/></g><!--link AuthZEngine to UserStorage--><g class="link" data-entity-1="AuthZEngine" data-entity-2="UserStorage" data-source-line="250" data-uid="lnk55" id="link_AuthZEngine_UserStorage"><path codeLine="250" d="M571,812.4775 C571,837.4575 571,867.3775 571,894.4175" fill="none" id="AuthZEngine-to-UserStorage" style="stroke:#181818;stroke-width:1;"/><polygon fill="#181818" points="571,900.4175,575,891.4175,571,895.4175,567,891.4175,571,900.4175" style="stroke:#181818;stroke-width:1;"/></g><!--link BootstrapEngine to BootstrapStorage--><g class="link" data-entity-1="BootstrapEngine" data-entity-2="BootstrapStorage" data-source-line="251" data-uid="lnk56" id="link_BootstrapEngine_BootstrapStorage"><path codeLine="251" d="M809.1,841.1575 C795.21,860.9375 783.4965,877.5961 771.0265,895.3661" fill="none" id="BootstrapEngine-to-BootstrapStorage" style="stroke:#181818;stroke-width:1;"/><polygon fill="#181818" points="767.58,900.2775,776.024,895.2081,770.4521,896.1847,769.4755,890.6128,767.58,900.2775" style="stroke:#181818;stroke-width:1;"/></g><!--link BootstrapEngine to IdentityStorage--><g class="link" data-entity-1="BootstrapEngine" data-entity-2="IdentityStorage" data-source-line="252" data-uid="lnk57" id="link_BootstrapEngine_IdentityStorage"><path codeLine="252" d="M933.3,841.1575 C966.02,864.0275 997.2627,885.8695 1024.4527,904.8795" fill="none" id="BootstrapEngine-to-IdentityStorage" style="stroke:#181818;stroke-width:1;"/><polygon fill="#181818" points="1029.37,908.3175,1024.286,899.8823,1025.2722,905.4525,1019.702,906.4388,1029.37,908.3175" style="stroke:#181818;stroke-width:1;"/></g><!--link BootstrapEngine to UserStorage--><g class="link" data-entity-1="BootstrapEngine" data-entity-2="UserStorage" data-source-line="253" data-uid="lnk58" id="link_BootstrapEngine_UserStorage"><path codeLine="253" d="M760.19,832.8775 C718.45,856.0975 675.1336,880.1911 637.6636,901.0311" fill="none" id="BootstrapEngine-to-UserStorage" style="stroke:#181818;stroke-width:1;"/><polygon fill="#181818" points="632.42,903.9475,642.2296,903.0687,636.7896,901.5172,638.3411,896.0773,632.42,903.9475" style="stroke:#181818;stroke-width:1;"/></g><!--link EntryStorage to Entries--><g class="link" data-entity-1="EntryStorage" data-entity-2="Entries" data-source-line="256" data-uid="lnk59" id="link_EntryStorage_Entries"><path codeLine="256" d="M214.34,977.9975 C199.46,1016.4475 178.715,1070.0417 163.835,1108.5017" fill="none" id="EntryStorage-to-Entries" style="stroke:#181818;stroke-width:1;"/><polygon fill="#181818" points="161.67,1114.0975,168.648,1107.1471,163.4742,1109.4343,161.187,1104.2605,161.67,1114.0975" style="stroke:#181818;stroke-width:1;"/></g><!--link BootstrapStorage to Boostrap--><g class="link" data-entity-1="BootstrapStorage" data-entity-2="Boostrap" data-source-line="257" data-uid="lnk60" id="link_BootstrapStorage_Boostrap"><path codeLine="257" d="M683.5,977.9775 C672.41,983.9475 660.62,989.4475 649,993.4075 C623.54,1002.0975 611.85,987.2075 589,1001.4075 C543.42,1029.7475 516.0673,1081.603 501.3373,1116.783" fill="none" id="BootstrapStorage-to-Boostrap" style="stroke:#181818;stroke-width:1;"/><polygon fill="#181818" points="499.02,1122.3175,506.1856,1115.5607,500.9511,1117.7055,498.8063,1112.471,499.02,1122.3175" style="stroke:#181818;stroke-width:1;"/></g><!--link UserStorage to Users--><g class="link" data-entity-1="UserStorage" data-entity-2="Users" data-source-line="258" data-uid="lnk61" id="link_UserStorage_Users"><path codeLine="258" d="M509.51,952.5475 C476.75,961.6675 437.46,976.8575 409,1001.4075 C373.87,1031.7175 352.631,1074.9363 339.651,1108.7363" fill="none" id="UserStorage-to-Users" style="stroke:#181818;stroke-width:1;"/><polygon fill="#181818" points="337.5,1114.3375,344.4606,1107.3697,339.2925,1109.6698,336.9924,1104.5017,337.5,1114.3375" style="stroke:#181818;stroke-width:1;"/></g><!--link IdentityManager to IdentityStorage--><g class="link" data-entity-1="IdentityManager" data-entity-2="IdentityStorage" data-source-line="262" data-uid="lnk62" id="link_IdentityManager_IdentityStorage"><path codeLine="262" d="M1071.17,663.3875 C1071.39,734.8775 1071.7325,847.6675 1071.8925,902.5875" fill="none" id="IdentityManager-to-IdentityStorage" style="stroke:#181818;stroke-width:1;"/><polygon fill="#181818" points="1071.91,908.5875,1075.8838,899.5759,1071.8954,903.5875,1067.8838,899.5992,1071.91,908.5875" style="stroke:#181818;stroke-width:1;"/></g><!--link IdentityStorage to UserInfo--><g class="link" data-entity-1="IdentityStorage" data-entity-2="UserInfo" data-source-line="263" data-uid="lnk63" id="link_IdentityStorage_UserInfo"><path codeLine="263" d="M1024.24,969.8475 C1007.12,979.0575 987.28,988.1575 968,993.4075 C938.58,1001.4275 858.13,987.4875 831,1001.4075 C788.49,1023.2275 758.6841,1062.0308 737.8241,1096.8408" fill="none" id="IdentityStorage-to-UserInfo" style="stroke:#181818;stroke-width:1;"/><polygon fill="#181818" points="734.74,1101.9875,742.7973,1096.3236,737.3101,1097.6986,735.9351,1092.2114,734.74,1101.9875" style="stroke:#181818;stroke-width:1;"/></g><!--link IdentityStorage to Clients--><g class="link" data-entity-1="IdentityStorage" data-entity-2="Clients" data-source-line="264" data-uid="lnk64" id="link_IdentityStorage_Clients"><path codeLine="264" d="M1077.7,969.5775 C1085.01,1007.3275 1096.54,1066.9368 1104.55,1108.3268" fill="none" id="IdentityStorage-to-Clients" style="stroke:#181818;stroke-width:1;"/><polygon fill="#181818" points="1105.69,1114.2175,1107.9071,1104.6214,1104.74,1109.3086,1100.0529,1106.1414,1105.69,1114.2175" style="stroke:#181818;stroke-width:1;"/></g><!--link IdentityStorage to Tokens--><g class="link" data-entity-1="IdentityStorage" data-entity-2="Tokens" data-source-line="265" data-uid="lnk65" id="link_IdentityStorage_Tokens"><path codeLine="265" d="M1047.17,969.8575 C1039.22,979.7275 1030.53,990.8875 1023,1001.4075 C996.3,1038.7275 971.5086,1078.1117 952.7086,1109.0117" fill="none" id="IdentityStorage-to-Tokens" style="stroke:#181818;stroke-width:1;"/><polygon fill="#181818" points="949.59,1114.1375,957.6852,1108.5278,952.1889,1109.866,950.8507,1104.3697,949.59,1114.1375" style="stroke:#181818;stroke-width:1;"/></g><!--SRC=[hLTTJoCt57sVN-5kAl5248NIfQoA127gHWjj2aHK81wS6IUnc8mZsu56gF-zr_ROOtkS8QqwBt7iOz-lu-jx9PKbGG-uBF4KpnaQiEMALQII8biGN12ESZk32ehd72-pR0_ToKr9HFRTzpUumdD0_O8-JN7-SdQ8ZuwEV_uYoL_ox9hE5_9NJZPVIbgHixS5bKGF3mec9Ia-mVvXDOS9j_ta61zDYTb-MSACmjn9na680_rGdFuuFOb0Oy855P9KkGSyFYB7HmRuuAIReTepmFd2Gt_-wV3qytRq3IsAahnXxcqvF3ayFTo-vM8ysl5uyEcWfDhlE0TxqKI0Lvyo19yQPizPraJYs- -t9ZW6OF_gFmVmcLbQWRxeOhKADzjWNrG5PxIepx2puHaMi_KGXjurS0-1hNh4IIvnDGV9N-_lnye3FUq78yONnJJ2RLHV7pxtHwykiBA22pqBAeGY7iXqqYK0rj5aw_4tVsg0CiuxVGyraTOJAyvo8WIwMCl5RnuBUZub6kaQ5f_HagvGu4YQOqbPXO28-Oj0CyOT0iHAC9GKOAzWQmuwk3KNe9eV1PeIsDl88g-4RxmZwdiQsMacHUJKYs99AtknU-wAUnOgG71aopnDNuDOWfbMRYHfM4c-wPAa0TsI36HmExbAKsJ0gbUL6rYdIGrg5scvGxi5oT1mFBb4HEO7QKKk6PD2ShpgqiE1kjK0ofQMEbEx9SsEWM8MehC6XwX05I45AHm8BXdYwqeW82MiARfZi1FowKg4d349ExPDiVcnpkKzczJ3A_5ejswz3ezenS2gJNqPqbwy9P9JyehBxT8Sf5DYWs8p11I5Fytzcd6srBwOt5v_HAljYdYawjB4WoLKcHBvHaYbKiCII_41jxOhqp2hIvVHSbNg6wkvvQQPJv-65IsoZIegARWKwmo1yvojuKdRT-kvUUFs4IrKyfFMK4Ul-grlPGgLJsmTq7CLmLEOR-pcf6LgaLYLa9kcbN6iydxQj_hATyasEM47uNLeKN3jPhGa7qMrIteJrnqqK9GM45iIHRR97ouILrXYCovWDCM2w2azw0Nbrhixp4i8NeBQXjQ4O6K9cm0cT0o5PvaVMz6Q3QmBNoPbuTfZNVEYaXdXIWlHv6dxrOQd51lMSMkhDemkQwToTtzSzvNx2b0mZ9HBEr3u4SqcvVDTrRkiuvVGxxBrDdHgw4uAEMBasz7VMIBU8tEVD_ygs2EuUrlYZTJQ_-dMjJhK9gGM8aXYzdlIEbxje-4Iqt8VZR4GRumNuddNoDop5m8_2HlDodyq42Kjb4ROhhhLxKP2Dzk8xAPShPBIm6JtjdOv9veUk1JTdAf_cZR3qchCsIjL3K_Fz8zOB4XX6gW2ynTH0bsXDzsOzYgOUkzWQrSbffypo-gu64kwuwjkLKHKscUTFAiD4-0xJ9UXU_2KhIN2pMd004NZh4tIeYPfuz7dhblQzPu4TWFrMizAqdRplDIl-gRFIQdLfVujVhP1XZ2hVfTLLKt6J5_v_ddJoReEjm-pTIDPes12jtrkKzJGPd63wnzX-bJJDlRTR6PRrOE3yxZDSsjzTKx4d70nhl2LbTv1SV-OEY_6A8NyBYa9QBKuIPJVrcdDRFVNQan2Ospy4x3pkF3Cig2bKuYeO0y1rj-FgKMjXbzzPLdGciQRWqMzsQiQiwpT22f8NCSdOB6Sr44jJMsd93A_DugLYklsRiTxeEWc9p61zKrf7TIpLd5LnBJApLeRKq3u5RWzNUYB77CupgxzbC9nAh97wdS_jMXVfTIQUKt_0G00]--></g></svg>