<svg xmlns="http://www.w3.org/2000/svg" xmlns:xlink="http://www.w3.org/1999/xlink" contentStyleType="text/css" data-diagram-type="CLASS" height="1174px" preserveAspectRatio="none" style="width:1395px;height:1174px;background:#FFFFFF;" version="1.1" viewBox="0 0 1395 1174" width="1395px" zoomAndPan="magnify"><title>Wallabago Components</title><defs/><g><g class="header" data-source-line="3"><text fill="#888888" font-family="sans-serif" font-size="10" lengthAdjust="spacing" textLength="101.333" x="1279.667" y="9.2822">component diagram</text></g><g class="title" data-source-line="2"><text fill="#000000" font-family="sans-serif" font-size="14" font-weight="bold" lengthAdjust="spacing" textLength="186.4912" x="597.2544" y="35.6357">Wallabago Components</text></g><!--cluster Wallabago--><g class="cluster" data-entity="Wallabago" data-source-line="31" data-uid="ent0005" id="cluster_Wallabago"><rect fill="none" height="955.53" rx="2.5" ry="2.5" style="stroke:#181818;stroke-width:1;" width="1382" x="7" y="212.6275"/><rect fill="none" height="10" style="stroke:#181818;stroke-width:1;" width="15" x="1369" y="217.6275"/><rect fill="none" height="2" style="stroke:#181818;stroke-width:1;" width="4" x="1367" y="219.6275"/><rect fill="none" height="2" style="stroke:#181818;stroke-width:1;" width="4" x="1367" y="223.6275"/><text fill="#000000" font-family="sans-serif" font-size="14" font-weight="bold" lengthAdjust="spacing" textLength="83.043" x="656.4785" y="238.6226">Wallabago</text></g><!--cluster AppDatabase--><g class="cluster" data-entity="AppDatabase" data-source-line="118" data-uid="ent0017" id="cluster_AppDatabase"><path d="M828,975.1175 C828,965.1175 1004.5,965.1175 1004.5,965.1175 C1004.5,965.1175 1181,965.1175 1181,975.1175 L1181,1098.0075 C1181,1108.0075 1004.5,1108.0075 1004.5,1108.0075 C1004.5,1108.0075 828,1108.0075 828,1098.0075 L828,975.1175" fill="#132E32" style="stroke:#FFFFFF;stroke-width:1;"/><path d="M828,975.1175 C828,985.1175 1004.5,985.1175 1004.5,985.1175 C1004.5,985.1175 1181,985.1175 1181,975.1175" fill="none" style="stroke:#FFFFFF;stroke-width:1;"/><text fill="#FFFFFF" font-family="sans-serif" font-size="14" font-weight="bold" lengthAdjust="spacing" textLength="105.3828" x="951.8086" y="1000.1126">AppDatabase</text></g><!--cluster IdentityProvider--><g class="cluster" data-entity="IdentityProvider" data-source-line="133" data-uid="ent0020" id="cluster_IdentityProvider"><rect fill="none" height="633.45" rx="2.5" ry="2.5" style="stroke:#181818;stroke-width:1;" width="661" x="31" y="510.7075"/><rect fill="none" height="10" style="stroke:#181818;stroke-width:1;" width="15" x="672" y="515.7075"/><rect fill="none" height="2" style="stroke:#181818;stroke-width:1;" width="4" x="670" y="517.7075"/><rect fill="none" height="2" style="stroke:#181818;stroke-width:1;" width="4" x="670" y="521.7075"/><text fill="#000000" font-family="sans-serif" font-size="14" font-weight="bold" lengthAdjust="spacing" textLength="129.1309" x="296.9346" y="536.7026">IdentityProvider</text></g><!--cluster IdentityDatabase--><g class="cluster" data-entity="IdentityDatabase" data-source-line="150" data-uid="ent0023" id="cluster_IdentityDatabase"><path d="M55,962.9675 C55,952.9675 361.5,952.9675 361.5,952.9675 C361.5,952.9675 668,952.9675 668,962.9675 L668,1110.1575 C668,1120.1575 361.5,1120.1575 361.5,1120.1575 C361.5,1120.1575 55,1120.1575 55,1110.1575 L55,962.9675" fill="#132E32" style="stroke:#FFFFFF;stroke-width:1;"/><path d="M55,962.9675 C55,972.9675 361.5,972.9675 361.5,972.9675 C361.5,972.9675 668,972.9675 668,962.9675" fill="none" style="stroke:#FFFFFF;stroke-width:1;"/><text fill="#FFFFFF" font-family="sans-serif" font-size="14" font-weight="bold" lengthAdjust="spacing" textLength="136.5068" x="293.2466" y="987.9626">IdentityDatabase</text></g><!--entity HTTPAPI--><g class="entity" data-entity="HTTPAPI" data-source-line="33" data-uid="ent0006" id="entity_HTTPAPI"><rect fill="#176087" height="60.5938" rx="2.5" ry="2.5" style="stroke:#FFFFFF;stroke-width:0.5;" width="160.8203" x="730.59" y="247.6275"/><text fill="#FFFFFF" font-family="sans-serif" font-size="14" lengthAdjust="spacing" textLength="140.8203" x="740.59" y="270.6226">Wallabago HTTP API</text><line style="stroke:#FFFFFF;stroke-width:1;" x1="731.59" x2="890.4103" y1="273.9244" y2="273.9244"/><text fill="#FFFFFF" font-family="sans-serif" font-size="14" lengthAdjust="spacing" textLength="101.2881" x="740.59" y="290.9195">HTTP handlers</text></g><!--entity WebUI--><g class="entity" data-entity="WebUI" data-source-line="39" data-uid="ent0007" id="entity_WebUI"><rect fill="#176087" height="60.5938" rx="2.5" ry="2.5" style="stroke:#FFFFFF;stroke-width:0.5;" width="148.3174" x="546.84" y="247.6275"/><text fill="#FFFFFF" font-family="sans-serif" font-size="14" lengthAdjust="spacing" textLength="128.3174" x="556.84" y="270.6226">Wallabago Web UI</text><line style="stroke:#FFFFFF;stroke-width:1;" x1="547.84" x2="694.1574" y1="273.9244" y2="273.9244"/><text fill="#FFFFFF" font-family="sans-serif" font-size="14" lengthAdjust="spacing" textLength="108.3428" x="556.84" y="290.9195">HTMX Web App</text></g><!--entity AuthNMiddleware--><g class="entity" data-entity="AuthNMiddleware" data-source-line="46" data-uid="ent0008" id="entity_AuthNMiddleware"><polygon fill="#105080" points="484.4,368.2175,693.6041,368.2175,703.6041,426.9597,693.6041,485.7019,484.4,485.7019,494.4,426.9597" style="stroke:#FFFFFF;stroke-width:0.5;"/><text fill="#FFFFFF" font-family="sans-serif" font-size="14" lengthAdjust="spacing" textLength="128.3789" x="504.4" y="391.2126">AuthN Middleware</text><line style="stroke:#FFFFFF;stroke-width:1;" x1="485.4" x2="702.6041" y1="394.5144" y2="394.5144"/><text fill="#FFFFFF" font-family="sans-serif" font-size="14" lengthAdjust="spacing" textLength="179.2041" x="504.4" y="411.5095">Authentication checks for</text><text fill="#FFFFFF" font-family="sans-serif" font-size="14" lengthAdjust="spacing" textLength="140.9092" x="504.4" y="427.8064">protected resources</text><line style="stroke:#FFFFFF;stroke-width:1;stroke-dasharray:1,2;" x1="485.4" x2="702.6041" y1="435.1081" y2="435.1081"/><text fill="#FFFFFF" font-family="sans-serif" font-size="14" lengthAdjust="spacing" textLength="84.8545" x="504.4" y="452.1032">Used before</text><text fill="#FFFFFF" font-family="sans-serif" font-size="14" lengthAdjust="spacing" textLength="177.8164" x="504.4" y="468.4001">every protected Manager</text></g><!--entity AdminManager--><g class="entity" data-entity="AdminManager" data-source-line="57" data-uid="ent0009" id="entity_AdminManager"><rect fill="#0A2239" height="60.5938" rx="2.5" ry="2.5" style="stroke:#FFFFFF;stroke-width:1;stroke-dasharray:1,3;" width="148.584" x="1086.71" y="574.1475"/><text fill="#D3D3D3" font-family="sans-serif" font-size="14" lengthAdjust="spacing" textLength="110.6807" x="1096.71" y="597.1426">Admin Manager</text><line style="stroke:#FFFFFF;stroke-width:1;" x1="1087.71" x2="1234.294" y1="600.4444" y2="600.4444"/><text fill="#D3D3D3" font-family="sans-serif" font-size="14" lengthAdjust="spacing" textLength="128.584" x="1096.71" y="617.4395">User Management</text></g><!--entity EntryManager--><g class="entity" data-entity="EntryManager" data-source-line="64" data-uid="ent0010" id="entity_EntryManager"><rect fill="#0A2239" height="60.5938" rx="2.5" ry="2.5" style="stroke:#FFFFFF;stroke-width:1;stroke-dasharray:1,3;" width="123.0654" x="928.47" y="574.1475"/><text fill="#D3D3D3" font-family="sans-serif" font-size="14" lengthAdjust="spacing" textLength="103.0654" x="938.47" y="597.1426">Entry Manager</text><line style="stroke:#FFFFFF;stroke-width:1;" x1="929.47" x2="1050.5354" y1="600.4444" y2="600.4444"/><text fill="#D3D3D3" font-family="sans-serif" font-size="14" lengthAdjust="spacing" textLength="82.2295" x="938.47" y="617.4395">Entry CRUD</text></g><!--entity ConversionManager--><g class="entity" data-entity="ConversionManager" data-source-line="70" data-uid="ent0011" id="entity_ConversionManager"><rect fill="#0A2239" height="76.8906" rx="2.5" ry="2.5" style="stroke:#FFFFFF;stroke-width:1;stroke-dasharray:1,3;" width="164.3066" x="728.85" y="565.9975"/><text fill="#D3D3D3" font-family="sans-serif" font-size="14" lengthAdjust="spacing" textLength="144.3066" x="738.85" y="588.9926">Conversion Manager</text><line style="stroke:#FFFFFF;stroke-width:1;" x1="729.85" x2="892.1566" y1="592.2944" y2="592.2944"/><text fill="#D3D3D3" font-family="sans-serif" font-size="14" lengthAdjust="spacing" textLength="118.1113" x="738.85" y="609.2895">Entry conversion</text><text fill="#D3D3D3" font-family="sans-serif" font-size="14" lengthAdjust="spacing" textLength="86.3447" x="738.85" y="625.5864">to EPUB etc.</text></g><!--entity AuthZEngine--><g class="entity" data-entity="AuthZEngine" data-source-line="79" data-uid="ent0012" id="entity_AuthZEngine"><rect fill="#53A2BE" height="60.5938" rx="2.5" ry="2.5" style="stroke:#181818;stroke-width:0.5;" width="160.7998" x="986.6" y="731.3375"/><text fill="#000000" font-family="sans-serif" font-size="14" lengthAdjust="spacing" textLength="94.835" x="996.6" y="754.3326">AuthZ Engine</text><line style="stroke:#181818;stroke-width:1;" x1="987.6" x2="1146.3998" y1="757.6344" y2="757.6344"/><text fill="#000000" font-family="sans-serif" font-size="14" lengthAdjust="spacing" textLength="140.7998" x="996.6" y="774.6295">AuthZ policy checks</text></g><!--entity RetrievalEngine--><g class="entity" data-entity="RetrievalEngine" data-source-line="85" data-uid="ent0013" id="entity_RetrievalEngine"><rect fill="#53A2BE" height="76.8906" rx="2.5" ry="2.5" style="stroke:#181818;stroke-width:0.5;" width="153.7656" x="1182.12" y="723.1875"/><text fill="#000000" font-family="sans-serif" font-size="14" lengthAdjust="spacing" textLength="115.2744" x="1192.12" y="746.1826">Retrieval Engine</text><line style="stroke:#181818;stroke-width:1;" x1="1183.12" x2="1334.8856" y1="749.4844" y2="749.4844"/><text fill="#000000" font-family="sans-serif" font-size="14" lengthAdjust="spacing" textLength="133.7656" x="1192.12" y="766.4795">Retrieval of entries</text><text fill="#000000" font-family="sans-serif" font-size="14" lengthAdjust="spacing" textLength="92.5381" x="1192.12" y="782.7764">from the URL</text></g><!--entity ConversionEngine--><g class="entity" data-entity="ConversionEngine" data-source-line="92" data-uid="ent0014" id="entity_ConversionEngine"><rect fill="#53A2BE" height="76.8906" rx="2.5" ry="2.5" style="stroke:#181818;stroke-width:0.5;" width="169.4131" x="745.29" y="723.1875"/><text fill="#000000" font-family="sans-serif" font-size="14" lengthAdjust="spacing" textLength="130.9219" x="755.29" y="746.1826">Conversion Engine</text><line style="stroke:#181818;stroke-width:1;" x1="746.29" x2="913.7031" y1="749.4844" y2="749.4844"/><text fill="#000000" font-family="sans-serif" font-size="14" lengthAdjust="spacing" textLength="149.4131" x="755.29" y="766.4795">Conversion of entries</text><text fill="#000000" font-family="sans-serif" font-size="14" lengthAdjust="spacing" textLength="119.2393" x="755.29" y="782.7764">between formats</text></g><!--entity UserStorage--><g class="entity" data-entity="UserStorage" data-source-line="102" data-uid="ent0015" id="entity_UserStorage"><rect fill="#1D84B5" height="76.8906" rx="2.5" ry="2.5" style="stroke:#181818;stroke-width:0.5;" width="121.9854" x="1037.01" y="860.0775"/><text fill="#000000" font-family="sans-serif" font-size="14" lengthAdjust="spacing" textLength="91.1367" x="1047.01" y="883.0726">User Storage</text><line style="stroke:#181818;stroke-width:1;" x1="1038.01" x2="1157.9954" y1="886.3744" y2="886.3744"/><text fill="#000000" font-family="sans-serif" font-size="14" lengthAdjust="spacing" textLength="97.5352" x="1047.01" y="903.3695">Store account</text><text fill="#000000" font-family="sans-serif" font-size="14" lengthAdjust="spacing" textLength="81.0469" x="1047.01" y="919.6664">information</text></g><!--entity EntryStorage--><g class="entity" data-entity="EntryStorage" data-source-line="109" data-uid="ent0016" id="entity_EntryStorage"><rect fill="#1D84B5" height="76.8906" rx="2.5" ry="2.5" style="stroke:#181818;stroke-width:0.5;" width="116.4756" x="861.76" y="860.0775"/><text fill="#000000" font-family="sans-serif" font-size="14" lengthAdjust="spacing" textLength="96.4756" x="871.76" y="883.0726">Entry Storage</text><line style="stroke:#181818;stroke-width:1;" x1="862.76" x2="977.2356" y1="886.3744" y2="886.3744"/><text fill="#000000" font-family="sans-serif" font-size="14" lengthAdjust="spacing" textLength="90.2891" x="871.76" y="903.3695">Store entries</text><text fill="#000000" font-family="sans-serif" font-size="14" lengthAdjust="spacing" textLength="59.4043" x="871.76" y="919.6664">and files</text></g><!--entity Users--><g class="entity" data-entity="Users" data-source-line="119" data-uid="ent0018" id="entity_Users"><rect fill="#F1F1F1" height="72.8906" rx="2.5" ry="2.5" style="stroke:#181818;stroke-width:0.5;" width="130.3447" x="1034.83" y="1019.1175"/><rect fill="#F1F1F1" height="72.8906" rx="2.5" ry="2.5" style="stroke:#181818;stroke-width:0.5;" width="130.3447" x="1030.83" y="1015.1175"/><text fill="#000000" font-family="sans-serif" font-size="14" lengthAdjust="spacing" textLength="39.2041" x="1038.83" y="1036.1126">Users</text><line style="stroke:#181818;stroke-width:1;" x1="1031.83" x2="1164.1747" y1="1039.4144" y2="1039.4144"/><text fill="#000000" font-family="sans-serif" font-size="14" lengthAdjust="spacing" textLength="96.7832" x="1038.83" y="1056.4095">Admin status,</text><text fill="#000000" font-family="sans-serif" font-size="14" lengthAdjust="spacing" textLength="114.3447" x="1038.83" y="1072.7064">preferences etc.</text></g><!--entity Entries--><g class="entity" data-entity="Entries" data-source-line="126" data-uid="ent0019" id="entity_Entries"><rect fill="#F1F1F1" height="72.8906" rx="2.5" ry="2.5" style="stroke:#181818;stroke-width:0.5;" width="148.6514" x="847.67" y="1019.1175"/><rect fill="#F1F1F1" height="72.8906" rx="2.5" ry="2.5" style="stroke:#181818;stroke-width:0.5;" width="148.6514" x="843.67" y="1015.1175"/><text fill="#000000" font-family="sans-serif" font-size="14" lengthAdjust="spacing" textLength="48.7607" x="851.67" y="1036.1126">Entries</text><line style="stroke:#181818;stroke-width:1;" x1="844.67" x2="995.3214" y1="1039.4144" y2="1039.4144"/><text fill="#000000" font-family="sans-serif" font-size="14" lengthAdjust="spacing" textLength="132.6514" x="851.67" y="1056.4095">SQL-based storage</text><text fill="#000000" font-family="sans-serif" font-size="14" lengthAdjust="spacing" textLength="96.7012" x="851.67" y="1072.7064">for entry data</text></g><!--entity IdentityManager--><g class="entity" data-entity="IdentityManager" data-source-line="134" data-uid="ent0021" id="entity_IdentityManager"><rect fill="#0A2239" height="117.4844" rx="2.5" ry="2.5" style="stroke:#FFFFFF;stroke-width:1;stroke-dasharray:1,3;" width="197.7754" x="478.11" y="545.7075"/><text fill="#D3D3D3" font-family="sans-serif" font-size="14" lengthAdjust="spacing" textLength="119.4717" x="488.11" y="568.7026">Identity Manager</text><line style="stroke:#FFFFFF;stroke-width:1;" x1="479.11" x2="674.8854" y1="572.0044" y2="572.0044"/><text fill="#D3D3D3" font-family="sans-serif" font-size="14" lengthAdjust="spacing" textLength="163.8848" x="488.11" y="588.9995">Handles Authentication</text><line style="stroke:#FFFFFF;stroke-width:1;stroke-dasharray:1,2;" x1="479.11" x2="674.8854" y1="596.3013" y2="596.3013"/><text fill="#D3D3D3" font-family="sans-serif" font-size="14" lengthAdjust="spacing" textLength="109.1699" x="488.11" y="613.2964">Provides claims</text><text fill="#D3D3D3" font-family="sans-serif" font-size="14" lengthAdjust="spacing" textLength="177.7754" x="488.11" y="629.5932">about authenticated user</text><text fill="#D3D3D3" font-family="sans-serif" font-size="14" lengthAdjust="spacing" textLength="103.5918" x="488.11" y="645.8901">[UserId, Email]</text></g><!--entity IdentityStorage--><g class="entity" data-entity="IdentityStorage" data-source-line="144" data-uid="ent0022" id="entity_IdentityStorage"><rect fill="#1D84B5" height="60.5938" rx="2.5" ry="2.5" style="stroke:#181818;stroke-width:0.5;" width="200.7627" x="295.62" y="868.2275"/><text fill="#000000" font-family="sans-serif" font-size="14" lengthAdjust="spacing" textLength="112.8818" x="305.62" y="891.2226">Identity Storage</text><line style="stroke:#181818;stroke-width:1;" x1="296.62" x2="495.3827" y1="894.5244" y2="894.5244"/><text fill="#000000" font-family="sans-serif" font-size="14" lengthAdjust="spacing" textLength="180.7627" x="305.62" y="911.5195">Store identity-related info</text></g><!--entity UserInfo--><g class="entity" data-entity="UserInfo" data-source-line="151" data-uid="ent0024" id="entity_UserInfo"><rect fill="#F1F1F1" height="97.1875" rx="2.5" ry="2.5" style="stroke:#181818;stroke-width:0.5;" width="203.9473" x="448.03" y="1006.9675"/><rect fill="#F1F1F1" height="97.1875" rx="2.5" ry="2.5" style="stroke:#181818;stroke-width:0.5;" width="203.9473" x="444.03" y="1002.9675"/><text fill="#000000" font-family="sans-serif" font-size="14" lengthAdjust="spacing" textLength="62.8564" x="452.03" y="1023.9626">User Info</text><line style="stroke:#181818;stroke-width:1;" x1="445.03" x2="650.9773" y1="1027.2644" y2="1027.2644"/><text fill="#000000" font-family="sans-serif" font-size="14" lengthAdjust="spacing" textLength="132.6514" x="452.03" y="1044.2595">SQL-based storage</text><text fill="#000000" font-family="sans-serif" font-size="14" lengthAdjust="spacing" textLength="121.7549" x="452.03" y="1060.5564">for user accounts</text><line style="stroke:#181818;stroke-width:1;stroke-dasharray:1,2;" x1="445.03" x2="650.9773" y1="1067.8581" y2="1067.8581"/><text fill="#000000" font-family="sans-serif" font-size="14" lengthAdjust="spacing" textLength="187.9473" x="452.03" y="1084.8532">[UserID, Email, Passwords]</text></g><!--entity Tokens--><g class="entity" data-entity="Tokens" data-source-line="160" data-uid="ent0025" id="entity_Tokens"><rect fill="#F1F1F1" height="72.8906" rx="2.5" ry="2.5" style="stroke:#181818;stroke-width:0.5;" width="153.1016" x="75.45" y="1019.1175"/><rect fill="#F1F1F1" height="72.8906" rx="2.5" ry="2.5" style="stroke:#181818;stroke-width:0.5;" width="153.1016" x="71.45" y="1015.1175"/><text fill="#000000" font-family="sans-serif" font-size="14" lengthAdjust="spacing" textLength="50.0049" x="79.45" y="1036.1126">Tokens</text><line style="stroke:#181818;stroke-width:1;" x1="72.45" x2="227.5516" y1="1039.4144" y2="1039.4144"/><text fill="#000000" font-family="sans-serif" font-size="14" lengthAdjust="spacing" textLength="132.6514" x="79.45" y="1056.4095">SQL-based storage</text><text fill="#000000" font-family="sans-serif" font-size="14" lengthAdjust="spacing" textLength="70.6426" x="79.45" y="1072.7064">for tokens</text></g><!--entity Clients--><g class="entity" data-entity="Clients" data-source-line="167" data-uid="ent0026" id="entity_Clients"><rect fill="#F1F1F1" height="72.8906" rx="2.5" ry="2.5" style="stroke:#181818;stroke-width:0.5;" width="141.8291" x="267.09" y="1019.1175"/><rect fill="#F1F1F1" height="72.8906" rx="2.5" ry="2.5" style="stroke:#181818;stroke-width:0.5;" width="141.8291" x="263.09" y="1015.1175"/><text fill="#000000" font-family="sans-serif" font-size="14" lengthAdjust="spacing" textLength="47.8242" x="271.09" y="1036.1126">Cleints</text><line style="stroke:#181818;stroke-width:1;" x1="264.09" x2="407.9191" y1="1039.4144" y2="1039.4144"/><text fill="#000000" font-family="sans-serif" font-size="14" lengthAdjust="spacing" textLength="121.3789" x="271.09" y="1056.4095">Storage for client</text><text fill="#000000" font-family="sans-serif" font-size="14" lengthAdjust="spacing" textLength="77.5811" x="271.09" y="1072.7064">credentials</text></g><!--entity User--><g class="entity" data-entity="User" data-source-line="15" data-uid="ent0002" id="entity_User"><ellipse cx="620.9951" cy="119.8275" fill="#F1F1F1" rx="8" ry="8" style="stroke:#181818;stroke-width:0.5;"/><path d="M620.9951,127.8275 L620.9951,154.8275 M607.9951,135.8275 L633.9951,135.8275 M620.9951,154.8275 L607.9951,169.8275 M620.9951,154.8275 L633.9951,169.8275" fill="none" style="stroke:#181818;stroke-width:0.5;"/><text fill="#000000" font-family="sans-serif" font-size="14" lengthAdjust="spacing" textLength="31.9102" x="605.04" y="184.3226">User</text></g><!--entity KOReader--><g class="entity" data-entity="KOReader" data-source-line="19" data-uid="ent0003" id="entity_KOReader"><rect fill="#F1F1F1" height="70.5938" rx="2.5" ry="2.5" style="stroke:#181818;stroke-width:0.5;" width="115.1338" x="833.43" y="114.1775"/><rect fill="#F1F1F1" height="10" style="stroke:#181818;stroke-width:0.5;" width="15" x="928.5638" y="119.1775"/><rect fill="#F1F1F1" height="2" style="stroke:#181818;stroke-width:0.5;" width="4" x="926.5638" y="121.1775"/><rect fill="#F1F1F1" height="2" style="stroke:#181818;stroke-width:0.5;" width="4" x="926.5638" y="125.1775"/><text fill="#000000" font-family="sans-serif" font-size="14" lengthAdjust="spacing" textLength="70.376" x="848.43" y="147.1726">KOReader</text><line style="stroke:#181818;stroke-width:1;stroke-dasharray:1,2;" x1="834.43" x2="947.5638" y1="150.4744" y2="150.4744"/><text fill="#000000" font-family="sans-serif" font-size="14" lengthAdjust="spacing" textLength="75.1338" x="848.43" y="167.4695">Kindle App</text></g><!--entity WallabagAndroid--><g class="entity" data-entity="WallabagAndroid" data-source-line="25" data-uid="ent0004" id="entity_WallabagAndroid"><rect fill="#F1F1F1" height="70.5938" rx="2.5" ry="2.5" style="stroke:#181818;stroke-width:0.5;" width="126.2354" x="671.88" y="114.1775"/><rect fill="#F1F1F1" height="10" style="stroke:#181818;stroke-width:0.5;" width="15" x="778.1154" y="119.1775"/><rect fill="#F1F1F1" height="2" style="stroke:#181818;stroke-width:0.5;" width="4" x="776.1154" y="121.1775"/><rect fill="#F1F1F1" height="2" style="stroke:#181818;stroke-width:0.5;" width="4" x="776.1154" y="125.1775"/><text fill="#000000" font-family="sans-serif" font-size="14" lengthAdjust="spacing" textLength="65.1328" x="686.88" y="147.1726">Wallabag</text><line style="stroke:#181818;stroke-width:1;stroke-dasharray:1,2;" x1="672.88" x2="797.1154" y1="150.4744" y2="150.4744"/><text fill="#000000" font-family="sans-serif" font-size="14" lengthAdjust="spacing" textLength="86.2354" x="686.88" y="167.4695">Android App</text></g><!--link User to KOReader--><g class="link" data-entity-1="User" data-entity-2="KOReader" data-source-line="179" data-uid="lnk27" id="link_User_KOReader"><path codeLine="179" d="M637.42,115.3775 C645.67,102.2175 657.03,88.6175 671.5,81.3275 C721.91,55.9375 744.88,63.7075 798.5,81.3275 C818.78,87.9875 833.6071,97.1993 849.4271,110.0793" fill="none" id="User-to-KOReader" style="stroke:#181818;stroke-width:1;"/><polygon fill="#181818" points="854.08,113.8675,849.6261,105.0833,850.2026,110.7107,844.5752,111.2871,854.08,113.8675" style="stroke:#181818;stroke-width:1;"/></g><!--link KOReader to HTTPAPI--><g class="link" data-entity-1="KOReader" data-entity-2="HTTPAPI" data-source-line="180" data-uid="lnk28" id="link_KOReader_HTTPAPI"><path codeLine="180" d="M869.14,185.0275 C856.83,204.4775 844.8291,223.4578 833.0491,242.0678" fill="none" id="KOReader-to-HTTPAPI" style="stroke:#181818;stroke-width:1;"/><polygon fill="#181818" points="829.84,247.1375,838.0334,241.6723,832.5142,242.9128,831.2738,237.3936,829.84,247.1375" style="stroke:#181818;stroke-width:1;"/></g><!--link User to WebUI--><g class="link" data-entity-1="User" data-entity-2="WebUI" data-source-line="181" data-uid="lnk29" id="link_User_WebUI"><path codeLine="181" d="M621,188.0775 C621,206.9975 621,223.6175 621,241.2975" fill="none" id="User-to-WebUI" style="stroke:#181818;stroke-width:1;"/><polygon fill="#181818" points="621,247.2975,625,238.2975,621,242.2975,617,238.2975,621,247.2975" style="stroke:#181818;stroke-width:1;"/></g><!--link User to WallabagAndroid--><g class="link" data-entity-1="User" data-entity-2="WallabagAndroid" data-source-line="182" data-uid="lnk30" id="link_User_WallabagAndroid"><path codeLine="182" d="M637.03,149.4775 C648.51,149.4775 653.99,149.4775 665.47,149.4775" fill="none" id="User-to-WallabagAndroid" style="stroke:#181818;stroke-width:1;"/><polygon fill="#181818" points="671.47,149.4775,662.47,145.4775,666.47,149.4775,662.47,153.4775,671.47,149.4775" style="stroke:#181818;stroke-width:1;"/></g><!--link WallabagAndroid to HTTPAPI--><g class="link" data-entity-1="WallabagAndroid" data-entity-2="HTTPAPI" data-source-line="183" data-uid="lnk31" id="link_WallabagAndroid_HTTPAPI"><path codeLine="183" d="M755.77,185.0275 C767.46,204.4775 778.8182,223.3855 790.0082,241.9955" fill="none" id="WallabagAndroid-to-HTTPAPI" style="stroke:#181818;stroke-width:1;"/><polygon fill="#181818" points="793.1,247.1375,791.8902,237.3632,790.5235,242.8525,785.0342,241.4857,793.1,247.1375" style="stroke:#181818;stroke-width:1;"/></g><!--link WebUI to HTTPAPI--><g class="link" data-entity-1="WebUI" data-entity-2="HTTPAPI" data-source-line="185" data-uid="lnk32" id="link_WebUI_HTTPAPI"><path codeLine="185" d="M695.59,277.9275 C707.16,277.9275 712.73,277.9275 724.3,277.9275" fill="none" id="WebUI-to-HTTPAPI" style="stroke:#181818;stroke-width:1;"/><polygon fill="#181818" points="730.3,277.9275,721.3,273.9275,725.3,277.9275,721.3,281.9275,730.3,277.9275" style="stroke:#181818;stroke-width:1;"/></g><!--link HTTPAPI to AuthNMiddleware--><g class="link" data-entity-1="HTTPAPI" data-entity-2="AuthNMiddleware" data-source-line="187" data-uid="lnk33" id="link_HTTPAPI_AuthNMiddleware"><path codeLine="187" d="M767.09,308.6775 C741.95,325.7175 714.4969,344.3115 684.5269,364.6215" fill="none" id="HTTPAPI-to-AuthNMiddleware" style="stroke:#181818;stroke-width:1;"/><polygon fill="#181818" points="679.56,367.9875,689.2544,366.2498,683.6991,365.1825,684.7664,359.6273,679.56,367.9875" style="stroke:#181818;stroke-width:1;"/></g><!--link HTTPAPI to IdentityManager--><g class="link" data-entity-1="HTTPAPI" data-entity-2="IdentityManager" data-source-line="188" data-uid="lnk34" id="link_HTTPAPI_IdentityManager"><path codeLine="188" d="M805.45,308.6175 C795.74,352.7775 771.68,435.8975 721,485.7075 C706.93,499.5275 696.46,491.8375 680,502.7075 C661.84,514.6975 648.4098,525.9724 632.9398,541.1724" fill="none" id="HTTPAPI-to-IdentityManager" style="stroke:#181818;stroke-width:1;"/><polygon fill="#181818" points="628.66,545.3775,637.8832,541.923,632.2265,541.8732,632.2763,536.2166,628.66,545.3775" style="stroke:#181818;stroke-width:1;"/></g><!--link HTTPAPI to AdminManager--><g class="link" data-entity-1="HTTPAPI" data-entity-2="AdminManager" data-source-line="189" data-uid="lnk35" id="link_HTTPAPI_AdminManager"><path codeLine="189" d="M847.64,308.4175 C898.75,350.0675 993.63,429.2475 1069,502.7075 C1092.58,525.6875 1113.7142,548.8963 1131.7342,569.4463" fill="none" id="HTTPAPI-to-AdminManager" style="stroke:#181818;stroke-width:1;"/><polygon fill="#181818" points="1135.69,573.9575,1132.7637,564.5534,1132.3935,570.1981,1126.7487,569.8279,1135.69,573.9575" style="stroke:#181818;stroke-width:1;"/></g><!--link HTTPAPI to ConversionManager--><g class="link" data-entity-1="HTTPAPI" data-entity-2="ConversionManager" data-source-line="190" data-uid="lnk36" id="link_HTTPAPI_ConversionManager"><path codeLine="190" d="M811,308.5875 C811,367.7275 811,494.2575 811,559.5775" fill="none" id="HTTPAPI-to-ConversionManager" style="stroke:#181818;stroke-width:1;"/><polygon fill="#181818" points="811,565.5775,815,556.5775,811,560.5775,807,556.5775,811,565.5775" style="stroke:#181818;stroke-width:1;"/></g><!--link HTTPAPI to EntryManager--><g class="link" data-entity-1="HTTPAPI" data-entity-2="EntryManager" data-source-line="191" data-uid="lnk37" id="link_HTTPAPI_EntryManager"><path codeLine="191" d="M827.36,308.5875 C861.45,370.3875 936.8424,507.0735 970.8424,568.7235" fill="none" id="HTTPAPI-to-EntryManager" style="stroke:#181818;stroke-width:1;"/><polygon fill="#181818" points="973.74,573.9775,972.8963,564.1648,971.3254,569.5992,965.891,568.0283,973.74,573.9775" style="stroke:#181818;stroke-width:1;"/></g><!--link AuthNMiddleware to IdentityManager--><g class="link" data-entity-1="AuthNMiddleware" data-entity-2="IdentityManager" data-source-line="194" data-uid="lnk38" id="link_AuthNMiddleware_IdentityManager"><path codeLine="194" d="M588.39,485.9075 C586.54,504.9775 585.069,520.2055 583.219,539.2855" fill="none" id="AuthNMiddleware-to-IdentityManager" style="stroke:#181818;stroke-width:1;"/><polygon fill="#181818" points="582.64,545.2575,587.4899,536.6855,583.1225,540.2808,579.5272,535.9135,582.64,545.2575" style="stroke:#181818;stroke-width:1;"/></g><!--link EntryManager to RetrievalEngine--><g class="link" data-entity-1="EntryManager" data-entity-2="RetrievalEngine" data-source-line="197" data-uid="lnk39" id="link_EntryManager_RetrievalEngine"><path codeLine="197" d="M1028.14,635.1875 C1040.84,644.5875 1055.26,654.7175 1069,663.1875 C1104.97,685.3675 1141.1988,704.4637 1176.2988,721.7737" fill="none" id="EntryManager-to-RetrievalEngine" style="stroke:#181818;stroke-width:1;"/><polygon fill="#181818" points="1181.68,724.4275,1175.3774,716.8593,1177.1957,722.216,1171.839,724.0343,1181.68,724.4275" style="stroke:#181818;stroke-width:1;"/></g><!--link EntryManager to AuthZEngine--><g class="link" data-entity-1="EntryManager" data-entity-2="AuthZEngine" data-source-line="198" data-uid="lnk40" id="link_EntryManager_AuthZEngine"><path codeLine="198" d="M1004.66,634.9975 C1018.32,662.5275 1035.9139,697.9724 1049.5939,725.5524" fill="none" id="EntryManager-to-AuthZEngine" style="stroke:#181818;stroke-width:1;"/><polygon fill="#181818" points="1052.26,730.9275,1051.8442,721.0874,1050.0382,726.4482,1044.6774,724.6422,1052.26,730.9275" style="stroke:#181818;stroke-width:1;"/></g><!--link EntryManager to EntryStorage--><g class="link" data-entity-1="EntryManager" data-entity-2="EntryStorage" data-source-line="199" data-uid="lnk41" id="link_EntryManager_EntryStorage"><path codeLine="199" d="M982.9,635.0575 C970.11,688.4275 944.6083,794.8327 930.4883,853.7527" fill="none" id="EntryManager-to-EntryStorage" style="stroke:#181818;stroke-width:1;"/><polygon fill="#181818" points="929.09,859.5875,935.0773,851.7675,930.2552,854.7252,927.2976,849.9031,929.09,859.5875" style="stroke:#181818;stroke-width:1;"/></g><!--link AdminManager to AuthZEngine--><g class="link" data-entity-1="AdminManager" data-entity-2="AuthZEngine" data-source-line="201" data-uid="lnk42" id="link_AdminManager_AuthZEngine"><path codeLine="201" d="M1143.1,634.9975 C1126.43,662.5275 1104.8077,698.2151 1088.1077,725.7951" fill="none" id="AdminManager-to-AuthZEngine" style="stroke:#181818;stroke-width:1;"/><polygon fill="#181818" points="1085,730.9275,1093.0832,725.3007,1087.5898,726.6505,1086.24,721.157,1085,730.9275" style="stroke:#181818;stroke-width:1;"/></g><!--link AdminManager to UserStorage--><g class="link" data-entity-1="AdminManager" data-entity-2="UserStorage" data-source-line="202" data-uid="lnk43" id="link_AdminManager_UserStorage"><path codeLine="202" d="M1235.73,630.2775 C1278.29,648.7075 1327.98,678.4875 1353,723.1875 C1369.69,753.0075 1372.38,771.9275 1353,800.0775 C1309.73,862.9275 1225.9794,884.4902 1165.3594,892.4102" fill="none" id="AdminManager-to-UserStorage" style="stroke:#181818;stroke-width:1;"/><polygon fill="#181818" points="1159.41,893.1875,1168.8524,895.9879,1164.3679,892.5398,1167.816,888.0553,1159.41,893.1875" style="stroke:#181818;stroke-width:1;"/></g><!--link ConversionManager to ConversionEngine--><g class="link" data-entity-1="ConversionManager" data-entity-2="ConversionEngine" data-source-line="204" data-uid="lnk44" id="link_ConversionManager_ConversionEngine"><path codeLine="204" d="M815.6,643.0175 C818.56,667.2375 821.6809,692.662 824.6509,716.922" fill="none" id="ConversionManager-to-ConversionEngine" style="stroke:#181818;stroke-width:1;"/><polygon fill="#181818" points="825.38,722.8775,828.2567,713.4581,824.7724,717.9146,820.316,714.4303,825.38,722.8775" style="stroke:#181818;stroke-width:1;"/></g><!--link ConversionManager to AuthZEngine--><g class="link" data-entity-1="ConversionManager" data-entity-2="AuthZEngine" data-source-line="205" data-uid="lnk45" id="link_ConversionManager_AuthZEngine"><path codeLine="205" d="M873.3,643.2075 C917.85,670.2175 971.8291,702.9473 1012.9891,727.8973" fill="none" id="ConversionManager-to-AuthZEngine" style="stroke:#181818;stroke-width:1;"/><polygon fill="#181818" points="1018.12,731.0075,1012.4971,722.9215,1013.8442,728.4156,1008.3501,729.7628,1018.12,731.0075" style="stroke:#181818;stroke-width:1;"/></g><!--link ConversionManager to EntryStorage--><g class="link" data-entity-1="ConversionManager" data-entity-2="EntryStorage" data-source-line="206" data-uid="lnk46" id="link_ConversionManager_EntryStorage"><path codeLine="206" d="M774.01,643.2675 C739.15,683.6975 696.58,748.8975 728,800.0775 C756.85,847.0675 810.4215,870.607 855.5415,883.517" fill="none" id="ConversionManager-to-EntryStorage" style="stroke:#181818;stroke-width:1;"/><polygon fill="#181818" points="861.31,885.1675,853.7576,878.846,856.5029,883.7921,851.5569,886.5374,861.31,885.1675" style="stroke:#181818;stroke-width:1;"/></g><!--link AuthZEngine to UserStorage--><g class="link" data-entity-1="AuthZEngine" data-entity-2="UserStorage" data-source-line="209" data-uid="lnk47" id="link_AuthZEngine_UserStorage"><path codeLine="209" d="M1073.8,792.2375 C1078.37,812.0875 1083.0658,832.56 1087.9758,853.92" fill="none" id="AuthZEngine-to-UserStorage" style="stroke:#181818;stroke-width:1;"/><polygon fill="#181818" points="1089.32,859.7675,1091.2021,850.1001,1088.1999,854.8946,1083.4054,851.8924,1089.32,859.7675" style="stroke:#181818;stroke-width:1;"/></g><!--link EntryStorage to Entries--><g class="link" data-entity-1="EntryStorage" data-entity-2="Entries" data-source-line="212" data-uid="lnk48" id="link_EntryStorage_Entries"><path codeLine="212" d="M920,937.3575 C920,960.8975 920,985.0775 920,1008.6375" fill="none" id="EntryStorage-to-Entries" style="stroke:#181818;stroke-width:1;"/><polygon fill="#181818" points="920,1014.6375,924,1005.6375,920,1009.6375,916,1005.6375,920,1014.6375" style="stroke:#181818;stroke-width:1;"/></g><!--link UserStorage to Users--><g class="link" data-entity-1="UserStorage" data-entity-2="Users" data-source-line="214" data-uid="lnk49" id="link_UserStorage_Users"><path codeLine="214" d="M1098,937.3575 C1098,960.8975 1098,985.0775 1098,1008.6375" fill="none" id="UserStorage-to-Users" style="stroke:#181818;stroke-width:1;"/><polygon fill="#181818" points="1098,1014.6375,1102,1005.6375,1098,1009.6375,1094,1005.6375,1098,1014.6375" style="stroke:#181818;stroke-width:1;"/></g><!--link IdentityManager to IdentityStorage--><g class="link" data-entity-1="IdentityManager" data-entity-2="IdentityStorage" data-source-line="218" data-uid="lnk50" id="link_IdentityManager_IdentityStorage"><path codeLine="218" d="M541.02,663.4975 C502.78,725.2175 446.9699,815.267 417.3999,862.997" fill="none" id="IdentityManager-to-IdentityStorage" style="stroke:#181818;stroke-width:1;"/><polygon fill="#181818" points="414.24,868.0975,422.3802,862.5533,416.8732,863.8471,415.5795,858.3402,414.24,868.0975" style="stroke:#181818;stroke-width:1;"/></g><!--link IdentityStorage to UserInfo--><g class="link" data-entity-1="IdentityStorage" data-entity-2="UserInfo" data-source-line="219" data-uid="lnk51" id="link_IdentityStorage_UserInfo"><path codeLine="219" d="M425.31,929.0275 C446.01,949.8775 470.0314,974.0709 494.2114,998.4109" fill="none" id="IdentityStorage-to-UserInfo" style="stroke:#181818;stroke-width:1;"/><polygon fill="#181818" points="498.44,1002.6675,494.9348,993.4635,494.9161,999.1203,489.2593,999.1017,498.44,1002.6675" style="stroke:#181818;stroke-width:1;"/></g><!--link IdentityStorage to Clients--><g class="link" data-entity-1="IdentityStorage" data-entity-2="Clients" data-source-line="220" data-uid="lnk52" id="link_IdentityStorage_Clients"><path codeLine="220" d="M384.43,929.0275 C374.86,953.4375 363.4001,982.6815 353.0301,1009.1315" fill="none" id="IdentityStorage-to-Clients" style="stroke:#181818;stroke-width:1;"/><polygon fill="#181818" points="350.84,1014.7175,357.8491,1007.7985,352.665,1010.0625,350.4011,1004.8784,350.84,1014.7175" style="stroke:#181818;stroke-width:1;"/></g><!--link IdentityStorage to Tokens--><g class="link" data-entity-1="IdentityStorage" data-entity-2="Tokens" data-source-line="221" data-uid="lnk53" id="link_IdentityStorage_Tokens"><path codeLine="221" d="M295.39,921.6375 C278.18,927.7175 261.02,935.3775 246,944.9675 C217.73,963.0175 196.3497,986.8573 178.9597,1010.0473" fill="none" id="IdentityStorage-to-Tokens" style="stroke:#181818;stroke-width:1;"/><polygon fill="#181818" points="175.36,1014.8475,183.9597,1010.0469,178.3597,1010.8473,177.5593,1005.2473,175.36,1014.8475" style="stroke:#181818;stroke-width:1;"/></g><!--SRC=[dLVVJniv47xVlyBNdCGBGMauhXnLAwKXkaQ5Qmf4d40yEBjEOh5PHxO35rNyxpUsrrxRwmJKVG2lv_FCDpzsF95KbWJTuhB4CxnWQCXMQrQHIefiIN11EChj3YeeNd2yoh83T2st9H7PRxzVuWel0FK9lPlX_F6iX_lzuxy-IlAVFBkWYwNycvFjnv9MvEnvIINHowE2IKcATt1-L2rWmnq_ESRz6J77lvImep3Nad4mua3lYzC_PYSHQ4Aue4AIAlU0ntrot3V0MsVTBDMP8SwN7lh3dxtJ3xlHbxGeIlACkNUaTz8xxUq-CfYCtwWUOZeigOuxpi5VD1KGrViCmQEMsKEMDPduzltA9CS0xAj-EOB7xD8A-AB1UXqUjiaUL0LdjAXrsDrGXyNiLCBGJmqyGE2hNd6IIrmjmFBNcvk9Ya17ny6OyKqnZN07rTE5nxrewH8hBxZGkq0XD75BPjDz1a2EfZlLN_wh0SevJ_i1QZAjDzQSvKG8DDZ8vJzU5NJyacYiQrYiesLTeI2GDCUIiWf18UQF0iqPTmWmAy5HKe2_WcquS70obw2wFWeq8t2siKMU2DzwAkhlDFBJR8eeg8DYHIlxONVS9-vvg021ofPxkdmDOWLkMhkHfL4b-NQV9GtORyb0XbVJytI935drf7e3s-jIWtgBjToXdK0oD9fClo0YywCmogR5nRHK_k_gxjUnRJ0ieZjxT6S1tQ4rAsc-hSid7O0h8ZabJxZSRSr1zbfiK6oE8AdmqbJadBCLWf96qwkBrnAncuYNXdrCF5Y2oep8Pq8gzJ6ji1HXDkhBf5MAgc3jHTDnLyvzMD3sS9AK4XA4yvnje46wRLeP7efiEZ2wflRPDaNt1kDr91hZq3pHd9Oa2i8vbjYi2rZDiD3NnBbTTuBRzAVJbhEo1DRWYT3n41v76oCHx0GSczOX99ORSHX8rfpC2LSMHVCHUQnZ0gFQrv32AAg598dh7nTTvMW1HCAOwag6svVeYAlWU3JKtvVCyB3tuBXGJLnk9vmzKNKZDz5g4cn1-ngGUYokrOAINdpLDwE8Rf804bmJwgbf2fINcAx2CE4PsqY46sqGdus8MDoh78-BGpHQOLe-f9BKzdjVRGT-NoVIqSwUBdLQd-boKcggwZjBqN4LRgsyMkQfKX-3zeYrwmfZt_9EsgyNdYq-5NJRHqGBqSffavRpEYs7Q8A5U6Qy40y1r0jBxEGDUoJmB-6ZaVoYWoZfeJJ6tigjdemJt8ObeQaWfSdLb1I3NAjiiyivqMM2In6niwkNkW-yP7fePrLLqynqCNG_D-Eu6zExi5jFmpKADlJiwWv5KtaMJ-c-2ZDiczdNsyximAsmqR3goK0ODQHGw8z_eQGrIeLYVvfJiV6inwDpYaJc3QJ1OAZ0qH3J1dZpL2oqrDpL7mouyU58259lDCYozZWPHgRMaeRvTbA85bCxFOhCdnTRf9gn9fWbh3vr8MR-W6CL25t3SIBYwoee6MiexkrMfMw6AQ7zUPkIcHRpFm00]--></g></svg>