<svg xmlns="http://www.w3.org/2000/svg" xmlns:xlink="http://www.w3.org/1999/xlink" contentStyleType="text/css" data-diagram-type="CLASS" height="1056px" preserveAspectRatio="none" style="width:1268px;height:1056px;background:#FFFFFF;" version="1.1" viewBox="0 0 1268 1056" width="1268px" zoomAndPan="magnify"><title>Wallabago Components</title><defs/><g><g class="header" data-source-line="3"><text fill="#888888" font-family="sans-serif" font-size="10" lengthAdjust="spacing" textLength="101.333" x="1153.3901" y="9.2822">component diagram</text></g><g class="title" data-source-line="2"><text fill="#000000" font-family="sans-serif" font-size="14" font-weight="bold" lengthAdjust="spacing" textLength="186.4912" x="534.1159" y="35.6357">Wallabago Components</text></g><!--entity User--><g class="entity" data-entity="User" data-source-line="15" data-uid="ent0002" id="entity_User"><ellipse cx="462.0151" cy="117.2075" fill="#F1F1F1" rx="8" ry="8" style="stroke:#181818;stroke-width:0.5;"/><path d="M462.0151,125.2075 L462.0151,152.2075 M449.0151,133.2075 L475.0151,133.2075 M462.0151,152.2075 L449.0151,167.2075 M462.0151,152.2075 L475.0151,167.2075" fill="none" style="stroke:#181818;stroke-width:0.5;"/><text fill="#000000" font-family="sans-serif" font-size="14" lengthAdjust="spacing" textLength="31.9102" x="446.06" y="181.7026">User</text></g><!--entity KOReader--><g class="entity" data-entity="KOReader" data-source-line="19" data-uid="ent0003" id="entity_KOReader"><rect fill="#F1F1F1" height="70.5938" rx="2.5" ry="2.5" style="stroke:#181818;stroke-width:0.5;" width="115.1338" x="513.45" y="111.5575"/><rect fill="#F1F1F1" height="10" style="stroke:#181818;stroke-width:0.5;" width="15" x="608.5838" y="116.5575"/><rect fill="#F1F1F1" height="2" style="stroke:#181818;stroke-width:0.5;" width="4" x="606.5838" y="118.5575"/><rect fill="#F1F1F1" height="2" style="stroke:#181818;stroke-width:0.5;" width="4" x="606.5838" y="122.5575"/><text fill="#000000" font-family="sans-serif" font-size="14" lengthAdjust="spacing" textLength="70.376" x="528.45" y="144.5526">KOReader</text><line style="stroke:#181818;stroke-width:1;stroke-dasharray:1,2;" x1="514.45" x2="627.5838" y1="147.8544" y2="147.8544"/><text fill="#000000" font-family="sans-serif" font-size="14" lengthAdjust="spacing" textLength="75.1338" x="528.45" y="164.8495">Kindle App</text></g><!--entity WallabagAndroid--><g class="entity" data-entity="WallabagAndroid" data-source-line="25" data-uid="ent0004" id="entity_WallabagAndroid"><rect fill="#F1F1F1" height="70.5938" rx="2.5" ry="2.5" style="stroke:#181818;stroke-width:0.5;" width="126.2354" x="663.9" y="111.5575"/><rect fill="#F1F1F1" height="10" style="stroke:#181818;stroke-width:0.5;" width="15" x="770.1354" y="116.5575"/><rect fill="#F1F1F1" height="2" style="stroke:#181818;stroke-width:0.5;" width="4" x="768.1354" y="118.5575"/><rect fill="#F1F1F1" height="2" style="stroke:#181818;stroke-width:0.5;" width="4" x="768.1354" y="122.5575"/><text fill="#000000" font-family="sans-serif" font-size="14" lengthAdjust="spacing" textLength="65.1328" x="678.9" y="144.5526">Wallabag</text><line style="stroke:#181818;stroke-width:1;stroke-dasharray:1,2;" x1="664.9" x2="789.1354" y1="147.8544" y2="147.8544"/><text fill="#000000" font-family="sans-serif" font-size="14" lengthAdjust="spacing" textLength="86.2354" x="678.9" y="164.8495">Android App</text></g><!--entity HTTPAPI--><g class="entity" data-entity="HTTPAPI" data-source-line="32" data-uid="ent0005" id="entity_HTTPAPI"><rect fill="#176087" height="60.5938" rx="2.5" ry="2.5" style="stroke:#FFFFFF;stroke-width:0.5;" width="160.8203" x="571.6" y="245.0075"/><text fill="#FFFFFF" font-family="sans-serif" font-size="14" lengthAdjust="spacing" textLength="140.8203" x="581.6" y="268.0026">Wallabago HTTP API</text><line style="stroke:#FFFFFF;stroke-width:1;" x1="572.6" x2="731.4203" y1="271.3044" y2="271.3044"/><text fill="#FFFFFF" font-family="sans-serif" font-size="14" lengthAdjust="spacing" textLength="101.2881" x="581.6" y="288.2995">HTTP handlers</text></g><!--entity WebUI--><g class="entity" data-entity="WebUI" data-source-line="38" data-uid="ent0006" id="entity_WebUI"><rect fill="#176087" height="60.5938" rx="2.5" ry="2.5" style="stroke:#FFFFFF;stroke-width:0.5;" width="148.3174" x="387.85" y="245.0075"/><text fill="#FFFFFF" font-family="sans-serif" font-size="14" lengthAdjust="spacing" textLength="128.3174" x="397.85" y="268.0026">Wallabago Web UI</text><line style="stroke:#FFFFFF;stroke-width:1;" x1="388.85" x2="535.1674" y1="271.3044" y2="271.3044"/><text fill="#FFFFFF" font-family="sans-serif" font-size="14" lengthAdjust="spacing" textLength="108.3428" x="397.85" y="288.2995">HTMX Web App</text></g><!--entity AuthNMiddleware--><g class="entity" data-entity="AuthNMiddleware" data-source-line="45" data-uid="ent0007" id="entity_AuthNMiddleware"><polygon fill="#105080" points="236.41,365.5975,445.6141,365.5975,455.6141,424.3397,445.6141,483.0819,236.41,483.0819,246.41,424.3397" style="stroke:#FFFFFF;stroke-width:0.5;"/><text fill="#FFFFFF" font-family="sans-serif" font-size="14" lengthAdjust="spacing" textLength="128.3789" x="256.41" y="388.5926">AuthN Middleware</text><line style="stroke:#FFFFFF;stroke-width:1;" x1="237.41" x2="454.6141" y1="391.8944" y2="391.8944"/><text fill="#FFFFFF" font-family="sans-serif" font-size="14" lengthAdjust="spacing" textLength="179.2041" x="256.41" y="408.8895">Authentication checks for</text><text fill="#FFFFFF" font-family="sans-serif" font-size="14" lengthAdjust="spacing" textLength="140.9092" x="256.41" y="425.1864">protected resources</text><line style="stroke:#FFFFFF;stroke-width:1;stroke-dasharray:1,2;" x1="237.41" x2="454.6141" y1="432.4881" y2="432.4881"/><text fill="#FFFFFF" font-family="sans-serif" font-size="14" lengthAdjust="spacing" textLength="84.8545" x="256.41" y="449.4832">Used before</text><text fill="#FFFFFF" font-family="sans-serif" font-size="14" lengthAdjust="spacing" textLength="177.8164" x="256.41" y="465.7801">every protected Manager</text></g><!--entity AdminManager--><g class="entity" data-entity="AdminManager" data-source-line="56" data-uid="ent0008" id="entity_AdminManager"><rect fill="#0A2239" height="60.5938" rx="2.5" ry="2.5" style="stroke:#FFFFFF;stroke-width:1;stroke-dasharray:1,3;" width="148.584" x="577.72" y="551.2375"/><text fill="#D3D3D3" font-family="sans-serif" font-size="14" lengthAdjust="spacing" textLength="110.6807" x="587.72" y="574.2326">Admin Manager</text><line style="stroke:#FFFFFF;stroke-width:1;" x1="578.72" x2="725.304" y1="577.5344" y2="577.5344"/><text fill="#D3D3D3" font-family="sans-serif" font-size="14" lengthAdjust="spacing" textLength="128.584" x="587.72" y="594.5295">User Management</text></g><!--entity OAuth2Manager--><g class="entity" data-entity="OAuth2Manager" data-source-line="62" data-uid="ent0009" id="entity_OAuth2Manager"><rect fill="#0A2239" height="60.5938" rx="2.5" ry="2.5" style="stroke:#FFFFFF;stroke-width:1;stroke-dasharray:1,3;" width="143.4365" x="399.29" y="551.2375"/><text fill="#D3D3D3" font-family="sans-serif" font-size="14" lengthAdjust="spacing" textLength="118.5557" x="409.29" y="574.2326">OAuth2 Manager</text><line style="stroke:#FFFFFF;stroke-width:1;" x1="400.29" x2="541.7265" y1="577.5344" y2="577.5344"/><text fill="#D3D3D3" font-family="sans-serif" font-size="14" lengthAdjust="spacing" textLength="123.4365" x="409.29" y="594.5295">OAuth2 token API</text></g><!--entity EntryManager--><g class="entity" data-entity="EntryManager" data-source-line="68" data-uid="ent0010" id="entity_EntryManager"><rect fill="#0A2239" height="60.5938" rx="2.5" ry="2.5" style="stroke:#FFFFFF;stroke-width:1;stroke-dasharray:1,3;" width="123.0654" x="771.48" y="551.2375"/><text fill="#D3D3D3" font-family="sans-serif" font-size="14" lengthAdjust="spacing" textLength="103.0654" x="781.48" y="574.2326">Entry Manager</text><line style="stroke:#FFFFFF;stroke-width:1;" x1="772.48" x2="893.5454" y1="577.5344" y2="577.5344"/><text fill="#D3D3D3" font-family="sans-serif" font-size="14" lengthAdjust="spacing" textLength="82.2295" x="781.48" y="594.5295">Entry CRUD</text></g><!--entity ConversionManager--><g class="entity" data-entity="ConversionManager" data-source-line="74" data-uid="ent0011" id="entity_ConversionManager"><rect fill="#0A2239" height="76.8906" rx="2.5" ry="2.5" style="stroke:#FFFFFF;stroke-width:1;stroke-dasharray:1,3;" width="164.3066" x="945.86" y="543.0875"/><text fill="#D3D3D3" font-family="sans-serif" font-size="14" lengthAdjust="spacing" textLength="144.3066" x="955.86" y="566.0826">Conversion Manager</text><line style="stroke:#FFFFFF;stroke-width:1;" x1="946.86" x2="1109.1666" y1="569.3844" y2="569.3844"/><text fill="#D3D3D3" font-family="sans-serif" font-size="14" lengthAdjust="spacing" textLength="118.1113" x="955.86" y="586.3795">Entry conversion</text><text fill="#D3D3D3" font-family="sans-serif" font-size="14" lengthAdjust="spacing" textLength="86.3447" x="955.86" y="602.6764">to EPUB etc.</text></g><!--entity AuthZEngine--><g class="entity" data-entity="AuthZEngine" data-source-line="83" data-uid="ent0012" id="entity_AuthZEngine"><rect fill="#53A2BE" height="60.5938" rx="2.5" ry="2.5" style="stroke:#181818;stroke-width:0.5;" width="160.7998" x="566.61" y="688.1275"/><text fill="#000000" font-family="sans-serif" font-size="14" lengthAdjust="spacing" textLength="94.835" x="576.61" y="711.1226">AuthZ Engine</text><line style="stroke:#181818;stroke-width:1;" x1="567.61" x2="726.4098" y1="714.4244" y2="714.4244"/><text fill="#000000" font-family="sans-serif" font-size="14" lengthAdjust="spacing" textLength="140.7998" x="576.61" y="731.4195">AuthZ policy checks</text></g><!--entity RetrievalEngine--><g class="entity" data-entity="RetrievalEngine" data-source-line="89" data-uid="ent0013" id="entity_RetrievalEngine"><rect fill="#53A2BE" height="76.8906" rx="2.5" ry="2.5" style="stroke:#181818;stroke-width:0.5;" width="153.7656" x="762.13" y="679.9775"/><text fill="#000000" font-family="sans-serif" font-size="14" lengthAdjust="spacing" textLength="115.2744" x="772.13" y="702.9726">Retrieval Engine</text><line style="stroke:#181818;stroke-width:1;" x1="763.13" x2="914.8956" y1="706.2744" y2="706.2744"/><text fill="#000000" font-family="sans-serif" font-size="14" lengthAdjust="spacing" textLength="133.7656" x="772.13" y="723.2695">Retrieval of entries</text><text fill="#000000" font-family="sans-serif" font-size="14" lengthAdjust="spacing" textLength="92.5381" x="772.13" y="739.5664">from the URL</text></g><!--entity ConversionEngine--><g class="entity" data-entity="ConversionEngine" data-source-line="96" data-uid="ent0014" id="entity_ConversionEngine"><rect fill="#53A2BE" height="76.8906" rx="2.5" ry="2.5" style="stroke:#181818;stroke-width:0.5;" width="169.4131" x="1093.31" y="679.9775"/><text fill="#000000" font-family="sans-serif" font-size="14" lengthAdjust="spacing" textLength="130.9219" x="1103.31" y="702.9726">Conversion Engine</text><line style="stroke:#181818;stroke-width:1;" x1="1094.31" x2="1261.7231" y1="706.2744" y2="706.2744"/><text fill="#000000" font-family="sans-serif" font-size="14" lengthAdjust="spacing" textLength="149.4131" x="1103.31" y="723.2695">Conversion of entries</text><text fill="#000000" font-family="sans-serif" font-size="14" lengthAdjust="spacing" textLength="119.2393" x="1103.31" y="739.5664">between formats</text></g><!--entity TokenStorage--><g class="entity" data-entity="TokenStorage" data-source-line="105" data-uid="ent0015" id="entity_TokenStorage"><rect fill="#1D84B5" height="60.5938" rx="2.5" ry="2.5" style="stroke:#181818;stroke-width:0.5;" width="121.9375" x="178.04" y="825.0175"/><text fill="#000000" font-family="sans-serif" font-size="14" lengthAdjust="spacing" textLength="101.9375" x="188.04" y="848.0126">Token Storage</text><line style="stroke:#181818;stroke-width:1;" x1="179.04" x2="298.9775" y1="851.3144" y2="851.3144"/><text fill="#000000" font-family="sans-serif" font-size="14" lengthAdjust="spacing" textLength="88.7031" x="188.04" y="868.3095">Store tokens</text></g><!--entity UserInfoStorage--><g class="entity" data-entity="UserInfoStorage" data-source-line="111" data-uid="ent0016" id="entity_UserInfoStorage"><rect fill="#1D84B5" height="76.8906" rx="2.5" ry="2.5" style="stroke:#181818;stroke-width:0.5;" width="142.083" x="420.97" y="816.8675"/><text fill="#000000" font-family="sans-serif" font-size="14" lengthAdjust="spacing" textLength="122.083" x="430.97" y="839.8626">User Info Storage</text><line style="stroke:#181818;stroke-width:1;" x1="421.97" x2="562.053" y1="843.1644" y2="843.1644"/><text fill="#000000" font-family="sans-serif" font-size="14" lengthAdjust="spacing" textLength="97.5352" x="430.97" y="860.1595">Store account</text><text fill="#000000" font-family="sans-serif" font-size="14" lengthAdjust="spacing" textLength="81.0469" x="430.97" y="876.4564">information</text></g><!--entity EntryStorage--><g class="entity" data-entity="EntryStorage" data-source-line="118" data-uid="ent0017" id="entity_EntryStorage"><rect fill="#1D84B5" height="76.8906" rx="2.5" ry="2.5" style="stroke:#181818;stroke-width:0.5;" width="116.4756" x="945.78" y="816.8675"/><text fill="#000000" font-family="sans-serif" font-size="14" lengthAdjust="spacing" textLength="96.4756" x="955.78" y="839.8626">Entry Storage</text><line style="stroke:#181818;stroke-width:1;" x1="946.78" x2="1061.2556" y1="843.1644" y2="843.1644"/><text fill="#000000" font-family="sans-serif" font-size="14" lengthAdjust="spacing" textLength="90.2891" x="955.78" y="860.1595">Store entries</text><text fill="#000000" font-family="sans-serif" font-size="14" lengthAdjust="spacing" textLength="59.4043" x="955.78" y="876.4564">and files</text></g><!--entity UserInfoDB--><g class="entity" data-entity="UserInfoDB" data-source-line="127" data-uid="ent0018" id="entity_UserInfoDB"><path d="M415.69,963.7575 C415.69,953.7575 492.0157,953.7575 492.0157,953.7575 C492.0157,953.7575 568.3414,953.7575 568.3414,963.7575 L568.3414,1029.6481 C568.3414,1039.6481 492.0157,1039.6481 492.0157,1039.6481 C492.0157,1039.6481 415.69,1039.6481 415.69,1029.6481 L415.69,963.7575" fill="#132E32" style="stroke:#FFFFFF;stroke-width:0.5;"/><path d="M415.69,963.7575 C415.69,973.7575 492.0157,973.7575 492.0157,973.7575 C492.0157,973.7575 568.3414,973.7575 568.3414,963.7575" fill="none" style="stroke:#FFFFFF;stroke-width:0.5;"/><text fill="#FFFFFF" font-family="sans-serif" font-size="14" lengthAdjust="spacing" textLength="87.6914" x="425.69" y="990.7526">User Info DB</text><path d="M415.69,989.0544 C415.69,999.0544 492.0157,999.0544 492.0157,999.0544 C492.0157,999.0544 568.3414,999.0544 568.3414,989.0544" fill="none" style="stroke:#FFFFFF;stroke-width:1;"/><text fill="#FFFFFF" font-family="sans-serif" font-size="14" lengthAdjust="spacing" textLength="132.6514" x="425.69" y="1011.0495">SQL-based storage</text><text fill="#FFFFFF" font-family="sans-serif" font-size="14" lengthAdjust="spacing" textLength="121.7549" x="425.69" y="1027.3464">for user accounts</text></g><!--entity TokenDB--><g class="entity" data-entity="TokenDB" data-source-line="134" data-uid="ent0019" id="entity_TokenDB"><path d="M178.46,963.7575 C178.46,953.7575 257.0108,953.7575 257.0108,953.7575 C257.0108,953.7575 335.5616,953.7575 335.5616,963.7575 L335.5616,1029.6481 C335.5616,1039.6481 257.0108,1039.6481 257.0108,1039.6481 C257.0108,1039.6481 178.46,1039.6481 178.46,1029.6481 L178.46,963.7575" fill="#132E32" style="stroke:#FFFFFF;stroke-width:0.5;"/><path d="M178.46,963.7575 C178.46,973.7575 257.0108,973.7575 257.0108,973.7575 C257.0108,973.7575 335.5616,973.7575 335.5616,963.7575" fill="none" style="stroke:#FFFFFF;stroke-width:0.5;"/><text fill="#FFFFFF" font-family="sans-serif" font-size="14" lengthAdjust="spacing" textLength="67.5459" x="188.46" y="990.7526">Token DB</text><path d="M178.46,989.0544 C178.46,999.0544 257.0108,999.0544 257.0108,999.0544 C257.0108,999.0544 335.5616,999.0544 335.5616,989.0544" fill="none" style="stroke:#FFFFFF;stroke-width:1;"/><text fill="#FFFFFF" font-family="sans-serif" font-size="14" lengthAdjust="spacing" textLength="132.6514" x="188.46" y="1011.0495">SQL-based storage</text><text fill="#FFFFFF" font-family="sans-serif" font-size="14" lengthAdjust="spacing" textLength="70.6426" x="188.46" y="1027.3464">for tokens</text></g><!--entity TokenCache--><g class="entity" data-entity="TokenCache" data-source-line="141" data-uid="ent0020" id="entity_TokenCache"><rect fill="#176087" height="72.8906" rx="2.5" ry="2.5" style="stroke:#FFFFFF;stroke-width:0.5;" width="132.0264" x="11" y="962.2575"/><rect fill="#176087" height="72.8906" rx="2.5" ry="2.5" style="stroke:#FFFFFF;stroke-width:0.5;" width="132.0264" x="7" y="958.2575"/><text fill="#FFFFFF" font-family="sans-serif" font-size="14" lengthAdjust="spacing" textLength="90.6992" x="15" y="979.2526">Token Cache</text><line style="stroke:#FFFFFF;stroke-width:1;" x1="8" x2="142.0264" y1="982.5544" y2="982.5544"/><text fill="#FFFFFF" font-family="sans-serif" font-size="14" lengthAdjust="spacing" textLength="111.5762" x="15" y="999.5495">In-mem storage</text><text fill="#FFFFFF" font-family="sans-serif" font-size="14" lengthAdjust="spacing" textLength="70.6426" x="15" y="1015.8464">for tokens</text></g><!--entity EntriesDB--><g class="entity" data-entity="EntriesDB" data-source-line="149" data-uid="ent0021" id="entity_EntriesDB"><path d="M1022.69,963.7575 C1022.69,953.7575 1099.0157,953.7575 1099.0157,953.7575 C1099.0157,953.7575 1175.3414,953.7575 1175.3414,963.7575 L1175.3414,1029.6481 C1175.3414,1039.6481 1099.0157,1039.6481 1099.0157,1039.6481 C1099.0157,1039.6481 1022.69,1039.6481 1022.69,1029.6481 L1022.69,963.7575" fill="#132E32" style="stroke:#FFFFFF;stroke-width:0.5;"/><path d="M1022.69,963.7575 C1022.69,973.7575 1099.0157,973.7575 1099.0157,973.7575 C1099.0157,973.7575 1175.3414,973.7575 1175.3414,963.7575" fill="none" style="stroke:#FFFFFF;stroke-width:0.5;"/><text fill="#FFFFFF" font-family="sans-serif" font-size="14" lengthAdjust="spacing" textLength="62.084" x="1032.69" y="990.7526">Entry DB</text><path d="M1022.69,989.0544 C1022.69,999.0544 1099.0157,999.0544 1099.0157,999.0544 C1099.0157,999.0544 1175.3414,999.0544 1175.3414,989.0544" fill="none" style="stroke:#FFFFFF;stroke-width:1;"/><text fill="#FFFFFF" font-family="sans-serif" font-size="14" lengthAdjust="spacing" textLength="132.6514" x="1032.69" y="1011.0495">SQL-based storage</text><text fill="#FFFFFF" font-family="sans-serif" font-size="14" lengthAdjust="spacing" textLength="96.7012" x="1032.69" y="1027.3464">for entry data</text></g><!--entity EntriesFileCache--><g class="entity" data-entity="EntriesFileCache" data-source-line="156" data-uid="ent0022" id="entity_EntriesFileCache"><rect fill="#176087" height="72.8906" rx="2.5" ry="2.5" style="stroke:#FFFFFF;stroke-width:0.5;" width="153.4229" x="834.3" y="962.2575"/><rect fill="#176087" height="72.8906" rx="2.5" ry="2.5" style="stroke:#FFFFFF;stroke-width:0.5;" width="153.4229" x="830.3" y="958.2575"/><text fill="#FFFFFF" font-family="sans-serif" font-size="14" lengthAdjust="spacing" textLength="72.4336" x="838.3" y="979.2526">File Cache</text><line style="stroke:#FFFFFF;stroke-width:1;" x1="831.3" x2="986.7229" y1="982.5544" y2="982.5544"/><text fill="#FFFFFF" font-family="sans-serif" font-size="14" lengthAdjust="spacing" textLength="137.4229" x="838.3" y="999.5495">Storage for caching</text><text fill="#FFFFFF" font-family="sans-serif" font-size="14" lengthAdjust="spacing" textLength="103.8447" x="838.3" y="1015.8464">converted files</text></g><!--link User to KOReader--><g class="link" data-entity-1="User" data-entity-2="KOReader" data-source-line="164" data-uid="lnk23" id="link_User_KOReader"><path codeLine="164" d="M478.19,146.8575 C489.8,146.8575 495.4,146.8575 507,146.8575" fill="none" id="User-to-KOReader" style="stroke:#181818;stroke-width:1;"/><polygon fill="#181818" points="513,146.8575,504,142.8575,508,146.8575,504,150.8575,513,146.8575" style="stroke:#181818;stroke-width:1;"/></g><!--link KOReader to HTTPAPI--><g class="link" data-entity-1="KOReader" data-entity-2="HTTPAPI" data-source-line="165" data-uid="lnk24" id="link_KOReader_HTTPAPI"><path codeLine="165" d="M593.15,182.4075 C605.61,201.8575 617.7738,220.8551 629.6938,239.4651" fill="none" id="KOReader-to-HTTPAPI" style="stroke:#181818;stroke-width:1;"/><polygon fill="#181818" points="632.93,244.5175,631.444,234.7814,630.2332,240.3071,624.7074,239.0963,632.93,244.5175" style="stroke:#181818;stroke-width:1;"/></g><!--link User to WebUI--><g class="link" data-entity-1="User" data-entity-2="WebUI" data-source-line="166" data-uid="lnk25" id="link_User_WebUI"><path codeLine="166" d="M462.01,185.4575 C462.01,204.3775 462.01,220.9975 462.01,238.6775" fill="none" id="User-to-WebUI" style="stroke:#181818;stroke-width:1;"/><polygon fill="#181818" points="462.01,244.6775,466.01,235.6775,462.01,239.6775,458.01,235.6775,462.01,244.6775" style="stroke:#181818;stroke-width:1;"/></g><!--link User to WallabagAndroid--><g class="link" data-entity-1="User" data-entity-2="WallabagAndroid" data-source-line="167" data-uid="lnk26" id="link_User_WallabagAndroid"><path codeLine="167" d="M478.45,113.4575 C486.93,100.0775 498.64,86.1075 513.51,78.7075 C559.27,55.9375 579.72,63.4775 628.51,78.7075 C649.75,85.3375 665.6679,94.7006 682.5679,107.5806" fill="none" id="User-to-WallabagAndroid" style="stroke:#181818;stroke-width:1;"/><polygon fill="#181818" points="687.34,111.2175,682.6065,102.5807,683.3633,108.1867,677.7573,108.9435,687.34,111.2175" style="stroke:#181818;stroke-width:1;"/></g><!--link WallabagAndroid to HTTPAPI--><g class="link" data-entity-1="WallabagAndroid" data-entity-2="HTTPAPI" data-source-line="168" data-uid="lnk27" id="link_WallabagAndroid_HTTPAPI"><path codeLine="168" d="M706.52,182.4075 C694.98,201.8575 683.7812,220.7472 672.7412,239.3572" fill="none" id="WallabagAndroid-to-HTTPAPI" style="stroke:#181818;stroke-width:1;"/><polygon fill="#181818" points="669.68,244.5175,677.7121,238.8179,672.231,240.2172,670.8317,234.7362,669.68,244.5175" style="stroke:#181818;stroke-width:1;"/></g><!--link WebUI to HTTPAPI--><g class="link" data-entity-1="WebUI" data-entity-2="HTTPAPI" data-source-line="170" data-uid="lnk28" id="link_WebUI_HTTPAPI"><path codeLine="170" d="M536.6,275.3075 C548.17,275.3075 553.75,275.3075 565.32,275.3075" fill="none" id="WebUI-to-HTTPAPI" style="stroke:#181818;stroke-width:1;"/><polygon fill="#181818" points="571.32,275.3075,562.32,271.3075,566.32,275.3075,562.32,279.3075,571.32,275.3075" style="stroke:#181818;stroke-width:1;"/></g><!--link HTTPAPI to AuthNMiddleware--><g class="link" data-entity-1="HTTPAPI" data-entity-2="AuthNMiddleware" data-source-line="172" data-uid="lnk29" id="link_HTTPAPI_AuthNMiddleware"><path codeLine="172" d="M590.09,306.0575 C551.58,324.5675 506.3776,346.2779 461.2376,367.9779" fill="none" id="HTTPAPI-to-AuthNMiddleware" style="stroke:#181818;stroke-width:1;"/><polygon fill="#181818" points="455.83,370.5775,465.6745,370.2832,460.3363,368.4112,462.2084,363.0731,455.83,370.5775" style="stroke:#181818;stroke-width:1;"/></g><!--link HTTPAPI to OAuth2Manager--><g class="link" data-entity-1="HTTPAPI" data-entity-2="OAuth2Manager" data-source-line="173" data-uid="lnk30" id="link_HTTPAPI_OAuth2Manager"><path codeLine="173" d="M634.33,306.0275 C599.64,364.3375 526.108,487.9312 491.568,545.9812" fill="none" id="HTTPAPI-to-OAuth2Manager" style="stroke:#181818;stroke-width:1;"/><polygon fill="#181818" points="488.5,551.1375,496.5395,545.4484,491.0567,546.8406,489.6645,541.3577,488.5,551.1375" style="stroke:#181818;stroke-width:1;"/></g><!--link HTTPAPI to AdminManager--><g class="link" data-entity-1="HTTPAPI" data-entity-2="AdminManager" data-source-line="174" data-uid="lnk31" id="link_HTTPAPI_AdminManager"><path codeLine="174" d="M652.01,306.0275 C652.01,364.3375 652.01,487.0875 652.01,545.1375" fill="none" id="HTTPAPI-to-AdminManager" style="stroke:#181818;stroke-width:1;"/><polygon fill="#181818" points="652.01,551.1375,656.01,542.1375,652.01,546.1375,648.01,542.1375,652.01,551.1375" style="stroke:#181818;stroke-width:1;"/></g><!--link HTTPAPI to ConversionManager--><g class="link" data-entity-1="HTTPAPI" data-entity-2="ConversionManager" data-source-line="175" data-uid="lnk32" id="link_HTTPAPI_ConversionManager"><path codeLine="175" d="M690.44,306.0575 C712.63,323.3275 741,345.5475 766.01,365.5975 C842.67,427.0575 926.192,495.9669 978.212,539.1169" fill="none" id="HTTPAPI-to-ConversionManager" style="stroke:#181818;stroke-width:1;"/><polygon fill="#181818" points="982.83,542.9475,978.4567,534.1229,978.9816,539.7553,973.3492,540.2803,982.83,542.9475" style="stroke:#181818;stroke-width:1;"/></g><!--link HTTPAPI to EntryManager--><g class="link" data-entity-1="HTTPAPI" data-entity-2="EntryManager" data-source-line="176" data-uid="lnk33" id="link_HTTPAPI_EntryManager"><path codeLine="176" d="M669.7,306.0275 C704.39,364.3375 777.9226,487.9308 812.4526,545.9808" fill="none" id="HTTPAPI-to-EntryManager" style="stroke:#181818;stroke-width:1;"/><polygon fill="#181818" points="815.52,551.1375,814.3567,541.3576,812.9639,546.8403,807.4812,545.4474,815.52,551.1375" style="stroke:#181818;stroke-width:1;"/></g><!--link AuthNMiddleware to TokenStorage--><g class="link" data-entity-1="AuthNMiddleware" data-entity-2="TokenStorage" data-source-line="179" data-uid="lnk34" id="link_AuthNMiddleware_TokenStorage"><path codeLine="179" d="M331.58,483.1975 C308.48,575.8175 265.4621,748.2959 247.8821,818.7759" fill="none" id="AuthNMiddleware-to-TokenStorage" style="stroke:#181818;stroke-width:1;"/><polygon fill="#181818" points="246.43,824.5975,252.4892,816.8331,247.6401,819.7461,244.7271,814.897,246.43,824.5975" style="stroke:#181818;stroke-width:1;"/></g><!--link AuthNMiddleware to UserInfoStorage--><g class="link" data-entity-1="AuthNMiddleware" data-entity-2="UserInfoStorage" data-source-line="180" data-uid="lnk35" id="link_AuthNMiddleware_UserInfoStorage"><path codeLine="180" d="M352.78,483.3575 C358.31,522.5675 367.61,575.1575 382.01,619.9775 C405.25,692.2875 442.8553,765.9865 467.7053,811.3065" fill="none" id="AuthNMiddleware-to-UserInfoStorage" style="stroke:#181818;stroke-width:1;"/><polygon fill="#181818" points="470.59,816.5675,469.7702,806.7528,468.1861,812.1833,462.7556,810.5991,470.59,816.5675" style="stroke:#181818;stroke-width:1;"/></g><!--link EntryManager to RetrievalEngine--><g class="link" data-entity-1="EntryManager" data-entity-2="RetrievalEngine" data-source-line="183" data-uid="lnk36" id="link_EntryManager_RetrievalEngine"><path codeLine="183" d="M834.33,612.1375 C835.21,631.9875 836.1134,652.3134 837.0634,673.6734" fill="none" id="EntryManager-to-RetrievalEngine" style="stroke:#181818;stroke-width:1;"/><polygon fill="#181818" points="837.33,679.6675,840.9262,670.4987,837.1078,674.6724,832.9341,670.8541,837.33,679.6675" style="stroke:#181818;stroke-width:1;"/></g><!--link EntryManager to AuthZEngine--><g class="link" data-entity-1="EntryManager" data-entity-2="AuthZEngine" data-source-line="184" data-uid="lnk37" id="link_EntryManager_AuthZEngine"><path codeLine="184" d="M792.19,612.1375 C761.29,634.5475 723.8766,661.6743 692.9166,684.1343" fill="none" id="EntryManager-to-AuthZEngine" style="stroke:#181818;stroke-width:1;"/><polygon fill="#181818" points="688.06,687.6575,697.6938,685.6104,692.1072,684.7215,692.9961,679.1349,688.06,687.6575" style="stroke:#181818;stroke-width:1;"/></g><!--link EntryManager to EntryStorage--><g class="link" data-entity-1="EntryManager" data-entity-2="EntryStorage" data-source-line="185" data-uid="lnk38" id="link_EntryManager_EntryStorage"><path codeLine="185" d="M870.02,611.9475 C890.68,629.8775 915.68,654.2375 933.01,679.9775 C961.94,722.9475 980.5032,773.8004 991.7932,810.6704" fill="none" id="EntryManager-to-EntryStorage" style="stroke:#181818;stroke-width:1;"/><polygon fill="#181818" points="993.55,816.4075,994.7396,806.6307,992.086,811.6266,987.0902,808.9731,993.55,816.4075" style="stroke:#181818;stroke-width:1;"/></g><!--link OAuth2Manager to TokenStorage--><g class="link" data-entity-1="OAuth2Manager" data-entity-2="TokenStorage" data-source-line="187" data-uid="lnk39" id="link_OAuth2Manager_TokenStorage"><path codeLine="187" d="M445.74,612.1375 C401.12,664.4175 312.7555,767.924 268.1455,820.184" fill="none" id="OAuth2Manager-to-TokenStorage" style="stroke:#181818;stroke-width:1;"/><polygon fill="#181818" points="264.25,824.7475,273.1355,820.4993,267.4962,820.9446,267.0509,815.3053,264.25,824.7475" style="stroke:#181818;stroke-width:1;"/></g><!--link OAuth2Manager to UserInfoStorage--><g class="link" data-entity-1="OAuth2Manager" data-entity-2="UserInfoStorage" data-source-line="188" data-uid="lnk40" id="link_OAuth2Manager_UserInfoStorage"><path codeLine="188" d="M473.3,612.1375 C477.14,661.7975 484.4083,755.8453 488.6283,810.5253" fill="none" id="OAuth2Manager-to-UserInfoStorage" style="stroke:#181818;stroke-width:1;"/><polygon fill="#181818" points="489.09,816.5075,492.3856,807.2264,488.7053,811.5223,484.4093,807.842,489.09,816.5075" style="stroke:#181818;stroke-width:1;"/></g><!--link AdminManager to AuthZEngine--><g class="link" data-entity-1="AdminManager" data-entity-2="AuthZEngine" data-source-line="190" data-uid="lnk41" id="link_AdminManager_AuthZEngine"><path codeLine="190" d="M650.92,612.1375 C650.08,634.6275 649.1615,659.4216 648.3315,681.8916" fill="none" id="AdminManager-to-AuthZEngine" style="stroke:#181818;stroke-width:1;"/><polygon fill="#181818" points="648.11,687.8875,652.4395,679.0413,648.2946,682.8909,644.4449,678.746,648.11,687.8875" style="stroke:#181818;stroke-width:1;"/></g><!--link AdminManager to UserInfoStorage--><g class="link" data-entity-1="AdminManager" data-entity-2="UserInfoStorage" data-source-line="191" data-uid="lnk42" id="link_AdminManager_UserInfoStorage"><path codeLine="191" d="M612.14,612.1275 C590.82,629.7575 565.61,653.7675 549.01,679.9775 C521.92,722.7475 507.7398,773.767 499.9298,810.747" fill="none" id="AdminManager-to-UserInfoStorage" style="stroke:#181818;stroke-width:1;"/><polygon fill="#181818" points="498.69,816.6175,504.4634,808.6383,499.7232,811.7254,496.6361,806.9852,498.69,816.6175" style="stroke:#181818;stroke-width:1;"/></g><!--link ConversionManager to ConversionEngine--><g class="link" data-entity-1="ConversionManager" data-entity-2="ConversionEngine" data-source-line="193" data-uid="lnk43" id="link_ConversionManager_ConversionEngine"><path codeLine="193" d="M1070.2,620.4675 C1090.73,638.9275 1110.8984,657.0658 1131.4284,675.5258" fill="none" id="ConversionManager-to-ConversionEngine" style="stroke:#181818;stroke-width:1;"/><polygon fill="#181818" points="1135.89,679.5375,1131.8721,670.5455,1132.172,676.1944,1126.5231,676.4943,1135.89,679.5375" style="stroke:#181818;stroke-width:1;"/></g><!--link ConversionManager to AuthZEngine--><g class="link" data-entity-1="ConversionManager" data-entity-2="AuthZEngine" data-source-line="194" data-uid="lnk44" id="link_ConversionManager_AuthZEngine"><path codeLine="194" d="M945.41,610.1675 C888.83,629.2875 812.17,655.5875 745.01,679.9775 C738.25,682.4275 736.8586,682.9125 729.8386,685.5425" fill="none" id="ConversionManager-to-AuthZEngine" style="stroke:#181818;stroke-width:1;"/><polygon fill="#181818" points="724.22,687.6475,734.0513,688.2358,728.9022,685.8933,731.2446,680.7443,724.22,687.6475" style="stroke:#181818;stroke-width:1;"/></g><!--link ConversionManager to EntryStorage--><g class="link" data-entity-1="ConversionManager" data-entity-2="EntryStorage" data-source-line="195" data-uid="lnk45" id="link_ConversionManager_EntryStorage"><path codeLine="195" d="M1024.68,620.3175 C1020.1,672.0975 1012.468,758.5908 1007.888,810.4308" fill="none" id="ConversionManager-to-EntryStorage" style="stroke:#181818;stroke-width:1;"/><polygon fill="#181818" points="1007.36,816.4075,1012.1365,807.7944,1007.8,811.4269,1004.1676,807.0904,1007.36,816.4075" style="stroke:#181818;stroke-width:1;"/></g><!--link AuthZEngine to UserInfoStorage--><g class="link" data-entity-1="AuthZEngine" data-entity-2="UserInfoStorage" data-source-line="198" data-uid="lnk46" id="link_AuthZEngine_UserInfoStorage"><path codeLine="198" d="M613,749.0275 C590.18,768.8775 564.4657,791.2582 539.9257,812.6182" fill="none" id="AuthZEngine-to-UserInfoStorage" style="stroke:#181818;stroke-width:1;"/><polygon fill="#181818" points="535.4,816.5575,544.8148,813.6658,539.1714,813.2748,539.5624,807.6315,535.4,816.5575" style="stroke:#181818;stroke-width:1;"/></g><!--link EntryStorage to EntriesFileCache--><g class="link" data-entity-1="EntryStorage" data-entity-2="EntriesFileCache" data-source-line="201" data-uid="lnk47" id="link_EntryStorage_EntriesFileCache"><path codeLine="201" d="M978.3,894.0375 C964.79,913.8675 951.6388,933.1493 938.1188,952.9893" fill="none" id="EntryStorage-to-EntriesFileCache" style="stroke:#181818;stroke-width:1;"/><polygon fill="#181818" points="934.74,957.9475,943.1136,952.7627,937.5557,953.8157,936.5027,948.2577,934.74,957.9475" style="stroke:#181818;stroke-width:1;"/></g><!--link EntryStorage to EntriesDB--><g class="link" data-entity-1="EntryStorage" data-entity-2="EntriesDB" data-source-line="202" data-uid="lnk48" id="link_EntryStorage_EntriesDB"><path codeLine="202" d="M1029.72,894.0375 C1042.25,912.4175 1053.9806,929.6297 1066.8906,948.5697" fill="none" id="EntryStorage-to-EntriesDB" style="stroke:#181818;stroke-width:1;"/><polygon fill="#181818" points="1070.27,953.5275,1068.5061,943.8379,1067.4539,949.396,1061.8957,948.3437,1070.27,953.5275" style="stroke:#181818;stroke-width:1;"/></g><!--link UserInfoStorage to UserInfoDB--><g class="link" data-entity-1="UserInfoStorage" data-entity-2="UserInfoDB" data-source-line="204" data-uid="lnk49" id="link_UserInfoStorage_UserInfoDB"><path codeLine="204" d="M492.01,894.0375 C492.01,912.4175 492.01,928.5875 492.01,947.5275" fill="none" id="UserInfoStorage-to-UserInfoDB" style="stroke:#181818;stroke-width:1;"/><polygon fill="#181818" points="492.01,953.5275,496.01,944.5275,492.01,948.5275,488.01,944.5275,492.01,953.5275" style="stroke:#181818;stroke-width:1;"/></g><!--link TokenStorage to TokenDB--><g class="link" data-entity-1="TokenStorage" data-entity-2="TokenDB" data-source-line="206" data-uid="lnk50" id="link_TokenStorage_TokenDB"><path codeLine="206" d="M242.83,885.8775 C245.37,905.5275 247.9713,925.7069 250.7913,947.5369" fill="none" id="TokenStorage-to-TokenDB" style="stroke:#181818;stroke-width:1;"/><polygon fill="#181818" points="251.56,953.4875,254.374,944.0492,250.9194,948.5287,246.4399,945.0741,251.56,953.4875" style="stroke:#181818;stroke-width:1;"/></g><!--link TokenStorage to TokenCache--><g class="link" data-entity-1="TokenStorage" data-entity-2="TokenCache" data-source-line="207" data-uid="lnk51" id="link_TokenStorage_TokenCache"><path codeLine="207" d="M204.23,885.8775 C179.5,906.8875 150.6518,931.4119 124.0018,954.0619" fill="none" id="TokenStorage-to-TokenCache" style="stroke:#181818;stroke-width:1;"/><polygon fill="#181818" points="119.43,957.9475,128.8782,955.1669,123.2399,954.7095,123.6973,949.0711,119.43,957.9475" style="stroke:#181818;stroke-width:1;"/></g><!--SRC=[ZLLRJzim57xth_3e99wAkdOC1jgaNjY61gChL4nCUt0IjxL8x2fsOVttExuaiNDXzA5AVCxvFfzBpgUOIYc-9sbA8h8MU2gohU2KAuasb2Gqnt5nWXD6rZd943h4jsgVKedUlBqcdAp1wnC-Y4ZyU3OWm-7euxcYVzNP5LjlrDUSxizJnkdPyuOfQXwF4g4KJGuW_eAluQ0CFnwHOKHj-2I54-rpgqGE9ANJk-JqVNHSSvhJN3AfA8yznz6GZeRMyRvajuywPahYZUTzyc5mUjBjVSsI9ANF9FT21iU3qq5to7X- -KfugEaqPQRk98PyyL92LNyZ33_zYFuWL7NY-yt2DiSw5A_cvGX-zfHnk2yURxTXSD7iCKzomHA7KPo668MF0pd4a17AQQm8NmFsjxkxkSwnPp8DWOIncW1zt8UVUJ2d6wBlbaiDMi7TqsZP1GOsl6n0NVyoXl9wLO_GDXSnbHAFTshpm-jTps-aPJ4kVcp0egrGDnOJnGJ7C3BneyGhOSiDD0eIe0dEgHIx73Z34aBt4XnHyBUuz8dcUo_CVK7k_lP5UaKP9ndZnMVMApyuTtDjB262Qvi1ifOChXzM-aOdDUn2jTPsM6TJuf5oqzm0zuAhVDy5QupjgDOqNInd8TvKy2VzOOlE2bGUBo77fPSvL09Vp9SJJ5LyP0jlzv1FhVDySEkfL-ofQbuUYf36h3pWhKXPl7UJ4YQqe2fdz8caxSYbkHMzieeLXfx2YnssLIuo35EAbukhhWAs4thbQsFqp3NAYAfd2YC0SvqH9MqLtQRsBt2d1wNOuBrobrjsOooZ0cPzIEsOIHpcf2Vxagz45wgPVEtm4ZA9Ox63RMYE6BTfw3nR1hgBoCxM2oIkO9O4LXvUCIsRfbOpeWX22Vn7H5P9pIP0uujPFQVPfCRqywgl4H8ilOj0FdYdOroUXhGaCtNlOB8z-IyBBccy7iKYJQ5qK4PfSQp2zfpI-WJc9EIuvFsCPbq46h_AuC9MjYC7svZNLueQVmrUpyBnV86-jUMYpzjIAUP4WyTWPjmAgzr3Ukrxam0V6NTyoFIv_xcIz5Bg-t3gzDPvmO5Hp3AefkoehlG-X9LogxZUCIeaNVlMfDEpWJ6GaD3aIrPeQUppqEpBHqtEwpBUDm7-TkbmgMsBG6K3kTBEjVNSTF1KeMuixbyIXIBRl6-BlN7PGFth5wWPs-AR0XgsmI6rk_bSRHwDZ0iTbSXNpuuk58_1YYqm_M-kqmC-S5GN0vzCsmFzALi0bdQ38Vm7]--></g></svg>