<svg xmlns="http://www.w3.org/2000/svg" xmlns:xlink="http://www.w3.org/1999/xlink" contentStyleType="text/css" data-diagram-type="CLASS" height="570px" preserveAspectRatio="none" style="width:994px;height:570px;background:#FFFFFF;" version="1.1" viewBox="0 0 994 570" width="994px" zoomAndPan="magnify"><title>Wallabago Components</title><defs/><g><g class="header" data-source-line="3"><text fill="#888888" font-family="sans-serif" font-size="10" lengthAdjust="spacing" textLength="101.333" x="879.2884" y="9.2822">component diagram</text></g><g class="title" data-source-line="2"><text fill="#000000" font-family="sans-serif" font-size="14" font-weight="bold" lengthAdjust="spacing" textLength="186.4912" x="397.0651" y="35.6357">Wallabago Components</text></g><!--entity AdminManager--><g class="entity" data-entity="AdminManager" data-source-line="11" data-uid="ent0002" id="entity_AdminManager"><rect fill="#0A2239" height="60.5938" rx="2.5" ry="2.5" style="stroke:#FFFFFF;stroke-width:1;stroke-dasharray:1,3;" width="148.584" x="7" y="65.0875"/><text fill="#D3D3D3" font-family="sans-serif" font-size="14" lengthAdjust="spacing" textLength="110.6807" x="17" y="88.0826">Admin Manager</text><line style="stroke:#FFFFFF;stroke-width:1;" x1="8" x2="154.584" y1="91.3844" y2="91.3844"/><text fill="#D3D3D3" font-family="sans-serif" font-size="14" lengthAdjust="spacing" textLength="128.584" x="17" y="108.3795">User Management</text></g><!--entity OAuth2Manager--><g class="entity" data-entity="OAuth2Manager" data-source-line="17" data-uid="ent0003" id="entity_OAuth2Manager"><rect fill="#0A2239" height="60.5938" rx="2.5" ry="2.5" style="stroke:#FFFFFF;stroke-width:1;stroke-dasharray:1,3;" width="138.5557" x="191.01" y="65.0875"/><text fill="#D3D3D3" font-family="sans-serif" font-size="14" lengthAdjust="spacing" textLength="118.5557" x="201.01" y="88.0826">OAuth2 Manager</text><line style="stroke:#FFFFFF;stroke-width:1;" x1="192.01" x2="328.5657" y1="91.3844" y2="91.3844"/><text fill="#D3D3D3" font-family="sans-serif" font-size="14" lengthAdjust="spacing" textLength="52.7393" x="201.01" y="108.3795">OAuth2</text></g><!--entity AuthEngine--><g class="entity" data-entity="AuthEngine" data-source-line="23" data-uid="ent0004" id="entity_AuthEngine"><rect fill="#53A2BE" height="76.8906" rx="2.5" ry="2.5" style="stroke:#181818;stroke-width:0.5;" width="125.5059" x="276.54" y="193.8275"/><text fill="#000000" font-family="sans-serif" font-size="14" lengthAdjust="spacing" textLength="85.2441" x="286.54" y="216.8226">Auth Engine</text><line style="stroke:#181818;stroke-width:1;" x1="277.54" x2="401.0459" y1="220.1244" y2="220.1244"/><text fill="#000000" font-family="sans-serif" font-size="14" lengthAdjust="spacing" textLength="105.5059" x="286.54" y="237.1195">AuthN &amp; AuthZ</text><text fill="#000000" font-family="sans-serif" font-size="14" lengthAdjust="spacing" textLength="93.9463" x="286.54" y="253.4164">policy checks</text></g><!--entity AuthStorage--><g class="entity" data-entity="AuthStorage" data-source-line="30" data-uid="ent0005" id="entity_AuthStorage"><rect fill="#1D84B5" height="60.5938" rx="2.5" ry="2.5" style="stroke:#181818;stroke-width:0.5;" width="227.9355" x="213.32" y="338.8675"/><text fill="#000000" font-family="sans-serif" font-size="14" lengthAdjust="spacing" textLength="92.0391" x="223.32" y="361.8626">Auth Storage</text><line style="stroke:#181818;stroke-width:1;" x1="214.32" x2="440.2555" y1="365.1644" y2="365.1644"/><text fill="#000000" font-family="sans-serif" font-size="14" lengthAdjust="spacing" textLength="207.9355" x="223.32" y="382.1595">Store tokens and permissions</text></g><!--entity UserInfoStorage--><g class="entity" data-entity="UserInfoStorage" data-source-line="36" data-uid="ent0006" id="entity_UserInfoStorage"><rect fill="#1D84B5" height="76.8906" rx="2.5" ry="2.5" style="stroke:#181818;stroke-width:0.5;" width="142.083" x="24.25" y="330.7175"/><text fill="#000000" font-family="sans-serif" font-size="14" lengthAdjust="spacing" textLength="122.083" x="34.25" y="353.7126">User Info Storage</text><line style="stroke:#181818;stroke-width:1;" x1="25.25" x2="165.333" y1="357.0144" y2="357.0144"/><text fill="#000000" font-family="sans-serif" font-size="14" lengthAdjust="spacing" textLength="97.5352" x="34.25" y="374.0095">Store account</text><text fill="#000000" font-family="sans-serif" font-size="14" lengthAdjust="spacing" textLength="81.0469" x="34.25" y="390.3064">information</text></g><!--entity UserInfoDB--><g class="entity" data-entity="UserInfoDB" data-source-line="43" data-uid="ent0007" id="entity_UserInfoDB"><path d="M18.97,477.6075 C18.97,467.6075 95.2957,467.6075 95.2957,467.6075 C95.2957,467.6075 171.6214,467.6075 171.6214,477.6075 L171.6214,543.4981 C171.6214,553.4981 95.2957,553.4981 95.2957,553.4981 C95.2957,553.4981 18.97,553.4981 18.97,543.4981 L18.97,477.6075" fill="#132E32" style="stroke:#FFFFFF;stroke-width:0.5;"/><path d="M18.97,477.6075 C18.97,487.6075 95.2957,487.6075 95.2957,487.6075 C95.2957,487.6075 171.6214,487.6075 171.6214,477.6075" fill="none" style="stroke:#FFFFFF;stroke-width:0.5;"/><text fill="#FFFFFF" font-family="sans-serif" font-size="14" lengthAdjust="spacing" textLength="87.6914" x="28.97" y="504.6026">User Info DB</text><path d="M18.97,502.9044 C18.97,512.9044 95.2957,512.9044 95.2957,512.9044 C95.2957,512.9044 171.6214,512.9044 171.6214,502.9044" fill="none" style="stroke:#FFFFFF;stroke-width:1;"/><text fill="#FFFFFF" font-family="sans-serif" font-size="14" lengthAdjust="spacing" textLength="132.6514" x="28.97" y="524.8995">SQL-based storage</text><text fill="#FFFFFF" font-family="sans-serif" font-size="14" lengthAdjust="spacing" textLength="61.5303" x="28.97" y="541.1964">for users</text></g><!--entity EntryManager--><g class="entity" data-entity="EntryManager" data-source-line="50" data-uid="ent0008" id="entity_EntryManager"><rect fill="#0A2239" height="60.5938" rx="2.5" ry="2.5" style="stroke:#FFFFFF;stroke-width:1;stroke-dasharray:1,3;" width="123.0654" x="452.76" y="65.0875"/><text fill="#D3D3D3" font-family="sans-serif" font-size="14" lengthAdjust="spacing" textLength="103.0654" x="462.76" y="88.0826">Entry Manager</text><line style="stroke:#FFFFFF;stroke-width:1;" x1="453.76" x2="574.8254" y1="91.3844" y2="91.3844"/><text fill="#D3D3D3" font-family="sans-serif" font-size="14" lengthAdjust="spacing" textLength="82.2295" x="462.76" y="108.3795">Entry CRUD</text></g><!--entity ConversionManager--><g class="entity" data-entity="ConversionManager" data-source-line="56" data-uid="ent0009" id="entity_ConversionManager"><rect fill="#0A2239" height="76.8906" rx="2.5" ry="2.5" style="stroke:#FFFFFF;stroke-width:1;stroke-dasharray:1,3;" width="164.3066" x="633.14" y="56.9375"/><text fill="#D3D3D3" font-family="sans-serif" font-size="14" lengthAdjust="spacing" textLength="144.3066" x="643.14" y="79.9326">Conversion Manager</text><line style="stroke:#FFFFFF;stroke-width:1;" x1="634.14" x2="796.4466" y1="83.2344" y2="83.2344"/><text fill="#D3D3D3" font-family="sans-serif" font-size="14" lengthAdjust="spacing" textLength="118.1113" x="643.14" y="100.2295">Entry conversion</text><text fill="#D3D3D3" font-family="sans-serif" font-size="14" lengthAdjust="spacing" textLength="86.3447" x="643.14" y="116.5264">to EPUB etc.</text></g><!--entity RetrievalEngine--><g class="entity" data-entity="RetrievalEngine" data-source-line="63" data-uid="ent0010" id="entity_RetrievalEngine"><rect fill="#53A2BE" height="76.8906" rx="2.5" ry="2.5" style="stroke:#181818;stroke-width:0.5;" width="153.7656" x="437.41" y="193.8275"/><text fill="#000000" font-family="sans-serif" font-size="14" lengthAdjust="spacing" textLength="115.2744" x="447.41" y="216.8226">Retrieval Engine</text><line style="stroke:#181818;stroke-width:1;" x1="438.41" x2="590.1756" y1="220.1244" y2="220.1244"/><text fill="#000000" font-family="sans-serif" font-size="14" lengthAdjust="spacing" textLength="133.7656" x="447.41" y="237.1195">Retrieval of entries</text><text fill="#000000" font-family="sans-serif" font-size="14" lengthAdjust="spacing" textLength="92.5381" x="447.41" y="253.4164">from the URL</text></g><!--entity ConversionEngine--><g class="entity" data-entity="ConversionEngine" data-source-line="70" data-uid="ent0011" id="entity_ConversionEngine"><rect fill="#53A2BE" height="76.8906" rx="2.5" ry="2.5" style="stroke:#181818;stroke-width:0.5;" width="169.4131" x="768.59" y="193.8275"/><text fill="#000000" font-family="sans-serif" font-size="14" lengthAdjust="spacing" textLength="130.9219" x="778.59" y="216.8226">Conversion Engine</text><line style="stroke:#181818;stroke-width:1;" x1="769.59" x2="937.0031" y1="220.1244" y2="220.1244"/><text fill="#000000" font-family="sans-serif" font-size="14" lengthAdjust="spacing" textLength="149.4131" x="778.59" y="237.1195">Conversion of entries</text><text fill="#000000" font-family="sans-serif" font-size="14" lengthAdjust="spacing" textLength="119.2393" x="778.59" y="253.4164">between formats</text></g><!--entity AuthDB--><g class="entity" data-entity="AuthDB" data-source-line="77" data-uid="ent0012" id="entity_AuthDB"><path d="M384.35,477.6075 C384.35,467.6075 489.2875,467.6075 489.2875,467.6075 C489.2875,467.6075 594.225,467.6075 594.225,477.6075 L594.225,543.4981 C594.225,553.4981 489.2875,553.4981 489.2875,553.4981 C489.2875,553.4981 384.35,553.4981 384.35,543.4981 L384.35,477.6075" fill="#132E32" style="stroke:#FFFFFF;stroke-width:0.5;"/><path d="M384.35,477.6075 C384.35,487.6075 489.2875,487.6075 489.2875,487.6075 C489.2875,487.6075 594.225,487.6075 594.225,477.6075" fill="none" style="stroke:#FFFFFF;stroke-width:0.5;"/><text fill="#FFFFFF" font-family="sans-serif" font-size="14" lengthAdjust="spacing" textLength="57.6475" x="394.35" y="504.6026">Auth DB</text><path d="M384.35,502.9044 C384.35,512.9044 489.2875,512.9044 489.2875,512.9044 C489.2875,512.9044 594.225,512.9044 594.225,502.9044" fill="none" style="stroke:#FFFFFF;stroke-width:1;"/><text fill="#FFFFFF" font-family="sans-serif" font-size="14" lengthAdjust="spacing" textLength="132.6514" x="394.35" y="524.8995">SQL-based storage</text><text fill="#FFFFFF" font-family="sans-serif" font-size="14" lengthAdjust="spacing" textLength="189.875" x="394.35" y="541.1964">for tokens and permissions</text></g><!--entity AuthCache--><g class="entity" data-entity="AuthCache" data-source-line="84" data-uid="ent0013" id="entity_AuthCache"><rect fill="#176087" height="72.8906" rx="2.5" ry="2.5" style="stroke:#FFFFFF;stroke-width:0.5;" width="132.0264" x="217.28" y="476.1075"/><rect fill="#176087" height="72.8906" rx="2.5" ry="2.5" style="stroke:#FFFFFF;stroke-width:0.5;" width="132.0264" x="213.28" y="472.1075"/><text fill="#FFFFFF" font-family="sans-serif" font-size="14" lengthAdjust="spacing" textLength="80.8008" x="221.28" y="493.1026">Auth Cache</text><line style="stroke:#FFFFFF;stroke-width:1;" x1="214.28" x2="348.3064" y1="496.4044" y2="496.4044"/><text fill="#FFFFFF" font-family="sans-serif" font-size="14" lengthAdjust="spacing" textLength="111.5762" x="221.28" y="513.3995">In-mem storage</text><text fill="#FFFFFF" font-family="sans-serif" font-size="14" lengthAdjust="spacing" textLength="70.6426" x="221.28" y="529.6964">for tokens</text></g><!--entity EntryStorage--><g class="entity" data-entity="EntryStorage" data-source-line="91" data-uid="ent0014" id="entity_EntryStorage"><rect fill="#1D84B5" height="76.8906" rx="2.5" ry="2.5" style="stroke:#181818;stroke-width:0.5;" width="116.4756" x="655.05" y="330.7175"/><text fill="#000000" font-family="sans-serif" font-size="14" lengthAdjust="spacing" textLength="96.4756" x="665.05" y="353.7126">Entry Storage</text><line style="stroke:#181818;stroke-width:1;" x1="656.05" x2="770.5256" y1="357.0144" y2="357.0144"/><text fill="#000000" font-family="sans-serif" font-size="14" lengthAdjust="spacing" textLength="90.2891" x="665.05" y="374.0095">Store entries</text><text fill="#000000" font-family="sans-serif" font-size="14" lengthAdjust="spacing" textLength="59.4043" x="665.05" y="390.3064">and files</text></g><!--entity EntriesDB--><g class="entity" data-entity="EntriesDB" data-source-line="98" data-uid="ent0015" id="entity_EntriesDB"><path d="M824.97,477.6075 C824.97,467.6075 901.2957,467.6075 901.2957,467.6075 C901.2957,467.6075 977.6214,467.6075 977.6214,477.6075 L977.6214,543.4981 C977.6214,553.4981 901.2957,553.4981 901.2957,553.4981 C901.2957,553.4981 824.97,553.4981 824.97,543.4981 L824.97,477.6075" fill="#132E32" style="stroke:#FFFFFF;stroke-width:0.5;"/><path d="M824.97,477.6075 C824.97,487.6075 901.2957,487.6075 901.2957,487.6075 C901.2957,487.6075 977.6214,487.6075 977.6214,477.6075" fill="none" style="stroke:#FFFFFF;stroke-width:0.5;"/><text fill="#FFFFFF" font-family="sans-serif" font-size="14" lengthAdjust="spacing" textLength="62.084" x="834.97" y="504.6026">Entry DB</text><path d="M824.97,502.9044 C824.97,512.9044 901.2957,512.9044 901.2957,512.9044 C901.2957,512.9044 977.6214,512.9044 977.6214,502.9044" fill="none" style="stroke:#FFFFFF;stroke-width:1;"/><text fill="#FFFFFF" font-family="sans-serif" font-size="14" lengthAdjust="spacing" textLength="132.6514" x="834.97" y="524.8995">SQL-based storage</text><text fill="#FFFFFF" font-family="sans-serif" font-size="14" lengthAdjust="spacing" textLength="96.7012" x="834.97" y="541.1964">for entry data</text></g><!--entity EntriesFileCache--><g class="entity" data-entity="EntriesFileCache" data-source-line="105" data-uid="ent0016" id="entity_EntriesFileCache"><rect fill="#176087" height="72.8906" rx="2.5" ry="2.5" style="stroke:#FFFFFF;stroke-width:0.5;" width="153.4229" x="636.58" y="476.1075"/><rect fill="#176087" height="72.8906" rx="2.5" ry="2.5" style="stroke:#FFFFFF;stroke-width:0.5;" width="153.4229" x="632.58" y="472.1075"/><text fill="#FFFFFF" font-family="sans-serif" font-size="14" lengthAdjust="spacing" textLength="72.4336" x="640.58" y="493.1026">File Cache</text><line style="stroke:#FFFFFF;stroke-width:1;" x1="633.58" x2="789.0029" y1="496.4044" y2="496.4044"/><text fill="#FFFFFF" font-family="sans-serif" font-size="14" lengthAdjust="spacing" textLength="137.4229" x="640.58" y="513.3995">Storage for caching</text><text fill="#FFFFFF" font-family="sans-serif" font-size="14" lengthAdjust="spacing" textLength="103.8447" x="640.58" y="529.6964">converted files</text></g><!--link OAuth2Manager to AuthEngine--><g class="link" data-entity-1="OAuth2Manager" data-entity-2="AuthEngine" data-source-line="112" data-uid="lnk17" id="link_OAuth2Manager_AuthEngine"><path codeLine="112" d="M277.63,125.9875 C289.26,145.8375 301.6377,166.9801 314.1477,188.3401" fill="none" id="OAuth2Manager-to-AuthEngine" style="stroke:#181818;stroke-width:1;"/><polygon fill="#181818" points="317.18,193.5175,316.0832,183.7299,314.6531,189.203,309.18,187.7729,317.18,193.5175" style="stroke:#181818;stroke-width:1;"/></g><!--link AuthEngine to AuthStorage--><g class="link" data-entity-1="AuthEngine" data-entity-2="AuthStorage" data-source-line="113" data-uid="lnk18" id="link_AuthEngine_AuthStorage"><path codeLine="113" d="M335.92,271.2075 C334.02,292.5575 332.211,312.841 330.451,332.651" fill="none" id="AuthEngine-to-AuthStorage" style="stroke:#181818;stroke-width:1;"/><polygon fill="#181818" points="329.92,338.6275,334.7008,330.0168,330.3625,333.6471,326.7322,329.3088,329.92,338.6275" style="stroke:#181818;stroke-width:1;"/></g><!--link OAuth2Manager to AuthStorage--><g class="link" data-entity-1="OAuth2Manager" data-entity-2="AuthStorage" data-source-line="114" data-uid="lnk19" id="link_OAuth2Manager_AuthStorage"><path codeLine="114" d="M254.76,125.8775 C249.33,161.2175 243.9,221.7775 259.29,270.7175 C267.27,296.1075 280.6376,316.0392 295.7376,334.1492" fill="none" id="OAuth2Manager-to-AuthStorage" style="stroke:#181818;stroke-width:1;"/><polygon fill="#181818" points="299.58,338.7575,296.8887,329.2835,296.378,334.9173,290.7443,334.4066,299.58,338.7575" style="stroke:#181818;stroke-width:1;"/></g><!--link OAuth2Manager to UserInfoStorage--><g class="link" data-entity-1="OAuth2Manager" data-entity-2="UserInfoStorage" data-source-line="115" data-uid="lnk20" id="link_OAuth2Manager_UserInfoStorage"><path codeLine="115" d="M242.32,125.9875 C212.17,175.6475 154.5533,270.5484 121.3633,325.2284" fill="none" id="OAuth2Manager-to-UserInfoStorage" style="stroke:#181818;stroke-width:1;"/><polygon fill="#181818" points="118.25,330.3575,126.3393,324.7394,120.8444,326.0833,119.5005,320.5884,118.25,330.3575" style="stroke:#181818;stroke-width:1;"/></g><!--link UserInfoStorage to UserInfoDB--><g class="link" data-entity-1="UserInfoStorage" data-entity-2="UserInfoDB" data-source-line="116" data-uid="lnk21" id="link_UserInfoStorage_UserInfoDB"><path codeLine="116" d="M95.29,407.8875 C95.29,426.2675 95.29,442.4375 95.29,461.3775" fill="none" id="UserInfoStorage-to-UserInfoDB" style="stroke:#181818;stroke-width:1;"/><polygon fill="#181818" points="95.29,467.3775,99.29,458.3775,95.29,462.3775,91.29,458.3775,95.29,467.3775" style="stroke:#181818;stroke-width:1;"/></g><!--link AuthStorage to AuthDB--><g class="link" data-entity-1="AuthStorage" data-entity-2="AuthDB" data-source-line="117" data-uid="lnk22" id="link_AuthStorage_AuthDB"><path codeLine="117" d="M361.65,399.7275 C384.5,419.3775 410.3119,441.594 435.6819,463.424" fill="none" id="AuthStorage-to-AuthDB" style="stroke:#181818;stroke-width:1;"/><polygon fill="#181818" points="440.23,467.3375,436.0169,458.4353,436.4399,464.0763,430.7989,464.4994,440.23,467.3375" style="stroke:#181818;stroke-width:1;"/></g><!--link AuthStorage to AuthCache--><g class="link" data-entity-1="AuthStorage" data-entity-2="AuthCache" data-source-line="118" data-uid="lnk23" id="link_AuthStorage_AuthCache"><path codeLine="118" d="M317.54,399.7275 C310.6,420.7375 303.1115,443.4501 295.6315,466.1001" fill="none" id="AuthStorage-to-AuthCache" style="stroke:#181818;stroke-width:1;"/><polygon fill="#181818" points="293.75,471.7975,300.3705,464.5058,295.3179,467.0497,292.774,461.9971,293.75,471.7975" style="stroke:#181818;stroke-width:1;"/></g><!--link EntryManager to AuthEngine--><g class="link" data-entity-1="EntryManager" data-entity-2="AuthEngine" data-source-line="120" data-uid="lnk24" id="link_EntryManager_AuthEngine"><path codeLine="120" d="M475.89,125.9875 C450.13,145.8375 420.732,168.4944 393.022,189.8544" fill="none" id="EntryManager-to-AuthEngine" style="stroke:#181818;stroke-width:1;"/><polygon fill="#181818" points="388.27,193.5175,397.8401,191.1909,392.23,190.4649,392.956,184.8549,388.27,193.5175" style="stroke:#181818;stroke-width:1;"/></g><!--link EntryManager to RetrievalEngine--><g class="link" data-entity-1="EntryManager" data-entity-2="RetrievalEngine" data-source-line="121" data-uid="lnk25" id="link_EntryManager_RetrievalEngine"><path codeLine="121" d="M514.29,125.9875 C514.29,145.8375 514.29,166.1575 514.29,187.5175" fill="none" id="EntryManager-to-RetrievalEngine" style="stroke:#181818;stroke-width:1;"/><polygon fill="#181818" points="514.29,193.5175,518.29,184.5175,514.29,188.5175,510.29,184.5175,514.29,193.5175" style="stroke:#181818;stroke-width:1;"/></g><!--link EntryManager to EntryStorage--><g class="link" data-entity-1="EntryManager" data-entity-2="EntryStorage" data-source-line="122" data-uid="lnk26" id="link_EntryManager_EntryStorage"><path codeLine="122" d="M546.23,125.9175 C565.37,144.4575 589.54,169.3975 608.29,193.8275 C642.29,238.1075 671.4828,288.8507 691.0228,325.2607" fill="none" id="EntryManager-to-EntryStorage" style="stroke:#181818;stroke-width:1;"/><polygon fill="#181818" points="693.86,330.5475,693.1287,320.7258,691.4956,326.1418,686.0796,324.5088,693.86,330.5475" style="stroke:#181818;stroke-width:1;"/></g><!--link ConversionManager to ConversionEngine--><g class="link" data-entity-1="ConversionManager" data-entity-2="ConversionEngine" data-source-line="124" data-uid="lnk27" id="link_ConversionManager_ConversionEngine"><path codeLine="124" d="M754.1,134.3175 C773.07,152.8575 791.5478,170.925 810.4878,189.425" fill="none" id="ConversionManager-to-ConversionEngine" style="stroke:#181818;stroke-width:1;"/><polygon fill="#181818" points="814.78,193.6175,811.1367,184.4673,811.2032,190.1238,805.5467,190.1902,814.78,193.6175" style="stroke:#181818;stroke-width:1;"/></g><!--link ConversionManager to AuthEngine--><g class="link" data-entity-1="ConversionManager" data-entity-2="AuthEngine" data-source-line="125" data-uid="lnk28" id="link_ConversionManager_AuthEngine"><path codeLine="125" d="M632.98,122.4075 C560.08,145.6775 459.36,178.3975 420.29,193.8275 C414.38,196.1575 413.7954,196.3221 407.7254,198.9521" fill="none" id="ConversionManager-to-AuthEngine" style="stroke:#181818;stroke-width:1;"/><polygon fill="#181818" points="402.22,201.3375,412.0684,201.4297,406.8079,199.3497,408.8879,194.0891,402.22,201.3375" style="stroke:#181818;stroke-width:1;"/></g><!--link ConversionManager to EntryStorage--><g class="link" data-entity-1="ConversionManager" data-entity-2="EntryStorage" data-source-line="126" data-uid="lnk29" id="link_ConversionManager_EntryStorage"><path codeLine="126" d="M715.01,134.1675 C714.63,185.9475 713.994,272.4177 713.614,324.2577" fill="none" id="ConversionManager-to-EntryStorage" style="stroke:#181818;stroke-width:1;"/><polygon fill="#181818" points="713.57,330.2575,717.6359,321.2871,713.6067,325.2576,709.6361,321.2284,713.57,330.2575" style="stroke:#181818;stroke-width:1;"/></g><!--link EntryStorage to EntriesFileCache--><g class="link" data-entity-1="EntryStorage" data-entity-2="EntriesFileCache" data-source-line="128" data-uid="lnk30" id="link_EntryStorage_EntriesFileCache"><path codeLine="128" d="M712.75,407.8875 C712.47,427.7175 712.2077,445.9581 711.9177,465.7981" fill="none" id="EntryStorage-to-EntriesFileCache" style="stroke:#181818;stroke-width:1;"/><polygon fill="#181818" points="711.83,471.7975,715.9611,462.8569,711.9031,466.798,707.962,462.74,711.83,471.7975" style="stroke:#181818;stroke-width:1;"/></g><!--link EntryStorage to EntriesDB--><g class="link" data-entity-1="EntryStorage" data-entity-2="EntriesDB" data-source-line="129" data-uid="lnk31" id="link_EntryStorage_EntriesDB"><path codeLine="129" d="M764.17,407.8875 C788.85,426.1875 813.7792,444.6754 839.2592,463.5554" fill="none" id="EntryStorage-to-EntriesDB" style="stroke:#181818;stroke-width:1;"/><polygon fill="#181818" points="844.08,467.1275,839.2302,458.5555,840.0627,464.1508,834.4674,464.9832,844.08,467.1275" style="stroke:#181818;stroke-width:1;"/></g><!--link AdminManager to AuthEngine--><g class="link" data-entity-1="AdminManager" data-entity-2="AuthEngine" data-source-line="131" data-uid="lnk32" id="link_AdminManager_AuthEngine"><path codeLine="131" d="M138.23,126.1475 C179.04,147.4875 228.693,173.4473 270.843,195.4873" fill="none" id="AdminManager-to-AuthEngine" style="stroke:#181818;stroke-width:1;"/><polygon fill="#181818" points="276.16,198.2675,270.038,190.5525,271.7292,195.9506,266.331,197.6418,276.16,198.2675" style="stroke:#181818;stroke-width:1;"/></g><!--link AdminManager to UserInfoStorage--><g class="link" data-entity-1="AdminManager" data-entity-2="UserInfoStorage" data-source-line="132" data-uid="lnk33" id="link_AdminManager_UserInfoStorage"><path codeLine="132" d="M82.82,125.9875 C85.38,175.6475 90.2221,269.6854 93.0321,324.3654" fill="none" id="AdminManager-to-UserInfoStorage" style="stroke:#181818;stroke-width:1;"/><polygon fill="#181818" points="93.34,330.3575,96.8728,321.1641,93.0834,325.3641,88.8834,321.5746,93.34,330.3575" style="stroke:#181818;stroke-width:1;"/></g><!--SRC=[ZLLTRzCm57tFhp0hugtJQ1aRdK1QFq2J2eoYQXA81zUvJQqcTfLu6_ttNDj9QhjnHr-Qt7jyZ-_nyOtYAWVoGFEShcWcoKGMEob0g2hP04sX9Ao9a9JJhAH5ahnw_PKAcc7o8pbRKROTNT31OFZXHi5VDPhpRAE-bB2_oRc0qVE6Ap2FvwbK2j8pN3yJ6GRQvPT3EbY1NJxECQ8nFvKiaQG5lKsltwqk0z0zb1Ml50Zc08S360uiyA5bjuzwpOIoZOE-UdznVHL39oKmHKM68jsc1HTDuxrMWjy9mPz9aZfc8dtycOTbXIYRAL36v8zRzFljezeCObLjjhkipVdLTAYMjjTeNEyFCyH6_38wyOsyCV-_J6GdSyxs13LYs-guVdCilVQ078Owv5Fe810bjo0gGaLATb0MlAgu545zBTMTMCiOXv5I0quHKSRa8zhLX3Y2ou8gvD9KALNey-h0D1qZYMkYa6Ww3ZX-pFkwGaegPmj8GXvnJT3FJAXo7pjSa-m-MvkQB9PJlzv4YYUzLndruG5ngZ9hKIQe99dTByS453lt2HUWIWvFDEzsLPlkjDOXAzS4dOylbLMhb0LHU0UNYtcimMv2fxqkHYSTKAv0FGC8OjrGULxGpetum9ZwHGkGrWDnapEPvzYcVZLLxH3grSF8OJC1d_1Ez0ieOcmTbelT7tlw9-vEBPcbq5siUGw-MZCBYGXc6Vx_qe31w-AXI3NFPzn0brOwtgLLqx0kpZ3DHMRYrlBu-JcqvC_UVl-JCpyJPvGscKQtSDtBwM2k9U6SSp6edJjcc-gHi5KWyGPDqCbHBhZK8G0HhecIv7ZgQ4nuLICmPoDTW2CopxzDslL1584A9TutEZnHFtTyBFy0]--></g></svg>