<svg xmlns="http://www.w3.org/2000/svg" xmlns:xlink="http://www.w3.org/1999/xlink" contentStyleType="text/css" data-diagram-type="CLASS" height="1150px" preserveAspectRatio="none" style="width:1215px;height:1150px;background:#FFFFFF;" version="1.1" viewBox="0 0 1215 1150" width="1215px" zoomAndPan="magnify"><title>Wallabago Components</title><defs/><g><g class="header" data-source-line="3"><text fill="#888888" font-family="sans-serif" font-size="10" lengthAdjust="spacing" textLength="101.333" x="1099.667" y="9.2822">component diagram</text></g><g class="title" data-source-line="2"><text fill="#000000" font-family="sans-serif" font-size="14" font-weight="bold" lengthAdjust="spacing" textLength="186.4912" x="507.2544" y="35.6357">Wallabago Components</text></g><!--cluster CoreApplication--><g class="cluster" data-entity="CoreApplication" data-source-line="30" data-uid="ent0005" id="cluster_CoreApplication"><rect fill="none" height="919.38" rx="2.5" ry="2.5" style="stroke:#181818;stroke-width:1;" width="697" x="7" y="212.6275"/><rect fill="none" height="10" style="stroke:#181818;stroke-width:1;" width="15" x="684" y="217.6275"/><rect fill="none" height="2" style="stroke:#181818;stroke-width:1;" width="4" x="682" y="219.6275"/><rect fill="none" height="2" style="stroke:#181818;stroke-width:1;" width="4" x="682" y="223.6275"/><text fill="#000000" font-family="sans-serif" font-size="14" font-weight="bold" lengthAdjust="spacing" textLength="125.5898" x="292.7051" y="238.6226">CoreApplication</text></g><!--cluster AppDatabase--><g class="cluster" data-entity="AppDatabase" data-source-line="117" data-uid="ent0017" id="cluster_AppDatabase"><path d="M231,975.1175 C231,965.1175 407.5,965.1175 407.5,965.1175 C407.5,965.1175 584,965.1175 584,975.1175 L584,1098.0075 C584,1108.0075 407.5,1108.0075 407.5,1108.0075 C407.5,1108.0075 231,1108.0075 231,1098.0075 L231,975.1175" fill="#132E32" style="stroke:#FFFFFF;stroke-width:1;"/><path d="M231,975.1175 C231,985.1175 407.5,985.1175 407.5,985.1175 C407.5,985.1175 584,985.1175 584,975.1175" fill="none" style="stroke:#FFFFFF;stroke-width:1;"/><text fill="#FFFFFF" font-family="sans-serif" font-size="14" font-weight="bold" lengthAdjust="spacing" textLength="105.3828" x="354.8086" y="1000.1126">AppDatabase</text></g><!--cluster IdentityProvider--><g class="cluster" data-entity="IdentityProvider" data-source-line="134" data-uid="ent0020" id="cluster_IdentityProvider"><rect fill="none" height="633.45" rx="2.5" ry="2.5" style="stroke:#181818;stroke-width:1;" width="481" x="728" y="510.7075"/><rect fill="none" height="10" style="stroke:#181818;stroke-width:1;" width="15" x="1189" y="515.7075"/><rect fill="none" height="2" style="stroke:#181818;stroke-width:1;" width="4" x="1187" y="517.7075"/><rect fill="none" height="2" style="stroke:#181818;stroke-width:1;" width="4" x="1187" y="521.7075"/><text fill="#000000" font-family="sans-serif" font-size="14" font-weight="bold" lengthAdjust="spacing" textLength="129.1309" x="903.9346" y="536.7026">IdentityProvider</text></g><!--cluster IdentityDatabase--><g class="cluster" data-entity="IdentityDatabase" data-source-line="156" data-uid="ent0024" id="cluster_IdentityDatabase"><path d="M752,962.9675 C752,952.9675 968.5,952.9675 968.5,952.9675 C968.5,952.9675 1185,952.9675 1185,962.9675 L1185,1110.1575 C1185,1120.1575 968.5,1120.1575 968.5,1120.1575 C968.5,1120.1575 752,1120.1575 752,1110.1575 L752,962.9675" fill="#132E32" style="stroke:#FFFFFF;stroke-width:1;"/><path d="M752,962.9675 C752,972.9675 968.5,972.9675 968.5,972.9675 C968.5,972.9675 1185,972.9675 1185,962.9675" fill="none" style="stroke:#FFFFFF;stroke-width:1;"/><text fill="#FFFFFF" font-family="sans-serif" font-size="14" font-weight="bold" lengthAdjust="spacing" textLength="136.5068" x="900.2466" y="987.9626">IdentityDatabase</text></g><!--entity HTTPAPI--><g class="entity" data-entity="HTTPAPI" data-source-line="32" data-uid="ent0006" id="entity_HTTPAPI"><rect fill="#176087" height="60.5938" rx="2.5" ry="2.5" style="stroke:#FFFFFF;stroke-width:0.5;" width="160.8203" x="351.59" y="247.6275"/><text fill="#FFFFFF" font-family="sans-serif" font-size="14" lengthAdjust="spacing" textLength="140.8203" x="361.59" y="270.6226">Wallabago HTTP API</text><line style="stroke:#FFFFFF;stroke-width:1;" x1="352.59" x2="511.4103" y1="273.9244" y2="273.9244"/><text fill="#FFFFFF" font-family="sans-serif" font-size="14" lengthAdjust="spacing" textLength="101.2881" x="361.59" y="290.9195">HTTP handlers</text></g><!--entity WebUI--><g class="entity" data-entity="WebUI" data-source-line="38" data-uid="ent0007" id="entity_WebUI"><rect fill="#176087" height="60.5938" rx="2.5" ry="2.5" style="stroke:#FFFFFF;stroke-width:0.5;" width="148.3174" x="167.84" y="247.6275"/><text fill="#FFFFFF" font-family="sans-serif" font-size="14" lengthAdjust="spacing" textLength="128.3174" x="177.84" y="270.6226">Wallabago Web UI</text><line style="stroke:#FFFFFF;stroke-width:1;" x1="168.84" x2="315.1574" y1="273.9244" y2="273.9244"/><text fill="#FFFFFF" font-family="sans-serif" font-size="14" lengthAdjust="spacing" textLength="108.3428" x="177.84" y="290.9195">HTMX Web App</text></g><!--entity AuthNMiddleware--><g class="entity" data-entity="AuthNMiddleware" data-source-line="45" data-uid="ent0008" id="entity_AuthNMiddleware"><polygon fill="#105080" points="468.4,368.2175,677.6041,368.2175,687.6041,426.9597,677.6041,485.7019,468.4,485.7019,478.4,426.9597" style="stroke:#FFFFFF;stroke-width:0.5;"/><text fill="#FFFFFF" font-family="sans-serif" font-size="14" lengthAdjust="spacing" textLength="128.3789" x="488.4" y="391.2126">AuthN Middleware</text><line style="stroke:#FFFFFF;stroke-width:1;" x1="469.4" x2="686.6041" y1="394.5144" y2="394.5144"/><text fill="#FFFFFF" font-family="sans-serif" font-size="14" lengthAdjust="spacing" textLength="179.2041" x="488.4" y="411.5095">Authentication checks for</text><text fill="#FFFFFF" font-family="sans-serif" font-size="14" lengthAdjust="spacing" textLength="140.9092" x="488.4" y="427.8064">protected resources</text><line style="stroke:#FFFFFF;stroke-width:1;stroke-dasharray:1,2;" x1="469.4" x2="686.6041" y1="435.1081" y2="435.1081"/><text fill="#FFFFFF" font-family="sans-serif" font-size="14" lengthAdjust="spacing" textLength="84.8545" x="488.4" y="452.1032">Used before</text><text fill="#FFFFFF" font-family="sans-serif" font-size="14" lengthAdjust="spacing" textLength="177.8164" x="488.4" y="468.4001">every protected Manager</text></g><!--entity AdminManager--><g class="entity" data-entity="AdminManager" data-source-line="56" data-uid="ent0009" id="entity_AdminManager"><rect fill="#0A2239" height="60.5938" rx="2.5" ry="2.5" style="stroke:#FFFFFF;stroke-width:1;stroke-dasharray:1,3;" width="148.584" x="129.71" y="574.1475"/><text fill="#D3D3D3" font-family="sans-serif" font-size="14" lengthAdjust="spacing" textLength="110.6807" x="139.71" y="597.1426">Admin Manager</text><line style="stroke:#FFFFFF;stroke-width:1;" x1="130.71" x2="277.294" y1="600.4444" y2="600.4444"/><text fill="#D3D3D3" font-family="sans-serif" font-size="14" lengthAdjust="spacing" textLength="128.584" x="139.71" y="617.4395">User Management</text></g><!--entity EntryManager--><g class="entity" data-entity="EntryManager" data-source-line="63" data-uid="ent0010" id="entity_EntryManager"><rect fill="#0A2239" height="60.5938" rx="2.5" ry="2.5" style="stroke:#FFFFFF;stroke-width:1;stroke-dasharray:1,3;" width="123.0654" x="512.47" y="574.1475"/><text fill="#D3D3D3" font-family="sans-serif" font-size="14" lengthAdjust="spacing" textLength="103.0654" x="522.47" y="597.1426">Entry Manager</text><line style="stroke:#FFFFFF;stroke-width:1;" x1="513.47" x2="634.5354" y1="600.4444" y2="600.4444"/><text fill="#D3D3D3" font-family="sans-serif" font-size="14" lengthAdjust="spacing" textLength="82.2295" x="522.47" y="617.4395">Entry CRUD</text></g><!--entity ConversionManager--><g class="entity" data-entity="ConversionManager" data-source-line="69" data-uid="ent0011" id="entity_ConversionManager"><rect fill="#0A2239" height="76.8906" rx="2.5" ry="2.5" style="stroke:#FFFFFF;stroke-width:1;stroke-dasharray:1,3;" width="164.3066" x="312.85" y="565.9975"/><text fill="#D3D3D3" font-family="sans-serif" font-size="14" lengthAdjust="spacing" textLength="144.3066" x="322.85" y="588.9926">Conversion Manager</text><line style="stroke:#FFFFFF;stroke-width:1;" x1="313.85" x2="476.1566" y1="592.2944" y2="592.2944"/><text fill="#D3D3D3" font-family="sans-serif" font-size="14" lengthAdjust="spacing" textLength="118.1113" x="322.85" y="609.2895">Entry conversion</text><text fill="#D3D3D3" font-family="sans-serif" font-size="14" lengthAdjust="spacing" textLength="86.3447" x="322.85" y="625.5864">to EPUB etc.</text></g><!--entity AuthZEngine--><g class="entity" data-entity="AuthZEngine" data-source-line="78" data-uid="ent0012" id="entity_AuthZEngine"><rect fill="#53A2BE" height="60.5938" rx="2.5" ry="2.5" style="stroke:#181818;stroke-width:0.5;" width="160.7998" x="264.6" y="731.3375"/><text fill="#000000" font-family="sans-serif" font-size="14" lengthAdjust="spacing" textLength="94.835" x="274.6" y="754.3326">AuthZ Engine</text><line style="stroke:#181818;stroke-width:1;" x1="265.6" x2="424.3998" y1="757.6344" y2="757.6344"/><text fill="#000000" font-family="sans-serif" font-size="14" lengthAdjust="spacing" textLength="140.7998" x="274.6" y="774.6295">AuthZ policy checks</text></g><!--entity RetrievalEngine--><g class="entity" data-entity="RetrievalEngine" data-source-line="84" data-uid="ent0013" id="entity_RetrievalEngine"><rect fill="#53A2BE" height="76.8906" rx="2.5" ry="2.5" style="stroke:#181818;stroke-width:0.5;" width="153.7656" x="497.12" y="723.1875"/><text fill="#000000" font-family="sans-serif" font-size="14" lengthAdjust="spacing" textLength="115.2744" x="507.12" y="746.1826">Retrieval Engine</text><line style="stroke:#181818;stroke-width:1;" x1="498.12" x2="649.8856" y1="749.4844" y2="749.4844"/><text fill="#000000" font-family="sans-serif" font-size="14" lengthAdjust="spacing" textLength="133.7656" x="507.12" y="766.4795">Retrieval of entries</text><text fill="#000000" font-family="sans-serif" font-size="14" lengthAdjust="spacing" textLength="92.5381" x="507.12" y="782.7764">from the URL</text></g><!--entity ConversionEngine--><g class="entity" data-entity="ConversionEngine" data-source-line="91" data-uid="ent0014" id="entity_ConversionEngine"><rect fill="#53A2BE" height="76.8906" rx="2.5" ry="2.5" style="stroke:#181818;stroke-width:0.5;" width="169.4131" x="60.29" y="723.1875"/><text fill="#000000" font-family="sans-serif" font-size="14" lengthAdjust="spacing" textLength="130.9219" x="70.29" y="746.1826">Conversion Engine</text><line style="stroke:#181818;stroke-width:1;" x1="61.29" x2="228.7031" y1="749.4844" y2="749.4844"/><text fill="#000000" font-family="sans-serif" font-size="14" lengthAdjust="spacing" textLength="149.4131" x="70.29" y="766.4795">Conversion of entries</text><text fill="#000000" font-family="sans-serif" font-size="14" lengthAdjust="spacing" textLength="119.2393" x="70.29" y="782.7764">between formats</text></g><!--entity UserStorage--><g class="entity" data-entity="UserStorage" data-source-line="101" data-uid="ent0015" id="entity_UserStorage"><rect fill="#1D84B5" height="76.8906" rx="2.5" ry="2.5" style="stroke:#181818;stroke-width:0.5;" width="121.9854" x="253.01" y="860.0775"/><text fill="#000000" font-family="sans-serif" font-size="14" lengthAdjust="spacing" textLength="91.1367" x="263.01" y="883.0726">User Storage</text><line style="stroke:#181818;stroke-width:1;" x1="254.01" x2="373.9954" y1="886.3744" y2="886.3744"/><text fill="#000000" font-family="sans-serif" font-size="14" lengthAdjust="spacing" textLength="97.5352" x="263.01" y="903.3695">Store account</text><text fill="#000000" font-family="sans-serif" font-size="14" lengthAdjust="spacing" textLength="81.0469" x="263.01" y="919.6664">information</text></g><!--entity EntryStorage--><g class="entity" data-entity="EntryStorage" data-source-line="108" data-uid="ent0016" id="entity_EntryStorage"><rect fill="#1D84B5" height="76.8906" rx="2.5" ry="2.5" style="stroke:#181818;stroke-width:0.5;" width="116.4756" x="433.76" y="860.0775"/><text fill="#000000" font-family="sans-serif" font-size="14" lengthAdjust="spacing" textLength="96.4756" x="443.76" y="883.0726">Entry Storage</text><line style="stroke:#181818;stroke-width:1;" x1="434.76" x2="549.2356" y1="886.3744" y2="886.3744"/><text fill="#000000" font-family="sans-serif" font-size="14" lengthAdjust="spacing" textLength="90.2891" x="443.76" y="903.3695">Store entries</text><text fill="#000000" font-family="sans-serif" font-size="14" lengthAdjust="spacing" textLength="59.4043" x="443.76" y="919.6664">and files</text></g><!--entity Users--><g class="entity" data-entity="Users" data-source-line="118" data-uid="ent0018" id="entity_Users"><rect fill="#F1F1F1" height="72.8906" rx="2.5" ry="2.5" style="stroke:#181818;stroke-width:0.5;" width="130.3447" x="250.83" y="1019.1175"/><rect fill="#F1F1F1" height="72.8906" rx="2.5" ry="2.5" style="stroke:#181818;stroke-width:0.5;" width="130.3447" x="246.83" y="1015.1175"/><text fill="#000000" font-family="sans-serif" font-size="14" lengthAdjust="spacing" textLength="39.2041" x="254.83" y="1036.1126">Users</text><line style="stroke:#181818;stroke-width:1;" x1="247.83" x2="380.1747" y1="1039.4144" y2="1039.4144"/><text fill="#000000" font-family="sans-serif" font-size="14" lengthAdjust="spacing" textLength="96.7832" x="254.83" y="1056.4095">Admin status,</text><text fill="#000000" font-family="sans-serif" font-size="14" lengthAdjust="spacing" textLength="114.3447" x="254.83" y="1072.7064">preferences etc.</text></g><!--entity Entries--><g class="entity" data-entity="Entries" data-source-line="125" data-uid="ent0019" id="entity_Entries"><rect fill="#F1F1F1" height="72.8906" rx="2.5" ry="2.5" style="stroke:#181818;stroke-width:0.5;" width="148.6514" x="419.67" y="1019.1175"/><rect fill="#F1F1F1" height="72.8906" rx="2.5" ry="2.5" style="stroke:#181818;stroke-width:0.5;" width="148.6514" x="415.67" y="1015.1175"/><text fill="#000000" font-family="sans-serif" font-size="14" lengthAdjust="spacing" textLength="48.7607" x="423.67" y="1036.1126">Entries</text><line style="stroke:#181818;stroke-width:1;" x1="416.67" x2="567.3214" y1="1039.4144" y2="1039.4144"/><text fill="#000000" font-family="sans-serif" font-size="14" lengthAdjust="spacing" textLength="132.6514" x="423.67" y="1056.4095">SQL-based storage</text><text fill="#000000" font-family="sans-serif" font-size="14" lengthAdjust="spacing" textLength="96.7012" x="423.67" y="1072.7064">for entry data</text></g><!--entity IdentityManager--><g class="entity" data-entity="IdentityManager" data-source-line="135" data-uid="ent0021" id="entity_IdentityManager"><rect fill="#0A2239" height="117.4844" rx="2.5" ry="2.5" style="stroke:#FFFFFF;stroke-width:1;stroke-dasharray:1,3;" width="197.7754" x="746.11" y="545.7075"/><text fill="#D3D3D3" font-family="sans-serif" font-size="14" lengthAdjust="spacing" textLength="119.4717" x="756.11" y="568.7026">Identity Manager</text><line style="stroke:#FFFFFF;stroke-width:1;" x1="747.11" x2="942.8854" y1="572.0044" y2="572.0044"/><text fill="#D3D3D3" font-family="sans-serif" font-size="14" lengthAdjust="spacing" textLength="163.8848" x="756.11" y="588.9995">Handles Authentication</text><line style="stroke:#FFFFFF;stroke-width:1;stroke-dasharray:1,2;" x1="747.11" x2="942.8854" y1="596.3013" y2="596.3013"/><text fill="#D3D3D3" font-family="sans-serif" font-size="14" lengthAdjust="spacing" textLength="109.1699" x="756.11" y="613.2964">Provides claims</text><text fill="#D3D3D3" font-family="sans-serif" font-size="14" lengthAdjust="spacing" textLength="177.7754" x="756.11" y="629.5932">about authenticated user</text><text fill="#D3D3D3" font-family="sans-serif" font-size="14" lengthAdjust="spacing" textLength="103.5918" x="756.11" y="645.8901">[UserId, Email]</text></g><!--entity TokenStorage--><g class="entity" data-entity="TokenStorage" data-source-line="145" data-uid="ent0022" id="entity_TokenStorage"><rect fill="#1D84B5" height="60.5938" rx="2.5" ry="2.5" style="stroke:#181818;stroke-width:0.5;" width="121.9375" x="785.03" y="868.2275"/><text fill="#000000" font-family="sans-serif" font-size="14" lengthAdjust="spacing" textLength="101.9375" x="795.03" y="891.2226">Token Storage</text><line style="stroke:#181818;stroke-width:1;" x1="786.03" x2="905.9675" y1="894.5244" y2="894.5244"/><text fill="#000000" font-family="sans-serif" font-size="14" lengthAdjust="spacing" textLength="88.7031" x="795.03" y="911.5195">Store tokens</text></g><!--entity UserInfoStorage--><g class="entity" data-entity="UserInfoStorage" data-source-line="151" data-uid="ent0023" id="entity_UserInfoStorage"><rect fill="#1D84B5" height="60.5938" rx="2.5" ry="2.5" style="stroke:#181818;stroke-width:0.5;" width="200.6738" x="952.66" y="868.2275"/><text fill="#000000" font-family="sans-serif" font-size="14" lengthAdjust="spacing" textLength="122.083" x="962.66" y="891.2226">User Info Storage</text><line style="stroke:#181818;stroke-width:1;" x1="953.66" x2="1152.3338" y1="894.5244" y2="894.5244"/><text fill="#000000" font-family="sans-serif" font-size="14" lengthAdjust="spacing" textLength="180.6738" x="962.66" y="911.5195">Store identity information</text></g><!--entity UserInfo--><g class="entity" data-entity="UserInfo" data-source-line="157" data-uid="ent0025" id="entity_UserInfo"><rect fill="#F1F1F1" height="97.1875" rx="2.5" ry="2.5" style="stroke:#181818;stroke-width:0.5;" width="203.9473" x="965.03" y="1006.9675"/><rect fill="#F1F1F1" height="97.1875" rx="2.5" ry="2.5" style="stroke:#181818;stroke-width:0.5;" width="203.9473" x="961.03" y="1002.9675"/><text fill="#000000" font-family="sans-serif" font-size="14" lengthAdjust="spacing" textLength="62.8564" x="969.03" y="1023.9626">User Info</text><line style="stroke:#181818;stroke-width:1;" x1="962.03" x2="1167.9773" y1="1027.2644" y2="1027.2644"/><text fill="#000000" font-family="sans-serif" font-size="14" lengthAdjust="spacing" textLength="132.6514" x="969.03" y="1044.2595">SQL-based storage</text><text fill="#000000" font-family="sans-serif" font-size="14" lengthAdjust="spacing" textLength="121.7549" x="969.03" y="1060.5564">for user accounts</text><line style="stroke:#181818;stroke-width:1;stroke-dasharray:1,2;" x1="962.03" x2="1167.9773" y1="1067.8581" y2="1067.8581"/><text fill="#000000" font-family="sans-serif" font-size="14" lengthAdjust="spacing" textLength="187.9473" x="969.03" y="1084.8532">[UserID, Email, Passwords]</text></g><!--entity Tokens--><g class="entity" data-entity="Tokens" data-source-line="166" data-uid="ent0026" id="entity_Tokens"><rect fill="#F1F1F1" height="72.8906" rx="2.5" ry="2.5" style="stroke:#181818;stroke-width:0.5;" width="153.1016" x="772.45" y="1019.1175"/><rect fill="#F1F1F1" height="72.8906" rx="2.5" ry="2.5" style="stroke:#181818;stroke-width:0.5;" width="153.1016" x="768.45" y="1015.1175"/><text fill="#000000" font-family="sans-serif" font-size="14" lengthAdjust="spacing" textLength="50.0049" x="776.45" y="1036.1126">Tokens</text><line style="stroke:#181818;stroke-width:1;" x1="769.45" x2="924.5516" y1="1039.4144" y2="1039.4144"/><text fill="#000000" font-family="sans-serif" font-size="14" lengthAdjust="spacing" textLength="132.6514" x="776.45" y="1056.4095">SQL-based storage</text><text fill="#000000" font-family="sans-serif" font-size="14" lengthAdjust="spacing" textLength="70.6426" x="776.45" y="1072.7064">for tokens</text></g><!--entity User--><g class="entity" data-entity="User" data-source-line="15" data-uid="ent0002" id="entity_User"><ellipse cx="241.9951" cy="119.8275" fill="#F1F1F1" rx="8" ry="8" style="stroke:#181818;stroke-width:0.5;"/><path d="M241.9951,127.8275 L241.9951,154.8275 M228.9951,135.8275 L254.9951,135.8275 M241.9951,154.8275 L228.9951,169.8275 M241.9951,154.8275 L254.9951,169.8275" fill="none" style="stroke:#181818;stroke-width:0.5;"/><text fill="#000000" font-family="sans-serif" font-size="14" lengthAdjust="spacing" textLength="31.9102" x="226.04" y="184.3226">User</text></g><!--entity KOReader--><g class="entity" data-entity="KOReader" data-source-line="19" data-uid="ent0003" id="entity_KOReader"><rect fill="#F1F1F1" height="70.5938" rx="2.5" ry="2.5" style="stroke:#181818;stroke-width:0.5;" width="115.1338" x="454.43" y="114.1775"/><rect fill="#F1F1F1" height="10" style="stroke:#181818;stroke-width:0.5;" width="15" x="549.5638" y="119.1775"/><rect fill="#F1F1F1" height="2" style="stroke:#181818;stroke-width:0.5;" width="4" x="547.5638" y="121.1775"/><rect fill="#F1F1F1" height="2" style="stroke:#181818;stroke-width:0.5;" width="4" x="547.5638" y="125.1775"/><text fill="#000000" font-family="sans-serif" font-size="14" lengthAdjust="spacing" textLength="70.376" x="469.43" y="147.1726">KOReader</text><line style="stroke:#181818;stroke-width:1;stroke-dasharray:1,2;" x1="455.43" x2="568.5638" y1="150.4744" y2="150.4744"/><text fill="#000000" font-family="sans-serif" font-size="14" lengthAdjust="spacing" textLength="75.1338" x="469.43" y="167.4695">Kindle App</text></g><!--entity WallabagAndroid--><g class="entity" data-entity="WallabagAndroid" data-source-line="25" data-uid="ent0004" id="entity_WallabagAndroid"><rect fill="#F1F1F1" height="70.5938" rx="2.5" ry="2.5" style="stroke:#181818;stroke-width:0.5;" width="126.2354" x="292.88" y="114.1775"/><rect fill="#F1F1F1" height="10" style="stroke:#181818;stroke-width:0.5;" width="15" x="399.1154" y="119.1775"/><rect fill="#F1F1F1" height="2" style="stroke:#181818;stroke-width:0.5;" width="4" x="397.1154" y="121.1775"/><rect fill="#F1F1F1" height="2" style="stroke:#181818;stroke-width:0.5;" width="4" x="397.1154" y="125.1775"/><text fill="#000000" font-family="sans-serif" font-size="14" lengthAdjust="spacing" textLength="65.1328" x="307.88" y="147.1726">Wallabag</text><line style="stroke:#181818;stroke-width:1;stroke-dasharray:1,2;" x1="293.88" x2="418.1154" y1="150.4744" y2="150.4744"/><text fill="#000000" font-family="sans-serif" font-size="14" lengthAdjust="spacing" textLength="86.2354" x="307.88" y="167.4695">Android App</text></g><!--link User to KOReader--><g class="link" data-entity-1="User" data-entity-2="KOReader" data-source-line="177" data-uid="lnk27" id="link_User_KOReader"><path codeLine="177" d="M258.42,115.3775 C266.67,102.2175 278.03,88.6175 292.5,81.3275 C342.91,55.9375 365.88,63.7075 419.5,81.3275 C439.78,87.9875 454.6071,97.1993 470.4271,110.0793" fill="none" id="User-to-KOReader" style="stroke:#181818;stroke-width:1;"/><polygon fill="#181818" points="475.08,113.8675,470.6261,105.0833,471.2026,110.7107,465.5752,111.2871,475.08,113.8675" style="stroke:#181818;stroke-width:1;"/></g><!--link KOReader to HTTPAPI--><g class="link" data-entity-1="KOReader" data-entity-2="HTTPAPI" data-source-line="178" data-uid="lnk28" id="link_KOReader_HTTPAPI"><path codeLine="178" d="M490.14,185.0275 C477.83,204.4775 465.8291,223.4578 454.0491,242.0678" fill="none" id="KOReader-to-HTTPAPI" style="stroke:#181818;stroke-width:1;"/><polygon fill="#181818" points="450.84,247.1375,459.0334,241.6723,453.5142,242.9128,452.2738,237.3936,450.84,247.1375" style="stroke:#181818;stroke-width:1;"/></g><!--link User to WebUI--><g class="link" data-entity-1="User" data-entity-2="WebUI" data-source-line="179" data-uid="lnk29" id="link_User_WebUI"><path codeLine="179" d="M242,188.0775 C242,206.9975 242,223.6175 242,241.2975" fill="none" id="User-to-WebUI" style="stroke:#181818;stroke-width:1;"/><polygon fill="#181818" points="242,247.2975,246,238.2975,242,242.2975,238,238.2975,242,247.2975" style="stroke:#181818;stroke-width:1;"/></g><!--link User to WallabagAndroid--><g class="link" data-entity-1="User" data-entity-2="WallabagAndroid" data-source-line="180" data-uid="lnk30" id="link_User_WallabagAndroid"><path codeLine="180" d="M258.03,149.4775 C269.51,149.4775 274.99,149.4775 286.47,149.4775" fill="none" id="User-to-WallabagAndroid" style="stroke:#181818;stroke-width:1;"/><polygon fill="#181818" points="292.47,149.4775,283.47,145.4775,287.47,149.4775,283.47,153.4775,292.47,149.4775" style="stroke:#181818;stroke-width:1;"/></g><!--link WallabagAndroid to HTTPAPI--><g class="link" data-entity-1="WallabagAndroid" data-entity-2="HTTPAPI" data-source-line="181" data-uid="lnk31" id="link_WallabagAndroid_HTTPAPI"><path codeLine="181" d="M376.77,185.0275 C388.46,204.4775 399.8182,223.3855 411.0082,241.9955" fill="none" id="WallabagAndroid-to-HTTPAPI" style="stroke:#181818;stroke-width:1;"/><polygon fill="#181818" points="414.1,247.1375,412.8902,237.3632,411.5235,242.8525,406.0342,241.4857,414.1,247.1375" style="stroke:#181818;stroke-width:1;"/></g><!--link WebUI to HTTPAPI--><g class="link" data-entity-1="WebUI" data-entity-2="HTTPAPI" data-source-line="183" data-uid="lnk32" id="link_WebUI_HTTPAPI"><path codeLine="183" d="M316.59,277.9275 C328.16,277.9275 333.73,277.9275 345.3,277.9275" fill="none" id="WebUI-to-HTTPAPI" style="stroke:#181818;stroke-width:1;"/><polygon fill="#181818" points="351.3,277.9275,342.3,273.9275,346.3,277.9275,342.3,281.9275,351.3,277.9275" style="stroke:#181818;stroke-width:1;"/></g><!--link HTTPAPI to AuthNMiddleware--><g class="link" data-entity-1="HTTPAPI" data-entity-2="AuthNMiddleware" data-source-line="185" data-uid="lnk33" id="link_HTTPAPI_AuthNMiddleware"><path codeLine="185" d="M461.55,308.6775 C478.46,325.7175 496.0431,343.4192 516.2031,363.7292" fill="none" id="HTTPAPI-to-AuthNMiddleware" style="stroke:#181818;stroke-width:1;"/><polygon fill="#181818" points="520.43,367.9875,516.9286,358.7821,516.9076,364.4389,511.2508,364.4179,520.43,367.9875" style="stroke:#181818;stroke-width:1;"/></g><!--link HTTPAPI to IdentityManager--><g class="link" data-entity-1="HTTPAPI" data-entity-2="IdentityManager" data-source-line="186" data-uid="lnk34" id="link_HTTPAPI_IdentityManager"><path codeLine="186" d="M512.69,289.8275 C571.22,301.1775 649.52,323.8175 705,368.2175 C762.97,414.6275 800.0513,486.4571 821.9213,539.7271" fill="none" id="HTTPAPI-to-IdentityManager" style="stroke:#181818;stroke-width:1;"/><polygon fill="#181818" points="824.2,545.2775,824.4822,535.4327,822.3011,540.6521,817.0816,538.471,824.2,545.2775" style="stroke:#181818;stroke-width:1;"/></g><!--link HTTPAPI to AdminManager--><g class="link" data-entity-1="HTTPAPI" data-entity-2="AdminManager" data-source-line="187" data-uid="lnk35" id="link_HTTPAPI_AdminManager"><path codeLine="187" d="M411.16,308.5875 C367.74,370.3875 271.4691,507.4179 228.1591,569.0679" fill="none" id="HTTPAPI-to-AdminManager" style="stroke:#181818;stroke-width:1;"/><polygon fill="#181818" points="224.71,573.9775,233.1566,568.9125,227.5842,569.8862,226.6105,564.3138,224.71,573.9775" style="stroke:#181818;stroke-width:1;"/></g><!--link HTTPAPI to ConversionManager--><g class="link" data-entity-1="HTTPAPI" data-entity-2="ConversionManager" data-source-line="188" data-uid="lnk36" id="link_HTTPAPI_ConversionManager"><path codeLine="188" d="M428.62,308.5875 C421.88,367.7275 407.439,494.296 399.999,559.616" fill="none" id="HTTPAPI-to-ConversionManager" style="stroke:#181818;stroke-width:1;"/><polygon fill="#181818" points="399.32,565.5775,404.3128,557.088,399.8858,560.6096,396.3642,556.1826,399.32,565.5775" style="stroke:#181818;stroke-width:1;"/></g><!--link HTTPAPI to EntryManager--><g class="link" data-entity-1="HTTPAPI" data-entity-2="EntryManager" data-source-line="189" data-uid="lnk37" id="link_HTTPAPI_EntryManager"><path codeLine="189" d="M431,308.4175 C429.9,358.7675 430.47,458.5175 451,485.7075 C463.63,502.4375 478.15,490.2275 495,502.7075 C520.9,521.8775 539.592,546.5835 553.712,568.8035" fill="none" id="HTTPAPI-to-EntryManager" style="stroke:#181818;stroke-width:1;"/><polygon fill="#181818" points="556.93,573.8675,555.479,564.1261,554.2483,569.6475,548.727,568.4168,556.93,573.8675" style="stroke:#181818;stroke-width:1;"/></g><!--link AuthNMiddleware to IdentityManager--><g class="link" data-entity-1="AuthNMiddleware" data-entity-2="IdentityManager" data-source-line="192" data-uid="lnk38" id="link_AuthNMiddleware_IdentityManager"><path codeLine="192" d="M677.87,486.1375 C686.77,491.6475 695.58,497.2175 704,502.7075 C724.41,516.0175 741.1327,527.507 761.1427,541.757" fill="none" id="AuthNMiddleware-to-IdentityManager" style="stroke:#181818;stroke-width:1;"/><polygon fill="#181818" points="766.03,545.2375,761.0193,536.7585,761.9572,542.3371,756.3787,543.275,766.03,545.2375" style="stroke:#181818;stroke-width:1;"/></g><!--link EntryManager to RetrievalEngine--><g class="link" data-entity-1="EntryManager" data-entity-2="RetrievalEngine" data-source-line="195" data-uid="lnk39" id="link_EntryManager_RetrievalEngine"><path codeLine="195" d="M574,634.9975 C574,659.9775 574,689.8975 574,716.9375" fill="none" id="EntryManager-to-RetrievalEngine" style="stroke:#181818;stroke-width:1;"/><polygon fill="#181818" points="574,722.9375,578,713.9375,574,717.9375,570,713.9375,574,722.9375" style="stroke:#181818;stroke-width:1;"/></g><!--link EntryManager to AuthZEngine--><g class="link" data-entity-1="EntryManager" data-entity-2="AuthZEngine" data-source-line="196" data-uid="lnk40" id="link_EntryManager_AuthZEngine"><path codeLine="196" d="M534.52,634.9575 C521.99,644.1475 508.01,654.2175 495,663.1875 C461,686.6375 426.8997,708.7927 397.1197,727.7727" fill="none" id="EntryManager-to-AuthZEngine" style="stroke:#181818;stroke-width:1;"/><polygon fill="#181818" points="392.06,730.9975,401.7994,729.5335,396.2764,728.3102,397.4997,722.7872,392.06,730.9975" style="stroke:#181818;stroke-width:1;"/></g><!--link EntryManager to EntryStorage--><g class="link" data-entity-1="EntryManager" data-entity-2="EntryStorage" data-source-line="197" data-uid="lnk41" id="link_EntryManager_EntryStorage"><path codeLine="197" d="M606.62,634.9175 C645.49,673.7275 701.25,743.6675 668,800.0775 C642.82,842.8075 597.0923,866.1618 556.3123,880.2218" fill="none" id="EntryManager-to-EntryStorage" style="stroke:#181818;stroke-width:1;"/><polygon fill="#181818" points="550.64,882.1775,560.4523,883.0255,555.3669,880.5478,557.8447,875.4624,550.64,882.1775" style="stroke:#181818;stroke-width:1;"/></g><!--link AdminManager to AuthZEngine--><g class="link" data-entity-1="AdminManager" data-entity-2="AuthZEngine" data-source-line="199" data-uid="lnk42" id="link_AdminManager_AuthZEngine"><path codeLine="199" d="M230.85,634.9975 C255.86,662.5275 288.9151,698.9068 313.9751,726.4868" fill="none" id="AdminManager-to-AuthZEngine" style="stroke:#181818;stroke-width:1;"/><polygon fill="#181818" points="318.01,730.9275,314.9181,721.5766,314.6476,727.2269,308.9972,726.9565,318.01,730.9275" style="stroke:#181818;stroke-width:1;"/></g><!--link AdminManager to UserStorage--><g class="link" data-entity-1="AdminManager" data-entity-2="UserStorage" data-source-line="200" data-uid="lnk43" id="link_AdminManager_UserStorage"><path codeLine="200" d="M137.72,635.1375 C102.68,654.6875 62.9,683.9775 43,723.1875 C27.53,753.6575 23.34,772.1275 43,800.0775 C90.23,867.2575 182.4403,887.7451 246.7503,894.2351" fill="none" id="AdminManager-to-UserStorage" style="stroke:#181818;stroke-width:1;"/><polygon fill="#181818" points="252.72,894.8375,244.1671,889.954,247.7453,894.3355,243.3639,897.9136,252.72,894.8375" style="stroke:#181818;stroke-width:1;"/></g><!--link ConversionManager to ConversionEngine--><g class="link" data-entity-1="ConversionManager" data-entity-2="ConversionEngine" data-source-line="202" data-uid="lnk44" id="link_ConversionManager_ConversionEngine"><path codeLine="202" d="M334.16,643.2075 C295.28,667.3475 250.138,695.3736 211.208,719.5336" fill="none" id="ConversionManager-to-ConversionEngine" style="stroke:#181818;stroke-width:1;"/><polygon fill="#181818" points="206.11,722.6975,215.8663,721.3504,210.3584,720.061,211.6478,714.553,206.11,722.6975" style="stroke:#181818;stroke-width:1;"/></g><!--link ConversionManager to AuthZEngine--><g class="link" data-entity-1="ConversionManager" data-entity-2="AuthZEngine" data-source-line="203" data-uid="lnk45" id="link_ConversionManager_AuthZEngine"><path codeLine="203" d="M382.9,643.0175 C374.17,670.1075 364.3897,700.4465 356.3297,725.4665" fill="none" id="ConversionManager-to-AuthZEngine" style="stroke:#181818;stroke-width:1;"/><polygon fill="#181818" points="354.49,731.1775,361.0569,723.8375,356.0231,726.4183,353.4423,721.3845,354.49,731.1775" style="stroke:#181818;stroke-width:1;"/></g><!--link ConversionManager to EntryStorage--><g class="link" data-entity-1="ConversionManager" data-entity-2="EntryStorage" data-source-line="204" data-uid="lnk46" id="link_ConversionManager_EntryStorage"><path codeLine="204" d="M411.67,643.2075 C421.45,666.1075 433.69,696.0475 443,723.1875 C458.92,769.5775 472.1475,818.3535 481.2175,853.9235" fill="none" id="ConversionManager-to-EntryStorage" style="stroke:#181818;stroke-width:1;"/><polygon fill="#181818" points="482.7,859.7375,484.3522,850.0282,481.4646,854.8925,476.6003,852.0049,482.7,859.7375" style="stroke:#181818;stroke-width:1;"/></g><!--link AuthZEngine to UserStorage--><g class="link" data-entity-1="AuthZEngine" data-entity-2="UserStorage" data-source-line="207" data-uid="lnk47" id="link_AuthZEngine_UserStorage"><path codeLine="207" d="M338.2,792.2375 C333.63,812.0875 328.9342,832.56 324.0242,853.92" fill="none" id="AuthZEngine-to-UserStorage" style="stroke:#181818;stroke-width:1;"/><polygon fill="#181818" points="322.68,859.7675,328.5946,851.8924,323.8001,854.8946,320.7979,850.1001,322.68,859.7675" style="stroke:#181818;stroke-width:1;"/></g><!--link EntryStorage to Entries--><g class="link" data-entity-1="EntryStorage" data-entity-2="Entries" data-source-line="210" data-uid="lnk48" id="link_EntryStorage_Entries"><path codeLine="210" d="M492,937.3575 C492,960.8975 492,985.0775 492,1008.6375" fill="none" id="EntryStorage-to-Entries" style="stroke:#181818;stroke-width:1;"/><polygon fill="#181818" points="492,1014.6375,496,1005.6375,492,1009.6375,488,1005.6375,492,1014.6375" style="stroke:#181818;stroke-width:1;"/></g><!--link UserStorage to Users--><g class="link" data-entity-1="UserStorage" data-entity-2="Users" data-source-line="212" data-uid="lnk49" id="link_UserStorage_Users"><path codeLine="212" d="M314,937.3575 C314,960.8975 314,985.0775 314,1008.6375" fill="none" id="UserStorage-to-Users" style="stroke:#181818;stroke-width:1;"/><polygon fill="#181818" points="314,1014.6375,318,1005.6375,314,1009.6375,310,1005.6375,314,1014.6375" style="stroke:#181818;stroke-width:1;"/></g><!--link TokenStorage to Tokens--><g class="link" data-entity-1="TokenStorage" data-entity-2="Tokens" data-source-line="214" data-uid="lnk50" id="link_TokenStorage_Tokens"><path codeLine="214" d="M846.19,929.0275 C846.35,953.4375 846.5414,982.2676 846.7114,1008.7176" fill="none" id="TokenStorage-to-Tokens" style="stroke:#181818;stroke-width:1;"/><polygon fill="#181818" points="846.75,1014.7175,850.6921,1005.692,846.7179,1009.7176,842.6922,1005.7434,846.75,1014.7175" style="stroke:#181818;stroke-width:1;"/></g><!--link IdentityManager to TokenStorage--><g class="link" data-entity-1="IdentityManager" data-entity-2="TokenStorage" data-source-line="217" data-uid="lnk51" id="link_IdentityManager_TokenStorage"><path codeLine="217" d="M845.2,663.4975 C845.41,725.2175 845.7199,814.3675 845.8799,862.0975" fill="none" id="IdentityManager-to-TokenStorage" style="stroke:#181818;stroke-width:1;"/><polygon fill="#181818" points="845.9,868.0975,849.8698,859.0841,845.8832,863.0975,841.8699,859.111,845.9,868.0975" style="stroke:#181818;stroke-width:1;"/></g><!--link IdentityManager to UserInfoStorage--><g class="link" data-entity-1="IdentityManager" data-entity-2="UserInfoStorage" data-source-line="218" data-uid="lnk52" id="link_IdentityManager_UserInfoStorage"><path codeLine="218" d="M886.34,663.4975 C930.3,725.2175 994.5802,815.4796 1028.5602,863.2096" fill="none" id="IdentityManager-to-UserInfoStorage" style="stroke:#181818;stroke-width:1;"/><polygon fill="#181818" points="1032.04,868.0975,1030.0789,858.4459,1029.1402,864.0243,1023.5618,863.0856,1032.04,868.0975" style="stroke:#181818;stroke-width:1;"/></g><!--link UserInfoStorage to UserInfo--><g class="link" data-entity-1="UserInfoStorage" data-entity-2="UserInfo" data-source-line="219" data-uid="lnk53" id="link_UserInfoStorage_UserInfo"><path codeLine="219" d="M1055.31,929.0275 C1056.95,949.8775 1058.7106,972.3459 1060.6206,996.6859" fill="none" id="UserInfoStorage-to-UserInfo" style="stroke:#181818;stroke-width:1;"/><polygon fill="#181818" points="1061.09,1002.6675,1064.3737,993.3822,1060.6988,997.6828,1056.3982,994.008,1061.09,1002.6675" style="stroke:#181818;stroke-width:1;"/></g><!--SRC=[fLPRJoCt57xtht0tbNWXA0sbIrcrKZP4NRJGfa141UB1cN4IYyauiXreXFQ_zzWUUspFP63LF4IUuy_dVbDC5HJVaQ8WSxBaUCpN6rxIKacqeYId0cUEWdD6beAi4Jh0DsfNK8b- -F6Ab6G9gD_mXpd9diu6P3Wy_lMJel-giqksNAa_1DrzAbX9prvMJ55pFCgvKZJ_0EydvH88_ld9CHdEgNt-kG2AnjmeBa281_sKd_uyFqb0KoeaaugMMG0y7jBZeGNUUUdsgD-CIROAq1z_6Pn-t8- -OdbUq1SYWYU3ay7fOF-JqVJYdUp1f-E26R-J3Ep5CmbUVK0OVlg87X6g8_7rhsiR70jmd-RZ27wMoahG5uysc_Yn2_Qep0LdUSN3KMCU3cEPr3p6N52W5ImZYl4Ilnhq0GQ3pKdGJ95o2UA_tDvEjHjwnXbMLYYF6uH_g7zz-FaFSxiYsXGX3HMCYKNSqVciIm3SuzbUzbV_682sCE1-WEjm6y96y8nAYKTRjVepI8LUc1UrT0DBUJIaQnIuqtaHiZ5xadZ1XKU0M0M6qXpibNmhG0T_vwDK9KcEvnJUrhBeCnMxW4LLh8cTbYWJfuxoDIjTTVTydGSMQa34ic6UoM6BM8EPJcuYQL8giUkIP03TaYnaV3qxRq-HCI-VTOFWdIRLgFT8oppQNoYE9zFPPqnLTXHxsVQvL2qT__kg1VPSBuoJwDuztPj0ztZ3eH1tLVgqE-2QAi7eCodsI_EGJearYYym11K-wenS2Bx6aD9uTdtvLY3sAnA4eKkJ0DQYofog5qfBNKnhecGSZMgYD59H9woRDZq_TnxYX7QFMvNIbnIJBEDRQ9EUp4ghXrQstJ4cfxfaswHxX_3A4xLmQ9vumGgQEE6SA6BFEPpcH9fPSUxElMYaldfk6IyAq1eiaSOVCj3H-KX6b4Z7kdL8HTHM7aOt6q4NL6Y9iYwYGEjKWKbbQwp29Cc5LYLk_hxiQqDpK2JsgSba6C7KU5mx9r13_tz3tyA1Uf7h7gvsKy6VcPxAhqbi7Q2hzpXCT-VvOWQXJ0P7-qIer94uAmXRrzuWSxvLcDGSm0LR6KXyq26yo0_nP4rOyTYUhxVyYPPT-Me0xybNfO5oJraOLQ1utgnA3NgFDERy79GagaFhIy75uxlhmIZIB0cZuF_DI1qcrrpYz8uYNmVnl0hY8PuIAL-uoENZMpLrQ-EHs62ftsa0RbWG1ZifABq2yxAir436QVtVw-NMBxrze5PhPOK2Wba2_QDanqNfpXkoi5khNI83CdARgyOcMrzm1vT9USUNuHuLtpHsalWwN8kqRmBfwGxQfWGADhjemzBWP1je0eB59BrqglaP6csAwUFa4cw36OjGSo-BFLDnQOU5SjeG3KtT6YPHk7WrbAhtWsWeEtvwig1mKt0CW1nrHKsloWPufW5AXqBVmvtqLaJI457Q84FCVm00]--></g></svg>