<svg xmlns="http://www.w3.org/2000/svg" xmlns:xlink="http://www.w3.org/1999/xlink" contentStyleType="text/css" data-diagram-type="CLASS" height="578px" preserveAspectRatio="none" style="width:1060px;height:578px;background:#FFFFFF;" version="1.1" viewBox="0 0 1060 578" width="1060px" zoomAndPan="magnify"><title>Wallabago Components</title><defs/><g><g class="header" data-source-line="3"><text fill="#888888" font-family="sans-serif" font-size="10" lengthAdjust="spacing" textLength="101.333" x="944.6698" y="9.2822">component diagram</text></g><g class="title" data-source-line="2"><text fill="#000000" font-family="sans-serif" font-size="14" font-weight="bold" lengthAdjust="spacing" textLength="186.4912" x="429.7558" y="35.6357">Wallabago Components</text></g><!--entity AdminManager--><g class="entity" data-entity="AdminManager" data-source-line="11" data-uid="ent0002" id="entity_AdminManager"><rect fill="#0A2239" height="60.5938" rx="2.5" ry="2.5" style="stroke:#FFFFFF;stroke-width:1;stroke-dasharray:1,3;" width="148.584" x="7" y="69.0875"/><text fill="#D3D3D3" font-family="sans-serif" font-size="14" lengthAdjust="spacing" textLength="110.6807" x="17" y="92.0826">Admin Manager</text><line style="stroke:#FFFFFF;stroke-width:1;" x1="8" x2="154.584" y1="95.3844" y2="95.3844"/><text fill="#D3D3D3" font-family="sans-serif" font-size="14" lengthAdjust="spacing" textLength="128.584" x="17" y="112.3795">User Management</text></g><!--entity OAuth2Manager--><g class="entity" data-entity="OAuth2Manager" data-source-line="17" data-uid="ent0003" id="entity_OAuth2Manager"><rect fill="#0A2239" height="60.5938" rx="2.5" ry="2.5" style="stroke:#FFFFFF;stroke-width:1;stroke-dasharray:1,3;" width="138.5557" x="191.01" y="69.0875"/><text fill="#D3D3D3" font-family="sans-serif" font-size="14" lengthAdjust="spacing" textLength="118.5557" x="201.01" y="92.0826">OAuth2 Manager</text><line style="stroke:#FFFFFF;stroke-width:1;" x1="192.01" x2="328.5657" y1="95.3844" y2="95.3844"/><text fill="#D3D3D3" font-family="sans-serif" font-size="14" lengthAdjust="spacing" textLength="52.7393" x="201.01" y="112.3795">OAuth2</text></g><!--entity AuthEngine--><g class="entity" data-entity="AuthEngine" data-source-line="23" data-uid="ent0004" id="entity_AuthEngine"><rect fill="#53A2BE" height="76.8906" rx="2.5" ry="2.5" style="stroke:#181818;stroke-width:0.5;" width="125.5059" x="303.54" y="201.8275"/><text fill="#000000" font-family="sans-serif" font-size="14" lengthAdjust="spacing" textLength="85.2441" x="313.54" y="224.8226">Auth Engine</text><line style="stroke:#181818;stroke-width:1;" x1="304.54" x2="428.0459" y1="228.1244" y2="228.1244"/><text fill="#000000" font-family="sans-serif" font-size="14" lengthAdjust="spacing" textLength="105.5059" x="313.54" y="245.1195">AuthN &amp; AuthZ</text><text fill="#000000" font-family="sans-serif" font-size="14" lengthAdjust="spacing" textLength="93.9463" x="313.54" y="261.4164">policy checks</text></g><!--entity AuthStorage--><g class="entity" data-entity="AuthStorage" data-source-line="30" data-uid="ent0005" id="entity_AuthStorage"><rect fill="#1D84B5" height="60.5938" rx="2.5" ry="2.5" style="stroke:#181818;stroke-width:0.5;" width="112.0391" x="276.27" y="346.8675"/><text fill="#000000" font-family="sans-serif" font-size="14" lengthAdjust="spacing" textLength="92.0391" x="286.27" y="369.8626">Auth Storage</text><line style="stroke:#181818;stroke-width:1;" x1="277.27" x2="387.3091" y1="373.1644" y2="373.1644"/><text fill="#000000" font-family="sans-serif" font-size="14" lengthAdjust="spacing" textLength="88.7031" x="286.27" y="390.1595">Store tokens</text></g><!--entity UserInfoStorage--><g class="entity" data-entity="UserInfoStorage" data-source-line="36" data-uid="ent0006" id="entity_UserInfoStorage"><rect fill="#1D84B5" height="76.8906" rx="2.5" ry="2.5" style="stroke:#181818;stroke-width:0.5;" width="142.083" x="26.25" y="338.7175"/><text fill="#000000" font-family="sans-serif" font-size="14" lengthAdjust="spacing" textLength="122.083" x="36.25" y="361.7126">User Info Storage</text><line style="stroke:#181818;stroke-width:1;" x1="27.25" x2="167.333" y1="365.0144" y2="365.0144"/><text fill="#000000" font-family="sans-serif" font-size="14" lengthAdjust="spacing" textLength="97.5352" x="36.25" y="382.0095">Store account</text><text fill="#000000" font-family="sans-serif" font-size="14" lengthAdjust="spacing" textLength="81.0469" x="36.25" y="398.3064">information</text></g><!--entity UserInfoDB--><g class="entity" data-entity="UserInfoDB" data-source-line="43" data-uid="ent0007" id="entity_UserInfoDB"><path d="M20.97,485.6075 C20.97,475.6075 97.2957,475.6075 97.2957,475.6075 C97.2957,475.6075 173.6214,475.6075 173.6214,485.6075 L173.6214,551.4981 C173.6214,561.4981 97.2957,561.4981 97.2957,561.4981 C97.2957,561.4981 20.97,561.4981 20.97,551.4981 L20.97,485.6075" fill="#132E32" style="stroke:#FFFFFF;stroke-width:0.5;"/><path d="M20.97,485.6075 C20.97,495.6075 97.2957,495.6075 97.2957,495.6075 C97.2957,495.6075 173.6214,495.6075 173.6214,485.6075" fill="none" style="stroke:#FFFFFF;stroke-width:0.5;"/><text fill="#FFFFFF" font-family="sans-serif" font-size="14" lengthAdjust="spacing" textLength="87.6914" x="30.97" y="512.6026">User Info DB</text><path d="M20.97,510.9044 C20.97,520.9044 97.2957,520.9044 97.2957,520.9044 C97.2957,520.9044 173.6214,520.9044 173.6214,510.9044" fill="none" style="stroke:#FFFFFF;stroke-width:1;"/><text fill="#FFFFFF" font-family="sans-serif" font-size="14" lengthAdjust="spacing" textLength="132.6514" x="30.97" y="532.8995">SQL-based storage</text><text fill="#FFFFFF" font-family="sans-serif" font-size="14" lengthAdjust="spacing" textLength="61.5303" x="30.97" y="549.1964">for users</text></g><!--entity EntryManager--><g class="entity" data-entity="EntryManager" data-source-line="50" data-uid="ent0008" id="entity_EntryManager"><rect fill="#0A2239" height="84.8906" rx="2.5" ry="2.5" style="stroke:#FFFFFF;stroke-width:1;stroke-dasharray:1,3;" width="140.1895" x="569.2" y="56.9375"/><text fill="#D3D3D3" font-family="sans-serif" font-size="14" lengthAdjust="spacing" textLength="103.0654" x="579.2" y="79.9326">Entry Manager</text><line style="stroke:#FFFFFF;stroke-width:1;" x1="570.2" x2="708.3895" y1="83.2344" y2="83.2344"/><text fill="#D3D3D3" font-family="sans-serif" font-size="14" lengthAdjust="spacing" textLength="82.2295" x="579.2" y="100.2295">Entry CRUD</text><line style="stroke:#FFFFFF;stroke-width:1;stroke-dasharray:1,2;" x1="570.2" x2="708.3895" y1="107.5313" y2="107.5313"/><text fill="#D3D3D3" font-family="sans-serif" font-size="14" lengthAdjust="spacing" textLength="120.1895" x="579.2" y="124.5264">Entry Conversion</text></g><!--entity RetrievalEngine--><g class="entity" data-entity="RetrievalEngine" data-source-line="58" data-uid="ent0009" id="entity_RetrievalEngine"><rect fill="#53A2BE" height="76.8906" rx="2.5" ry="2.5" style="stroke:#181818;stroke-width:0.5;" width="153.7656" x="464.41" y="201.8275"/><text fill="#000000" font-family="sans-serif" font-size="14" lengthAdjust="spacing" textLength="115.2744" x="474.41" y="224.8226">Retrieval Engine</text><line style="stroke:#181818;stroke-width:1;" x1="465.41" x2="617.1756" y1="228.1244" y2="228.1244"/><text fill="#000000" font-family="sans-serif" font-size="14" lengthAdjust="spacing" textLength="133.7656" x="474.41" y="245.1195">Retrieval of entries</text><text fill="#000000" font-family="sans-serif" font-size="14" lengthAdjust="spacing" textLength="92.5381" x="474.41" y="261.4164">from the URL</text></g><!--entity ConversionEngine--><g class="entity" data-entity="ConversionEngine" data-source-line="65" data-uid="ent0010" id="entity_ConversionEngine"><rect fill="#53A2BE" height="76.8906" rx="2.5" ry="2.5" style="stroke:#181818;stroke-width:0.5;" width="169.4131" x="653.59" y="201.8275"/><text fill="#000000" font-family="sans-serif" font-size="14" lengthAdjust="spacing" textLength="130.9219" x="663.59" y="224.8226">Conversion Engine</text><line style="stroke:#181818;stroke-width:1;" x1="654.59" x2="822.0031" y1="228.1244" y2="228.1244"/><text fill="#000000" font-family="sans-serif" font-size="14" lengthAdjust="spacing" textLength="149.4131" x="663.59" y="245.1195">Conversion of entries</text><text fill="#000000" font-family="sans-serif" font-size="14" lengthAdjust="spacing" textLength="119.2393" x="663.59" y="261.4164">between formats</text></g><!--entity AuthDB--><g class="entity" data-entity="AuthDB" data-source-line="72" data-uid="ent0011" id="entity_AuthDB"><path d="M238.74,485.6075 C238.74,475.6075 317.2908,475.6075 317.2908,475.6075 C317.2908,475.6075 395.8416,475.6075 395.8416,485.6075 L395.8416,551.4981 C395.8416,561.4981 317.2908,561.4981 317.2908,561.4981 C317.2908,561.4981 238.74,561.4981 238.74,551.4981 L238.74,485.6075" fill="#132E32" style="stroke:#FFFFFF;stroke-width:0.5;"/><path d="M238.74,485.6075 C238.74,495.6075 317.2908,495.6075 317.2908,495.6075 C317.2908,495.6075 395.8416,495.6075 395.8416,485.6075" fill="none" style="stroke:#FFFFFF;stroke-width:0.5;"/><text fill="#FFFFFF" font-family="sans-serif" font-size="14" lengthAdjust="spacing" textLength="57.6475" x="248.74" y="512.6026">Auth DB</text><path d="M238.74,510.9044 C238.74,520.9044 317.2908,520.9044 317.2908,520.9044 C317.2908,520.9044 395.8416,520.9044 395.8416,510.9044" fill="none" style="stroke:#FFFFFF;stroke-width:1;"/><text fill="#FFFFFF" font-family="sans-serif" font-size="14" lengthAdjust="spacing" textLength="132.6514" x="248.74" y="532.8995">SQL-based storage</text><text fill="#FFFFFF" font-family="sans-serif" font-size="14" lengthAdjust="spacing" textLength="70.6426" x="248.74" y="549.1964">for tokens</text></g><!--entity AuthCache--><g class="entity" data-entity="AuthCache" data-source-line="79" data-uid="ent0012" id="entity_AuthCache"><rect fill="#176087" height="72.8906" rx="2.5" ry="2.5" style="stroke:#FFFFFF;stroke-width:0.5;" width="132.0264" x="435.28" y="484.1075"/><rect fill="#176087" height="72.8906" rx="2.5" ry="2.5" style="stroke:#FFFFFF;stroke-width:0.5;" width="132.0264" x="431.28" y="480.1075"/><text fill="#FFFFFF" font-family="sans-serif" font-size="14" lengthAdjust="spacing" textLength="80.8008" x="439.28" y="501.1026">Auth Cache</text><line style="stroke:#FFFFFF;stroke-width:1;" x1="432.28" x2="566.3064" y1="504.4044" y2="504.4044"/><text fill="#FFFFFF" font-family="sans-serif" font-size="14" lengthAdjust="spacing" textLength="111.5762" x="439.28" y="521.3995">In-mem storage</text><text fill="#FFFFFF" font-family="sans-serif" font-size="14" lengthAdjust="spacing" textLength="70.6426" x="439.28" y="537.6964">for tokens</text></g><!--entity EntryStorage--><g class="entity" data-entity="EntryStorage" data-source-line="86" data-uid="ent0013" id="entity_EntryStorage"><rect fill="#1D84B5" height="76.8906" rx="2.5" ry="2.5" style="stroke:#181818;stroke-width:0.5;" width="116.4756" x="818.05" y="338.7175"/><text fill="#000000" font-family="sans-serif" font-size="14" lengthAdjust="spacing" textLength="96.4756" x="828.05" y="361.7126">Entry Storage</text><line style="stroke:#181818;stroke-width:1;" x1="819.05" x2="933.5256" y1="365.0144" y2="365.0144"/><text fill="#000000" font-family="sans-serif" font-size="14" lengthAdjust="spacing" textLength="90.2891" x="828.05" y="382.0095">Store entries</text><text fill="#000000" font-family="sans-serif" font-size="14" lengthAdjust="spacing" textLength="59.4043" x="828.05" y="398.3064">and files</text></g><!--entity EntriesDB--><g class="entity" data-entity="EntriesDB" data-source-line="93" data-uid="ent0014" id="entity_EntriesDB"><path d="M708.97,485.6075 C708.97,475.6075 785.2957,475.6075 785.2957,475.6075 C785.2957,475.6075 861.6214,475.6075 861.6214,485.6075 L861.6214,551.4981 C861.6214,561.4981 785.2957,561.4981 785.2957,561.4981 C785.2957,561.4981 708.97,561.4981 708.97,551.4981 L708.97,485.6075" fill="#132E32" style="stroke:#FFFFFF;stroke-width:0.5;"/><path d="M708.97,485.6075 C708.97,495.6075 785.2957,495.6075 785.2957,495.6075 C785.2957,495.6075 861.6214,495.6075 861.6214,485.6075" fill="none" style="stroke:#FFFFFF;stroke-width:0.5;"/><text fill="#FFFFFF" font-family="sans-serif" font-size="14" lengthAdjust="spacing" textLength="62.084" x="718.97" y="512.6026">Entry DB</text><path d="M708.97,510.9044 C708.97,520.9044 785.2957,520.9044 785.2957,520.9044 C785.2957,520.9044 861.6214,520.9044 861.6214,510.9044" fill="none" style="stroke:#FFFFFF;stroke-width:1;"/><text fill="#FFFFFF" font-family="sans-serif" font-size="14" lengthAdjust="spacing" textLength="132.6514" x="718.97" y="532.8995">SQL-based storage</text><text fill="#FFFFFF" font-family="sans-serif" font-size="14" lengthAdjust="spacing" textLength="96.7012" x="718.97" y="549.1964">for entry data</text></g><!--entity EntriesFileCache--><g class="entity" data-entity="EntriesFileCache" data-source-line="100" data-uid="ent0015" id="entity_EntriesFileCache"><rect fill="#176087" height="72.8906" rx="2.5" ry="2.5" style="stroke:#FFFFFF;stroke-width:0.5;" width="153.4229" x="900.58" y="484.1075"/><rect fill="#176087" height="72.8906" rx="2.5" ry="2.5" style="stroke:#FFFFFF;stroke-width:0.5;" width="153.4229" x="896.58" y="480.1075"/><text fill="#FFFFFF" font-family="sans-serif" font-size="14" lengthAdjust="spacing" textLength="72.4336" x="904.58" y="501.1026">File Cache</text><line style="stroke:#FFFFFF;stroke-width:1;" x1="897.58" x2="1053.0029" y1="504.4044" y2="504.4044"/><text fill="#FFFFFF" font-family="sans-serif" font-size="14" lengthAdjust="spacing" textLength="137.4229" x="904.58" y="521.3995">Storage for caching</text><text fill="#FFFFFF" font-family="sans-serif" font-size="14" lengthAdjust="spacing" textLength="103.8447" x="904.58" y="537.6964">converted files</text></g><!--link OAuth2Manager to AuthEngine--><g class="link" data-entity-1="OAuth2Manager" data-entity-2="AuthEngine" data-source-line="107" data-uid="lnk16" id="link_OAuth2Manager_AuthEngine"><path codeLine="107" d="M283.03,130.1775 C298.97,151.0575 316.7607,174.3673 333.8807,196.8073" fill="none" id="OAuth2Manager-to-AuthEngine" style="stroke:#181818;stroke-width:1;"/><polygon fill="#181818" points="337.52,201.5775,335.2412,191.9959,334.4872,197.6023,328.8808,196.8484,337.52,201.5775" style="stroke:#181818;stroke-width:1;"/></g><!--link AuthEngine to AuthStorage--><g class="link" data-entity-1="AuthEngine" data-entity-2="AuthStorage" data-source-line="108" data-uid="lnk17" id="link_AuthEngine_AuthStorage"><path codeLine="108" d="M356.73,279.2075 C351.35,300.5575 346.1956,320.9992 341.2056,340.8092" fill="none" id="AuthEngine-to-AuthStorage" style="stroke:#181818;stroke-width:1;"/><polygon fill="#181818" points="339.74,346.6275,345.8172,338.8772,340.9613,341.779,338.0595,336.9231,339.74,346.6275" style="stroke:#181818;stroke-width:1;"/></g><!--link OAuth2Manager to AuthStorage--><g class="link" data-entity-1="OAuth2Manager" data-entity-2="AuthStorage" data-source-line="109" data-uid="lnk18" id="link_OAuth2Manager_AuthStorage"><path codeLine="109" d="M261.92,129.9975 C264.51,165.8575 270.93,227.7875 286.29,278.7175 C293.48,302.5375 302.8016,322.6053 312.8016,341.4853" fill="none" id="OAuth2Manager-to-AuthStorage" style="stroke:#181818;stroke-width:1;"/><polygon fill="#181818" points="315.61,346.7875,314.9322,336.962,313.2697,342.369,307.8627,340.7065,315.61,346.7875" style="stroke:#181818;stroke-width:1;"/></g><!--link OAuth2Manager to UserInfoStorage--><g class="link" data-entity-1="OAuth2Manager" data-entity-2="UserInfoStorage" data-source-line="110" data-uid="lnk19" id="link_OAuth2Manager_UserInfoStorage"><path codeLine="110" d="M242.69,130.1575 C212.81,180.7175 155.263,278.0723 122.523,333.4623" fill="none" id="OAuth2Manager-to-UserInfoStorage" style="stroke:#181818;stroke-width:1;"/><polygon fill="#181818" points="119.47,338.6275,127.493,332.9151,122.0142,334.3232,120.6061,328.8444,119.47,338.6275" style="stroke:#181818;stroke-width:1;"/></g><!--link UserInfoStorage to UserInfoDB--><g class="link" data-entity-1="UserInfoStorage" data-entity-2="UserInfoDB" data-source-line="111" data-uid="lnk20" id="link_UserInfoStorage_UserInfoDB"><path codeLine="111" d="M97.29,415.8875 C97.29,434.2675 97.29,450.4375 97.29,469.3775" fill="none" id="UserInfoStorage-to-UserInfoDB" style="stroke:#181818;stroke-width:1;"/><polygon fill="#181818" points="97.29,475.3775,101.29,466.3775,97.29,470.3775,93.29,466.3775,97.29,475.3775" style="stroke:#181818;stroke-width:1;"/></g><!--link AuthStorage to AuthDB--><g class="link" data-entity-1="AuthStorage" data-entity-2="AuthDB" data-source-line="112" data-uid="lnk21" id="link_AuthStorage_AuthDB"><path codeLine="112" d="M329.11,407.7275 C327,427.3775 324.8222,447.542 322.4722,469.372" fill="none" id="AuthStorage-to-AuthDB" style="stroke:#181818;stroke-width:1;"/><polygon fill="#181818" points="321.83,475.3375,326.7703,466.8173,322.3652,470.3662,318.8163,465.9611,321.83,475.3375" style="stroke:#181818;stroke-width:1;"/></g><!--link AuthStorage to AuthCache--><g class="link" data-entity-1="AuthStorage" data-entity-2="AuthCache" data-source-line="113" data-uid="lnk22" id="link_AuthStorage_AuthCache"><path codeLine="113" d="M367.71,407.7275 C392.89,428.7375 422.3135,453.3031 449.4535,475.9531" fill="none" id="AuthStorage-to-AuthCache" style="stroke:#181818;stroke-width:1;"/><polygon fill="#181818" points="454.06,479.7975,449.7131,470.9598,450.2212,476.5938,444.5872,477.1019,454.06,479.7975" style="stroke:#181818;stroke-width:1;"/></g><!--link EntryManager to EntryStorage--><g class="link" data-entity-1="EntryManager" data-entity-2="EntryStorage" data-source-line="115" data-uid="lnk23" id="link_EntryManager_EntryStorage"><path codeLine="115" d="M709.57,118.6975 C753.67,133.8175 808.09,159.7775 840.29,201.8275 C870.54,241.3275 876.8826,294.0983 877.5026,332.2783" fill="none" id="EntryManager-to-EntryStorage" style="stroke:#181818;stroke-width:1;"/><polygon fill="#181818" points="877.6,338.2775,881.4533,329.2137,877.5188,333.2782,873.4544,329.3436,877.6,338.2775" style="stroke:#181818;stroke-width:1;"/></g><!--link EntryManager to RetrievalEngine--><g class="link" data-entity-1="EntryManager" data-entity-2="RetrievalEngine" data-source-line="116" data-uid="lnk24" id="link_EntryManager_RetrievalEngine"><path codeLine="116" d="M609.89,142.0475 C596.58,160.9075 584.4294,178.1352 571.4594,196.5152" fill="none" id="EntryManager-to-RetrievalEngine" style="stroke:#181818;stroke-width:1;"/><polygon fill="#181818" points="568,201.4175,576.4573,196.3703,570.8828,197.3322,569.9208,191.7578,568,201.4175" style="stroke:#181818;stroke-width:1;"/></g><!--link EntryManager to ConversionEngine--><g class="link" data-entity-1="EntryManager" data-entity-2="ConversionEngine" data-source-line="117" data-uid="lnk25" id="link_EntryManager_ConversionEngine"><path codeLine="117" d="M669,142.0475 C682.44,160.9075 694.7276,178.1515 707.8276,196.5315" fill="none" id="EntryManager-to-ConversionEngine" style="stroke:#181818;stroke-width:1;"/><polygon fill="#181818" points="711.31,201.4175,709.3437,191.7669,708.408,197.3458,702.8291,196.4101,711.31,201.4175" style="stroke:#181818;stroke-width:1;"/></g><!--link EntryStorage to EntriesFileCache--><g class="link" data-entity-1="EntryStorage" data-entity-2="EntriesFileCache" data-source-line="120" data-uid="lnk26" id="link_EntryStorage_EntriesFileCache"><path codeLine="120" d="M903.08,415.8875 C917.17,435.7175 930.9159,455.0656 945.0059,474.9056" fill="none" id="EntryStorage-to-EntriesFileCache" style="stroke:#181818;stroke-width:1;"/><polygon fill="#181818" points="948.48,479.7975,946.5301,470.1436,945.5849,475.7209,940.0076,474.7758,948.48,479.7975" style="stroke:#181818;stroke-width:1;"/></g><!--link EntryStorage to EntriesDB--><g class="link" data-entity-1="EntryStorage" data-entity-2="EntriesDB" data-source-line="121" data-uid="lnk27" id="link_EntryStorage_EntriesDB"><path codeLine="121" d="M851.67,415.8875 C839.66,434.2675 828.4709,451.414 816.1009,470.354" fill="none" id="EntryStorage-to-EntriesDB" style="stroke:#181818;stroke-width:1;"/><polygon fill="#181818" points="812.82,475.3775,821.0904,470.0295,815.5541,471.1913,814.3924,465.655,812.82,475.3775" style="stroke:#181818;stroke-width:1;"/></g><!--link EntryManager to AuthEngine--><g class="link" data-entity-1="EntryManager" data-entity-2="AuthEngine" data-source-line="123" data-uid="lnk28" id="link_EntryManager_AuthEngine"><path codeLine="123" d="M568.99,136.1475 C525.86,158.0875 476.4375,183.2263 434.7175,204.4563" fill="none" id="EntryManager-to-AuthEngine" style="stroke:#181818;stroke-width:1;"/><polygon fill="#181818" points="429.37,207.1775,439.2053,206.6607,433.8262,204.9099,435.5771,199.5308,429.37,207.1775" style="stroke:#181818;stroke-width:1;"/></g><!--link AdminManager to UserInfoStorage--><g class="link" data-entity-1="AdminManager" data-entity-2="UserInfoStorage" data-source-line="125" data-uid="lnk29" id="link_AdminManager_UserInfoStorage"><path codeLine="125" d="M83.02,130.1575 C85.95,180.7175 91.5529,277.2476 94.7629,332.6376" fill="none" id="AdminManager-to-UserInfoStorage" style="stroke:#181818;stroke-width:1;"/><polygon fill="#181818" points="95.11,338.6275,98.5826,329.4112,94.8207,333.6359,90.596,329.874,95.11,338.6275" style="stroke:#181818;stroke-width:1;"/></g><!--SRC=[ZLNBRjim4BppAzYuwCr1AZTDwg01uaUB0ExBXH6WHGyqjPO9IsGWqKdzzrsIUb2qv5GNIJlB6N9sjT92fq0VM9goDKiKdQhiKKcGkY1RO37ab5SH6WkMv2mZvDNhBqoo1C6Fz6pD-6vymQ9ezE56mryzNeXagp_dSBX9XOJnyrPei8_diT8QuZDSFvS91khbboCMhS4jdwGOCJa_jSfHf4vw6r-_Mry6ITyXBqIXGN8lSHJ1A7A93xMwUpHhfenllUohznVNLttP90UkcKpGfBiu4x8w-A2su3UXU5cGbZ4R6U9b7rO5PZaaGnl97v_qszrURwC-LeTsqpgipMP2fRM3okDoVuXG5sdJ6E0hVMFllspaKQM27oXwn7V5CNzLba5T84-X3BKbJ12eLZkG0P-nvbvkL1-djSuad29cdAizjgSD2KpECwQ5aaOgPXhxkcYKPXCKyPic59fD0eqVYw5XY6dXRG55w1xN1EUPIvqV-effmUvQEcYwNCtiwpbUVbp99xDZTwH6RGaw5_34qkwIrt1dtHjKRIYs9RuKxcYvogZ63sIrNBJrcdrq2pPufw871v9hqCy0ahhI5Qt2cRRgAPhjk1VhHUk2DHt8LPhYiN0hXMLn4s5GJWQFtGRQ0lToc45sYZteXxxcTiKzqTYbHKw2oPXkH0fjT-OkfSSWf_3_7Gqstv279fKwdt03NLwPU9TNrO4DEKTOoCJ6kMq5_1SqHseFmk7mrXjcn9jh5LBv5gvx6Gw63Wc7a9-3tlaphsBl2Ji7I6iAM4c_3qBuDloEZnF23u-K6hv-MA7U3DpxiOBdDMdzvxeS-mS0]--></g></svg>