<svg xmlns="http://www.w3.org/2000/svg" xmlns:xlink="http://www.w3.org/1999/xlink" contentStyleType="text/css" data-diagram-type="CLASS" height="1174px" preserveAspectRatio="none" style="width:1215px;height:1174px;background:#FFFFFF;" version="1.1" viewBox="0 0 1215 1174" width="1215px" zoomAndPan="magnify"><title>Wallabago Components</title><defs/><g><g class="header" data-source-line="3"><text fill="#888888" font-family="sans-serif" font-size="10" lengthAdjust="spacing" textLength="101.333" x="1099.667" y="9.2822">component diagram</text></g><g class="title" data-source-line="2"><text fill="#000000" font-family="sans-serif" font-size="14" font-weight="bold" lengthAdjust="spacing" textLength="186.4912" x="507.2544" y="35.6357">Wallabago Components</text></g><!--cluster Wallabago--><g class="cluster" data-entity="Wallabago" data-source-line="31" data-uid="ent0005" id="cluster_Wallabago"><rect fill="none" height="955.53" rx="2.5" ry="2.5" style="stroke:#181818;stroke-width:1;" width="1202" x="7" y="212.6275"/><rect fill="none" height="10" style="stroke:#181818;stroke-width:1;" width="15" x="1189" y="217.6275"/><rect fill="none" height="2" style="stroke:#181818;stroke-width:1;" width="4" x="1187" y="219.6275"/><rect fill="none" height="2" style="stroke:#181818;stroke-width:1;" width="4" x="1187" y="223.6275"/><text fill="#000000" font-family="sans-serif" font-size="14" font-weight="bold" lengthAdjust="spacing" textLength="83.043" x="566.4785" y="238.6226">Wallabago</text></g><!--cluster AppDatabase--><g class="cluster" data-entity="AppDatabase" data-source-line="118" data-uid="ent0017" id="cluster_AppDatabase"><path d="M819,975.1175 C819,965.1175 995.5,965.1175 995.5,965.1175 C995.5,965.1175 1172,965.1175 1172,975.1175 L1172,1098.0075 C1172,1108.0075 995.5,1108.0075 995.5,1108.0075 C995.5,1108.0075 819,1108.0075 819,1098.0075 L819,975.1175" fill="#132E32" style="stroke:#FFFFFF;stroke-width:1;"/><path d="M819,975.1175 C819,985.1175 995.5,985.1175 995.5,985.1175 C995.5,985.1175 1172,985.1175 1172,975.1175" fill="none" style="stroke:#FFFFFF;stroke-width:1;"/><text fill="#FFFFFF" font-family="sans-serif" font-size="14" font-weight="bold" lengthAdjust="spacing" textLength="105.3828" x="942.8086" y="1000.1126">AppDatabase</text></g><!--cluster IdentityProvider--><g class="cluster" data-entity="IdentityProvider" data-source-line="133" data-uid="ent0020" id="cluster_IdentityProvider"><rect fill="none" height="633.45" rx="2.5" ry="2.5" style="stroke:#181818;stroke-width:1;" width="481" x="31" y="510.7075"/><rect fill="none" height="10" style="stroke:#181818;stroke-width:1;" width="15" x="492" y="515.7075"/><rect fill="none" height="2" style="stroke:#181818;stroke-width:1;" width="4" x="490" y="517.7075"/><rect fill="none" height="2" style="stroke:#181818;stroke-width:1;" width="4" x="490" y="521.7075"/><text fill="#000000" font-family="sans-serif" font-size="14" font-weight="bold" lengthAdjust="spacing" textLength="129.1309" x="206.9346" y="536.7026">IdentityProvider</text></g><!--cluster IdentityDatabase--><g class="cluster" data-entity="IdentityDatabase" data-source-line="155" data-uid="ent0024" id="cluster_IdentityDatabase"><path d="M55,962.9675 C55,952.9675 271.5,952.9675 271.5,952.9675 C271.5,952.9675 488,952.9675 488,962.9675 L488,1110.1575 C488,1120.1575 271.5,1120.1575 271.5,1120.1575 C271.5,1120.1575 55,1120.1575 55,1110.1575 L55,962.9675" fill="#132E32" style="stroke:#FFFFFF;stroke-width:1;"/><path d="M55,962.9675 C55,972.9675 271.5,972.9675 271.5,972.9675 C271.5,972.9675 488,972.9675 488,962.9675" fill="none" style="stroke:#FFFFFF;stroke-width:1;"/><text fill="#FFFFFF" font-family="sans-serif" font-size="14" font-weight="bold" lengthAdjust="spacing" textLength="136.5068" x="203.2466" y="987.9626">IdentityDatabase</text></g><!--entity HTTPAPI--><g class="entity" data-entity="HTTPAPI" data-source-line="33" data-uid="ent0006" id="entity_HTTPAPI"><rect fill="#176087" height="60.5938" rx="2.5" ry="2.5" style="stroke:#FFFFFF;stroke-width:0.5;" width="160.8203" x="569.59" y="247.6275"/><text fill="#FFFFFF" font-family="sans-serif" font-size="14" lengthAdjust="spacing" textLength="140.8203" x="579.59" y="270.6226">Wallabago HTTP API</text><line style="stroke:#FFFFFF;stroke-width:1;" x1="570.59" x2="729.4103" y1="273.9244" y2="273.9244"/><text fill="#FFFFFF" font-family="sans-serif" font-size="14" lengthAdjust="spacing" textLength="101.2881" x="579.59" y="290.9195">HTTP handlers</text></g><!--entity WebUI--><g class="entity" data-entity="WebUI" data-source-line="39" data-uid="ent0007" id="entity_WebUI"><rect fill="#176087" height="60.5938" rx="2.5" ry="2.5" style="stroke:#FFFFFF;stroke-width:0.5;" width="148.3174" x="385.84" y="247.6275"/><text fill="#FFFFFF" font-family="sans-serif" font-size="14" lengthAdjust="spacing" textLength="128.3174" x="395.84" y="270.6226">Wallabago Web UI</text><line style="stroke:#FFFFFF;stroke-width:1;" x1="386.84" x2="533.1574" y1="273.9244" y2="273.9244"/><text fill="#FFFFFF" font-family="sans-serif" font-size="14" lengthAdjust="spacing" textLength="108.3428" x="395.84" y="290.9195">HTMX Web App</text></g><!--entity AuthNMiddleware--><g class="entity" data-entity="AuthNMiddleware" data-source-line="46" data-uid="ent0008" id="entity_AuthNMiddleware"><polygon fill="#105080" points="295.4,368.2175,504.6041,368.2175,514.6041,426.9597,504.6041,485.7019,295.4,485.7019,305.4,426.9597" style="stroke:#FFFFFF;stroke-width:0.5;"/><text fill="#FFFFFF" font-family="sans-serif" font-size="14" lengthAdjust="spacing" textLength="128.3789" x="315.4" y="391.2126">AuthN Middleware</text><line style="stroke:#FFFFFF;stroke-width:1;" x1="296.4" x2="513.6041" y1="394.5144" y2="394.5144"/><text fill="#FFFFFF" font-family="sans-serif" font-size="14" lengthAdjust="spacing" textLength="179.2041" x="315.4" y="411.5095">Authentication checks for</text><text fill="#FFFFFF" font-family="sans-serif" font-size="14" lengthAdjust="spacing" textLength="140.9092" x="315.4" y="427.8064">protected resources</text><line style="stroke:#FFFFFF;stroke-width:1;stroke-dasharray:1,2;" x1="296.4" x2="513.6041" y1="435.1081" y2="435.1081"/><text fill="#FFFFFF" font-family="sans-serif" font-size="14" lengthAdjust="spacing" textLength="84.8545" x="315.4" y="452.1032">Used before</text><text fill="#FFFFFF" font-family="sans-serif" font-size="14" lengthAdjust="spacing" textLength="177.8164" x="315.4" y="468.4001">every protected Manager</text></g><!--entity AdminManager--><g class="entity" data-entity="AdminManager" data-source-line="57" data-uid="ent0009" id="entity_AdminManager"><rect fill="#0A2239" height="60.5938" rx="2.5" ry="2.5" style="stroke:#FFFFFF;stroke-width:1;stroke-dasharray:1,3;" width="148.584" x="1001.71" y="574.1475"/><text fill="#D3D3D3" font-family="sans-serif" font-size="14" lengthAdjust="spacing" textLength="110.6807" x="1011.71" y="597.1426">Admin Manager</text><line style="stroke:#FFFFFF;stroke-width:1;" x1="1002.71" x2="1149.294" y1="600.4444" y2="600.4444"/><text fill="#D3D3D3" font-family="sans-serif" font-size="14" lengthAdjust="spacing" textLength="128.584" x="1011.71" y="617.4395">User Management</text></g><!--entity EntryManager--><g class="entity" data-entity="EntryManager" data-source-line="64" data-uid="ent0010" id="entity_EntryManager"><rect fill="#0A2239" height="60.5938" rx="2.5" ry="2.5" style="stroke:#FFFFFF;stroke-width:1;stroke-dasharray:1,3;" width="123.0654" x="814.47" y="574.1475"/><text fill="#D3D3D3" font-family="sans-serif" font-size="14" lengthAdjust="spacing" textLength="103.0654" x="824.47" y="597.1426">Entry Manager</text><line style="stroke:#FFFFFF;stroke-width:1;" x1="815.47" x2="936.5354" y1="600.4444" y2="600.4444"/><text fill="#D3D3D3" font-family="sans-serif" font-size="14" lengthAdjust="spacing" textLength="82.2295" x="824.47" y="617.4395">Entry CRUD</text></g><!--entity ConversionManager--><g class="entity" data-entity="ConversionManager" data-source-line="70" data-uid="ent0011" id="entity_ConversionManager"><rect fill="#0A2239" height="76.8906" rx="2.5" ry="2.5" style="stroke:#FFFFFF;stroke-width:1;stroke-dasharray:1,3;" width="164.3066" x="567.85" y="565.9975"/><text fill="#D3D3D3" font-family="sans-serif" font-size="14" lengthAdjust="spacing" textLength="144.3066" x="577.85" y="588.9926">Conversion Manager</text><line style="stroke:#FFFFFF;stroke-width:1;" x1="568.85" x2="731.1566" y1="592.2944" y2="592.2944"/><text fill="#D3D3D3" font-family="sans-serif" font-size="14" lengthAdjust="spacing" textLength="118.1113" x="577.85" y="609.2895">Entry conversion</text><text fill="#D3D3D3" font-family="sans-serif" font-size="14" lengthAdjust="spacing" textLength="86.3447" x="577.85" y="625.5864">to EPUB etc.</text></g><!--entity AuthZEngine--><g class="entity" data-entity="AuthZEngine" data-source-line="79" data-uid="ent0012" id="entity_AuthZEngine"><rect fill="#53A2BE" height="60.5938" rx="2.5" ry="2.5" style="stroke:#181818;stroke-width:0.5;" width="160.7998" x="995.6" y="731.3375"/><text fill="#000000" font-family="sans-serif" font-size="14" lengthAdjust="spacing" textLength="94.835" x="1005.6" y="754.3326">AuthZ Engine</text><line style="stroke:#181818;stroke-width:1;" x1="996.6" x2="1155.3998" y1="757.6344" y2="757.6344"/><text fill="#000000" font-family="sans-serif" font-size="14" lengthAdjust="spacing" textLength="140.7998" x="1005.6" y="774.6295">AuthZ policy checks</text></g><!--entity RetrievalEngine--><g class="entity" data-entity="RetrievalEngine" data-source-line="85" data-uid="ent0013" id="entity_RetrievalEngine"><rect fill="#53A2BE" height="76.8906" rx="2.5" ry="2.5" style="stroke:#181818;stroke-width:0.5;" width="153.7656" x="770.12" y="723.1875"/><text fill="#000000" font-family="sans-serif" font-size="14" lengthAdjust="spacing" textLength="115.2744" x="780.12" y="746.1826">Retrieval Engine</text><line style="stroke:#181818;stroke-width:1;" x1="771.12" x2="922.8856" y1="749.4844" y2="749.4844"/><text fill="#000000" font-family="sans-serif" font-size="14" lengthAdjust="spacing" textLength="133.7656" x="780.12" y="766.4795">Retrieval of entries</text><text fill="#000000" font-family="sans-serif" font-size="14" lengthAdjust="spacing" textLength="92.5381" x="780.12" y="782.7764">from the URL</text></g><!--entity ConversionEngine--><g class="entity" data-entity="ConversionEngine" data-source-line="92" data-uid="ent0014" id="entity_ConversionEngine"><rect fill="#53A2BE" height="76.8906" rx="2.5" ry="2.5" style="stroke:#181818;stroke-width:0.5;" width="169.4131" x="565.29" y="723.1875"/><text fill="#000000" font-family="sans-serif" font-size="14" lengthAdjust="spacing" textLength="130.9219" x="575.29" y="746.1826">Conversion Engine</text><line style="stroke:#181818;stroke-width:1;" x1="566.29" x2="733.7031" y1="749.4844" y2="749.4844"/><text fill="#000000" font-family="sans-serif" font-size="14" lengthAdjust="spacing" textLength="149.4131" x="575.29" y="766.4795">Conversion of entries</text><text fill="#000000" font-family="sans-serif" font-size="14" lengthAdjust="spacing" textLength="119.2393" x="575.29" y="782.7764">between formats</text></g><!--entity UserStorage--><g class="entity" data-entity="UserStorage" data-source-line="102" data-uid="ent0015" id="entity_UserStorage"><rect fill="#1D84B5" height="76.8906" rx="2.5" ry="2.5" style="stroke:#181818;stroke-width:0.5;" width="121.9854" x="1028.01" y="860.0775"/><text fill="#000000" font-family="sans-serif" font-size="14" lengthAdjust="spacing" textLength="91.1367" x="1038.01" y="883.0726">User Storage</text><line style="stroke:#181818;stroke-width:1;" x1="1029.01" x2="1148.9954" y1="886.3744" y2="886.3744"/><text fill="#000000" font-family="sans-serif" font-size="14" lengthAdjust="spacing" textLength="97.5352" x="1038.01" y="903.3695">Store account</text><text fill="#000000" font-family="sans-serif" font-size="14" lengthAdjust="spacing" textLength="81.0469" x="1038.01" y="919.6664">information</text></g><!--entity EntryStorage--><g class="entity" data-entity="EntryStorage" data-source-line="109" data-uid="ent0016" id="entity_EntryStorage"><rect fill="#1D84B5" height="76.8906" rx="2.5" ry="2.5" style="stroke:#181818;stroke-width:0.5;" width="116.4756" x="852.76" y="860.0775"/><text fill="#000000" font-family="sans-serif" font-size="14" lengthAdjust="spacing" textLength="96.4756" x="862.76" y="883.0726">Entry Storage</text><line style="stroke:#181818;stroke-width:1;" x1="853.76" x2="968.2356" y1="886.3744" y2="886.3744"/><text fill="#000000" font-family="sans-serif" font-size="14" lengthAdjust="spacing" textLength="90.2891" x="862.76" y="903.3695">Store entries</text><text fill="#000000" font-family="sans-serif" font-size="14" lengthAdjust="spacing" textLength="59.4043" x="862.76" y="919.6664">and files</text></g><!--entity Users--><g class="entity" data-entity="Users" data-source-line="119" data-uid="ent0018" id="entity_Users"><rect fill="#F1F1F1" height="72.8906" rx="2.5" ry="2.5" style="stroke:#181818;stroke-width:0.5;" width="130.3447" x="1025.83" y="1019.1175"/><rect fill="#F1F1F1" height="72.8906" rx="2.5" ry="2.5" style="stroke:#181818;stroke-width:0.5;" width="130.3447" x="1021.83" y="1015.1175"/><text fill="#000000" font-family="sans-serif" font-size="14" lengthAdjust="spacing" textLength="39.2041" x="1029.83" y="1036.1126">Users</text><line style="stroke:#181818;stroke-width:1;" x1="1022.83" x2="1155.1747" y1="1039.4144" y2="1039.4144"/><text fill="#000000" font-family="sans-serif" font-size="14" lengthAdjust="spacing" textLength="96.7832" x="1029.83" y="1056.4095">Admin status,</text><text fill="#000000" font-family="sans-serif" font-size="14" lengthAdjust="spacing" textLength="114.3447" x="1029.83" y="1072.7064">preferences etc.</text></g><!--entity Entries--><g class="entity" data-entity="Entries" data-source-line="126" data-uid="ent0019" id="entity_Entries"><rect fill="#F1F1F1" height="72.8906" rx="2.5" ry="2.5" style="stroke:#181818;stroke-width:0.5;" width="148.6514" x="838.67" y="1019.1175"/><rect fill="#F1F1F1" height="72.8906" rx="2.5" ry="2.5" style="stroke:#181818;stroke-width:0.5;" width="148.6514" x="834.67" y="1015.1175"/><text fill="#000000" font-family="sans-serif" font-size="14" lengthAdjust="spacing" textLength="48.7607" x="842.67" y="1036.1126">Entries</text><line style="stroke:#181818;stroke-width:1;" x1="835.67" x2="986.3214" y1="1039.4144" y2="1039.4144"/><text fill="#000000" font-family="sans-serif" font-size="14" lengthAdjust="spacing" textLength="132.6514" x="842.67" y="1056.4095">SQL-based storage</text><text fill="#000000" font-family="sans-serif" font-size="14" lengthAdjust="spacing" textLength="96.7012" x="842.67" y="1072.7064">for entry data</text></g><!--entity IdentityManager--><g class="entity" data-entity="IdentityManager" data-source-line="134" data-uid="ent0021" id="entity_IdentityManager"><rect fill="#0A2239" height="117.4844" rx="2.5" ry="2.5" style="stroke:#FFFFFF;stroke-width:1;stroke-dasharray:1,3;" width="197.7754" x="294.11" y="545.7075"/><text fill="#D3D3D3" font-family="sans-serif" font-size="14" lengthAdjust="spacing" textLength="119.4717" x="304.11" y="568.7026">Identity Manager</text><line style="stroke:#FFFFFF;stroke-width:1;" x1="295.11" x2="490.8854" y1="572.0044" y2="572.0044"/><text fill="#D3D3D3" font-family="sans-serif" font-size="14" lengthAdjust="spacing" textLength="163.8848" x="304.11" y="588.9995">Handles Authentication</text><line style="stroke:#FFFFFF;stroke-width:1;stroke-dasharray:1,2;" x1="295.11" x2="490.8854" y1="596.3013" y2="596.3013"/><text fill="#D3D3D3" font-family="sans-serif" font-size="14" lengthAdjust="spacing" textLength="109.1699" x="304.11" y="613.2964">Provides claims</text><text fill="#D3D3D3" font-family="sans-serif" font-size="14" lengthAdjust="spacing" textLength="177.7754" x="304.11" y="629.5932">about authenticated user</text><text fill="#D3D3D3" font-family="sans-serif" font-size="14" lengthAdjust="spacing" textLength="103.5918" x="304.11" y="645.8901">[UserId, Email]</text></g><!--entity TokenStorage--><g class="entity" data-entity="TokenStorage" data-source-line="144" data-uid="ent0022" id="entity_TokenStorage"><rect fill="#1D84B5" height="60.5938" rx="2.5" ry="2.5" style="stroke:#181818;stroke-width:0.5;" width="121.9375" x="103.03" y="868.2275"/><text fill="#000000" font-family="sans-serif" font-size="14" lengthAdjust="spacing" textLength="101.9375" x="113.03" y="891.2226">Token Storage</text><line style="stroke:#181818;stroke-width:1;" x1="104.03" x2="223.9675" y1="894.5244" y2="894.5244"/><text fill="#000000" font-family="sans-serif" font-size="14" lengthAdjust="spacing" textLength="88.7031" x="113.03" y="911.5195">Store tokens</text></g><!--entity UserInfoStorage--><g class="entity" data-entity="UserInfoStorage" data-source-line="150" data-uid="ent0023" id="entity_UserInfoStorage"><rect fill="#1D84B5" height="60.5938" rx="2.5" ry="2.5" style="stroke:#181818;stroke-width:0.5;" width="200.6738" x="274.66" y="868.2275"/><text fill="#000000" font-family="sans-serif" font-size="14" lengthAdjust="spacing" textLength="122.083" x="284.66" y="891.2226">User Info Storage</text><line style="stroke:#181818;stroke-width:1;" x1="275.66" x2="474.3338" y1="894.5244" y2="894.5244"/><text fill="#000000" font-family="sans-serif" font-size="14" lengthAdjust="spacing" textLength="180.6738" x="284.66" y="911.5195">Store identity information</text></g><!--entity UserInfo--><g class="entity" data-entity="UserInfo" data-source-line="156" data-uid="ent0025" id="entity_UserInfo"><rect fill="#F1F1F1" height="97.1875" rx="2.5" ry="2.5" style="stroke:#181818;stroke-width:0.5;" width="203.9473" x="268.03" y="1006.9675"/><rect fill="#F1F1F1" height="97.1875" rx="2.5" ry="2.5" style="stroke:#181818;stroke-width:0.5;" width="203.9473" x="264.03" y="1002.9675"/><text fill="#000000" font-family="sans-serif" font-size="14" lengthAdjust="spacing" textLength="62.8564" x="272.03" y="1023.9626">User Info</text><line style="stroke:#181818;stroke-width:1;" x1="265.03" x2="470.9773" y1="1027.2644" y2="1027.2644"/><text fill="#000000" font-family="sans-serif" font-size="14" lengthAdjust="spacing" textLength="132.6514" x="272.03" y="1044.2595">SQL-based storage</text><text fill="#000000" font-family="sans-serif" font-size="14" lengthAdjust="spacing" textLength="121.7549" x="272.03" y="1060.5564">for user accounts</text><line style="stroke:#181818;stroke-width:1;stroke-dasharray:1,2;" x1="265.03" x2="470.9773" y1="1067.8581" y2="1067.8581"/><text fill="#000000" font-family="sans-serif" font-size="14" lengthAdjust="spacing" textLength="187.9473" x="272.03" y="1084.8532">[UserID, Email, Passwords]</text></g><!--entity Tokens--><g class="entity" data-entity="Tokens" data-source-line="165" data-uid="ent0026" id="entity_Tokens"><rect fill="#F1F1F1" height="72.8906" rx="2.5" ry="2.5" style="stroke:#181818;stroke-width:0.5;" width="153.1016" x="75.45" y="1019.1175"/><rect fill="#F1F1F1" height="72.8906" rx="2.5" ry="2.5" style="stroke:#181818;stroke-width:0.5;" width="153.1016" x="71.45" y="1015.1175"/><text fill="#000000" font-family="sans-serif" font-size="14" lengthAdjust="spacing" textLength="50.0049" x="79.45" y="1036.1126">Tokens</text><line style="stroke:#181818;stroke-width:1;" x1="72.45" x2="227.5516" y1="1039.4144" y2="1039.4144"/><text fill="#000000" font-family="sans-serif" font-size="14" lengthAdjust="spacing" textLength="132.6514" x="79.45" y="1056.4095">SQL-based storage</text><text fill="#000000" font-family="sans-serif" font-size="14" lengthAdjust="spacing" textLength="70.6426" x="79.45" y="1072.7064">for tokens</text></g><!--entity User--><g class="entity" data-entity="User" data-source-line="15" data-uid="ent0002" id="entity_User"><ellipse cx="459.9951" cy="119.8275" fill="#F1F1F1" rx="8" ry="8" style="stroke:#181818;stroke-width:0.5;"/><path d="M459.9951,127.8275 L459.9951,154.8275 M446.9951,135.8275 L472.9951,135.8275 M459.9951,154.8275 L446.9951,169.8275 M459.9951,154.8275 L472.9951,169.8275" fill="none" style="stroke:#181818;stroke-width:0.5;"/><text fill="#000000" font-family="sans-serif" font-size="14" lengthAdjust="spacing" textLength="31.9102" x="444.04" y="184.3226">User</text></g><!--entity KOReader--><g class="entity" data-entity="KOReader" data-source-line="19" data-uid="ent0003" id="entity_KOReader"><rect fill="#F1F1F1" height="70.5938" rx="2.5" ry="2.5" style="stroke:#181818;stroke-width:0.5;" width="115.1338" x="672.43" y="114.1775"/><rect fill="#F1F1F1" height="10" style="stroke:#181818;stroke-width:0.5;" width="15" x="767.5638" y="119.1775"/><rect fill="#F1F1F1" height="2" style="stroke:#181818;stroke-width:0.5;" width="4" x="765.5638" y="121.1775"/><rect fill="#F1F1F1" height="2" style="stroke:#181818;stroke-width:0.5;" width="4" x="765.5638" y="125.1775"/><text fill="#000000" font-family="sans-serif" font-size="14" lengthAdjust="spacing" textLength="70.376" x="687.43" y="147.1726">KOReader</text><line style="stroke:#181818;stroke-width:1;stroke-dasharray:1,2;" x1="673.43" x2="786.5638" y1="150.4744" y2="150.4744"/><text fill="#000000" font-family="sans-serif" font-size="14" lengthAdjust="spacing" textLength="75.1338" x="687.43" y="167.4695">Kindle App</text></g><!--entity WallabagAndroid--><g class="entity" data-entity="WallabagAndroid" data-source-line="25" data-uid="ent0004" id="entity_WallabagAndroid"><rect fill="#F1F1F1" height="70.5938" rx="2.5" ry="2.5" style="stroke:#181818;stroke-width:0.5;" width="126.2354" x="510.88" y="114.1775"/><rect fill="#F1F1F1" height="10" style="stroke:#181818;stroke-width:0.5;" width="15" x="617.1154" y="119.1775"/><rect fill="#F1F1F1" height="2" style="stroke:#181818;stroke-width:0.5;" width="4" x="615.1154" y="121.1775"/><rect fill="#F1F1F1" height="2" style="stroke:#181818;stroke-width:0.5;" width="4" x="615.1154" y="125.1775"/><text fill="#000000" font-family="sans-serif" font-size="14" lengthAdjust="spacing" textLength="65.1328" x="525.88" y="147.1726">Wallabag</text><line style="stroke:#181818;stroke-width:1;stroke-dasharray:1,2;" x1="511.88" x2="636.1154" y1="150.4744" y2="150.4744"/><text fill="#000000" font-family="sans-serif" font-size="14" lengthAdjust="spacing" textLength="86.2354" x="525.88" y="167.4695">Android App</text></g><!--link User to KOReader--><g class="link" data-entity-1="User" data-entity-2="KOReader" data-source-line="177" data-uid="lnk27" id="link_User_KOReader"><path codeLine="177" d="M476.42,115.3775 C484.67,102.2175 496.03,88.6175 510.5,81.3275 C560.91,55.9375 583.88,63.7075 637.5,81.3275 C657.78,87.9875 672.6071,97.1993 688.4271,110.0793" fill="none" id="User-to-KOReader" style="stroke:#181818;stroke-width:1;"/><polygon fill="#181818" points="693.08,113.8675,688.6261,105.0833,689.2026,110.7107,683.5752,111.2871,693.08,113.8675" style="stroke:#181818;stroke-width:1;"/></g><!--link KOReader to HTTPAPI--><g class="link" data-entity-1="KOReader" data-entity-2="HTTPAPI" data-source-line="178" data-uid="lnk28" id="link_KOReader_HTTPAPI"><path codeLine="178" d="M708.14,185.0275 C695.83,204.4775 683.8291,223.4578 672.0491,242.0678" fill="none" id="KOReader-to-HTTPAPI" style="stroke:#181818;stroke-width:1;"/><polygon fill="#181818" points="668.84,247.1375,677.0334,241.6723,671.5142,242.9128,670.2738,237.3936,668.84,247.1375" style="stroke:#181818;stroke-width:1;"/></g><!--link User to WebUI--><g class="link" data-entity-1="User" data-entity-2="WebUI" data-source-line="179" data-uid="lnk29" id="link_User_WebUI"><path codeLine="179" d="M460,188.0775 C460,206.9975 460,223.6175 460,241.2975" fill="none" id="User-to-WebUI" style="stroke:#181818;stroke-width:1;"/><polygon fill="#181818" points="460,247.2975,464,238.2975,460,242.2975,456,238.2975,460,247.2975" style="stroke:#181818;stroke-width:1;"/></g><!--link User to WallabagAndroid--><g class="link" data-entity-1="User" data-entity-2="WallabagAndroid" data-source-line="180" data-uid="lnk30" id="link_User_WallabagAndroid"><path codeLine="180" d="M476.03,149.4775 C487.51,149.4775 492.99,149.4775 504.47,149.4775" fill="none" id="User-to-WallabagAndroid" style="stroke:#181818;stroke-width:1;"/><polygon fill="#181818" points="510.47,149.4775,501.47,145.4775,505.47,149.4775,501.47,153.4775,510.47,149.4775" style="stroke:#181818;stroke-width:1;"/></g><!--link WallabagAndroid to HTTPAPI--><g class="link" data-entity-1="WallabagAndroid" data-entity-2="HTTPAPI" data-source-line="181" data-uid="lnk31" id="link_WallabagAndroid_HTTPAPI"><path codeLine="181" d="M594.77,185.0275 C606.46,204.4775 617.8182,223.3855 629.0082,241.9955" fill="none" id="WallabagAndroid-to-HTTPAPI" style="stroke:#181818;stroke-width:1;"/><polygon fill="#181818" points="632.1,247.1375,630.8902,237.3632,629.5235,242.8525,624.0342,241.4857,632.1,247.1375" style="stroke:#181818;stroke-width:1;"/></g><!--link WebUI to HTTPAPI--><g class="link" data-entity-1="WebUI" data-entity-2="HTTPAPI" data-source-line="183" data-uid="lnk32" id="link_WebUI_HTTPAPI"><path codeLine="183" d="M534.59,277.9275 C546.16,277.9275 551.73,277.9275 563.3,277.9275" fill="none" id="WebUI-to-HTTPAPI" style="stroke:#181818;stroke-width:1;"/><polygon fill="#181818" points="569.3,277.9275,560.3,273.9275,564.3,277.9275,560.3,281.9275,569.3,277.9275" style="stroke:#181818;stroke-width:1;"/></g><!--link HTTPAPI to AuthNMiddleware--><g class="link" data-entity-1="HTTPAPI" data-entity-2="AuthNMiddleware" data-source-line="185" data-uid="lnk33" id="link_HTTPAPI_AuthNMiddleware"><path codeLine="185" d="M600.42,308.6775 C572.11,325.6675 540.764,344.479 507.004,364.749" fill="none" id="HTTPAPI-to-AuthNMiddleware" style="stroke:#181818;stroke-width:1;"/><polygon fill="#181818" points="501.86,367.8375,511.6351,366.634,506.1467,365.2637,507.517,359.7753,501.86,367.8375" style="stroke:#181818;stroke-width:1;"/></g><!--link HTTPAPI to IdentityManager--><g class="link" data-entity-1="HTTPAPI" data-entity-2="IdentityManager" data-source-line="186" data-uid="lnk34" id="link_HTTPAPI_IdentityManager"><path codeLine="186" d="M639.69,308.6875 C623.16,352.5575 586.91,434.8875 532,485.7075 C519.01,497.7275 510.53,492.5975 496,502.7075 C478.34,514.9875 465.2043,526.187 449.8643,541.227" fill="none" id="HTTPAPI-to-IdentityManager" style="stroke:#181818;stroke-width:1;"/><polygon fill="#181818" points="445.58,545.4275,454.8069,541.9829,449.1503,541.927,449.2061,536.2705,445.58,545.4275" style="stroke:#181818;stroke-width:1;"/></g><!--link HTTPAPI to AdminManager--><g class="link" data-entity-1="HTTPAPI" data-entity-2="AdminManager" data-source-line="187" data-uid="lnk35" id="link_HTTPAPI_AdminManager"><path codeLine="187" d="M692.29,308.7075 C751.74,350.8575 863.04,430.7975 955,502.7075 C984.72,525.9375 1012.9897,549.5101 1036.9497,569.8901" fill="none" id="HTTPAPI-to-AdminManager" style="stroke:#181818;stroke-width:1;"/><polygon fill="#181818" points="1041.52,573.7775,1037.2562,564.8995,1037.7114,570.538,1032.0729,570.9932,1041.52,573.7775" style="stroke:#181818;stroke-width:1;"/></g><!--link HTTPAPI to ConversionManager--><g class="link" data-entity-1="HTTPAPI" data-entity-2="ConversionManager" data-source-line="188" data-uid="lnk36" id="link_HTTPAPI_ConversionManager"><path codeLine="188" d="M650,308.5875 C650,367.7275 650,494.2575 650,559.5775" fill="none" id="HTTPAPI-to-ConversionManager" style="stroke:#181818;stroke-width:1;"/><polygon fill="#181818" points="650,565.5775,654,556.5775,650,560.5775,646,556.5775,650,565.5775" style="stroke:#181818;stroke-width:1;"/></g><!--link HTTPAPI to EntryManager--><g class="link" data-entity-1="HTTPAPI" data-entity-2="EntryManager" data-source-line="189" data-uid="lnk37" id="link_HTTPAPI_EntryManager"><path codeLine="189" d="M670.66,308.5875 C713.7,370.3875 809.1218,507.4033 852.0418,569.0533" fill="none" id="HTTPAPI-to-EntryManager" style="stroke:#181818;stroke-width:1;"/><polygon fill="#181818" points="855.47,573.9775,853.6105,564.3058,852.6132,569.874,847.045,568.8767,855.47,573.9775" style="stroke:#181818;stroke-width:1;"/></g><!--link AuthNMiddleware to IdentityManager--><g class="link" data-entity-1="AuthNMiddleware" data-entity-2="IdentityManager" data-source-line="192" data-uid="lnk38" id="link_AuthNMiddleware_IdentityManager"><path codeLine="192" d="M401.04,485.9075 C399.73,504.9775 398.6879,520.1914 397.3879,539.2714" fill="none" id="AuthNMiddleware-to-IdentityManager" style="stroke:#181818;stroke-width:1;"/><polygon fill="#181818" points="396.98,545.2575,401.5825,536.5502,397.3199,540.2691,393.601,536.0064,396.98,545.2575" style="stroke:#181818;stroke-width:1;"/></g><!--link EntryManager to RetrievalEngine--><g class="link" data-entity-1="EntryManager" data-entity-2="RetrievalEngine" data-source-line="195" data-uid="lnk39" id="link_EntryManager_RetrievalEngine"><path codeLine="195" d="M870.48,634.9975 C865.81,659.9775 860.2036,689.9999 855.1436,717.0399" fill="none" id="EntryManager-to-RetrievalEngine" style="stroke:#181818;stroke-width:1;"/><polygon fill="#181818" points="854.04,722.9375,859.6272,714.8268,854.9597,718.0228,851.7637,713.3553,854.04,722.9375" style="stroke:#181818;stroke-width:1;"/></g><!--link EntryManager to AuthZEngine--><g class="link" data-entity-1="EntryManager" data-entity-2="AuthZEngine" data-source-line="196" data-uid="lnk40" id="link_EntryManager_AuthZEngine"><path codeLine="196" d="M914.09,634.9975 C949.56,662.5275 997.4299,699.669 1032.9699,727.249" fill="none" id="EntryManager-to-AuthZEngine" style="stroke:#181818;stroke-width:1;"/><polygon fill="#181818" points="1037.71,730.9275,1033.0521,722.2497,1033.7599,727.8621,1028.1475,728.5699,1037.71,730.9275" style="stroke:#181818;stroke-width:1;"/></g><!--link EntryManager to EntryStorage--><g class="link" data-entity-1="EntryManager" data-entity-2="EntryStorage" data-source-line="197" data-uid="lnk41" id="link_EntryManager_EntryStorage"><path codeLine="197" d="M897.94,635.1175 C913.36,657.9075 932.67,690.8575 941,723.1875 C952.96,769.5875 941.1992,818.5104 928.6292,854.0804" fill="none" id="EntryManager-to-EntryStorage" style="stroke:#181818;stroke-width:1;"/><polygon fill="#181818" points="926.63,859.7375,933.4002,852.5846,928.296,855.0232,925.8573,849.919,926.63,859.7375" style="stroke:#181818;stroke-width:1;"/></g><!--link AdminManager to AuthZEngine--><g class="link" data-entity-1="AdminManager" data-entity-2="AuthZEngine" data-source-line="199" data-uid="lnk42" id="link_AdminManager_AuthZEngine"><path codeLine="199" d="M1076,634.9975 C1076,662.5275 1076,697.3475 1076,724.9275" fill="none" id="AdminManager-to-AuthZEngine" style="stroke:#181818;stroke-width:1;"/><polygon fill="#181818" points="1076,730.9275,1080,721.9275,1076,725.9275,1072,721.9275,1076,730.9275" style="stroke:#181818;stroke-width:1;"/></g><!--link AdminManager to UserStorage--><g class="link" data-entity-1="AdminManager" data-entity-2="UserStorage" data-source-line="200" data-uid="lnk43" id="link_AdminManager_UserStorage"><path codeLine="200" d="M1110.82,634.9675 C1133.61,656.6975 1161.43,688.4275 1174,723.1875 C1185.62,755.3275 1186,768.0775 1174,800.0775 C1165.57,822.5675 1153.5236,838.9866 1137.4836,855.4766" fill="none" id="AdminManager-to-UserStorage" style="stroke:#181818;stroke-width:1;"/><polygon fill="#181818" points="1133.3,859.7775,1142.4426,856.1152,1136.7863,856.1934,1136.708,850.5371,1133.3,859.7775" style="stroke:#181818;stroke-width:1;"/></g><!--link ConversionManager to ConversionEngine--><g class="link" data-entity-1="ConversionManager" data-entity-2="ConversionEngine" data-source-line="202" data-uid="lnk44" id="link_ConversionManager_ConversionEngine"><path codeLine="202" d="M650,643.0175 C650,667.2375 650,692.6175 650,716.8775" fill="none" id="ConversionManager-to-ConversionEngine" style="stroke:#181818;stroke-width:1;"/><polygon fill="#181818" points="650,722.8775,654,713.8775,650,717.8775,646,713.8775,650,722.8775" style="stroke:#181818;stroke-width:1;"/></g><!--link ConversionManager to AuthZEngine--><g class="link" data-entity-1="ConversionManager" data-entity-2="AuthZEngine" data-source-line="203" data-uid="lnk45" id="link_ConversionManager_AuthZEngine"><path codeLine="203" d="M732.58,638.5275 C753.54,646.7475 776.05,655.4175 797,663.1875 C863.38,687.8075 933.5927,712.2663 989.4527,731.3663" fill="none" id="ConversionManager-to-AuthZEngine" style="stroke:#181818;stroke-width:1;"/><polygon fill="#181818" points="995.13,733.3075,987.9082,726.6108,990.3989,731.6898,985.3199,734.1805,995.13,733.3075" style="stroke:#181818;stroke-width:1;"/></g><!--link ConversionManager to EntryStorage--><g class="link" data-entity-1="ConversionManager" data-entity-2="EntryStorage" data-source-line="204" data-uid="lnk46" id="link_ConversionManager_EntryStorage"><path codeLine="204" d="M605.59,643.1775 C562.82,684.1175 509.81,750.2875 548,800.0775 C584.88,848.1675 753.4045,876.9705 846.3845,889.5905" fill="none" id="ConversionManager-to-EntryStorage" style="stroke:#181818;stroke-width:1;"/><polygon fill="#181818" points="852.33,890.3975,843.9498,885.2234,847.3754,889.725,842.8738,893.1507,852.33,890.3975" style="stroke:#181818;stroke-width:1;"/></g><!--link AuthZEngine to UserStorage--><g class="link" data-entity-1="AuthZEngine" data-entity-2="UserStorage" data-source-line="207" data-uid="lnk47" id="link_AuthZEngine_UserStorage"><path codeLine="207" d="M1078.85,792.2375 C1080.77,812.0875 1082.724,832.4352 1084.784,853.7952" fill="none" id="AuthZEngine-to-UserStorage" style="stroke:#181818;stroke-width:1;"/><polygon fill="#181818" points="1085.36,859.7675,1088.4776,850.4251,1084.88,854.7906,1080.5145,851.1931,1085.36,859.7675" style="stroke:#181818;stroke-width:1;"/></g><!--link EntryStorage to Entries--><g class="link" data-entity-1="EntryStorage" data-entity-2="Entries" data-source-line="210" data-uid="lnk48" id="link_EntryStorage_Entries"><path codeLine="210" d="M911,937.3575 C911,960.8975 911,985.0775 911,1008.6375" fill="none" id="EntryStorage-to-Entries" style="stroke:#181818;stroke-width:1;"/><polygon fill="#181818" points="911,1014.6375,915,1005.6375,911,1009.6375,907,1005.6375,911,1014.6375" style="stroke:#181818;stroke-width:1;"/></g><!--link UserStorage to Users--><g class="link" data-entity-1="UserStorage" data-entity-2="Users" data-source-line="212" data-uid="lnk49" id="link_UserStorage_Users"><path codeLine="212" d="M1089,937.3575 C1089,960.8975 1089,985.0775 1089,1008.6375" fill="none" id="UserStorage-to-Users" style="stroke:#181818;stroke-width:1;"/><polygon fill="#181818" points="1089,1014.6375,1093,1005.6375,1089,1009.6375,1085,1005.6375,1089,1014.6375" style="stroke:#181818;stroke-width:1;"/></g><!--link TokenStorage to Tokens--><g class="link" data-entity-1="TokenStorage" data-entity-2="Tokens" data-source-line="214" data-uid="lnk50" id="link_TokenStorage_Tokens"><path codeLine="214" d="M161.3,929.0275 C159.07,953.4375 156.4267,982.2925 154.0067,1008.7425" fill="none" id="TokenStorage-to-Tokens" style="stroke:#181818;stroke-width:1;"/><polygon fill="#181818" points="153.46,1014.7175,158.2634,1006.1194,153.9156,1009.7383,150.2967,1005.3905,153.46,1014.7175" style="stroke:#181818;stroke-width:1;"/></g><!--link IdentityManager to TokenStorage--><g class="link" data-entity-1="IdentityManager" data-entity-2="TokenStorage" data-source-line="217" data-uid="lnk51" id="link_IdentityManager_TokenStorage"><path codeLine="217" d="M347.48,663.4975 C299.09,725.2175 228.1919,815.6456 190.7719,863.3756" fill="none" id="IdentityManager-to-TokenStorage" style="stroke:#181818;stroke-width:1;"/><polygon fill="#181818" points="187.07,868.0975,195.7708,863.4827,190.1549,864.1626,189.475,858.5468,187.07,868.0975" style="stroke:#181818;stroke-width:1;"/></g><!--link IdentityManager to UserInfoStorage--><g class="link" data-entity-1="IdentityManager" data-entity-2="UserInfoStorage" data-source-line="218" data-uid="lnk52" id="link_IdentityManager_UserInfoStorage"><path codeLine="218" d="M388.27,663.5175 C386.8,682.5275 385.24,703.7575 384,723.1875 C380.75,773.9975 378.1629,827.2037 376.5829,861.9037" fill="none" id="IdentityManager-to-UserInfoStorage" style="stroke:#181818;stroke-width:1;"/><polygon fill="#181818" points="376.31,867.8975,380.7152,859.0888,376.5374,862.9027,372.7235,858.7249,376.31,867.8975" style="stroke:#181818;stroke-width:1;"/></g><!--link UserInfoStorage to UserInfo--><g class="link" data-entity-1="UserInfoStorage" data-entity-2="UserInfo" data-source-line="219" data-uid="lnk53" id="link_UserInfoStorage_UserInfo"><path codeLine="219" d="M373.65,929.0275 C372.7,949.8775 371.6758,972.3338 370.5558,996.6738" fill="none" id="UserInfoStorage-to-UserInfo" style="stroke:#181818;stroke-width:1;"/><polygon fill="#181818" points="370.28,1002.6675,374.6895,993.8609,370.5098,997.6728,366.6979,993.4931,370.28,1002.6675" style="stroke:#181818;stroke-width:1;"/></g><!--SRC=[dLRVJoCt47xtN-5UAl52K1fAZt9gfLo8UgZGIu682iI3i-ia5fjrP3lGwCJ_VcDxxRMzcuNM3z76ytdccnyUZsAgeFYE50MPaoN7OxxUy9AMIg8L9JaLE7CxE6TaASWQeGDyetO5bUY77wz8IPQ0-Wr_c9FiwMn0XiFZNpyf-gywksJBbVf3qDsdWfNqx6N553MVHpbNYkOVuFoaNCA6FtvoJ8PpQez_Bc17OsuK5s34WtxAJt-UdoIWAHMIIKNBB00U3-dnq0Bll7NxgS-CIROAq1z_6Pn-t8- -OdbUq1SYWYE3ay7fOF-HqVJYdUeXfkE2cRYJ3Fp5CmbHVK0Oblv4ZmZLcVZpwxLDZWMul-RF4IoxoqhWYqURJNpO9NjKveAplDBXTcCT3hDN2SVV3F00Ww_cIz1CaN89bh_Stavr17ec3jPCQ8eRX3-eLn-M_sEaAwAz4DBi0eNOn1sTpxeCW1pFzgg_-iS0j7E1zWDSPzfiR0JFg9Huj5Mhlu8gw8KbKLiti5H7mxf6GI1PHXJZ9OP2p9uaNd3X4M1MWQCq1tybtmhWu6K-GLLzv7XEuMnjYpvJiGjKLFSqyTDkoYIeetpDIdUnU_wA1nvgGAIouPufNujOWvlERc9fKYgnwx9a0DsMB6HyFJjlBv4nBvzrR-2TBjMezrZBFDeB5CUJwUmpfYexYgDiMrnAI-V_lkf-FTS6uoAwTqVt5j0ztl22PRkgVDe3S4sLOFIP5FkjUKYdnHh55nYI2d_gYbm8liPGqdXsVVbM8lOJ2TBGnII0jL2PK_L2QQalqvee6MUZUamQfQWBrZqqFV_aFCG5xGwtaj92YacMyIqqIB_DIij3asqFZAcfBjkswDvXl8f4RHoQ9rwmWYP1E2UAsEySlkP4ccVYt7ttejVqczUMyQ80rk29DF6G0KSN8ndjH1phrY4LKLjv64asWYweq1PbVOa2rYc1IULhJ66Ir48hYPk_B_lQqHo8n34rbGolBpKHry49QEZVLsHvk7Vm8jTDNEscWZyp_IBNqQeJx41T3KWlXskqe5OllfYNKIOlIGI9dWczAfeIPmLXwpXCPCwt2fDQ6yHdAnCM3ph75_aXdgm9AnxRabJxVSkVQDbLs7ePKAEus_DcYbpf0q6DjvesDE7clMNTN6iD_2yCcCjJSBUJEedkbilhcnUixP8PSZ7fY7X3qY3zTicxijVfTXrCDX2DQgeBuhmgY4Cy9LA-S97BnmWQ92bryjRciyL7A_cV3k9M3zFYYJFsMjtnLsG6SbwM5Kbamjt_lHwr_GZUXzrgqgrGi67cKdyecRXHEe67AkmWRUVQO1kvOLfZaq4qa84mQJQnC1pjOabZJ8h5uQIcOnDOJyVYDX8e63QZeK-3am6b2GXcfLJegFbdFHfUqyE94AJ1iuzGSrIC8rDfQOU5TjeG3QPkCfGed0KRfEgH9PeJd3xzsA5mU74AO3lgltg_kb2WCqrG-aJrFTnPRqKaRHQbRJV4V0S0]--></g></svg>