<svg xmlns="http://www.w3.org/2000/svg" xmlns:xlink="http://www.w3.org/1999/xlink" contentStyleType="text/css" data-diagram-type="CLASS" height="578px" preserveAspectRatio="none" style="width:1073px;height:578px;background:#FFFFFF;" version="1.1" viewBox="0 0 1073 578" width="1073px" zoomAndPan="magnify"><title>Wallabago Components</title><defs/><g><g class="header" data-source-line="3"><text fill="#888888" font-family="sans-serif" font-size="10" lengthAdjust="spacing" textLength="101.333" x="957.6698" y="9.2822">component diagram</text></g><g class="title" data-source-line="2"><text fill="#000000" font-family="sans-serif" font-size="14" font-weight="bold" lengthAdjust="spacing" textLength="186.4912" x="436.2558" y="35.6357">Wallabago Components</text></g><!--entity AdminManager--><g class="entity" data-entity="AdminManager" data-source-line="11" data-uid="ent0002" id="entity_AdminManager"><rect fill="#0A2239" height="60.5938" rx="2.5" ry="2.5" style="stroke:#FFFFFF;stroke-width:1;stroke-dasharray:1,3;" width="148.584" x="7" y="69.0875"/><text fill="#D3D3D3" font-family="sans-serif" font-size="14" lengthAdjust="spacing" textLength="110.6807" x="17" y="92.0826">Admin Manager</text><line style="stroke:#FFFFFF;stroke-width:1;" x1="8" x2="154.584" y1="95.3844" y2="95.3844"/><text fill="#D3D3D3" font-family="sans-serif" font-size="14" lengthAdjust="spacing" textLength="128.584" x="17" y="112.3795">User Management</text></g><!--entity OAuth2Manager--><g class="entity" data-entity="OAuth2Manager" data-source-line="17" data-uid="ent0003" id="entity_OAuth2Manager"><rect fill="#0A2239" height="60.5938" rx="2.5" ry="2.5" style="stroke:#FFFFFF;stroke-width:1;stroke-dasharray:1,3;" width="138.5557" x="191.01" y="69.0875"/><text fill="#D3D3D3" font-family="sans-serif" font-size="14" lengthAdjust="spacing" textLength="118.5557" x="201.01" y="92.0826">OAuth2 Manager</text><line style="stroke:#FFFFFF;stroke-width:1;" x1="192.01" x2="328.5657" y1="95.3844" y2="95.3844"/><text fill="#D3D3D3" font-family="sans-serif" font-size="14" lengthAdjust="spacing" textLength="52.7393" x="201.01" y="112.3795">OAuth2</text></g><!--entity AuthEngine--><g class="entity" data-entity="AuthEngine" data-source-line="23" data-uid="ent0004" id="entity_AuthEngine"><rect fill="#53A2BE" height="76.8906" rx="2.5" ry="2.5" style="stroke:#181818;stroke-width:0.5;" width="125.5059" x="303.54" y="201.8275"/><text fill="#000000" font-family="sans-serif" font-size="14" lengthAdjust="spacing" textLength="85.2441" x="313.54" y="224.8226">Auth Engine</text><line style="stroke:#181818;stroke-width:1;" x1="304.54" x2="428.0459" y1="228.1244" y2="228.1244"/><text fill="#000000" font-family="sans-serif" font-size="14" lengthAdjust="spacing" textLength="105.5059" x="313.54" y="245.1195">AuthN &amp; AuthZ</text><text fill="#000000" font-family="sans-serif" font-size="14" lengthAdjust="spacing" textLength="93.9463" x="313.54" y="261.4164">policy checks</text></g><!--entity AuthStorage--><g class="entity" data-entity="AuthStorage" data-source-line="30" data-uid="ent0005" id="entity_AuthStorage"><rect fill="#1D84B5" height="60.5938" rx="2.5" ry="2.5" style="stroke:#181818;stroke-width:0.5;" width="227.9355" x="229.32" y="346.8675"/><text fill="#000000" font-family="sans-serif" font-size="14" lengthAdjust="spacing" textLength="92.0391" x="239.32" y="369.8626">Auth Storage</text><line style="stroke:#181818;stroke-width:1;" x1="230.32" x2="456.2555" y1="373.1644" y2="373.1644"/><text fill="#000000" font-family="sans-serif" font-size="14" lengthAdjust="spacing" textLength="207.9355" x="239.32" y="390.1595">Store tokens and permissions</text></g><!--entity UserInfoStorage--><g class="entity" data-entity="UserInfoStorage" data-source-line="36" data-uid="ent0006" id="entity_UserInfoStorage"><rect fill="#1D84B5" height="76.8906" rx="2.5" ry="2.5" style="stroke:#181818;stroke-width:0.5;" width="142.083" x="33.25" y="338.7175"/><text fill="#000000" font-family="sans-serif" font-size="14" lengthAdjust="spacing" textLength="122.083" x="43.25" y="361.7126">User Info Storage</text><line style="stroke:#181818;stroke-width:1;" x1="34.25" x2="174.333" y1="365.0144" y2="365.0144"/><text fill="#000000" font-family="sans-serif" font-size="14" lengthAdjust="spacing" textLength="97.5352" x="43.25" y="382.0095">Store account</text><text fill="#000000" font-family="sans-serif" font-size="14" lengthAdjust="spacing" textLength="81.0469" x="43.25" y="398.3064">information</text></g><!--entity UserInfoDB--><g class="entity" data-entity="UserInfoDB" data-source-line="43" data-uid="ent0007" id="entity_UserInfoDB"><path d="M27.97,485.6075 C27.97,475.6075 104.2957,475.6075 104.2957,475.6075 C104.2957,475.6075 180.6214,475.6075 180.6214,485.6075 L180.6214,551.4981 C180.6214,561.4981 104.2957,561.4981 104.2957,561.4981 C104.2957,561.4981 27.97,561.4981 27.97,551.4981 L27.97,485.6075" fill="#132E32" style="stroke:#FFFFFF;stroke-width:0.5;"/><path d="M27.97,485.6075 C27.97,495.6075 104.2957,495.6075 104.2957,495.6075 C104.2957,495.6075 180.6214,495.6075 180.6214,485.6075" fill="none" style="stroke:#FFFFFF;stroke-width:0.5;"/><text fill="#FFFFFF" font-family="sans-serif" font-size="14" lengthAdjust="spacing" textLength="87.6914" x="37.97" y="512.6026">User Info DB</text><path d="M27.97,510.9044 C27.97,520.9044 104.2957,520.9044 104.2957,520.9044 C104.2957,520.9044 180.6214,520.9044 180.6214,510.9044" fill="none" style="stroke:#FFFFFF;stroke-width:1;"/><text fill="#FFFFFF" font-family="sans-serif" font-size="14" lengthAdjust="spacing" textLength="132.6514" x="37.97" y="532.8995">SQL-based storage</text><text fill="#FFFFFF" font-family="sans-serif" font-size="14" lengthAdjust="spacing" textLength="61.5303" x="37.97" y="549.1964">for users</text></g><!--entity EntryManager--><g class="entity" data-entity="EntryManager" data-source-line="50" data-uid="ent0008" id="entity_EntryManager"><rect fill="#0A2239" height="84.8906" rx="2.5" ry="2.5" style="stroke:#FFFFFF;stroke-width:1;stroke-dasharray:1,3;" width="140.1895" x="569.2" y="56.9375"/><text fill="#D3D3D3" font-family="sans-serif" font-size="14" lengthAdjust="spacing" textLength="103.0654" x="579.2" y="79.9326">Entry Manager</text><line style="stroke:#FFFFFF;stroke-width:1;" x1="570.2" x2="708.3895" y1="83.2344" y2="83.2344"/><text fill="#D3D3D3" font-family="sans-serif" font-size="14" lengthAdjust="spacing" textLength="82.2295" x="579.2" y="100.2295">Entry CRUD</text><line style="stroke:#FFFFFF;stroke-width:1;stroke-dasharray:1,2;" x1="570.2" x2="708.3895" y1="107.5313" y2="107.5313"/><text fill="#D3D3D3" font-family="sans-serif" font-size="14" lengthAdjust="spacing" textLength="120.1895" x="579.2" y="124.5264">Entry Conversion</text></g><!--entity RetrievalEngine--><g class="entity" data-entity="RetrievalEngine" data-source-line="58" data-uid="ent0009" id="entity_RetrievalEngine"><rect fill="#53A2BE" height="76.8906" rx="2.5" ry="2.5" style="stroke:#181818;stroke-width:0.5;" width="153.7656" x="464.41" y="201.8275"/><text fill="#000000" font-family="sans-serif" font-size="14" lengthAdjust="spacing" textLength="115.2744" x="474.41" y="224.8226">Retrieval Engine</text><line style="stroke:#181818;stroke-width:1;" x1="465.41" x2="617.1756" y1="228.1244" y2="228.1244"/><text fill="#000000" font-family="sans-serif" font-size="14" lengthAdjust="spacing" textLength="133.7656" x="474.41" y="245.1195">Retrieval of entries</text><text fill="#000000" font-family="sans-serif" font-size="14" lengthAdjust="spacing" textLength="92.5381" x="474.41" y="261.4164">from the URL</text></g><!--entity ConversionEngine--><g class="entity" data-entity="ConversionEngine" data-source-line="65" data-uid="ent0010" id="entity_ConversionEngine"><rect fill="#53A2BE" height="76.8906" rx="2.5" ry="2.5" style="stroke:#181818;stroke-width:0.5;" width="169.4131" x="653.59" y="201.8275"/><text fill="#000000" font-family="sans-serif" font-size="14" lengthAdjust="spacing" textLength="130.9219" x="663.59" y="224.8226">Conversion Engine</text><line style="stroke:#181818;stroke-width:1;" x1="654.59" x2="822.0031" y1="228.1244" y2="228.1244"/><text fill="#000000" font-family="sans-serif" font-size="14" lengthAdjust="spacing" textLength="149.4131" x="663.59" y="245.1195">Conversion of entries</text><text fill="#000000" font-family="sans-serif" font-size="14" lengthAdjust="spacing" textLength="119.2393" x="663.59" y="261.4164">between formats</text></g><!--entity AuthDB--><g class="entity" data-entity="AuthDB" data-source-line="72" data-uid="ent0011" id="entity_AuthDB"><path d="M227.35,485.6075 C227.35,475.6075 332.2875,475.6075 332.2875,475.6075 C332.2875,475.6075 437.225,475.6075 437.225,485.6075 L437.225,551.4981 C437.225,561.4981 332.2875,561.4981 332.2875,561.4981 C332.2875,561.4981 227.35,561.4981 227.35,551.4981 L227.35,485.6075" fill="#132E32" style="stroke:#FFFFFF;stroke-width:0.5;"/><path d="M227.35,485.6075 C227.35,495.6075 332.2875,495.6075 332.2875,495.6075 C332.2875,495.6075 437.225,495.6075 437.225,485.6075" fill="none" style="stroke:#FFFFFF;stroke-width:0.5;"/><text fill="#FFFFFF" font-family="sans-serif" font-size="14" lengthAdjust="spacing" textLength="57.6475" x="237.35" y="512.6026">Auth DB</text><path d="M227.35,510.9044 C227.35,520.9044 332.2875,520.9044 332.2875,520.9044 C332.2875,520.9044 437.225,520.9044 437.225,510.9044" fill="none" style="stroke:#FFFFFF;stroke-width:1;"/><text fill="#FFFFFF" font-family="sans-serif" font-size="14" lengthAdjust="spacing" textLength="132.6514" x="237.35" y="532.8995">SQL-based storage</text><text fill="#FFFFFF" font-family="sans-serif" font-size="14" lengthAdjust="spacing" textLength="189.875" x="237.35" y="549.1964">for tokens and permissions</text></g><!--entity AuthCache--><g class="entity" data-entity="AuthCache" data-source-line="79" data-uid="ent0012" id="entity_AuthCache"><rect fill="#176087" height="72.8906" rx="2.5" ry="2.5" style="stroke:#FFFFFF;stroke-width:0.5;" width="132.0264" x="476.28" y="484.1075"/><rect fill="#176087" height="72.8906" rx="2.5" ry="2.5" style="stroke:#FFFFFF;stroke-width:0.5;" width="132.0264" x="472.28" y="480.1075"/><text fill="#FFFFFF" font-family="sans-serif" font-size="14" lengthAdjust="spacing" textLength="80.8008" x="480.28" y="501.1026">Auth Cache</text><line style="stroke:#FFFFFF;stroke-width:1;" x1="473.28" x2="607.3064" y1="504.4044" y2="504.4044"/><text fill="#FFFFFF" font-family="sans-serif" font-size="14" lengthAdjust="spacing" textLength="111.5762" x="480.28" y="521.3995">In-mem storage</text><text fill="#FFFFFF" font-family="sans-serif" font-size="14" lengthAdjust="spacing" textLength="70.6426" x="480.28" y="537.6964">for tokens</text></g><!--entity EntryStorage--><g class="entity" data-entity="EntryStorage" data-source-line="86" data-uid="ent0013" id="entity_EntryStorage"><rect fill="#1D84B5" height="76.8906" rx="2.5" ry="2.5" style="stroke:#181818;stroke-width:0.5;" width="116.4756" x="818.05" y="338.7175"/><text fill="#000000" font-family="sans-serif" font-size="14" lengthAdjust="spacing" textLength="96.4756" x="828.05" y="361.7126">Entry Storage</text><line style="stroke:#181818;stroke-width:1;" x1="819.05" x2="933.5256" y1="365.0144" y2="365.0144"/><text fill="#000000" font-family="sans-serif" font-size="14" lengthAdjust="spacing" textLength="90.2891" x="828.05" y="382.0095">Store entries</text><text fill="#000000" font-family="sans-serif" font-size="14" lengthAdjust="spacing" textLength="59.4043" x="828.05" y="398.3064">and files</text></g><!--entity EntriesDB--><g class="entity" data-entity="EntriesDB" data-source-line="93" data-uid="ent0014" id="entity_EntriesDB"><path d="M721.97,485.6075 C721.97,475.6075 798.2957,475.6075 798.2957,475.6075 C798.2957,475.6075 874.6214,475.6075 874.6214,485.6075 L874.6214,551.4981 C874.6214,561.4981 798.2957,561.4981 798.2957,561.4981 C798.2957,561.4981 721.97,561.4981 721.97,551.4981 L721.97,485.6075" fill="#132E32" style="stroke:#FFFFFF;stroke-width:0.5;"/><path d="M721.97,485.6075 C721.97,495.6075 798.2957,495.6075 798.2957,495.6075 C798.2957,495.6075 874.6214,495.6075 874.6214,485.6075" fill="none" style="stroke:#FFFFFF;stroke-width:0.5;"/><text fill="#FFFFFF" font-family="sans-serif" font-size="14" lengthAdjust="spacing" textLength="62.084" x="731.97" y="512.6026">Entry DB</text><path d="M721.97,510.9044 C721.97,520.9044 798.2957,520.9044 798.2957,520.9044 C798.2957,520.9044 874.6214,520.9044 874.6214,510.9044" fill="none" style="stroke:#FFFFFF;stroke-width:1;"/><text fill="#FFFFFF" font-family="sans-serif" font-size="14" lengthAdjust="spacing" textLength="132.6514" x="731.97" y="532.8995">SQL-based storage</text><text fill="#FFFFFF" font-family="sans-serif" font-size="14" lengthAdjust="spacing" textLength="96.7012" x="731.97" y="549.1964">for entry data</text></g><!--entity EntriesFileCache--><g class="entity" data-entity="EntriesFileCache" data-source-line="100" data-uid="ent0015" id="entity_EntriesFileCache"><rect fill="#176087" height="72.8906" rx="2.5" ry="2.5" style="stroke:#FFFFFF;stroke-width:0.5;" width="153.4229" x="913.58" y="484.1075"/><rect fill="#176087" height="72.8906" rx="2.5" ry="2.5" style="stroke:#FFFFFF;stroke-width:0.5;" width="153.4229" x="909.58" y="480.1075"/><text fill="#FFFFFF" font-family="sans-serif" font-size="14" lengthAdjust="spacing" textLength="72.4336" x="917.58" y="501.1026">File Cache</text><line style="stroke:#FFFFFF;stroke-width:1;" x1="910.58" x2="1066.0029" y1="504.4044" y2="504.4044"/><text fill="#FFFFFF" font-family="sans-serif" font-size="14" lengthAdjust="spacing" textLength="137.4229" x="917.58" y="521.3995">Storage for caching</text><text fill="#FFFFFF" font-family="sans-serif" font-size="14" lengthAdjust="spacing" textLength="103.8447" x="917.58" y="537.6964">converted files</text></g><!--link OAuth2Manager to AuthEngine--><g class="link" data-entity-1="OAuth2Manager" data-entity-2="AuthEngine" data-source-line="107" data-uid="lnk16" id="link_OAuth2Manager_AuthEngine"><path codeLine="107" d="M283.03,130.1775 C298.97,151.0575 316.7607,174.3673 333.8807,196.8073" fill="none" id="OAuth2Manager-to-AuthEngine" style="stroke:#181818;stroke-width:1;"/><polygon fill="#181818" points="337.52,201.5775,335.2412,191.9959,334.4872,197.6023,328.8808,196.8484,337.52,201.5775" style="stroke:#181818;stroke-width:1;"/></g><!--link AuthEngine to AuthStorage--><g class="link" data-entity-1="AuthEngine" data-entity-2="AuthStorage" data-source-line="108" data-uid="lnk17" id="link_AuthEngine_AuthStorage"><path codeLine="108" d="M359.82,279.2075 C356.18,300.5575 352.7062,320.9025 349.3362,340.7125" fill="none" id="AuthEngine-to-AuthStorage" style="stroke:#181818;stroke-width:1;"/><polygon fill="#181818" points="348.33,346.6275,353.7827,338.4258,349.1685,341.6983,345.896,337.0841,348.33,346.6275" style="stroke:#181818;stroke-width:1;"/></g><!--link OAuth2Manager to AuthStorage--><g class="link" data-entity-1="OAuth2Manager" data-entity-2="AuthStorage" data-source-line="109" data-uid="lnk18" id="link_OAuth2Manager_AuthStorage"><path codeLine="109" d="M261.15,129.9275 C262.98,165.9775 268.65,228.3675 286.29,278.7175 C294.78,302.9475 306.188,322.9011 318.548,341.4911" fill="none" id="OAuth2Manager-to-AuthStorage" style="stroke:#181818;stroke-width:1;"/><polygon fill="#181818" points="321.87,346.4875,320.218,336.7782,319.1017,342.3238,313.5561,341.2075,321.87,346.4875" style="stroke:#181818;stroke-width:1;"/></g><!--link OAuth2Manager to UserInfoStorage--><g class="link" data-entity-1="OAuth2Manager" data-entity-2="UserInfoStorage" data-source-line="110" data-uid="lnk19" id="link_OAuth2Manager_UserInfoStorage"><path codeLine="110" d="M243.45,130.1575 C214.85,180.7175 159.804,278.015 128.474,333.405" fill="none" id="OAuth2Manager-to-UserInfoStorage" style="stroke:#181818;stroke-width:1;"/><polygon fill="#181818" points="125.52,338.6275,133.4326,332.7631,127.9816,334.2754,126.4693,328.8245,125.52,338.6275" style="stroke:#181818;stroke-width:1;"/></g><!--link UserInfoStorage to UserInfoDB--><g class="link" data-entity-1="UserInfoStorage" data-entity-2="UserInfoDB" data-source-line="111" data-uid="lnk20" id="link_UserInfoStorage_UserInfoDB"><path codeLine="111" d="M104.29,415.8875 C104.29,434.2675 104.29,450.4375 104.29,469.3775" fill="none" id="UserInfoStorage-to-UserInfoDB" style="stroke:#181818;stroke-width:1;"/><polygon fill="#181818" points="104.29,475.3775,108.29,466.3775,104.29,470.3775,100.29,466.3775,104.29,475.3775" style="stroke:#181818;stroke-width:1;"/></g><!--link AuthStorage to AuthDB--><g class="link" data-entity-1="AuthStorage" data-entity-2="AuthDB" data-source-line="112" data-uid="lnk21" id="link_AuthStorage_AuthDB"><path codeLine="112" d="M340.96,407.7275 C339.41,427.3775 337.824,447.5263 336.094,469.3563" fill="none" id="AuthStorage-to-AuthDB" style="stroke:#181818;stroke-width:1;"/><polygon fill="#181818" points="335.62,475.3375,340.3185,466.6816,336.015,470.3531,332.3435,466.0496,335.62,475.3375" style="stroke:#181818;stroke-width:1;"/></g><!--link AuthStorage to AuthCache--><g class="link" data-entity-1="AuthStorage" data-entity-2="AuthCache" data-source-line="113" data-uid="lnk22" id="link_AuthStorage_AuthCache"><path codeLine="113" d="M385.07,407.7275 C414.78,428.7375 450.0216,453.6825 482.0416,476.3325" fill="none" id="AuthStorage-to-AuthCache" style="stroke:#181818;stroke-width:1;"/><polygon fill="#181818" points="486.94,479.7975,481.9024,471.3345,482.858,476.91,477.2825,477.8656,486.94,479.7975" style="stroke:#181818;stroke-width:1;"/></g><!--link EntryManager to EntryStorage--><g class="link" data-entity-1="EntryManager" data-entity-2="EntryStorage" data-source-line="115" data-uid="lnk23" id="link_EntryManager_EntryStorage"><path codeLine="115" d="M709.57,118.6975 C753.67,133.8175 808.09,159.7775 840.29,201.8275 C870.54,241.3275 876.8826,294.0983 877.5026,332.2783" fill="none" id="EntryManager-to-EntryStorage" style="stroke:#181818;stroke-width:1;"/><polygon fill="#181818" points="877.6,338.2775,881.4533,329.2137,877.5188,333.2782,873.4544,329.3436,877.6,338.2775" style="stroke:#181818;stroke-width:1;"/></g><!--link EntryManager to RetrievalEngine--><g class="link" data-entity-1="EntryManager" data-entity-2="RetrievalEngine" data-source-line="116" data-uid="lnk24" id="link_EntryManager_RetrievalEngine"><path codeLine="116" d="M609.89,142.0475 C596.58,160.9075 584.4294,178.1352 571.4594,196.5152" fill="none" id="EntryManager-to-RetrievalEngine" style="stroke:#181818;stroke-width:1;"/><polygon fill="#181818" points="568,201.4175,576.4573,196.3703,570.8828,197.3322,569.9208,191.7578,568,201.4175" style="stroke:#181818;stroke-width:1;"/></g><!--link EntryManager to ConversionEngine--><g class="link" data-entity-1="EntryManager" data-entity-2="ConversionEngine" data-source-line="117" data-uid="lnk25" id="link_EntryManager_ConversionEngine"><path codeLine="117" d="M669,142.0475 C682.44,160.9075 694.7276,178.1515 707.8276,196.5315" fill="none" id="EntryManager-to-ConversionEngine" style="stroke:#181818;stroke-width:1;"/><polygon fill="#181818" points="711.31,201.4175,709.3437,191.7669,708.408,197.3458,702.8291,196.4101,711.31,201.4175" style="stroke:#181818;stroke-width:1;"/></g><!--link EntryStorage to EntriesFileCache--><g class="link" data-entity-1="EntryStorage" data-entity-2="EntriesFileCache" data-source-line="120" data-uid="lnk26" id="link_EntryStorage_EntriesFileCache"><path codeLine="120" d="M906.6,415.8875 C922.54,435.7175 938.2621,455.2801 954.2021,475.1201" fill="none" id="EntryStorage-to-EntriesFileCache" style="stroke:#181818;stroke-width:1;"/><polygon fill="#181818" points="957.96,479.7975,955.4413,470.2761,954.8284,475.8997,949.2048,475.2867,957.96,479.7975" style="stroke:#181818;stroke-width:1;"/></g><!--link EntryStorage to EntriesDB--><g class="link" data-entity-1="EntryStorage" data-entity-2="EntriesDB" data-source-line="121" data-uid="lnk27" id="link_EntryStorage_EntriesDB"><path codeLine="121" d="M855.18,415.8875 C844.9,434.2675 835.4203,451.2017 824.8203,470.1417" fill="none" id="EntryStorage-to-EntriesDB" style="stroke:#181818;stroke-width:1;"/><polygon fill="#181818" points="821.89,475.3775,829.7759,469.4773,824.3319,471.0143,822.7949,465.5703,821.89,475.3775" style="stroke:#181818;stroke-width:1;"/></g><!--link EntryManager to AuthEngine--><g class="link" data-entity-1="EntryManager" data-entity-2="AuthEngine" data-source-line="123" data-uid="lnk28" id="link_EntryManager_AuthEngine"><path codeLine="123" d="M568.99,136.1475 C525.86,158.0875 476.4375,183.2263 434.7175,204.4563" fill="none" id="EntryManager-to-AuthEngine" style="stroke:#181818;stroke-width:1;"/><polygon fill="#181818" points="429.37,207.1775,439.2053,206.6607,433.8262,204.9099,435.5771,199.5308,429.37,207.1775" style="stroke:#181818;stroke-width:1;"/></g><!--link AdminManager to UserInfoStorage--><g class="link" data-entity-1="AdminManager" data-entity-2="UserInfoStorage" data-source-line="125" data-uid="lnk29" id="link_AdminManager_UserInfoStorage"><path codeLine="125" d="M83.78,130.1575 C87.99,180.7175 96.0413,277.2583 100.6613,332.6483" fill="none" id="AdminManager-to-UserInfoStorage" style="stroke:#181818;stroke-width:1;"/><polygon fill="#181818" points="101.16,338.6275,104.3981,329.3262,100.7444,333.6448,96.4258,329.9911,101.16,338.6275" style="stroke:#181818;stroke-width:1;"/></g><!--SRC=[ZLNBRjim4BphAzYuwCr1AZTDwg01uaUB0ExBXH6WHGyqjPO9IwGXqadzzrsIUb2qb5GNIJFB7N9sjT9SPq0UQ9RHDKqbcSfyBmK8hQ8jq0GAmYg499oc1SsZwDNhBrJG5CcFv6nDsMvyGUDuzE56mryzNl1qgpyNSBp9k83nqvPhi8_dYTGQaZDSFnSf0lNoon6Dr-2MJp94JCnFBGiKgOFU9jVlrfT1q7Se55SQ1FC2Hp6COXVuKAkxHxDcIjdMYxvwVt5zrHST5S0q5IcQT9VaN5G77zGM_8u8NfOa9MQH8LxsOQKmoZ4vsXZzyPD-kpleRToNrR7TQHtNpcQWqjf1vN6vFsI8Gzff3F6LlB7tNnRPouop8q6Fs4wTvg_ACgWBv2cKK5l2W42qt85GX8g4xA78kL9SYY2_iUfUR6IVXhNI13mdH1cJ1snN2t4CBdAgKSj89LHZdwj6QJP14R-9Gg7P9D3uiHYQ30bHtXPGX1nmJN2UkT35iQ-ubkokhQEcozNClfxZvUDIF9eTkoCrQalG1OT7cdMtG4rtza73oWt1DiKNvOvMo9ne_61MoqLRhzb7js33TofwT22v1lq488WhdMeLphHPJz5i1xvOBr8NhByZcSmoFAPvjLdTn1YKayDJiq1Ry5uCSyZxr3hwew_PNR6VQVJICYTXJh7X6RJTchkG7iESmlztEDXuapmqgTJvX1leyihWNLvL1pR96T9Sf1PdjZNmNz4SgJqeXyDRRzX5tjohcCgtSDtBT324ed0e-J7edJyJg-mzi7CWQaq5A-dtGKZVXj_rQK3u8KQbXgyVLgWt0lT-gk1v7RN-WrsE_GC0]--></g></svg>