<svg xmlns="http://www.w3.org/2000/svg" xmlns:xlink="http://www.w3.org/1999/xlink" contentStyleType="text/css" data-diagram-type="CLASS" height="1069px" preserveAspectRatio="none" style="width:1064px;height:1069px;background:#FFFFFF;" version="1.1" viewBox="0 0 1064 1069" width="1064px" zoomAndPan="magnify"><title>Wallabago Components</title><defs/><g><g class="header" data-source-line="3"><text fill="#888888" font-family="sans-serif" font-size="10" lengthAdjust="spacing" textLength="101.333" x="949.3701" y="9.2822">component diagram</text></g><g class="title" data-source-line="2"><text fill="#000000" font-family="sans-serif" font-size="14" font-weight="bold" lengthAdjust="spacing" textLength="186.4912" x="432.1059" y="35.6357">Wallabago Components</text></g><!--cluster SQLDatabase--><g class="cluster" data-entity="SQLDatabase" data-source-line="127" data-uid="ent0018" id="cluster_SQLDatabase"><path d="M6,919.7575 C6,909.7575 288.5,909.7575 288.5,909.7575 C288.5,909.7575 571,909.7575 571,919.7575 L571,1042.6475 C571,1052.6475 288.5,1052.6475 288.5,1052.6475 C288.5,1052.6475 6,1052.6475 6,1042.6475 L6,919.7575" fill="#132E32" style="stroke:#FFFFFF;stroke-width:1;"/><path d="M6,919.7575 C6,929.7575 288.5,929.7575 288.5,929.7575 C288.5,929.7575 571,929.7575 571,919.7575" fill="none" style="stroke:#FFFFFF;stroke-width:1;"/><text fill="#FFFFFF" font-family="sans-serif" font-size="14" font-weight="bold" lengthAdjust="spacing" textLength="105.4102" x="235.7949" y="944.7526">SQLDatabase</text></g><!--entity UserInfo--><g class="entity" data-entity="UserInfo" data-source-line="128" data-uid="ent0019" id="entity_UserInfo"><rect fill="#F1F1F1" height="72.8906" rx="2.5" ry="2.5" style="stroke:#181818;stroke-width:0.5;" width="148.6514" x="218.67" y="963.7575"/><rect fill="#F1F1F1" height="72.8906" rx="2.5" ry="2.5" style="stroke:#181818;stroke-width:0.5;" width="148.6514" x="214.67" y="959.7575"/><text fill="#000000" font-family="sans-serif" font-size="14" lengthAdjust="spacing" textLength="62.8564" x="222.67" y="980.7526">User Info</text><line style="stroke:#181818;stroke-width:1;" x1="215.67" x2="366.3214" y1="984.0544" y2="984.0544"/><text fill="#000000" font-family="sans-serif" font-size="14" lengthAdjust="spacing" textLength="132.6514" x="222.67" y="1001.0495">SQL-based storage</text><text fill="#000000" font-family="sans-serif" font-size="14" lengthAdjust="spacing" textLength="121.7549" x="222.67" y="1017.3464">for user accounts</text></g><!--entity Tokens--><g class="entity" data-entity="Tokens" data-source-line="135" data-uid="ent0020" id="entity_Tokens"><rect fill="#F1F1F1" height="72.8906" rx="2.5" ry="2.5" style="stroke:#181818;stroke-width:0.5;" width="153.1016" x="26.45" y="963.7575"/><rect fill="#F1F1F1" height="72.8906" rx="2.5" ry="2.5" style="stroke:#181818;stroke-width:0.5;" width="153.1016" x="22.45" y="959.7575"/><text fill="#000000" font-family="sans-serif" font-size="14" lengthAdjust="spacing" textLength="50.0049" x="30.45" y="980.7526">Tokens</text><line style="stroke:#181818;stroke-width:1;" x1="23.45" x2="178.5516" y1="984.0544" y2="984.0544"/><text fill="#000000" font-family="sans-serif" font-size="14" lengthAdjust="spacing" textLength="132.6514" x="30.45" y="1001.0495">SQL-based storage</text><text fill="#000000" font-family="sans-serif" font-size="14" lengthAdjust="spacing" textLength="70.6426" x="30.45" y="1017.3464">for tokens</text></g><!--entity Entries--><g class="entity" data-entity="Entries" data-source-line="142" data-uid="ent0021" id="entity_Entries"><rect fill="#F1F1F1" height="72.8906" rx="2.5" ry="2.5" style="stroke:#181818;stroke-width:0.5;" width="148.6514" x="406.67" y="963.7575"/><rect fill="#F1F1F1" height="72.8906" rx="2.5" ry="2.5" style="stroke:#181818;stroke-width:0.5;" width="148.6514" x="402.67" y="959.7575"/><text fill="#000000" font-family="sans-serif" font-size="14" lengthAdjust="spacing" textLength="48.7607" x="410.67" y="980.7526">Entries</text><line style="stroke:#181818;stroke-width:1;" x1="403.67" x2="554.3214" y1="984.0544" y2="984.0544"/><text fill="#000000" font-family="sans-serif" font-size="14" lengthAdjust="spacing" textLength="132.6514" x="410.67" y="1001.0495">SQL-based storage</text><text fill="#000000" font-family="sans-serif" font-size="14" lengthAdjust="spacing" textLength="96.7012" x="410.67" y="1017.3464">for entry data</text></g><!--entity User--><g class="entity" data-entity="User" data-source-line="15" data-uid="ent0002" id="entity_User"><ellipse cx="252.9951" cy="117.2075" fill="#F1F1F1" rx="8" ry="8" style="stroke:#181818;stroke-width:0.5;"/><path d="M252.9951,125.2075 L252.9951,152.2075 M239.9951,133.2075 L265.9951,133.2075 M252.9951,152.2075 L239.9951,167.2075 M252.9951,152.2075 L265.9951,167.2075" fill="none" style="stroke:#181818;stroke-width:0.5;"/><text fill="#000000" font-family="sans-serif" font-size="14" lengthAdjust="spacing" textLength="31.9102" x="237.04" y="181.7026">User</text></g><!--entity KOReader--><g class="entity" data-entity="KOReader" data-source-line="19" data-uid="ent0003" id="entity_KOReader"><rect fill="#F1F1F1" height="70.5938" rx="2.5" ry="2.5" style="stroke:#181818;stroke-width:0.5;" width="115.1338" x="304.43" y="111.5575"/><rect fill="#F1F1F1" height="10" style="stroke:#181818;stroke-width:0.5;" width="15" x="399.5638" y="116.5575"/><rect fill="#F1F1F1" height="2" style="stroke:#181818;stroke-width:0.5;" width="4" x="397.5638" y="118.5575"/><rect fill="#F1F1F1" height="2" style="stroke:#181818;stroke-width:0.5;" width="4" x="397.5638" y="122.5575"/><text fill="#000000" font-family="sans-serif" font-size="14" lengthAdjust="spacing" textLength="70.376" x="319.43" y="144.5526">KOReader</text><line style="stroke:#181818;stroke-width:1;stroke-dasharray:1,2;" x1="305.43" x2="418.5638" y1="147.8544" y2="147.8544"/><text fill="#000000" font-family="sans-serif" font-size="14" lengthAdjust="spacing" textLength="75.1338" x="319.43" y="164.8495">Kindle App</text></g><!--entity WallabagAndroid--><g class="entity" data-entity="WallabagAndroid" data-source-line="25" data-uid="ent0004" id="entity_WallabagAndroid"><rect fill="#F1F1F1" height="70.5938" rx="2.5" ry="2.5" style="stroke:#181818;stroke-width:0.5;" width="126.2354" x="454.88" y="111.5575"/><rect fill="#F1F1F1" height="10" style="stroke:#181818;stroke-width:0.5;" width="15" x="561.1154" y="116.5575"/><rect fill="#F1F1F1" height="2" style="stroke:#181818;stroke-width:0.5;" width="4" x="559.1154" y="118.5575"/><rect fill="#F1F1F1" height="2" style="stroke:#181818;stroke-width:0.5;" width="4" x="559.1154" y="122.5575"/><text fill="#000000" font-family="sans-serif" font-size="14" lengthAdjust="spacing" textLength="65.1328" x="469.88" y="144.5526">Wallabag</text><line style="stroke:#181818;stroke-width:1;stroke-dasharray:1,2;" x1="455.88" x2="580.1154" y1="147.8544" y2="147.8544"/><text fill="#000000" font-family="sans-serif" font-size="14" lengthAdjust="spacing" textLength="86.2354" x="469.88" y="164.8495">Android App</text></g><!--entity HTTPAPI--><g class="entity" data-entity="HTTPAPI" data-source-line="32" data-uid="ent0005" id="entity_HTTPAPI"><rect fill="#176087" height="60.5938" rx="2.5" ry="2.5" style="stroke:#FFFFFF;stroke-width:0.5;" width="160.8203" x="362.59" y="245.0075"/><text fill="#FFFFFF" font-family="sans-serif" font-size="14" lengthAdjust="spacing" textLength="140.8203" x="372.59" y="268.0026">Wallabago HTTP API</text><line style="stroke:#FFFFFF;stroke-width:1;" x1="363.59" x2="522.4103" y1="271.3044" y2="271.3044"/><text fill="#FFFFFF" font-family="sans-serif" font-size="14" lengthAdjust="spacing" textLength="101.2881" x="372.59" y="288.2995">HTTP handlers</text></g><!--entity WebUI--><g class="entity" data-entity="WebUI" data-source-line="38" data-uid="ent0006" id="entity_WebUI"><rect fill="#176087" height="60.5938" rx="2.5" ry="2.5" style="stroke:#FFFFFF;stroke-width:0.5;" width="148.3174" x="178.84" y="245.0075"/><text fill="#FFFFFF" font-family="sans-serif" font-size="14" lengthAdjust="spacing" textLength="128.3174" x="188.84" y="268.0026">Wallabago Web UI</text><line style="stroke:#FFFFFF;stroke-width:1;" x1="179.84" x2="326.1574" y1="271.3044" y2="271.3044"/><text fill="#FFFFFF" font-family="sans-serif" font-size="14" lengthAdjust="spacing" textLength="108.3428" x="188.84" y="288.2995">HTMX Web App</text></g><!--entity AuthNMiddleware--><g class="entity" data-entity="AuthNMiddleware" data-source-line="45" data-uid="ent0007" id="entity_AuthNMiddleware"><polygon fill="#105080" points="27.4,365.5975,236.6041,365.5975,246.6041,424.3397,236.6041,483.0819,27.4,483.0819,37.4,424.3397" style="stroke:#FFFFFF;stroke-width:0.5;"/><text fill="#FFFFFF" font-family="sans-serif" font-size="14" lengthAdjust="spacing" textLength="128.3789" x="47.4" y="388.5926">AuthN Middleware</text><line style="stroke:#FFFFFF;stroke-width:1;" x1="28.4" x2="245.6041" y1="391.8944" y2="391.8944"/><text fill="#FFFFFF" font-family="sans-serif" font-size="14" lengthAdjust="spacing" textLength="179.2041" x="47.4" y="408.8895">Authentication checks for</text><text fill="#FFFFFF" font-family="sans-serif" font-size="14" lengthAdjust="spacing" textLength="140.9092" x="47.4" y="425.1864">protected resources</text><line style="stroke:#FFFFFF;stroke-width:1;stroke-dasharray:1,2;" x1="28.4" x2="245.6041" y1="432.4881" y2="432.4881"/><text fill="#FFFFFF" font-family="sans-serif" font-size="14" lengthAdjust="spacing" textLength="84.8545" x="47.4" y="449.4832">Used before</text><text fill="#FFFFFF" font-family="sans-serif" font-size="14" lengthAdjust="spacing" textLength="177.8164" x="47.4" y="465.7801">every protected Manager</text></g><!--entity AdminManager--><g class="entity" data-entity="AdminManager" data-source-line="56" data-uid="ent0008" id="entity_AdminManager"><rect fill="#0A2239" height="60.5938" rx="2.5" ry="2.5" style="stroke:#FFFFFF;stroke-width:1;stroke-dasharray:1,3;" width="148.584" x="368.71" y="551.2375"/><text fill="#D3D3D3" font-family="sans-serif" font-size="14" lengthAdjust="spacing" textLength="110.6807" x="378.71" y="574.2326">Admin Manager</text><line style="stroke:#FFFFFF;stroke-width:1;" x1="369.71" x2="516.294" y1="577.5344" y2="577.5344"/><text fill="#D3D3D3" font-family="sans-serif" font-size="14" lengthAdjust="spacing" textLength="128.584" x="378.71" y="594.5295">User Management</text></g><!--entity OAuth2Manager--><g class="entity" data-entity="OAuth2Manager" data-source-line="62" data-uid="ent0009" id="entity_OAuth2Manager"><rect fill="#0A2239" height="60.5938" rx="2.5" ry="2.5" style="stroke:#FFFFFF;stroke-width:1;stroke-dasharray:1,3;" width="143.4365" x="190.28" y="551.2375"/><text fill="#D3D3D3" font-family="sans-serif" font-size="14" lengthAdjust="spacing" textLength="118.5557" x="200.28" y="574.2326">OAuth2 Manager</text><line style="stroke:#FFFFFF;stroke-width:1;" x1="191.28" x2="332.7165" y1="577.5344" y2="577.5344"/><text fill="#D3D3D3" font-family="sans-serif" font-size="14" lengthAdjust="spacing" textLength="123.4365" x="200.28" y="594.5295">OAuth2 token API</text></g><!--entity EntryManager--><g class="entity" data-entity="EntryManager" data-source-line="68" data-uid="ent0010" id="entity_EntryManager"><rect fill="#0A2239" height="60.5938" rx="2.5" ry="2.5" style="stroke:#FFFFFF;stroke-width:1;stroke-dasharray:1,3;" width="123.0654" x="552.47" y="551.2375"/><text fill="#D3D3D3" font-family="sans-serif" font-size="14" lengthAdjust="spacing" textLength="103.0654" x="562.47" y="574.2326">Entry Manager</text><line style="stroke:#FFFFFF;stroke-width:1;" x1="553.47" x2="674.5354" y1="577.5344" y2="577.5344"/><text fill="#D3D3D3" font-family="sans-serif" font-size="14" lengthAdjust="spacing" textLength="82.2295" x="562.47" y="594.5295">Entry CRUD</text></g><!--entity ConversionManager--><g class="entity" data-entity="ConversionManager" data-source-line="74" data-uid="ent0011" id="entity_ConversionManager"><rect fill="#0A2239" height="76.8906" rx="2.5" ry="2.5" style="stroke:#FFFFFF;stroke-width:1;stroke-dasharray:1,3;" width="164.3066" x="731.85" y="543.0875"/><text fill="#D3D3D3" font-family="sans-serif" font-size="14" lengthAdjust="spacing" textLength="144.3066" x="741.85" y="566.0826">Conversion Manager</text><line style="stroke:#FFFFFF;stroke-width:1;" x1="732.85" x2="895.1566" y1="569.3844" y2="569.3844"/><text fill="#D3D3D3" font-family="sans-serif" font-size="14" lengthAdjust="spacing" textLength="118.1113" x="741.85" y="586.3795">Entry conversion</text><text fill="#D3D3D3" font-family="sans-serif" font-size="14" lengthAdjust="spacing" textLength="86.3447" x="741.85" y="602.6764">to EPUB etc.</text></g><!--entity AuthZEngine--><g class="entity" data-entity="AuthZEngine" data-source-line="83" data-uid="ent0012" id="entity_AuthZEngine"><rect fill="#53A2BE" height="60.5938" rx="2.5" ry="2.5" style="stroke:#181818;stroke-width:0.5;" width="160.7998" x="362.6" y="688.1275"/><text fill="#000000" font-family="sans-serif" font-size="14" lengthAdjust="spacing" textLength="94.835" x="372.6" y="711.1226">AuthZ Engine</text><line style="stroke:#181818;stroke-width:1;" x1="363.6" x2="522.3998" y1="714.4244" y2="714.4244"/><text fill="#000000" font-family="sans-serif" font-size="14" lengthAdjust="spacing" textLength="140.7998" x="372.6" y="731.4195">AuthZ policy checks</text></g><!--entity RetrievalEngine--><g class="entity" data-entity="RetrievalEngine" data-source-line="89" data-uid="ent0013" id="entity_RetrievalEngine"><rect fill="#53A2BE" height="76.8906" rx="2.5" ry="2.5" style="stroke:#181818;stroke-width:0.5;" width="153.7656" x="629.12" y="679.9775"/><text fill="#000000" font-family="sans-serif" font-size="14" lengthAdjust="spacing" textLength="115.2744" x="639.12" y="702.9726">Retrieval Engine</text><line style="stroke:#181818;stroke-width:1;" x1="630.12" x2="781.8856" y1="706.2744" y2="706.2744"/><text fill="#000000" font-family="sans-serif" font-size="14" lengthAdjust="spacing" textLength="133.7656" x="639.12" y="723.2695">Retrieval of entries</text><text fill="#000000" font-family="sans-serif" font-size="14" lengthAdjust="spacing" textLength="92.5381" x="639.12" y="739.5664">from the URL</text></g><!--entity ConversionEngine--><g class="entity" data-entity="ConversionEngine" data-source-line="96" data-uid="ent0014" id="entity_ConversionEngine"><rect fill="#53A2BE" height="76.8906" rx="2.5" ry="2.5" style="stroke:#181818;stroke-width:0.5;" width="169.4131" x="889.29" y="679.9775"/><text fill="#000000" font-family="sans-serif" font-size="14" lengthAdjust="spacing" textLength="130.9219" x="899.29" y="702.9726">Conversion Engine</text><line style="stroke:#181818;stroke-width:1;" x1="890.29" x2="1057.7031" y1="706.2744" y2="706.2744"/><text fill="#000000" font-family="sans-serif" font-size="14" lengthAdjust="spacing" textLength="149.4131" x="899.29" y="723.2695">Conversion of entries</text><text fill="#000000" font-family="sans-serif" font-size="14" lengthAdjust="spacing" textLength="119.2393" x="899.29" y="739.5664">between formats</text></g><!--entity TokenStorage--><g class="entity" data-entity="TokenStorage" data-source-line="105" data-uid="ent0015" id="entity_TokenStorage"><rect fill="#1D84B5" height="60.5938" rx="2.5" ry="2.5" style="stroke:#181818;stroke-width:0.5;" width="121.9375" x="21.03" y="825.0175"/><text fill="#000000" font-family="sans-serif" font-size="14" lengthAdjust="spacing" textLength="101.9375" x="31.03" y="848.0126">Token Storage</text><line style="stroke:#181818;stroke-width:1;" x1="22.03" x2="141.9675" y1="851.3144" y2="851.3144"/><text fill="#000000" font-family="sans-serif" font-size="14" lengthAdjust="spacing" textLength="88.7031" x="31.03" y="868.3095">Store tokens</text></g><!--entity UserInfoStorage--><g class="entity" data-entity="UserInfoStorage" data-source-line="111" data-uid="ent0016" id="entity_UserInfoStorage"><rect fill="#1D84B5" height="76.8906" rx="2.5" ry="2.5" style="stroke:#181818;stroke-width:0.5;" width="142.083" x="219.96" y="816.8675"/><text fill="#000000" font-family="sans-serif" font-size="14" lengthAdjust="spacing" textLength="122.083" x="229.96" y="839.8626">User Info Storage</text><line style="stroke:#181818;stroke-width:1;" x1="220.96" x2="361.043" y1="843.1644" y2="843.1644"/><text fill="#000000" font-family="sans-serif" font-size="14" lengthAdjust="spacing" textLength="97.5352" x="229.96" y="860.1595">Store account</text><text fill="#000000" font-family="sans-serif" font-size="14" lengthAdjust="spacing" textLength="81.0469" x="229.96" y="876.4564">information</text></g><!--entity EntryStorage--><g class="entity" data-entity="EntryStorage" data-source-line="118" data-uid="ent0017" id="entity_EntryStorage"><rect fill="#1D84B5" height="76.8906" rx="2.5" ry="2.5" style="stroke:#181818;stroke-width:0.5;" width="116.4756" x="517.76" y="816.8675"/><text fill="#000000" font-family="sans-serif" font-size="14" lengthAdjust="spacing" textLength="96.4756" x="527.76" y="839.8626">Entry Storage</text><line style="stroke:#181818;stroke-width:1;" x1="518.76" x2="633.2356" y1="843.1644" y2="843.1644"/><text fill="#000000" font-family="sans-serif" font-size="14" lengthAdjust="spacing" textLength="90.2891" x="527.76" y="860.1595">Store entries</text><text fill="#000000" font-family="sans-serif" font-size="14" lengthAdjust="spacing" textLength="59.4043" x="527.76" y="876.4564">and files</text></g><!--link User to KOReader--><g class="link" data-entity-1="User" data-entity-2="KOReader" data-source-line="151" data-uid="lnk22" id="link_User_KOReader"><path codeLine="151" d="M269.18,146.8575 C280.78,146.8575 286.38,146.8575 297.99,146.8575" fill="none" id="User-to-KOReader" style="stroke:#181818;stroke-width:1;"/><polygon fill="#181818" points="303.99,146.8575,294.99,142.8575,298.99,146.8575,294.99,150.8575,303.99,146.8575" style="stroke:#181818;stroke-width:1;"/></g><!--link KOReader to HTTPAPI--><g class="link" data-entity-1="KOReader" data-entity-2="HTTPAPI" data-source-line="152" data-uid="lnk23" id="link_KOReader_HTTPAPI"><path codeLine="152" d="M384.13,182.4075 C396.59,201.8575 408.7638,220.8551 420.6838,239.4651" fill="none" id="KOReader-to-HTTPAPI" style="stroke:#181818;stroke-width:1;"/><polygon fill="#181818" points="423.92,244.5175,422.434,234.7814,421.2232,240.3071,415.6974,239.0963,423.92,244.5175" style="stroke:#181818;stroke-width:1;"/></g><!--link User to WebUI--><g class="link" data-entity-1="User" data-entity-2="WebUI" data-source-line="153" data-uid="lnk24" id="link_User_WebUI"><path codeLine="153" d="M253,185.4575 C253,204.3775 253,220.9975 253,238.6775" fill="none" id="User-to-WebUI" style="stroke:#181818;stroke-width:1;"/><polygon fill="#181818" points="253,244.6775,257,235.6775,253,239.6775,249,235.6775,253,244.6775" style="stroke:#181818;stroke-width:1;"/></g><!--link User to WallabagAndroid--><g class="link" data-entity-1="User" data-entity-2="WallabagAndroid" data-source-line="154" data-uid="lnk25" id="link_User_WallabagAndroid"><path codeLine="154" d="M269.44,113.4575 C277.91,100.0775 289.63,86.1075 304.5,78.7075 C350.26,55.9375 370.71,63.4775 419.5,78.7075 C440.74,85.3375 456.659,94.6992 473.549,107.5792" fill="none" id="User-to-WallabagAndroid" style="stroke:#181818;stroke-width:1;"/><polygon fill="#181818" points="478.32,111.2175,473.589,102.5794,474.3441,108.1856,468.7379,108.9407,478.32,111.2175" style="stroke:#181818;stroke-width:1;"/></g><!--link WallabagAndroid to HTTPAPI--><g class="link" data-entity-1="WallabagAndroid" data-entity-2="HTTPAPI" data-source-line="155" data-uid="lnk26" id="link_WallabagAndroid_HTTPAPI"><path codeLine="155" d="M497.51,182.4075 C485.97,201.8575 474.7712,220.7472 463.7312,239.3572" fill="none" id="WallabagAndroid-to-HTTPAPI" style="stroke:#181818;stroke-width:1;"/><polygon fill="#181818" points="460.67,244.5175,468.7021,238.8179,463.221,240.2172,461.8217,234.7362,460.67,244.5175" style="stroke:#181818;stroke-width:1;"/></g><!--link WebUI to HTTPAPI--><g class="link" data-entity-1="WebUI" data-entity-2="HTTPAPI" data-source-line="157" data-uid="lnk27" id="link_WebUI_HTTPAPI"><path codeLine="157" d="M327.59,275.3075 C339.16,275.3075 344.73,275.3075 356.3,275.3075" fill="none" id="WebUI-to-HTTPAPI" style="stroke:#181818;stroke-width:1;"/><polygon fill="#181818" points="362.3,275.3075,353.3,271.3075,357.3,275.3075,353.3,279.3075,362.3,275.3075" style="stroke:#181818;stroke-width:1;"/></g><!--link HTTPAPI to AuthNMiddleware--><g class="link" data-entity-1="HTTPAPI" data-entity-2="AuthNMiddleware" data-source-line="159" data-uid="lnk28" id="link_HTTPAPI_AuthNMiddleware"><path codeLine="159" d="M381.08,306.0575 C342.57,324.5675 297.3678,346.2784 252.2178,367.9784" fill="none" id="HTTPAPI-to-AuthNMiddleware" style="stroke:#181818;stroke-width:1;"/><polygon fill="#181818" points="246.81,370.5775,256.6545,370.2841,251.3165,368.4116,253.189,363.0736,246.81,370.5775" style="stroke:#181818;stroke-width:1;"/></g><!--link HTTPAPI to OAuth2Manager--><g class="link" data-entity-1="HTTPAPI" data-entity-2="OAuth2Manager" data-source-line="160" data-uid="lnk29" id="link_HTTPAPI_OAuth2Manager"><path codeLine="160" d="M425.32,306.0275 C390.62,364.3375 317.0874,487.9308 282.5574,545.9808" fill="none" id="HTTPAPI-to-OAuth2Manager" style="stroke:#181818;stroke-width:1;"/><polygon fill="#181818" points="279.49,551.1375,287.5288,545.4474,282.0461,546.8403,280.6533,541.3576,279.49,551.1375" style="stroke:#181818;stroke-width:1;"/></g><!--link HTTPAPI to AdminManager--><g class="link" data-entity-1="HTTPAPI" data-entity-2="AdminManager" data-source-line="161" data-uid="lnk30" id="link_HTTPAPI_AdminManager"><path codeLine="161" d="M443,306.0275 C443,364.3375 443,487.0875 443,545.1375" fill="none" id="HTTPAPI-to-AdminManager" style="stroke:#181818;stroke-width:1;"/><polygon fill="#181818" points="443,551.1375,447,542.1375,443,546.1375,439,542.1375,443,551.1375" style="stroke:#181818;stroke-width:1;"/></g><!--link HTTPAPI to ConversionManager--><g class="link" data-entity-1="HTTPAPI" data-entity-2="ConversionManager" data-source-line="162" data-uid="lnk31" id="link_HTTPAPI_ConversionManager"><path codeLine="162" d="M479.34,306.0675 C500.53,323.4275 527.78,345.7475 552,365.5975 C627.75,427.7075 711.1619,496.1312 763.4619,539.0512" fill="none" id="HTTPAPI-to-ConversionManager" style="stroke:#181818;stroke-width:1;"/><polygon fill="#181818" points="768.1,542.8575,763.6803,534.056,764.2349,539.6856,758.6053,540.2402,768.1,542.8575" style="stroke:#181818;stroke-width:1;"/></g><!--link HTTPAPI to EntryManager--><g class="link" data-entity-1="HTTPAPI" data-entity-2="EntryManager" data-source-line="163" data-uid="lnk32" id="link_HTTPAPI_EntryManager"><path codeLine="163" d="M459.71,306.0275 C492.48,364.3375 561.91,487.8572 594.54,545.9072" fill="none" id="HTTPAPI-to-EntryManager" style="stroke:#181818;stroke-width:1;"/><polygon fill="#181818" points="597.48,551.1375,596.5569,541.332,595.03,546.7789,589.5831,545.252,597.48,551.1375" style="stroke:#181818;stroke-width:1;"/></g><!--link AuthNMiddleware to TokenStorage--><g class="link" data-entity-1="AuthNMiddleware" data-entity-2="TokenStorage" data-source-line="166" data-uid="lnk33" id="link_AuthNMiddleware_TokenStorage"><path codeLine="166" d="M122.66,483.4575 C118.4,502.3775 114.06,523.5375 111,543.0875 C94.94,645.7575 87.0185,762.9871 83.8785,818.5571" fill="none" id="AuthNMiddleware-to-TokenStorage" style="stroke:#181818;stroke-width:1;"/><polygon fill="#181818" points="83.54,824.5475,88.0414,815.7875,83.8221,819.5555,80.0541,815.3362,83.54,824.5475" style="stroke:#181818;stroke-width:1;"/></g><!--link AuthNMiddleware to UserInfoStorage--><g class="link" data-entity-1="AuthNMiddleware" data-entity-2="UserInfoStorage" data-source-line="167" data-uid="lnk34" id="link_AuthNMiddleware_UserInfoStorage"><path codeLine="167" d="M143.37,483.4875 C148.73,522.7575 157.98,575.3575 173,619.9775 C197.49,692.7175 237.7988,766.0672 264.5888,811.2272" fill="none" id="AuthNMiddleware-to-UserInfoStorage" style="stroke:#181818;stroke-width:1;"/><polygon fill="#181818" points="267.65,816.3875,266.4984,806.6062,265.099,812.0872,259.6179,810.6878,267.65,816.3875" style="stroke:#181818;stroke-width:1;"/></g><!--link EntryManager to RetrievalEngine--><g class="link" data-entity-1="EntryManager" data-entity-2="RetrievalEngine" data-source-line="170" data-uid="lnk35" id="link_EntryManager_RetrievalEngine"><path codeLine="170" d="M634.19,612.1375 C647.73,631.9875 662.299,653.3508 676.869,674.7108" fill="none" id="EntryManager-to-RetrievalEngine" style="stroke:#181818;stroke-width:1;"/><polygon fill="#181818" points="680.25,679.6675,678.4829,669.9785,677.4325,675.5369,671.874,674.4865,680.25,679.6675" style="stroke:#181818;stroke-width:1;"/></g><!--link EntryManager to AuthZEngine--><g class="link" data-entity-1="EntryManager" data-entity-2="AuthZEngine" data-source-line="171" data-uid="lnk36" id="link_EntryManager_AuthZEngine"><path codeLine="171" d="M576.47,612.1375 C548.06,634.5475 513.9106,661.4813 485.4406,683.9413" fill="none" id="EntryManager-to-AuthZEngine" style="stroke:#181818;stroke-width:1;"/><polygon fill="#181818" points="480.73,687.6575,490.2734,685.2236,484.6555,684.5607,485.3184,678.9428,480.73,687.6575" style="stroke:#181818;stroke-width:1;"/></g><!--link EntryManager to EntryStorage--><g class="link" data-entity-1="EntryManager" data-entity-2="EntryStorage" data-source-line="172" data-uid="lnk37" id="link_EntryManager_EntryStorage"><path codeLine="172" d="M609.86,612.1375 C602.92,661.7975 589.7603,755.8852 582.1203,810.5652" fill="none" id="EntryManager-to-EntryStorage" style="stroke:#181818;stroke-width:1;"/><polygon fill="#181818" points="581.29,816.5075,586.4969,808.1476,581.9819,811.5556,578.5739,807.0406,581.29,816.5075" style="stroke:#181818;stroke-width:1;"/></g><!--link OAuth2Manager to TokenStorage--><g class="link" data-entity-1="OAuth2Manager" data-entity-2="TokenStorage" data-source-line="174" data-uid="lnk38" id="link_OAuth2Manager_TokenStorage"><path codeLine="174" d="M242.39,612.1375 C207.77,664.4175 139.5029,767.4851 104.8929,819.7451" fill="none" id="OAuth2Manager-to-TokenStorage" style="stroke:#181818;stroke-width:1;"/><polygon fill="#181818" points="101.58,824.7475,109.8844,819.4525,104.3408,820.5788,103.2145,815.0352,101.58,824.7475" style="stroke:#181818;stroke-width:1;"/></g><!--link OAuth2Manager to UserInfoStorage--><g class="link" data-entity-1="OAuth2Manager" data-entity-2="UserInfoStorage" data-source-line="175" data-uid="lnk39" id="link_OAuth2Manager_UserInfoStorage"><path codeLine="175" d="M265.16,612.1375 C270.46,661.7975 280.4928,755.8614 286.3328,810.5414" fill="none" id="OAuth2Manager-to-UserInfoStorage" style="stroke:#181818;stroke-width:1;"/><polygon fill="#181818" points="286.97,816.5075,289.9916,807.1336,286.439,811.5358,282.0368,807.9832,286.97,816.5075" style="stroke:#181818;stroke-width:1;"/></g><!--link AdminManager to AuthZEngine--><g class="link" data-entity-1="AdminManager" data-entity-2="AuthZEngine" data-source-line="177" data-uid="lnk40" id="link_AdminManager_AuthZEngine"><path codeLine="177" d="M443,612.1375 C443,634.6275 443,659.4175 443,681.8875" fill="none" id="AdminManager-to-AuthZEngine" style="stroke:#181818;stroke-width:1;"/><polygon fill="#181818" points="443,687.8875,447,678.8875,443,682.8875,439,678.8875,443,687.8875" style="stroke:#181818;stroke-width:1;"/></g><!--link AdminManager to UserInfoStorage--><g class="link" data-entity-1="AdminManager" data-entity-2="UserInfoStorage" data-source-line="178" data-uid="lnk41" id="link_AdminManager_UserInfoStorage"><path codeLine="178" d="M405.45,611.9675 C385.02,629.7175 360.78,653.9075 345,679.9775 C318.99,722.9375 305.6504,773.6408 298.3804,810.5208" fill="none" id="AdminManager-to-UserInfoStorage" style="stroke:#181818;stroke-width:1;"/><polygon fill="#181818" points="297.22,816.4075,302.8851,808.351,298.187,811.5019,295.0362,806.8038,297.22,816.4075" style="stroke:#181818;stroke-width:1;"/></g><!--link ConversionManager to ConversionEngine--><g class="link" data-entity-1="ConversionManager" data-entity-2="ConversionEngine" data-source-line="180" data-uid="lnk42" id="link_ConversionManager_ConversionEngine"><path codeLine="180" d="M858.99,620.4675 C880.9,638.9275 902.5824,657.2105 924.4824,675.6705" fill="none" id="ConversionManager-to-ConversionEngine" style="stroke:#181818;stroke-width:1;"/><polygon fill="#181818" points="929.07,679.5375,924.7666,670.6786,925.247,676.315,919.6106,676.7954,929.07,679.5375" style="stroke:#181818;stroke-width:1;"/></g><!--link ConversionManager to AuthZEngine--><g class="link" data-entity-1="ConversionManager" data-entity-2="AuthZEngine" data-source-line="181" data-uid="lnk43" id="link_ConversionManager_AuthZEngine"><path codeLine="181" d="M731.66,612.4675 C669.76,634.9775 591.009,663.6077 529.469,685.9777" fill="none" id="ConversionManager-to-AuthZEngine" style="stroke:#181818;stroke-width:1;"/><polygon fill="#181818" points="523.83,688.0275,533.655,688.7121,528.5292,686.3193,530.922,681.1935,523.83,688.0275" style="stroke:#181818;stroke-width:1;"/></g><!--link ConversionManager to EntryStorage--><g class="link" data-entity-1="ConversionManager" data-entity-2="EntryStorage" data-source-line="182" data-uid="lnk44" id="link_ConversionManager_EntryStorage"><path codeLine="182" d="M821.39,620.2975 C826.63,658.3875 828.42,717.0875 800,756.8675 C761.61,810.6175 692.8953,833.8108 640.3553,844.6908" fill="none" id="ConversionManager-to-EntryStorage" style="stroke:#181818;stroke-width:1;"/><polygon fill="#181818" points="634.48,845.9075,644.1041,847.9994,639.3761,844.8936,642.4819,840.1656,634.48,845.9075" style="stroke:#181818;stroke-width:1;"/></g><!--link AuthZEngine to UserInfoStorage--><g class="link" data-entity-1="AuthZEngine" data-entity-2="UserInfoStorage" data-source-line="185" data-uid="lnk45" id="link_AuthZEngine_UserInfoStorage"><path codeLine="185" d="M409.64,749.0275 C387.27,768.8775 362.0977,791.215 338.0277,812.575" fill="none" id="AuthZEngine-to-UserInfoStorage" style="stroke:#181818;stroke-width:1;"/><polygon fill="#181818" points="333.54,816.5575,342.9266,813.5756,337.2798,813.2388,337.6166,807.592,333.54,816.5575" style="stroke:#181818;stroke-width:1;"/></g><!--link EntryStorage to Entries--><g class="link" data-entity-1="EntryStorage" data-entity-2="Entries" data-source-line="188" data-uid="lnk46" id="link_EntryStorage_Entries"><path codeLine="188" d="M550.01,894.0675 C536.09,914.2775 522.3911,934.1646 508.4711,954.3946" fill="none" id="EntryStorage-to-Entries" style="stroke:#181818;stroke-width:1;"/><polygon fill="#181818" points="505.07,959.3375,513.467,954.1906,507.9043,955.2184,506.8764,949.6557,505.07,959.3375" style="stroke:#181818;stroke-width:1;"/></g><!--link UserInfoStorage to UserInfo--><g class="link" data-entity-1="UserInfoStorage" data-entity-2="UserInfo" data-source-line="190" data-uid="lnk47" id="link_UserInfoStorage_UserInfo"><path codeLine="190" d="M291,894.0675 C291,914.2775 291,933.1075 291,953.3375" fill="none" id="UserInfoStorage-to-UserInfo" style="stroke:#181818;stroke-width:1;"/><polygon fill="#181818" points="291,959.3375,295,950.3375,291,954.3375,287,950.3375,291,959.3375" style="stroke:#181818;stroke-width:1;"/></g><!--link TokenStorage to Tokens--><g class="link" data-entity-1="TokenStorage" data-entity-2="Tokens" data-source-line="192" data-uid="lnk48" id="link_TokenStorage_Tokens"><path codeLine="192" d="M85.98,885.8475 C88.87,907.2275 91.9887,930.3612 95.0987,953.4412" fill="none" id="TokenStorage-to-Tokens" style="stroke:#181818;stroke-width:1;"/><polygon fill="#181818" points="95.9,959.3875,98.6623,949.9339,95.2323,954.4323,90.734,951.0023,95.9,959.3875" style="stroke:#181818;stroke-width:1;"/></g><!--SRC=[bLNRRXen47ttLxYXKfw8A3HDcgYL245jLD8G0agLgWzcru2LnKPhanHL_VUEBslilKGf3sXtBkVCRMSKKnd5zoJBo9mi1Hw8zKPmofL4AqfIckEaaE2KaMLErWWTuZkrowX4RzvU4qwMOFK97yn9ydZM8Trkx-Eveh_LsOWjL-fBJdVd6UFqx7d553MFHwbGYgO7u3_aIn1uz-CUwSwfTR_8GA9jxfJ8WSGRlKjFty-FIqPZcaic5UL9ODZhqbxN6jvxTlkeVGOaMGNM9nywfoVDrjSiJJFwJFB0fNFSEUqqk_J7Lw-4XveECcRgJXB85yyaLFKdml3JZ-WNGljEVBkPsEPOW-BLl1p1pqePXtXnVxE9dOjcztcQ2vOwZ48QOnGs3kGGGqOefuaYV0dONwVJiSwnPJADWOJH6WSjRiFFF1ZfYkZOSgb1zt3tT3vh0WCTdbMWhdyOXGzltoEqoKL2fSJzhLfz3thN2XjfMOn9w1knQ2tKZIL4CS4nZ4poAF52s783ZO84Q8fpAiKs1ywuXD2z5Cyfs5jS-aJpNU3clY0NltsHGL7wwPhnuZDh-G_EHQwL7Y8AsmoGrQmX_BZIDpgfRXEgrTR3EfqIZvIRvaQuGwxoNHEiKTQZMjLWChkCyGQ2F-aFMpHMO6_n4dBYhOnG2JmSpoumLScHBRpTGo6rplF1hQTMiQVsy_9Gk5HcvG5lHCQIdPkKEA49LJcZJoIhH_RgMlIzLYmmz1HUxB0jSh76CALuDXar5R2UC2XV7MEWBb7EgNgcC08mrskYfAsYszHX05CzACK6R_bTRjcDqdj5p5f8xPX97EUa9_kABqGJgfbyRV0ICaaIiOLjQ4ICspHqdZK3tKHaP-i54bSmIm8h3o-OFfkcLfT44OHI-9yJIV7TxUYoU6v5r-oFyKv4ba5K4A7q1N1XH3bxYG_5X7CxQcle5CiWMZCwS6kssjaLn7ON8YoJJcqh0auhUIKXZXYBlZPm3LtTzbp3OFJ-CpjgkgGBxUZ-ccihE7Tqo1Il_Nb_H_rzROFK7Jbd1G9pfhnJwPoYydaD8Upzj6Sk4AFYZchRqhqATA2CzdQi2kz4hAaiqLWTxkpI3ItVphPn23_f1fFI9ngTjkX6QEFIJgmQ1Akuh2pYzqJnPQl6MwEl11kTt7809MMTV_LgnMrmIFLc8LUTHINZudX959wiXYuKZz5UAp3r1uRAspK4GYXQvxwuyXy0]--></g></svg>