<svg xmlns="http://www.w3.org/2000/svg" xmlns:xlink="http://www.w3.org/1999/xlink" contentStyleType="text/css" data-diagram-type="CLASS" height="747px" preserveAspectRatio="none" style="width:1297px;height:747px;background:#FFFFFF;" version="1.1" viewBox="0 0 1297 747" width="1297px" zoomAndPan="magnify"><title>Wallabago Components</title><defs/><g><g class="header" data-source-line="3"><text fill="#888888" font-family="sans-serif" font-size="10" lengthAdjust="spacing" textLength="101.333" x="1181.9286" y="9.2822">component diagram</text></g><g class="title" data-source-line="2"><text fill="#000000" font-family="sans-serif" font-size="14" font-weight="bold" lengthAdjust="spacing" textLength="186.4912" x="548.3852" y="35.6357">Wallabago Components</text></g><!--entity AuthNMiddleware--><g class="entity" data-entity="AuthNMiddleware" data-source-line="12" data-uid="ent0002" id="entity_AuthNMiddleware"><rect fill="#176087" height="117.4844" rx="2.5" ry="2.5" style="stroke:#FFFFFF;stroke-width:0.5;" width="199.2041" x="579.11" y="56.9375"/><text fill="#FFFFFF" font-family="sans-serif" font-size="14" lengthAdjust="spacing" textLength="128.3789" x="589.11" y="79.9326">AuthN Middleware</text><line style="stroke:#FFFFFF;stroke-width:1;" x1="580.11" x2="777.3141" y1="83.2344" y2="83.2344"/><text fill="#FFFFFF" font-family="sans-serif" font-size="14" lengthAdjust="spacing" textLength="179.2041" x="589.11" y="100.2295">Authentication checks for</text><text fill="#FFFFFF" font-family="sans-serif" font-size="14" lengthAdjust="spacing" textLength="140.9092" x="589.11" y="116.5264">protected resources</text><line style="stroke:#FFFFFF;stroke-width:1;stroke-dasharray:1,2;" x1="580.11" x2="777.3141" y1="123.8281" y2="123.8281"/><text fill="#FFFFFF" font-family="sans-serif" font-size="14" lengthAdjust="spacing" textLength="84.8545" x="589.11" y="140.8232">Used before</text><text fill="#FFFFFF" font-family="sans-serif" font-size="14" lengthAdjust="spacing" textLength="177.8164" x="589.11" y="157.1201">every protected Manager</text></g><!--entity AdminManager--><g class="entity" data-entity="AdminManager" data-source-line="23" data-uid="ent0003" id="entity_AdminManager"><rect fill="#0A2239" height="60.5938" rx="2.5" ry="2.5" style="stroke:#FFFFFF;stroke-width:1;stroke-dasharray:1,3;" width="148.584" x="604.42" y="242.5775"/><text fill="#D3D3D3" font-family="sans-serif" font-size="14" lengthAdjust="spacing" textLength="110.6807" x="614.42" y="265.5726">Admin Manager</text><line style="stroke:#FFFFFF;stroke-width:1;" x1="605.42" x2="752.004" y1="268.8744" y2="268.8744"/><text fill="#D3D3D3" font-family="sans-serif" font-size="14" lengthAdjust="spacing" textLength="128.584" x="614.42" y="285.8695">User Management</text></g><!--entity OAuth2Manager--><g class="entity" data-entity="OAuth2Manager" data-source-line="29" data-uid="ent0004" id="entity_OAuth2Manager"><rect fill="#0A2239" height="60.5938" rx="2.5" ry="2.5" style="stroke:#FFFFFF;stroke-width:1;stroke-dasharray:1,3;" width="143.4365" x="897.99" y="242.5775"/><text fill="#D3D3D3" font-family="sans-serif" font-size="14" lengthAdjust="spacing" textLength="118.5557" x="907.99" y="265.5726">OAuth2 Manager</text><line style="stroke:#FFFFFF;stroke-width:1;" x1="898.99" x2="1040.4265" y1="268.8744" y2="268.8744"/><text fill="#D3D3D3" font-family="sans-serif" font-size="14" lengthAdjust="spacing" textLength="123.4365" x="907.99" y="285.8695">OAuth2 token API</text></g><!--entity EntryManager--><g class="entity" data-entity="EntryManager" data-source-line="35" data-uid="ent0005" id="entity_EntryManager"><rect fill="#0A2239" height="60.5938" rx="2.5" ry="2.5" style="stroke:#FFFFFF;stroke-width:1;stroke-dasharray:1,3;" width="123.0654" x="436.18" y="242.5775"/><text fill="#D3D3D3" font-family="sans-serif" font-size="14" lengthAdjust="spacing" textLength="103.0654" x="446.18" y="265.5726">Entry Manager</text><line style="stroke:#FFFFFF;stroke-width:1;" x1="437.18" x2="558.2454" y1="268.8744" y2="268.8744"/><text fill="#D3D3D3" font-family="sans-serif" font-size="14" lengthAdjust="spacing" textLength="82.2295" x="446.18" y="285.8695">Entry CRUD</text></g><!--entity ConversionManager--><g class="entity" data-entity="ConversionManager" data-source-line="41" data-uid="ent0006" id="entity_ConversionManager"><rect fill="#0A2239" height="76.8906" rx="2.5" ry="2.5" style="stroke:#FFFFFF;stroke-width:1;stroke-dasharray:1,3;" width="164.3066" x="181.56" y="234.4275"/><text fill="#D3D3D3" font-family="sans-serif" font-size="14" lengthAdjust="spacing" textLength="144.3066" x="191.56" y="257.4226">Conversion Manager</text><line style="stroke:#FFFFFF;stroke-width:1;" x1="182.56" x2="344.8666" y1="260.7244" y2="260.7244"/><text fill="#D3D3D3" font-family="sans-serif" font-size="14" lengthAdjust="spacing" textLength="118.1113" x="191.56" y="277.7195">Entry conversion</text><text fill="#D3D3D3" font-family="sans-serif" font-size="14" lengthAdjust="spacing" textLength="86.3447" x="191.56" y="294.0164">to EPUB etc.</text></g><!--entity AuthZEngine--><g class="entity" data-entity="AuthZEngine" data-source-line="50" data-uid="ent0007" id="entity_AuthZEngine"><rect fill="#53A2BE" height="60.5938" rx="2.5" ry="2.5" style="stroke:#181818;stroke-width:0.5;" width="160.7998" x="560.31" y="379.4675"/><text fill="#000000" font-family="sans-serif" font-size="14" lengthAdjust="spacing" textLength="94.835" x="570.31" y="402.4626">AuthZ Engine</text><line style="stroke:#181818;stroke-width:1;" x1="561.31" x2="720.1098" y1="405.7644" y2="405.7644"/><text fill="#000000" font-family="sans-serif" font-size="14" lengthAdjust="spacing" textLength="140.7998" x="570.31" y="422.7595">AuthZ policy checks</text></g><!--entity RetrievalEngine--><g class="entity" data-entity="RetrievalEngine" data-source-line="56" data-uid="ent0008" id="entity_RetrievalEngine"><rect fill="#53A2BE" height="76.8906" rx="2.5" ry="2.5" style="stroke:#181818;stroke-width:0.5;" width="153.7656" x="371.83" y="371.3175"/><text fill="#000000" font-family="sans-serif" font-size="14" lengthAdjust="spacing" textLength="115.2744" x="381.83" y="394.3126">Retrieval Engine</text><line style="stroke:#181818;stroke-width:1;" x1="372.83" x2="524.5956" y1="397.6144" y2="397.6144"/><text fill="#000000" font-family="sans-serif" font-size="14" lengthAdjust="spacing" textLength="133.7656" x="381.83" y="414.6095">Retrieval of entries</text><text fill="#000000" font-family="sans-serif" font-size="14" lengthAdjust="spacing" textLength="92.5381" x="381.83" y="430.9064">from the URL</text></g><!--entity ConversionEngine--><g class="entity" data-entity="ConversionEngine" data-source-line="63" data-uid="ent0009" id="entity_ConversionEngine"><rect fill="#53A2BE" height="76.8906" rx="2.5" ry="2.5" style="stroke:#181818;stroke-width:0.5;" width="169.4131" x="96" y="371.3175"/><text fill="#000000" font-family="sans-serif" font-size="14" lengthAdjust="spacing" textLength="130.9219" x="106" y="394.3126">Conversion Engine</text><line style="stroke:#181818;stroke-width:1;" x1="97" x2="264.4131" y1="397.6144" y2="397.6144"/><text fill="#000000" font-family="sans-serif" font-size="14" lengthAdjust="spacing" textLength="149.4131" x="106" y="414.6095">Conversion of entries</text><text fill="#000000" font-family="sans-serif" font-size="14" lengthAdjust="spacing" textLength="119.2393" x="106" y="430.9064">between formats</text></g><!--entity TokenStorage--><g class="entity" data-entity="TokenStorage" data-source-line="72" data-uid="ent0010" id="entity_TokenStorage"><rect fill="#1D84B5" height="60.5938" rx="2.5" ry="2.5" style="stroke:#181818;stroke-width:0.5;" width="121.9375" x="993.74" y="516.3575"/><text fill="#000000" font-family="sans-serif" font-size="14" lengthAdjust="spacing" textLength="101.9375" x="1003.74" y="539.3526">Token Storage</text><line style="stroke:#181818;stroke-width:1;" x1="994.74" x2="1114.6775" y1="542.6544" y2="542.6544"/><text fill="#000000" font-family="sans-serif" font-size="14" lengthAdjust="spacing" textLength="88.7031" x="1003.74" y="559.6495">Store tokens</text></g><!--entity UserInfoStorage--><g class="entity" data-entity="UserInfoStorage" data-source-line="78" data-uid="ent0011" id="entity_UserInfoStorage"><rect fill="#1D84B5" height="76.8906" rx="2.5" ry="2.5" style="stroke:#181818;stroke-width:0.5;" width="142.083" x="733.67" y="508.2075"/><text fill="#000000" font-family="sans-serif" font-size="14" lengthAdjust="spacing" textLength="122.083" x="743.67" y="531.2026">User Info Storage</text><line style="stroke:#181818;stroke-width:1;" x1="734.67" x2="874.753" y1="534.5044" y2="534.5044"/><text fill="#000000" font-family="sans-serif" font-size="14" lengthAdjust="spacing" textLength="97.5352" x="743.67" y="551.4995">Store account</text><text fill="#000000" font-family="sans-serif" font-size="14" lengthAdjust="spacing" textLength="81.0469" x="743.67" y="567.7964">information</text></g><!--entity EntryStorage--><g class="entity" data-entity="EntryStorage" data-source-line="85" data-uid="ent0012" id="entity_EntryStorage"><rect fill="#1D84B5" height="76.8906" rx="2.5" ry="2.5" style="stroke:#181818;stroke-width:0.5;" width="116.4756" x="122.47" y="508.2075"/><text fill="#000000" font-family="sans-serif" font-size="14" lengthAdjust="spacing" textLength="96.4756" x="132.47" y="531.2026">Entry Storage</text><line style="stroke:#181818;stroke-width:1;" x1="123.47" x2="237.9456" y1="534.5044" y2="534.5044"/><text fill="#000000" font-family="sans-serif" font-size="14" lengthAdjust="spacing" textLength="90.2891" x="132.47" y="551.4995">Store entries</text><text fill="#000000" font-family="sans-serif" font-size="14" lengthAdjust="spacing" textLength="59.4043" x="132.47" y="567.7964">and files</text></g><!--entity UserInfoDB--><g class="entity" data-entity="UserInfoDB" data-source-line="94" data-uid="ent0013" id="entity_UserInfoDB"><path d="M728.39,655.0975 C728.39,645.0975 804.7157,645.0975 804.7157,645.0975 C804.7157,645.0975 881.0414,645.0975 881.0414,655.0975 L881.0414,720.9881 C881.0414,730.9881 804.7157,730.9881 804.7157,730.9881 C804.7157,730.9881 728.39,730.9881 728.39,720.9881 L728.39,655.0975" fill="#132E32" style="stroke:#FFFFFF;stroke-width:0.5;"/><path d="M728.39,655.0975 C728.39,665.0975 804.7157,665.0975 804.7157,665.0975 C804.7157,665.0975 881.0414,665.0975 881.0414,655.0975" fill="none" style="stroke:#FFFFFF;stroke-width:0.5;"/><text fill="#FFFFFF" font-family="sans-serif" font-size="14" lengthAdjust="spacing" textLength="87.6914" x="738.39" y="682.0926">User Info DB</text><path d="M728.39,680.3944 C728.39,690.3944 804.7157,690.3944 804.7157,690.3944 C804.7157,690.3944 881.0414,690.3944 881.0414,680.3944" fill="none" style="stroke:#FFFFFF;stroke-width:1;"/><text fill="#FFFFFF" font-family="sans-serif" font-size="14" lengthAdjust="spacing" textLength="132.6514" x="738.39" y="702.3895">SQL-based storage</text><text fill="#FFFFFF" font-family="sans-serif" font-size="14" lengthAdjust="spacing" textLength="121.7549" x="738.39" y="718.6864">for user accounts</text></g><!--entity TokenDB--><g class="entity" data-entity="TokenDB" data-source-line="101" data-uid="ent0014" id="entity_TokenDB"><path d="M1123.16,655.0975 C1123.16,645.0975 1201.7108,645.0975 1201.7108,645.0975 C1201.7108,645.0975 1280.2616,645.0975 1280.2616,655.0975 L1280.2616,720.9881 C1280.2616,730.9881 1201.7108,730.9881 1201.7108,730.9881 C1201.7108,730.9881 1123.16,730.9881 1123.16,720.9881 L1123.16,655.0975" fill="#132E32" style="stroke:#FFFFFF;stroke-width:0.5;"/><path d="M1123.16,655.0975 C1123.16,665.0975 1201.7108,665.0975 1201.7108,665.0975 C1201.7108,665.0975 1280.2616,665.0975 1280.2616,655.0975" fill="none" style="stroke:#FFFFFF;stroke-width:0.5;"/><text fill="#FFFFFF" font-family="sans-serif" font-size="14" lengthAdjust="spacing" textLength="67.5459" x="1133.16" y="682.0926">Token DB</text><path d="M1123.16,680.3944 C1123.16,690.3944 1201.7108,690.3944 1201.7108,690.3944 C1201.7108,690.3944 1280.2616,690.3944 1280.2616,680.3944" fill="none" style="stroke:#FFFFFF;stroke-width:1;"/><text fill="#FFFFFF" font-family="sans-serif" font-size="14" lengthAdjust="spacing" textLength="132.6514" x="1133.16" y="702.3895">SQL-based storage</text><text fill="#FFFFFF" font-family="sans-serif" font-size="14" lengthAdjust="spacing" textLength="70.6426" x="1133.16" y="718.6864">for tokens</text></g><!--entity TokenCache--><g class="entity" data-entity="TokenCache" data-source-line="108" data-uid="ent0015" id="entity_TokenCache"><rect fill="#176087" height="72.8906" rx="2.5" ry="2.5" style="stroke:#FFFFFF;stroke-width:0.5;" width="132.0264" x="955.7" y="653.5975"/><rect fill="#176087" height="72.8906" rx="2.5" ry="2.5" style="stroke:#FFFFFF;stroke-width:0.5;" width="132.0264" x="951.7" y="649.5975"/><text fill="#FFFFFF" font-family="sans-serif" font-size="14" lengthAdjust="spacing" textLength="90.6992" x="959.7" y="670.5926">Token Cache</text><line style="stroke:#FFFFFF;stroke-width:1;" x1="952.7" x2="1086.7264" y1="673.8944" y2="673.8944"/><text fill="#FFFFFF" font-family="sans-serif" font-size="14" lengthAdjust="spacing" textLength="111.5762" x="959.7" y="690.8895">In-mem storage</text><text fill="#FFFFFF" font-family="sans-serif" font-size="14" lengthAdjust="spacing" textLength="70.6426" x="959.7" y="707.1864">for tokens</text></g><!--entity EntriesDB--><g class="entity" data-entity="EntriesDB" data-source-line="116" data-uid="ent0016" id="entity_EntriesDB"><path d="M199.39,655.0975 C199.39,645.0975 275.7157,645.0975 275.7157,645.0975 C275.7157,645.0975 352.0414,645.0975 352.0414,655.0975 L352.0414,720.9881 C352.0414,730.9881 275.7157,730.9881 275.7157,730.9881 C275.7157,730.9881 199.39,730.9881 199.39,720.9881 L199.39,655.0975" fill="#132E32" style="stroke:#FFFFFF;stroke-width:0.5;"/><path d="M199.39,655.0975 C199.39,665.0975 275.7157,665.0975 275.7157,665.0975 C275.7157,665.0975 352.0414,665.0975 352.0414,655.0975" fill="none" style="stroke:#FFFFFF;stroke-width:0.5;"/><text fill="#FFFFFF" font-family="sans-serif" font-size="14" lengthAdjust="spacing" textLength="62.084" x="209.39" y="682.0926">Entry DB</text><path d="M199.39,680.3944 C199.39,690.3944 275.7157,690.3944 275.7157,690.3944 C275.7157,690.3944 352.0414,690.3944 352.0414,680.3944" fill="none" style="stroke:#FFFFFF;stroke-width:1;"/><text fill="#FFFFFF" font-family="sans-serif" font-size="14" lengthAdjust="spacing" textLength="132.6514" x="209.39" y="702.3895">SQL-based storage</text><text fill="#FFFFFF" font-family="sans-serif" font-size="14" lengthAdjust="spacing" textLength="96.7012" x="209.39" y="718.6864">for entry data</text></g><!--entity EntriesFileCache--><g class="entity" data-entity="EntriesFileCache" data-source-line="123" data-uid="ent0017" id="entity_EntriesFileCache"><rect fill="#176087" height="72.8906" rx="2.5" ry="2.5" style="stroke:#FFFFFF;stroke-width:0.5;" width="153.4229" x="11" y="653.5975"/><rect fill="#176087" height="72.8906" rx="2.5" ry="2.5" style="stroke:#FFFFFF;stroke-width:0.5;" width="153.4229" x="7" y="649.5975"/><text fill="#FFFFFF" font-family="sans-serif" font-size="14" lengthAdjust="spacing" textLength="72.4336" x="15" y="670.5926">File Cache</text><line style="stroke:#FFFFFF;stroke-width:1;" x1="8" x2="163.4229" y1="673.8944" y2="673.8944"/><text fill="#FFFFFF" font-family="sans-serif" font-size="14" lengthAdjust="spacing" textLength="137.4229" x="15" y="690.8895">Storage for caching</text><text fill="#FFFFFF" font-family="sans-serif" font-size="14" lengthAdjust="spacing" textLength="103.8447" x="15" y="707.1864">converted files</text></g><!--link AuthNMiddleware to TokenStorage--><g class="link" data-entity-1="AuthNMiddleware" data-entity-2="TokenStorage" data-source-line="132" data-uid="lnk18" id="link_AuthNMiddleware_TokenStorage"><path codeLine="132" d="M778.57,133.8875 C879.5,153.5575 1025.21,188.9775 1058.71,234.4275 C1121.39,319.4675 1087.9207,450.4432 1067.7007,510.2832" fill="none" id="AuthNMiddleware-to-TokenStorage" style="stroke:#181818;stroke-width:1;"/><polygon fill="#181818" points="1065.78,515.9675,1072.4506,508.7216,1067.3806,511.2306,1064.8716,506.1606,1065.78,515.9675" style="stroke:#181818;stroke-width:1;"/></g><!--link AuthNMiddleware to UserInfoStorage--><g class="link" data-entity-1="AuthNMiddleware" data-entity-2="UserInfoStorage" data-source-line="133" data-uid="lnk19" id="link_AuthNMiddleware_UserInfoStorage"><path codeLine="133" d="M734.23,174.6275 C748.4,192.5175 762.07,213.1575 770.71,234.4275 C808.47,327.3275 809.6983,441.9822 807.3083,502.1222" fill="none" id="AuthNMiddleware-to-UserInfoStorage" style="stroke:#181818;stroke-width:1;"/><polygon fill="#181818" points="807.07,508.1175,811.4242,499.2834,807.2685,503.1214,803.4305,498.9658,807.07,508.1175" style="stroke:#181818;stroke-width:1;"/></g><!--link AuthNMiddleware to AdminManager--><g class="link" data-entity-1="AuthNMiddleware" data-entity-2="AdminManager" data-source-line="135" data-uid="lnk20" id="link_AuthNMiddleware_AdminManager"><path codeLine="135" d="M678.71,174.9075 C678.71,197.7875 678.71,223.0675 678.71,242.0775" fill="none" id="AuthNMiddleware-AdminManager" style="stroke:#181818;stroke-width:1;stroke-dasharray:7,7;"/></g><!--link AuthNMiddleware to EntryManager--><g class="link" data-entity-1="AuthNMiddleware" data-entity-2="EntryManager" data-source-line="136" data-uid="lnk21" id="link_AuthNMiddleware_EntryManager"><path codeLine="136" d="M610.8,174.9075 C584.12,197.7875 554.63,223.0675 532.46,242.0775" fill="none" id="AuthNMiddleware-EntryManager" style="stroke:#181818;stroke-width:1;stroke-dasharray:7,7;"/></g><!--link AuthNMiddleware to ConversionManager--><g class="link" data-entity-1="AuthNMiddleware" data-entity-2="ConversionManager" data-source-line="137" data-uid="lnk22" id="link_AuthNMiddleware_ConversionManager"><path codeLine="137" d="M578.78,154.0475 C507.55,180.6875 412.94,216.0675 346.04,241.0875" fill="none" id="AuthNMiddleware-ConversionManager" style="stroke:#181818;stroke-width:1;stroke-dasharray:7,7;"/></g><!--link EntryManager to RetrievalEngine--><g class="link" data-entity-1="EntryManager" data-entity-2="RetrievalEngine" data-source-line="140" data-uid="lnk23" id="link_EntryManager_RetrievalEngine"><path codeLine="140" d="M486.96,303.4775 C479.75,323.3275 472.2264,344.0073 464.4764,365.3673" fill="none" id="EntryManager-to-RetrievalEngine" style="stroke:#181818;stroke-width:1;"/><polygon fill="#181818" points="462.43,371.0075,469.2598,363.9115,464.1354,366.3073,461.7395,361.1829,462.43,371.0075" style="stroke:#181818;stroke-width:1;"/></g><!--link EntryManager to AuthZEngine--><g class="link" data-entity-1="EntryManager" data-entity-2="AuthZEngine" data-source-line="141" data-uid="lnk24" id="link_EntryManager_AuthZEngine"><path codeLine="141" d="M529.09,303.4775 C552.94,325.9675 581.2155,352.6403 605.0355,375.1103" fill="none" id="EntryManager-to-AuthZEngine" style="stroke:#181818;stroke-width:1;"/><polygon fill="#181818" points="609.4,379.2275,605.598,370.1421,605.7629,375.7965,600.1085,375.9614,609.4,379.2275" style="stroke:#181818;stroke-width:1;"/></g><!--link EntryManager to EntryStorage--><g class="link" data-entity-1="EntryManager" data-entity-2="EntryStorage" data-source-line="142" data-uid="lnk25" id="link_EntryManager_EntryStorage"><path codeLine="142" d="M448.45,303.6175 C419.95,321.7475 384.03,346.2075 354.71,371.3175 C319.15,401.7675 315.65,414.9375 282.71,448.2075 C262.9,468.2175 244.6622,485.7979 225.7822,503.6279" fill="none" id="EntryManager-to-EntryStorage" style="stroke:#181818;stroke-width:1;"/><polygon fill="#181818" points="221.42,507.7475,230.7097,504.4762,225.0552,504.3145,225.2169,498.66,221.42,507.7475" style="stroke:#181818;stroke-width:1;"/></g><!--link OAuth2Manager to TokenStorage--><g class="link" data-entity-1="OAuth2Manager" data-entity-2="TokenStorage" data-source-line="144" data-uid="lnk26" id="link_OAuth2Manager_TokenStorage"><path codeLine="144" d="M978.97,303.4775 C995.32,355.7575 1027.3295,458.1009 1043.6695,510.3609" fill="none" id="OAuth2Manager-to-TokenStorage" style="stroke:#181818;stroke-width:1;"/><polygon fill="#181818" points="1045.46,516.0875,1046.592,506.3039,1043.9679,511.3153,1038.9565,508.6913,1045.46,516.0875" style="stroke:#181818;stroke-width:1;"/></g><!--link OAuth2Manager to UserInfoStorage--><g class="link" data-entity-1="OAuth2Manager" data-entity-2="UserInfoStorage" data-source-line="145" data-uid="lnk27" id="link_OAuth2Manager_UserInfoStorage"><path codeLine="145" d="M953.77,303.5875 C934.76,338.6275 901.66,398.3875 870.71,448.2075 C858.2,468.3375 846.8867,485.2984 834.5267,503.2184" fill="none" id="OAuth2Manager-to-UserInfoStorage" style="stroke:#181818;stroke-width:1;"/><polygon fill="#181818" points="831.12,508.1575,839.5227,503.02,833.9589,504.0416,832.9373,498.4777,831.12,508.1575" style="stroke:#181818;stroke-width:1;"/></g><!--link AdminManager to AuthZEngine--><g class="link" data-entity-1="AdminManager" data-entity-2="AuthZEngine" data-source-line="147" data-uid="lnk28" id="link_AdminManager_AuthZEngine"><path codeLine="147" d="M670.37,303.4775 C664.04,325.9675 656.9869,350.9823 650.6569,373.4523" fill="none" id="AdminManager-to-AuthZEngine" style="stroke:#181818;stroke-width:1;"/><polygon fill="#181818" points="649.03,379.2275,655.3205,371.6493,650.3858,374.4148,647.6203,369.4801,649.03,379.2275" style="stroke:#181818;stroke-width:1;"/></g><!--link AdminManager to UserInfoStorage--><g class="link" data-entity-1="AdminManager" data-entity-2="UserInfoStorage" data-source-line="148" data-uid="lnk29" id="link_AdminManager_UserInfoStorage"><path codeLine="148" d="M698.88,303.3175 C711.31,322.2275 727.05,347.6075 738.71,371.3175 C761.06,416.7675 778.8588,466.1033 790.7888,502.0233" fill="none" id="AdminManager-to-UserInfoStorage" style="stroke:#181818;stroke-width:1;"/><polygon fill="#181818" points="792.68,507.7175,793.6393,497.9155,791.104,502.9724,786.0471,500.4371,792.68,507.7175" style="stroke:#181818;stroke-width:1;"/></g><!--link ConversionManager to ConversionEngine--><g class="link" data-entity-1="ConversionManager" data-entity-2="ConversionEngine" data-source-line="150" data-uid="lnk30" id="link_ConversionManager_ConversionEngine"><path codeLine="150" d="M240.37,311.8075 C228.96,330.3475 218.4157,347.4982 207.0257,365.9982" fill="none" id="ConversionManager-to-ConversionEngine" style="stroke:#181818;stroke-width:1;"/><polygon fill="#181818" points="203.88,371.1075,212.0047,365.5407,206.5014,366.8498,205.1923,361.3465,203.88,371.1075" style="stroke:#181818;stroke-width:1;"/></g><!--link ConversionManager to AuthZEngine--><g class="link" data-entity-1="ConversionManager" data-entity-2="AuthZEngine" data-source-line="151" data-uid="lnk31" id="link_ConversionManager_AuthZEngine"><path codeLine="151" d="M346.34,302.0275 C401.98,321.1575 476.94,347.2675 542.71,371.3175 C549.47,373.7875 550.8514,374.2825 557.8714,376.9125" fill="none" id="ConversionManager-to-AuthZEngine" style="stroke:#181818;stroke-width:1;"/><polygon fill="#181818" points="563.49,379.0175,556.4654,372.1143,558.8078,377.2633,553.6587,379.6058,563.49,379.0175" style="stroke:#181818;stroke-width:1;"/></g><!--link ConversionManager to EntryStorage--><g class="link" data-entity-1="ConversionManager" data-entity-2="EntryStorage" data-source-line="152" data-uid="lnk32" id="link_ConversionManager_EntryStorage"><path codeLine="152" d="M181.13,295.7575 C142.93,310.4775 101.13,334.1775 78.71,371.3175 C61.05,400.5775 65.27,416.7875 78.71,448.2075 C88.68,471.5075 102.7138,487.9819 121.3138,504.0019" fill="none" id="ConversionManager-to-EntryStorage" style="stroke:#181818;stroke-width:1;"/><polygon fill="#181818" points="125.86,507.9175,121.6511,499.0133,122.0715,504.6545,116.4303,505.0749,125.86,507.9175" style="stroke:#181818;stroke-width:1;"/></g><!--link AuthZEngine to UserInfoStorage--><g class="link" data-entity-1="AuthZEngine" data-entity-2="UserInfoStorage" data-source-line="155" data-uid="lnk33" id="link_AuthZEngine_UserInfoStorage"><path codeLine="155" d="M676.7,440.3675 C700.84,460.2175 728.2061,482.7261 754.1761,504.0861" fill="none" id="AuthZEngine-to-UserInfoStorage" style="stroke:#181818;stroke-width:1;"/><polygon fill="#181818" points="758.81,507.8975,754.4,499.0912,754.9484,504.7214,749.3182,505.2698,758.81,507.8975" style="stroke:#181818;stroke-width:1;"/></g><!--link EntryStorage to EntriesFileCache--><g class="link" data-entity-1="EntryStorage" data-entity-2="EntriesFileCache" data-source-line="158" data-uid="lnk34" id="link_EntryStorage_EntriesFileCache"><path codeLine="158" d="M155,585.3775 C141.49,605.2075 128.3388,624.4893 114.8188,644.3293" fill="none" id="EntryStorage-to-EntriesFileCache" style="stroke:#181818;stroke-width:1;"/><polygon fill="#181818" points="111.44,649.2875,119.8136,644.1027,114.2557,645.1557,113.2027,639.5977,111.44,649.2875" style="stroke:#181818;stroke-width:1;"/></g><!--link EntryStorage to EntriesDB--><g class="link" data-entity-1="EntryStorage" data-entity-2="EntriesDB" data-source-line="159" data-uid="lnk35" id="link_EntryStorage_EntriesDB"><path codeLine="159" d="M206.42,585.3775 C218.95,603.7575 230.6806,620.9697 243.5906,639.9097" fill="none" id="EntryStorage-to-EntriesDB" style="stroke:#181818;stroke-width:1;"/><polygon fill="#181818" points="246.97,644.8675,245.2061,635.1779,244.1539,640.736,238.5957,639.6837,246.97,644.8675" style="stroke:#181818;stroke-width:1;"/></g><!--link UserInfoStorage to UserInfoDB--><g class="link" data-entity-1="UserInfoStorage" data-entity-2="UserInfoDB" data-source-line="161" data-uid="lnk36" id="link_UserInfoStorage_UserInfoDB"><path codeLine="161" d="M804.71,585.3775 C804.71,603.7575 804.71,619.9275 804.71,638.8675" fill="none" id="UserInfoStorage-to-UserInfoDB" style="stroke:#181818;stroke-width:1;"/><polygon fill="#181818" points="804.71,644.8675,808.71,635.8675,804.71,639.8675,800.71,635.8675,804.71,644.8675" style="stroke:#181818;stroke-width:1;"/></g><!--link TokenStorage to TokenDB--><g class="link" data-entity-1="TokenStorage" data-entity-2="TokenDB" data-source-line="163" data-uid="lnk37" id="link_TokenStorage_TokenDB"><path codeLine="163" d="M1085.89,577.2175 C1106.62,596.8675 1129.8154,618.8698 1152.8454,640.6998" fill="none" id="TokenStorage-to-TokenDB" style="stroke:#181818;stroke-width:1;"/><polygon fill="#181818" points="1157.2,644.8275,1153.4199,635.7329,1153.5712,641.3878,1147.9164,641.539,1157.2,644.8275" style="stroke:#181818;stroke-width:1;"/></g><!--link TokenStorage to TokenCache--><g class="link" data-entity-1="TokenStorage" data-entity-2="TokenCache" data-source-line="164" data-uid="lnk38" id="link_TokenStorage_TokenCache"><path codeLine="164" d="M1047.29,577.2175 C1042.01,598.2275 1036.3419,620.8183 1030.6519,643.4683" fill="none" id="TokenStorage-to-TokenCache" style="stroke:#181818;stroke-width:1;"/><polygon fill="#181818" points="1029.19,649.2875,1035.2623,641.5333,1030.4082,644.4382,1027.5033,639.5841,1029.19,649.2875" style="stroke:#181818;stroke-width:1;"/></g><!--SRC=[ZLNRRXCn47tVhp0D4a-DIa9fQGLISm5LQg4K8gGY7hpUIM9rrwwyJal-dh6z5tlNMvg7A9apSuvdF9xHNET0Vj4yfodTI3ANnOCK87IPR85ce0YhBIJZTADeaIIlNbzJGJS8VYG7AMNtPqTqCfb-EDVmLvzTySrMVr6mFy-vWBEdBTTWVuupgJLa1nY_51iqDE77Kpf9mONFShGOdnzQAXHfdDvcf-_IuuxJ3QYIbne4ynod4vXEdEElHjtzD35pohQUzydxezEJOUzhdcKvF57rqf0tf0r9C06itCLERxzwH2EVzNT2y6DT_4XZFCHFWo8HPrHpAGYUdzsNP2sLHH-KrC2mj4H1ANUAGMdjO_pO7wiIiHJGt_728wYz5rPTP_8dCQTtVyf48KZ51llZ8YkugEzyrDn-TN83DXJ1iL5NLKY1npVyBUatazHaYDMXSTeAq_8U1BcukGnvbqAh_H2j1UEi3fhVhXOXtroAHzDbSh02hSTppApniaOjoV9cDIEWsTWLtZqANzhaULUzbL7zQDf-kQj3UhroHnvapjc-wfGmeLlGYiCZpUFC3HnbRr6v9dYd-CSrsrh9Wc2NajNjrL01uu9U-MAA7joHJ44_0RO0zdL1TUcgM8qD_m0_JQFKusJK31QdRi4cAb0sHd1jLf8m9zFPbs8jXrXjvnk7vvWfOtA7uy6Qk71fc3mZ3Jqav7hh6P6gO4w4YeoiUGvLhHPKqoJ9y3kbPPlKOeOo_cJjvhIOTPI-NnqQXeoKta4m7x8pCLMULhGHitKVK79tybyLqiXuTyHadcFfi8obut7ZVbIDVL_0MaADIt5OG34aOFZR39QkiWCvk8jvUQN0-XloRXQLpcUyjrWknXvBfUuJGyuGvc9ZxMuEcR7lTG8-Cb7fXGkikxeC_QVWHGsuT5v8qdCRZuEz4iFzKHx3UwCvs5_18Z17wWo-leCtRxiWeluxJ99mVVMh4i7x9V7tQlS07J0MtrzDngqxRmVSVAsOHo_ZUaELYR-NeWThnt0ml6fElvi7FV3f9DqnwuiPF9ZipHKW4WUiu3y0]--></g></svg>