<svg xmlns="http://www.w3.org/2000/svg" xmlns:xlink="http://www.w3.org/1999/xlink" contentStyleType="text/css" data-diagram-type="ACTIVITY" height="972.9167px" preserveAspectRatio="none" style="width:787px;height:972px;background:#FFFFFF;" version="1.1" viewBox="0 0 787 972" width="787.5px" zoomAndPan="magnify"><title>Check if user passes</title><defs/><g><g class="header" data-source-line="2"><text fill="#888888" font-family="sans-serif" font-size="20.8333" lengthAdjust="spacing" textLength="76.7924" x="684.0993" y="40.1713">activity</text></g><g class="title" data-source-line="3"><text fill="#000000" font-family="sans-serif" font-size="29.1667" font-weight="bold" lengthAdjust="spacing" textLength="336.499" x="222.613" y="95.0745">Check if user passes</text><text fill="#000000" font-family="sans-serif" font-size="29.1667" font-weight="bold" lengthAdjust="spacing" textLength="268.3248" x="256.7001" y="129.0263">AuthZ for action</text></g><ellipse cx="377.209" cy="179.6549" fill="#222222" rx="20.8333" ry="20.8333" style="stroke:#222222;stroke-width:2.0833;"/><rect fill="#F1F1F1" height="70.7682" rx="26.0417" ry="26.0417" style="stroke:#181818;stroke-width:1.0417;" width="289.1398" x="232.6391" y="242.1549"/><text fill="#000000" font-family="sans-serif" font-size="25" lengthAdjust="spacing" textLength="247.4731" x="253.4724" y="286.1938">Retrieve user Authz</text><rect fill="#008000" height="70.7682" rx="26.0417" ry="26.0417" style="stroke:#181818;stroke-width:1.0417;" width="271.9035" x="241.2572" y="455.4281"/><text fill="#000000" font-family="sans-serif" font-size="25" lengthAdjust="spacing" textLength="230.2368" x="262.0906" y="499.467">User passes Authz</text><ellipse cx="377.209" cy="608.5205" fill="none" rx="22.9167" ry="22.9167" style="stroke:#222222;stroke-width:2.0833;"/><ellipse cx="377.209" cy="608.5205" fill="#222222" rx="12.5" ry="12.5" style="stroke:#222222;stroke-width:2.0833;"/><polygon fill="#F1F1F1" points="292.6702,354.5898,461.7477,354.5898,486.7477,379.5898,461.7477,404.5898,292.6702,404.5898,267.6702,379.5898,292.6702,354.5898" style="stroke:#181818;stroke-width:1.0417;"/><text fill="#000000" font-family="sans-serif" font-size="22.9167" lengthAdjust="spacing" textLength="39.6006" x="385.5423" y="425.8616">yes</text><text fill="#000000" font-family="sans-serif" font-size="22.9167" lengthAdjust="spacing" textLength="169.0776" x="292.6702" y="387.5234">User is admin?</text><text fill="#000000" font-family="sans-serif" font-size="22.9167" lengthAdjust="spacing" textLength="28.5451" x="486.7477" y="374.1852">no</text><polygon fill="#F1F1F1" points="204.7017,718.9372,549.7162,718.9372,574.7162,745.6136,549.7162,772.29,204.7017,772.29,179.7017,745.6136,204.7017,718.9372" style="stroke:#181818;stroke-width:1.0417;"/><text fill="#000000" font-family="sans-serif" font-size="22.9167" lengthAdjust="spacing" textLength="175.2767" x="204.7017" y="740.2089">User is granted</text><text fill="#000000" font-family="sans-serif" font-size="22.9167" lengthAdjust="spacing" textLength="345.0144" x="204.7017" y="766.8854">permission to perform action?</text><text fill="#000000" font-family="sans-serif" font-size="22.9167" lengthAdjust="spacing" textLength="39.6006" x="140.1011" y="740.2089">yes</text><text fill="#000000" font-family="sans-serif" font-size="22.9167" lengthAdjust="spacing" textLength="28.5451" x="574.7162" y="740.2089">no</text><rect fill="#008000" height="70.7682" rx="26.0417" ry="26.0417" style="stroke:#181818;stroke-width:1.0417;" width="271.9035" x="22.9167" y="793.1234"/><text fill="#000000" font-family="sans-serif" font-size="25" lengthAdjust="spacing" textLength="230.2368" x="43.75" y="837.1623">User passes Authz</text><ellipse cx="158.8684" cy="928.4749" fill="none" rx="22.9167" ry="22.9167" style="stroke:#222222;stroke-width:2.0833;"/><ellipse cx="158.8684" cy="928.4749" fill="#222222" rx="12.5" ry="12.5" style="stroke:#222222;stroke-width:2.0833;"/><rect fill="#FF0000" height="70.7682" rx="26.0417" ry="26.0417" style="stroke:#181818;stroke-width:1.0417;" width="339.0177" x="426.0406" y="793.1234"/><text fill="#000000" font-family="sans-serif" font-size="25" lengthAdjust="spacing" textLength="297.3511" x="446.874" y="837.1623">User did not pass Authz</text><ellipse cx="595.5495" cy="928.4749" fill="none" rx="22.9167" ry="22.9167" style="stroke:#222222;stroke-width:2.0833;"/><ellipse cx="595.5495" cy="928.4749" fill="#222222" rx="12.5" ry="12.5" style="stroke:#222222;stroke-width:2.0833;"/><line style="stroke:#181818;stroke-width:2.0833;" x1="377.209" x2="377.209" y1="200.4883" y2="242.1549"/><polygon fill="#181818" points="368.8756,221.3216,377.209,242.1549,385.5423,221.3216,377.209,229.6549" style="stroke:#181818;stroke-width:2.0833;"/><line style="stroke:#181818;stroke-width:2.0833;" x1="377.209" x2="377.209" y1="526.1963" y2="585.6038"/><polygon fill="#181818" points="368.8756,564.7705,377.209,585.6038,385.5423,564.7705,377.209,573.1038" style="stroke:#181818;stroke-width:2.0833;"/><line style="stroke:#181818;stroke-width:2.0833;" x1="377.209" x2="377.209" y1="404.5898" y2="455.4281"/><polygon fill="#181818" points="368.8756,434.5947,377.209,455.4281,385.5423,434.5947,377.209,442.9281" style="stroke:#181818;stroke-width:2.0833;"/><line style="stroke:#181818;stroke-width:2.0833;" x1="486.7477" x2="533.994" y1="379.5898" y2="379.5898"/><polygon fill="#181818" points="525.6607,523.1038,533.994,543.9372,542.3274,523.1038,533.994,531.4372" style="stroke:#181818;stroke-width:2.0833;"/><line style="stroke:#181818;stroke-width:2.0833;" x1="533.994" x2="533.994" y1="379.5898" y2="677.2705"/><line style="stroke:#181818;stroke-width:2.0833;" x1="533.994" x2="377.209" y1="677.2705" y2="677.2705"/><line style="stroke:#181818;stroke-width:2.0833;" x1="377.209" x2="377.209" y1="677.2705" y2="718.9372"/><polygon fill="#181818" points="368.8756,698.1038,377.209,718.9372,385.5423,698.1038,377.209,706.4372" style="stroke:#181818;stroke-width:2.0833;"/><line style="stroke:#181818;stroke-width:2.0833;" x1="377.209" x2="377.209" y1="312.9232" y2="354.5898"/><polygon fill="#181818" points="368.8756,333.7565,377.209,354.5898,385.5423,333.7565,377.209,342.0898" style="stroke:#181818;stroke-width:2.0833;"/><line style="stroke:#181818;stroke-width:2.0833;" x1="158.8684" x2="158.8684" y1="863.8916" y2="905.5583"/><polygon fill="#181818" points="150.5351,884.7249,158.8684,905.5583,167.2017,884.7249,158.8684,893.0583" style="stroke:#181818;stroke-width:2.0833;"/><line style="stroke:#181818;stroke-width:2.0833;" x1="595.5495" x2="595.5495" y1="863.8916" y2="905.5583"/><polygon fill="#181818" points="587.2162,884.7249,595.5495,905.5583,603.8829,884.7249,595.5495,893.0583" style="stroke:#181818;stroke-width:2.0833;"/><line style="stroke:#181818;stroke-width:2.0833;" x1="179.7017" x2="158.8684" y1="745.6136" y2="745.6136"/><line style="stroke:#181818;stroke-width:2.0833;" x1="158.8684" x2="158.8684" y1="745.6136" y2="793.1234"/><polygon fill="#181818" points="150.5351,772.29,158.8684,793.1234,167.2017,772.29,158.8684,780.6234" style="stroke:#181818;stroke-width:2.0833;"/><line style="stroke:#181818;stroke-width:2.0833;" x1="574.7162" x2="595.5495" y1="745.6136" y2="745.6136"/><line style="stroke:#181818;stroke-width:2.0833;" x1="595.5495" x2="595.5495" y1="745.6136" y2="793.1234"/><polygon fill="#181818" points="587.2162,772.29,595.5495,793.1234,603.8829,772.29,595.5495,780.6234" style="stroke:#181818;stroke-width:2.0833;"/><!--SRC=[fOwnRi9044Jx_OgLqjWTIWa5YlY3I3IHcnCtnYlmtkbsGOAlvso3eYWbsurctixOIJI74aQEMVXpjQ818Q9mEBXSnM_aucVmRi3XnDBpnQgPWnciqw-B3p_SfoMUbCWy5AVrDxm8hbZYK-o-eKet-qcBSOYZwBPb7w3St60jSRsFOm5qlVyjUS6JQvuouMpWHbDBq2Zzdw_74jGHEyqeevZLIUo9gweRn-V8Drjde20kyIYHDVcC_OVcWGy0]--></g></svg>