<svg xmlns="http://www.w3.org/2000/svg" xmlns:xlink="http://www.w3.org/1999/xlink" contentStyleType="text/css" data-diagram-type="ACTIVITY" height="1175px" preserveAspectRatio="none" style="width:456px;height:1175px;background:#FFFFFF;" version="1.1" viewBox="0 0 456 1175" width="456.25px" zoomAndPan="magnify"><title>Check if credentials</title><defs/><g><g class="header" data-source-line="2"><text fill="#888888" font-family="sans-serif" font-size="20.8333" lengthAdjust="spacing" textLength="76.7924" x="352.7273" y="40.1713">activity</text></g><g class="title" data-source-line="3"><text fill="#000000" font-family="sans-serif" font-size="29.1667" font-weight="bold" lengthAdjust="spacing" textLength="325.4903" x="62.4313" y="95.0745">Check if credentials</text><text fill="#000000" font-family="sans-serif" font-size="29.1667" font-weight="bold" lengthAdjust="spacing" textLength="187.8886" x="131.2322" y="129.0263">pass AuthN</text></g><ellipse cx="190.5711" cy="179.6549" fill="#222222" rx="20.8333" ry="20.8333" style="stroke:#222222;stroke-width:2.0833;"/><rect fill="#008000" height="70.7682" rx="26.0417" ry="26.0417" style="stroke:#181818;stroke-width:1.0417;" width="215.3971" x="82.8725" y="548.0225"/><text fill="#000000" font-family="sans-serif" font-size="25" lengthAdjust="spacing" textLength="173.7305" x="103.7059" y="592.0614">AuthN passed</text><ellipse cx="190.5711" cy="700.2767" fill="none" rx="22.9167" ry="22.9167" style="stroke:#222222;stroke-width:2.0833;"/><ellipse cx="190.5711" cy="700.2767" fill="#222222" rx="12.5" ry="12.5" style="stroke:#222222;stroke-width:2.0833;"/><polygon fill="#F1F1F1" points="93.9641,443.8314,287.178,443.8314,312.178,470.5078,287.178,497.1842,93.9641,497.1842,68.9641,470.5078,93.9641,443.8314" style="stroke:#181818;stroke-width:1.0417;"/><text fill="#000000" font-family="sans-serif" font-size="22.9167" lengthAdjust="spacing" textLength="28.5451" x="198.9044" y="518.456">no</text><text fill="#000000" font-family="sans-serif" font-size="22.9167" lengthAdjust="spacing" textLength="193.2139" x="93.9641" y="465.1031">Have credentials</text><text fill="#000000" font-family="sans-serif" font-size="22.9167" lengthAdjust="spacing" textLength="169.7378" x="93.9641" y="491.7796">been revoked?</text><text fill="#000000" font-family="sans-serif" font-size="22.9167" lengthAdjust="spacing" textLength="39.6006" x="312.178" y="465.1031">yes</text><polygon fill="#F1F1F1" points="121.284,342.9932,259.8582,342.9932,284.8582,367.9932,259.8582,392.9932,121.284,392.9932,96.284,367.9932,121.284,342.9932" style="stroke:#181818;stroke-width:1.0417;"/><text fill="#000000" font-family="sans-serif" font-size="22.9167" lengthAdjust="spacing" textLength="39.6006" x="198.9044" y="414.2649">yes</text><text fill="#000000" font-family="sans-serif" font-size="22.9167" lengthAdjust="spacing" textLength="138.5742" x="121.284" y="375.9267">User exists?</text><text fill="#000000" font-family="sans-serif" font-size="22.9167" lengthAdjust="spacing" textLength="28.5451" x="284.8582" y="362.5885">no</text><polygon fill="#F1F1F1" points="190.5711,810.6934,215.5711,835.6934,190.5711,860.6934,165.5711,835.6934,190.5711,810.6934" style="stroke:#181818;stroke-width:1.0417;"/><polygon fill="#F1F1F1" points="66.6667,242.1549,314.4755,242.1549,339.4755,267.1549,314.4755,292.1549,66.6667,292.1549,41.6667,267.1549,66.6667,242.1549" style="stroke:#181818;stroke-width:1.0417;"/><text fill="#000000" font-family="sans-serif" font-size="22.9167" lengthAdjust="spacing" textLength="39.6006" x="198.9044" y="313.4267">yes</text><text fill="#000000" font-family="sans-serif" font-size="22.9167" lengthAdjust="spacing" textLength="247.8088" x="66.6667" y="275.0885">Are credentials valid?</text><text fill="#000000" font-family="sans-serif" font-size="22.9167" lengthAdjust="spacing" textLength="28.5451" x="339.4755" y="261.7503">no</text><polygon fill="#F1F1F1" points="190.5711,902.36,215.5711,927.36,190.5711,952.36,165.5711,927.36,190.5711,902.36" style="stroke:#181818;stroke-width:1.0417;"/><rect fill="#FF0000" height="70.7682" rx="26.0417" ry="26.0417" style="stroke:#181818;stroke-width:1.0417;" width="196.1711" x="92.4856" y="994.0267"/><text fill="#000000" font-family="sans-serif" font-size="25" lengthAdjust="spacing" textLength="154.5044" x="113.3189" y="1038.0656">AuthN failed</text><ellipse cx="190.5711" cy="1129.3783" fill="none" rx="22.9167" ry="22.9167" style="stroke:#222222;stroke-width:2.0833;"/><ellipse cx="190.5711" cy="1129.3783" fill="#222222" rx="12.5" ry="12.5" style="stroke:#222222;stroke-width:2.0833;"/><line style="stroke:#181818;stroke-width:2.0833;" x1="190.5711" x2="190.5711" y1="618.7907" y2="677.36"/><polygon fill="#181818" points="182.2378,656.5267,190.5711,677.36,198.9044,656.5267,190.5711,664.86" style="stroke:#181818;stroke-width:2.0833;"/><line style="stroke:#181818;stroke-width:2.0833;" x1="190.5711" x2="190.5711" y1="497.1842" y2="548.0225"/><polygon fill="#181818" points="182.2378,527.1891,190.5711,548.0225,198.9044,527.1891,190.5711,535.5225" style="stroke:#181818;stroke-width:2.0833;"/><line style="stroke:#181818;stroke-width:2.0833;" x1="312.178" x2="337.178" y1="470.5078" y2="470.5078"/><polygon fill="#181818" points="328.8447,614.86,337.178,635.6934,345.5114,614.86,337.178,623.1934" style="stroke:#181818;stroke-width:2.0833;"/><line style="stroke:#181818;stroke-width:2.0833;" x1="337.178" x2="337.178" y1="470.5078" y2="769.0267"/><line style="stroke:#181818;stroke-width:2.0833;" x1="337.178" x2="190.5711" y1="769.0267" y2="769.0267"/><line style="stroke:#181818;stroke-width:2.0833;" x1="190.5711" x2="190.5711" y1="769.0267" y2="810.6934"/><polygon fill="#181818" points="182.2378,789.86,190.5711,810.6934,198.9044,789.86,190.5711,798.1934" style="stroke:#181818;stroke-width:2.0833;"/><line style="stroke:#181818;stroke-width:2.0833;" x1="190.5711" x2="190.5711" y1="392.9932" y2="443.8314"/><polygon fill="#181818" points="182.2378,422.998,190.5711,443.8314,198.9044,422.998,190.5711,431.3314" style="stroke:#181818;stroke-width:2.0833;"/><line style="stroke:#181818;stroke-width:2.0833;" x1="284.8582" x2="364.9363" y1="367.9932" y2="367.9932"/><polygon fill="#181818" points="356.603,601.5218,364.9363,622.3551,373.2697,601.5218,364.9363,609.8551" style="stroke:#181818;stroke-width:2.0833;"/><line style="stroke:#181818;stroke-width:2.0833;" x1="364.9363" x2="364.9363" y1="367.9932" y2="835.6934"/><line style="stroke:#181818;stroke-width:2.0833;" x1="364.9363" x2="215.5711" y1="835.6934" y2="835.6934"/><polygon fill="#181818" points="236.4044,827.36,215.5711,835.6934,236.4044,844.0267,228.0711,835.6934" style="stroke:#181818;stroke-width:2.0833;"/><line style="stroke:#181818;stroke-width:2.0833;" x1="190.5711" x2="190.5711" y1="292.1549" y2="342.9932"/><polygon fill="#181818" points="182.2378,322.1598,190.5711,342.9932,198.9044,322.1598,190.5711,330.4932" style="stroke:#181818;stroke-width:2.0833;"/><line style="stroke:#181818;stroke-width:2.0833;" x1="339.4755" x2="402.4363" y1="267.1549" y2="267.1549"/><polygon fill="#181818" points="394.103,601.5218,402.4363,622.3551,410.7697,601.5218,402.4363,609.8551" style="stroke:#181818;stroke-width:2.0833;"/><line style="stroke:#181818;stroke-width:2.0833;" x1="402.4363" x2="402.4363" y1="267.1549" y2="927.36"/><line style="stroke:#181818;stroke-width:2.0833;" x1="402.4363" x2="215.5711" y1="927.36" y2="927.36"/><polygon fill="#181818" points="236.4044,919.0267,215.5711,927.36,236.4044,935.6934,228.0711,927.36" style="stroke:#181818;stroke-width:2.0833;"/><line style="stroke:#181818;stroke-width:2.0833;" x1="190.5711" x2="190.5711" y1="860.6934" y2="902.36"/><polygon fill="#181818" points="182.2378,881.5267,190.5711,902.36,198.9044,881.5267,190.5711,889.86" style="stroke:#181818;stroke-width:2.0833;"/><line style="stroke:#181818;stroke-width:2.0833;" x1="190.5711" x2="190.5711" y1="200.4883" y2="242.1549"/><polygon fill="#181818" points="182.2378,221.3216,190.5711,242.1549,198.9044,221.3216,190.5711,229.6549" style="stroke:#181818;stroke-width:2.0833;"/><line style="stroke:#181818;stroke-width:2.0833;" x1="190.5711" x2="190.5711" y1="952.36" y2="994.0267"/><polygon fill="#181818" points="182.2378,973.1934,190.5711,994.0267,198.9044,973.1934,190.5711,981.5267" style="stroke:#181818;stroke-width:2.0833;"/><line style="stroke:#181818;stroke-width:2.0833;" x1="190.5711" x2="190.5711" y1="1064.7949" y2="1106.4616"/><polygon fill="#181818" points="182.2378,1085.6283,190.5711,1106.4616,198.9044,1085.6283,190.5711,1093.9616" style="stroke:#181818;stroke-width:2.0833;"/><!--SRC=[POunKyCm38Lt_mhTTKct7YCTk1uB4njR5pL-8ReO9sU9NFFlQnE2AMZpqoT_JmU94oV-83y9FHmEhWTx9EBMP1PRd8a5q7EFTY3fg4tmY2OSz9mlLUdqQVshSsgSp6MYEINyncZc8FvfJzOZKhD0zuxo5FHDimfNKTF_m0Qzy8nxxmKPJ9Z70VNZEDQpChltbB77htfKci8Vxm2rSVe941H_t8XUEbUNcs3DQxQ-TxdWjwnZ2KLM13S0]--></g></svg>