<svg xmlns="http://www.w3.org/2000/svg" xmlns:xlink="http://www.w3.org/1999/xlink" contentStyleType="text/css" data-diagram-type="ACTIVITY" height="564px" preserveAspectRatio="none" style="width:219px;height:564px;background:#FFFFFF;" version="1.1" viewBox="0 0 219 564" width="219px" zoomAndPan="magnify"><title>Check if credentials</title><defs/><g><g class="header" data-source-line="1"><text fill="#888888" font-family="sans-serif" font-size="10" lengthAdjust="spacing" textLength="36.8604" x="169.3091" y="19.2822">activity</text></g><g class="title" data-source-line="2"><text fill="#000000" font-family="sans-serif" font-size="14" font-weight="bold" lengthAdjust="spacing" textLength="156.2354" x="29.967" y="45.6357">Check if credentials</text><text fill="#000000" font-family="sans-serif" font-size="14" font-weight="bold" lengthAdjust="spacing" textLength="90.1865" x="62.9915" y="61.9326">pass AuthN</text></g><ellipse cx="91.4741" cy="86.2344" fill="#222222" rx="10" ry="10" style="stroke:#222222;stroke-width:1;"/><rect fill="#008000" height="33.9688" rx="12.5" ry="12.5" style="stroke:#181818;stroke-width:0.5;" width="103.3906" x="39.7788" y="263.0508"/><text fill="#000000" font-family="sans-serif" font-size="12" lengthAdjust="spacing" textLength="83.3906" x="49.7788" y="284.1895">AuthN passed</text><ellipse cx="91.4741" cy="336.1328" fill="none" rx="11" ry="11" style="stroke:#222222;stroke-width:1;"/><ellipse cx="91.4741" cy="336.1328" fill="#222222" rx="6" ry="6" style="stroke:#222222;stroke-width:1;"/><polygon fill="#F1F1F1" points="45.1028,213.0391,137.8455,213.0391,149.8455,225.8438,137.8455,238.6484,45.1028,238.6484,33.1028,225.8438,45.1028,213.0391" style="stroke:#181818;stroke-width:0.5;"/><text fill="#000000" font-family="sans-serif" font-size="11" lengthAdjust="spacing" textLength="13.7017" x="95.4741" y="248.8589">no</text><text fill="#000000" font-family="sans-serif" font-size="11" lengthAdjust="spacing" textLength="92.7427" x="45.1028" y="223.2495">Have credentials</text><text fill="#000000" font-family="sans-serif" font-size="11" lengthAdjust="spacing" textLength="81.4741" x="45.1028" y="236.0542">been revoked?</text><text fill="#000000" font-family="sans-serif" font-size="11" lengthAdjust="spacing" textLength="19.0083" x="149.8455" y="223.2495">yes</text><polygon fill="#F1F1F1" points="58.2163,164.6367,124.7319,164.6367,136.7319,176.6367,124.7319,188.6367,58.2163,188.6367,46.2163,176.6367,58.2163,164.6367" style="stroke:#181818;stroke-width:0.5;"/><text fill="#000000" font-family="sans-serif" font-size="11" lengthAdjust="spacing" textLength="19.0083" x="95.4741" y="198.8472">yes</text><text fill="#000000" font-family="sans-serif" font-size="11" lengthAdjust="spacing" textLength="66.5156" x="58.2163" y="180.4448">User exists?</text><text fill="#000000" font-family="sans-serif" font-size="11" lengthAdjust="spacing" textLength="13.7017" x="136.7319" y="174.0425">no</text><polygon fill="#F1F1F1" points="91.4741,389.1328,103.4741,401.1328,91.4741,413.1328,79.4741,401.1328,91.4741,389.1328" style="stroke:#181818;stroke-width:0.5;"/><polygon fill="#F1F1F1" points="32,116.2344,150.9482,116.2344,162.9482,128.2344,150.9482,140.2344,32,140.2344,20,128.2344,32,116.2344" style="stroke:#181818;stroke-width:0.5;"/><text fill="#000000" font-family="sans-serif" font-size="11" lengthAdjust="spacing" textLength="19.0083" x="95.4741" y="150.4448">yes</text><text fill="#000000" font-family="sans-serif" font-size="11" lengthAdjust="spacing" textLength="118.9482" x="32" y="132.0425">Are credentials valid?</text><text fill="#000000" font-family="sans-serif" font-size="11" lengthAdjust="spacing" textLength="13.7017" x="162.9482" y="125.6401">no</text><polygon fill="#F1F1F1" points="91.4741,433.1328,103.4741,445.1328,91.4741,457.1328,79.4741,445.1328,91.4741,433.1328" style="stroke:#181818;stroke-width:0.5;"/><rect fill="#FF0000" height="33.9688" rx="12.5" ry="12.5" style="stroke:#181818;stroke-width:0.5;" width="94.1621" x="44.3931" y="477.1328"/><text fill="#000000" font-family="sans-serif" font-size="12" lengthAdjust="spacing" textLength="74.1621" x="54.3931" y="498.2715">AuthN failed</text><ellipse cx="91.4741" cy="542.1016" fill="none" rx="11" ry="11" style="stroke:#222222;stroke-width:1;"/><ellipse cx="91.4741" cy="542.1016" fill="#222222" rx="6" ry="6" style="stroke:#222222;stroke-width:1;"/><line style="stroke:#181818;stroke-width:1;" x1="91.4741" x2="91.4741" y1="297.0195" y2="325.1328"/><polygon fill="#181818" points="87.4741,315.1328,91.4741,325.1328,95.4741,315.1328,91.4741,319.1328" style="stroke:#181818;stroke-width:1;"/><line style="stroke:#181818;stroke-width:1;" x1="91.4741" x2="91.4741" y1="238.6484" y2="263.0508"/><polygon fill="#181818" points="87.4741,253.0508,91.4741,263.0508,95.4741,253.0508,91.4741,257.0508" style="stroke:#181818;stroke-width:1;"/><line style="stroke:#181818;stroke-width:1;" x1="149.8455" x2="161.8455" y1="225.8438" y2="225.8438"/><polygon fill="#181818" points="157.8455,295.1328,161.8455,305.1328,165.8455,295.1328,161.8455,299.1328" style="stroke:#181818;stroke-width:1;"/><line style="stroke:#181818;stroke-width:1;" x1="161.8455" x2="161.8455" y1="225.8438" y2="369.1328"/><line style="stroke:#181818;stroke-width:1;" x1="161.8455" x2="91.4741" y1="369.1328" y2="369.1328"/><line style="stroke:#181818;stroke-width:1;" x1="91.4741" x2="91.4741" y1="369.1328" y2="389.1328"/><polygon fill="#181818" points="87.4741,379.1328,91.4741,389.1328,95.4741,379.1328,91.4741,383.1328" style="stroke:#181818;stroke-width:1;"/><line style="stroke:#181818;stroke-width:1;" x1="91.4741" x2="91.4741" y1="188.6367" y2="213.0391"/><polygon fill="#181818" points="87.4741,203.0391,91.4741,213.0391,95.4741,203.0391,91.4741,207.0391" style="stroke:#181818;stroke-width:1;"/><line style="stroke:#181818;stroke-width:1;" x1="136.7319" x2="175.1694" y1="176.6367" y2="176.6367"/><polygon fill="#181818" points="171.1694,288.7305,175.1694,298.7305,179.1694,288.7305,175.1694,292.7305" style="stroke:#181818;stroke-width:1;"/><line style="stroke:#181818;stroke-width:1;" x1="175.1694" x2="175.1694" y1="176.6367" y2="401.1328"/><line style="stroke:#181818;stroke-width:1;" x1="175.1694" x2="103.4741" y1="401.1328" y2="401.1328"/><polygon fill="#181818" points="113.4741,397.1328,103.4741,401.1328,113.4741,405.1328,109.4741,401.1328" style="stroke:#181818;stroke-width:1;"/><line style="stroke:#181818;stroke-width:1;" x1="91.4741" x2="91.4741" y1="140.2344" y2="164.6367"/><polygon fill="#181818" points="87.4741,154.6367,91.4741,164.6367,95.4741,154.6367,91.4741,158.6367" style="stroke:#181818;stroke-width:1;"/><line style="stroke:#181818;stroke-width:1;" x1="162.9482" x2="193.1694" y1="128.2344" y2="128.2344"/><polygon fill="#181818" points="189.1694,288.7305,193.1694,298.7305,197.1694,288.7305,193.1694,292.7305" style="stroke:#181818;stroke-width:1;"/><line style="stroke:#181818;stroke-width:1;" x1="193.1694" x2="193.1694" y1="128.2344" y2="445.1328"/><line style="stroke:#181818;stroke-width:1;" x1="193.1694" x2="103.4741" y1="445.1328" y2="445.1328"/><polygon fill="#181818" points="113.4741,441.1328,103.4741,445.1328,113.4741,449.1328,109.4741,445.1328" style="stroke:#181818;stroke-width:1;"/><line style="stroke:#181818;stroke-width:1;" x1="91.4741" x2="91.4741" y1="413.1328" y2="433.1328"/><polygon fill="#181818" points="87.4741,423.1328,91.4741,433.1328,95.4741,423.1328,91.4741,427.1328" style="stroke:#181818;stroke-width:1;"/><line style="stroke:#181818;stroke-width:1;" x1="91.4741" x2="91.4741" y1="96.2344" y2="116.2344"/><polygon fill="#181818" points="87.4741,106.2344,91.4741,116.2344,95.4741,106.2344,91.4741,110.2344" style="stroke:#181818;stroke-width:1;"/><line style="stroke:#181818;stroke-width:1;" x1="91.4741" x2="91.4741" y1="457.1328" y2="477.1328"/><polygon fill="#181818" points="87.4741,467.1328,91.4741,477.1328,95.4741,467.1328,91.4741,471.1328" style="stroke:#181818;stroke-width:1;"/><line style="stroke:#181818;stroke-width:1;" x1="91.4741" x2="91.4741" y1="511.1016" y2="531.1016"/><polygon fill="#181818" points="87.4741,521.1016,91.4741,531.1016,95.4741,521.1016,91.4741,525.1016" style="stroke:#181818;stroke-width:1;"/><!--SRC=[POwx3i8m34NtV8MbBl0BC234miJ6nXAQMseHfLLiAlht99GI7jvoS-npMrY7IBPM7bX7ewmUj6jHNuaRgYCSWhBrSWgz5Q7jJTk3CQ8sgad4OXlnYT5WFRlDahH5eCK8MHfAaz6Z91NkB2h_m0pjxO1lxna9Z1YwAyhXq9MrFDKb9cprh4UvATpw2n3j-dS0B_Xn8pXkJFcS1LDUikbTfO8lMMFPPraMF000]--></g></svg>