<svg xmlns="http://www.w3.org/2000/svg" xmlns:xlink="http://www.w3.org/1999/xlink" contentStyleType="text/css" data-diagram-type="ACTIVITY" height="467px" preserveAspectRatio="none" style="width:378px;height:467px;background:#FFFFFF;" version="1.1" viewBox="0 0 378 467" width="378px" zoomAndPan="magnify"><title>Check if user passes</title><defs/><g><g class="header" data-source-line="1"><text fill="#888888" font-family="sans-serif" font-size="10" lengthAdjust="spacing" textLength="36.8604" x="328.3677" y="19.2822">activity</text></g><g class="title" data-source-line="2"><text fill="#000000" font-family="sans-serif" font-size="14" font-weight="bold" lengthAdjust="spacing" textLength="161.5195" x="106.8542" y="45.6357">Check if user passes</text><text fill="#000000" font-family="sans-serif" font-size="14" font-weight="bold" lengthAdjust="spacing" textLength="128.7959" x="123.2161" y="61.9326">AuthZ for action</text></g><ellipse cx="181.0603" cy="86.2344" fill="#222222" rx="10" ry="10" style="stroke:#222222;stroke-width:1;"/><rect fill="#F1F1F1" height="33.9688" rx="12.5" ry="12.5" style="stroke:#181818;stroke-width:0.5;" width="138.7871" x="111.6667" y="116.2344"/><text fill="#000000" font-family="sans-serif" font-size="12" lengthAdjust="spacing" textLength="118.7871" x="121.6667" y="137.373">Retrieve user Authz</text><rect fill="#008000" height="33.9688" rx="12.5" ry="12.5" style="stroke:#181818;stroke-width:0.5;" width="130.5137" x="115.8035" y="218.6055"/><text fill="#000000" font-family="sans-serif" font-size="12" lengthAdjust="spacing" textLength="110.5137" x="125.8035" y="239.7441">User passes Authz</text><ellipse cx="181.0603" cy="292.0898" fill="none" rx="11" ry="11" style="stroke:#222222;stroke-width:1;"/><ellipse cx="181.0603" cy="292.0898" fill="#222222" rx="6" ry="6" style="stroke:#222222;stroke-width:1;"/><polygon fill="#F1F1F1" points="140.4817,170.2031,221.6389,170.2031,233.6389,182.2031,221.6389,194.2031,140.4817,194.2031,128.4817,182.2031,140.4817,170.2031" style="stroke:#181818;stroke-width:0.5;"/><text fill="#000000" font-family="sans-serif" font-size="11" lengthAdjust="spacing" textLength="19.0083" x="185.0603" y="204.4136">yes</text><text fill="#000000" font-family="sans-serif" font-size="11" lengthAdjust="spacing" textLength="81.1572" x="140.4817" y="186.0112">User is admin?</text><text fill="#000000" font-family="sans-serif" font-size="11" lengthAdjust="spacing" textLength="13.7017" x="233.6389" y="179.6089">no</text><polygon fill="#F1F1F1" points="98.2568,345.0898,263.8638,345.0898,275.8638,357.8945,263.8638,370.6992,98.2568,370.6992,86.2568,357.8945,98.2568,345.0898" style="stroke:#181818;stroke-width:0.5;"/><text fill="#000000" font-family="sans-serif" font-size="11" lengthAdjust="spacing" textLength="84.1328" x="98.2568" y="355.3003">User is granted</text><text fill="#000000" font-family="sans-serif" font-size="11" lengthAdjust="spacing" textLength="165.6069" x="98.2568" y="368.105">permission to perform action?</text><text fill="#000000" font-family="sans-serif" font-size="11" lengthAdjust="spacing" textLength="19.0083" x="67.2485" y="355.3003">yes</text><text fill="#000000" font-family="sans-serif" font-size="11" lengthAdjust="spacing" textLength="13.7017" x="275.8638" y="355.3003">no</text><rect fill="#008000" height="33.9688" rx="12.5" ry="12.5" style="stroke:#181818;stroke-width:0.5;" width="130.5137" x="11" y="380.6992"/><text fill="#000000" font-family="sans-serif" font-size="12" lengthAdjust="spacing" textLength="110.5137" x="21" y="401.8379">User passes Authz</text><ellipse cx="76.2568" cy="445.668" fill="none" rx="11" ry="11" style="stroke:#222222;stroke-width:1;"/><ellipse cx="76.2568" cy="445.668" fill="#222222" rx="6" ry="6" style="stroke:#222222;stroke-width:1;"/><rect fill="#FF0000" height="33.9688" rx="12.5" ry="12.5" style="stroke:#181818;stroke-width:0.5;" width="162.7285" x="204.4995" y="380.6992"/><text fill="#000000" font-family="sans-serif" font-size="12" lengthAdjust="spacing" textLength="142.7285" x="214.4995" y="401.8379">User did not pass Authz</text><ellipse cx="285.8638" cy="445.668" fill="none" rx="11" ry="11" style="stroke:#222222;stroke-width:1;"/><ellipse cx="285.8638" cy="445.668" fill="#222222" rx="6" ry="6" style="stroke:#222222;stroke-width:1;"/><line style="stroke:#181818;stroke-width:1;" x1="181.0603" x2="181.0603" y1="96.2344" y2="116.2344"/><polygon fill="#181818" points="177.0603,106.2344,181.0603,116.2344,185.0603,106.2344,181.0603,110.2344" style="stroke:#181818;stroke-width:1;"/><line style="stroke:#181818;stroke-width:1;" x1="181.0603" x2="181.0603" y1="252.5742" y2="281.0898"/><polygon fill="#181818" points="177.0603,271.0898,181.0603,281.0898,185.0603,271.0898,181.0603,275.0898" style="stroke:#181818;stroke-width:1;"/><line style="stroke:#181818;stroke-width:1;" x1="181.0603" x2="181.0603" y1="194.2031" y2="218.6055"/><polygon fill="#181818" points="177.0603,208.6055,181.0603,218.6055,185.0603,208.6055,181.0603,212.6055" style="stroke:#181818;stroke-width:1;"/><line style="stroke:#181818;stroke-width:1;" x1="233.6389" x2="256.3171" y1="182.2031" y2="182.2031"/><polygon fill="#181818" points="252.3171,251.0898,256.3171,261.0898,260.3171,251.0898,256.3171,255.0898" style="stroke:#181818;stroke-width:1;"/><line style="stroke:#181818;stroke-width:1;" x1="256.3171" x2="256.3171" y1="182.2031" y2="325.0898"/><line style="stroke:#181818;stroke-width:1;" x1="256.3171" x2="181.0603" y1="325.0898" y2="325.0898"/><line style="stroke:#181818;stroke-width:1;" x1="181.0603" x2="181.0603" y1="325.0898" y2="345.0898"/><polygon fill="#181818" points="177.0603,335.0898,181.0603,345.0898,185.0603,335.0898,181.0603,339.0898" style="stroke:#181818;stroke-width:1;"/><line style="stroke:#181818;stroke-width:1;" x1="181.0603" x2="181.0603" y1="150.2031" y2="170.2031"/><polygon fill="#181818" points="177.0603,160.2031,181.0603,170.2031,185.0603,160.2031,181.0603,164.2031" style="stroke:#181818;stroke-width:1;"/><line style="stroke:#181818;stroke-width:1;" x1="76.2568" x2="76.2568" y1="414.668" y2="434.668"/><polygon fill="#181818" points="72.2568,424.668,76.2568,434.668,80.2568,424.668,76.2568,428.668" style="stroke:#181818;stroke-width:1;"/><line style="stroke:#181818;stroke-width:1;" x1="285.8638" x2="285.8638" y1="414.668" y2="434.668"/><polygon fill="#181818" points="281.8638,424.668,285.8638,434.668,289.8638,424.668,285.8638,428.668" style="stroke:#181818;stroke-width:1;"/><line style="stroke:#181818;stroke-width:1;" x1="86.2568" x2="76.2568" y1="357.8945" y2="357.8945"/><line style="stroke:#181818;stroke-width:1;" x1="76.2568" x2="76.2568" y1="357.8945" y2="380.6992"/><polygon fill="#181818" points="72.2568,370.6992,76.2568,380.6992,80.2568,370.6992,76.2568,374.6992" style="stroke:#181818;stroke-width:1;"/><line style="stroke:#181818;stroke-width:1;" x1="275.8638" x2="285.8638" y1="357.8945" y2="357.8945"/><line style="stroke:#181818;stroke-width:1;" x1="285.8638" x2="285.8638" y1="357.8945" y2="380.6992"/><polygon fill="#181818" points="281.8638,370.6992,285.8638,380.6992,289.8638,370.6992,285.8638,374.6992" style="stroke:#181818;stroke-width:1;"/><!--SRC=[fOx12i9034Jl-nK1B-qlr8E8Vo1uaLuMTze6RRPiKg5-lTjM4V5eRiFCoqm77v38NuplR9CpjXleqE5o9Mver6mENXLQotwqxanDNEDHd5FpoLnrX2N67MjyZZssBjF5QTQiv4FFiYl9EWWL4xHqb6_J9a2gqwVa3S-kMXmSRWeg99OE4hZv-jecBuPGou3KisgUH1OfgxonVutyitK14i8Q3nn8eYtOBxGCV080]--></g></svg>