<svg xmlns="http://www.w3.org/2000/svg" xmlns:xlink="http://www.w3.org/1999/xlink" contentStyleType="text/css" data-diagram-type="ACTIVITY" height="1300px" preserveAspectRatio="none" style="width:1083px;height:1300px;background:#FFFFFF;" version="1.1" viewBox="0 0 1083 1300" width="1083.3333px" zoomAndPan="magnify"><title>Check Auth for given action</title><defs/><g><g class="header" data-source-line="2"><text fill="#888888" font-family="sans-serif" font-size="20.8333" lengthAdjust="spacing" textLength="76.7924" x="980.957" y="40.1713">activity</text></g><g class="title" data-source-line="3"><text fill="#000000" font-family="sans-serif" font-size="29.1667" font-weight="bold" lengthAdjust="spacing" textLength="456.5552" x="311.0138" y="95.0745">Check Auth for given action</text></g><ellipse cx="534.4615" cy="145.7031" fill="#222222" rx="20.8333" ry="20.8333" style="stroke:#222222;stroke-width:2.0833;"/><rect fill="#F1F1F1" height="99.8698" rx="26.0417" ry="26.0417" style="stroke:#181818;stroke-width:1.0417;" width="379.5939" x="344.6645" y="208.2031"/><text fill="#000000" font-family="sans-serif" font-size="25" lengthAdjust="spacing" textLength="172.3877" x="365.4978" y="252.242">User provides</text><text fill="#000000" font-family="sans-serif" font-size="25" font-weight="bold" lengthAdjust="spacing" textLength="157.5928" x="545.8323" y="252.242">credentials</text><text fill="#000000" font-family="sans-serif" font-size="25" lengthAdjust="spacing" textLength="96.0083" x="365.4978" y="281.3436">and the</text><text fill="#000000" font-family="sans-serif" font-size="25" font-weight="bold" lengthAdjust="spacing" textLength="221.7041" x="469.4529" y="281.3436">intended action</text><a href="authn-activity.svg" target="_top" title="authn-activity.svg" xlink:actuate="onRequest" xlink:href="authn-activity.svg" xlink:show="new" xlink:title="authn-activity.svg" xlink:type="simple"><rect fill="#FFFF00" height="99.8698" rx="26.0417" ry="26.0417" style="stroke:#181818;stroke-width:1.0417;" width="288.7492" x="390.0869" y="349.7396"/><text fill="#000000" font-family="sans-serif" font-size="25" lengthAdjust="spacing" textLength="247.0825" x="410.9202" y="393.7785">Check if credentials</text><text fill="#000000" font-family="sans-serif" font-size="25" lengthAdjust="spacing" textLength="142.4805" x="410.9202" y="422.88">pass AuthN</text></a><polygon fill="#F1F1F1" points="502.5091,491.276,566.4139,491.276,591.4139,516.276,566.4139,541.276,502.5091,541.276,477.5091,516.276,502.5091,491.276" style="stroke:#181818;stroke-width:1.0417;"/><text fill="#000000" font-family="sans-serif" font-size="22.9167" lengthAdjust="spacing" textLength="63.9048" x="502.5091" y="524.2096">Pass?</text><text fill="#000000" font-family="sans-serif" font-size="22.9167" lengthAdjust="spacing" textLength="39.6006" x="437.9084" y="510.8714">yes</text><text fill="#000000" font-family="sans-serif" font-size="22.9167" lengthAdjust="spacing" textLength="28.5451" x="591.4139" y="510.8714">no</text><a href="authz-activity.svg" target="_top" title="authz-activity.svg" xlink:actuate="onRequest" xlink:href="authz-activity.svg" xlink:show="new" xlink:title="authz-activity.svg" xlink:type="simple"><rect fill="#FFFF00" height="99.8698" rx="26.0417" ry="26.0417" style="stroke:#181818;stroke-width:1.0417;" width="210.9782" x="255.0995" y="562.1094"/><text fill="#000000" font-family="sans-serif" font-size="25" lengthAdjust="spacing" textLength="163.0737" x="275.9328" y="606.1483">Check if user</text><text fill="#000000" font-family="sans-serif" font-size="25" lengthAdjust="spacing" textLength="169.3115" x="275.9328" y="635.2498">passes AuthZ</text></a><path d="M20.8333,842.7897 L20.8333,895.1497 A0,0 0 0 0 20.8333,895.1497 L194.6706,895.1497 A0,0 0 0 0 194.6706,895.1497 L194.6706,880.2897 L236.3373,868.9697 L194.6706,863.623 L194.6706,863.623 L173.8373,842.7897 L20.8333,842.7897 A0,0 0 0 0 20.8333,842.7897" fill="#FEFFDD" style="stroke:#181818;stroke-width:1.0417;"/><path d="M173.8373,842.7897 L173.8373,863.623 L194.6706,863.623 L173.8373,842.7897" fill="#FEFFDD" style="stroke:#181818;stroke-width:1.0417;"/><text fill="#000000" font-family="sans-serif" font-size="27.0833" lengthAdjust="spacing" textLength="130.0873" x="33.3333" y="878.3457">HTTP 403</text><rect fill="#FF0000" height="70.7682" rx="26.0417" ry="26.0417" style="stroke:#181818;stroke-width:1.0417;" width="248.5026" x="236.3373" y="833.5856"/><text fill="#000000" font-family="sans-serif" font-size="25" lengthAdjust="spacing" textLength="206.8359" x="257.1706" y="877.6245">Action forbidden</text><ellipse cx="360.5886" cy="981.4046" fill="none" rx="20.8333" ry="20.8333" style="stroke:#222222;stroke-width:3.125;"/><line style="stroke:#222222;stroke-width:5.2083;" x1="347.6986" x2="373.4785" y1="968.5147" y2="994.2946"/><line style="stroke:#222222;stroke-width:5.2083;" x1="373.4785" x2="347.6986" y1="968.5147" y2="994.2946"/><polygon fill="#F1F1F1" points="328.6362,732.7474,392.541,732.7474,417.541,757.7474,392.541,782.7474,328.6362,782.7474,303.6362,757.7474,328.6362,732.7474" style="stroke:#181818;stroke-width:1.0417;"/><text fill="#000000" font-family="sans-serif" font-size="22.9167" lengthAdjust="spacing" textLength="28.5451" x="368.9219" y="804.0192">no</text><text fill="#000000" font-family="sans-serif" font-size="22.9167" lengthAdjust="spacing" textLength="63.9048" x="328.6362" y="765.6809">Pass?</text><text fill="#000000" font-family="sans-serif" font-size="22.9167" lengthAdjust="spacing" textLength="39.6006" x="417.541" y="752.3427">yes</text><path d="M885.9955,571.3135 L885.9955,589.1602 L844.3288,597.4935 L885.9955,605.8268 L885.9955,623.6735 A0,0 0 0 0 885.9955,623.6735 L1059.8328,623.6735 A0,0 0 0 0 1059.8328,623.6735 L1059.8328,592.1468 L1038.9994,571.3135 L885.9955,571.3135 A0,0 0 0 0 885.9955,571.3135" fill="#FEFFDD" style="stroke:#181818;stroke-width:1.0417;"/><path d="M1038.9994,571.3135 L1038.9994,592.1468 L1059.8328,592.1468 L1038.9994,571.3135" fill="#FEFFDD" style="stroke:#181818;stroke-width:1.0417;"/><text fill="#000000" font-family="sans-serif" font-size="27.0833" lengthAdjust="spacing" textLength="130.0873" x="898.4955" y="606.8695">HTTP 401</text><rect fill="#FF0000" height="70.7682" rx="26.0417" ry="26.0417" style="stroke:#181818;stroke-width:1.0417;" width="271.9889" x="572.3399" y="562.1094"/><text fill="#000000" font-family="sans-serif" font-size="25" lengthAdjust="spacing" textLength="230.3223" x="593.1732" y="606.1483">User unauthorized</text><ellipse cx="708.3344" cy="724.4792" fill="none" rx="20.8333" ry="20.8333" style="stroke:#222222;stroke-width:3.125;"/><line style="stroke:#222222;stroke-width:5.2083;" x1="695.4444" x2="721.2243" y1="711.5892" y2="737.3691"/><line style="stroke:#222222;stroke-width:5.2083;" x1="721.2243" x2="695.4444" y1="711.5892" y2="737.3691"/><rect fill="#008000" height="99.8698" rx="26.0417" ry="26.0417" style="stroke:#181818;stroke-width:1.0417;" width="286.6984" x="391.1123" y="1089.738"/><text fill="#000000" font-family="sans-serif" font-size="25" lengthAdjust="spacing" textLength="219.9585" x="411.9456" y="1133.7769">User passed Auth</text><text fill="#000000" font-family="sans-serif" font-size="25" lengthAdjust="spacing" textLength="245.0317" x="411.9456" y="1162.8784">for the given action</text><ellipse cx="534.4615" cy="1254.1911" fill="none" rx="22.9167" ry="22.9167" style="stroke:#222222;stroke-width:2.0833;"/><ellipse cx="534.4615" cy="1254.1911" fill="#222222" rx="12.5" ry="12.5" style="stroke:#222222;stroke-width:2.0833;"/><line style="stroke:#181818;stroke-width:2.0833;" x1="534.4615" x2="534.4615" y1="166.5365" y2="208.2031"/><polygon fill="#181818" points="526.1281,187.3698,534.4615,208.2031,542.7948,187.3698,534.4615,195.7031" style="stroke:#181818;stroke-width:2.0833;"/><line style="stroke:#181818;stroke-width:2.0833;" x1="534.4615" x2="534.4615" y1="308.0729" y2="349.7396"/><polygon fill="#181818" points="526.1281,328.9063,534.4615,349.7396,542.7948,328.9063,534.4615,337.2396" style="stroke:#181818;stroke-width:2.0833;"/><line style="stroke:#181818;stroke-width:2.0833;" x1="360.5886" x2="360.5886" y1="904.3538" y2="960.5713"/><polygon fill="#181818" points="352.2552,939.738,360.5886,960.5713,368.9219,939.738,360.5886,948.0713" style="stroke:#181818;stroke-width:2.0833;"/><line style="stroke:#181818;stroke-width:2.0833;" x1="360.5886" x2="360.5886" y1="782.7474" y2="833.5856"/><polygon fill="#181818" points="352.2552,812.7523,360.5886,833.5856,368.9219,812.7523,360.5886,821.0856" style="stroke:#181818;stroke-width:2.0833;"/><line style="stroke:#181818;stroke-width:2.0833;" x1="417.541" x2="534.4615" y1="757.7474" y2="757.7474"/><polygon fill="#181818" points="526.1281,925.1872,534.4615,946.0205,542.7948,925.1872,534.4615,933.5205" style="stroke:#181818;stroke-width:2.0833;"/><line style="stroke:#181818;stroke-width:2.0833;" x1="534.4615" x2="534.4615" y1="757.7474" y2="1089.738"/><polygon fill="#181818" points="526.1281,1068.9046,534.4615,1089.738,542.7948,1068.9046,534.4615,1077.238" style="stroke:#181818;stroke-width:2.0833;"/><line style="stroke:#181818;stroke-width:2.0833;" x1="360.5886" x2="360.5886" y1="661.9792" y2="732.7474"/><polygon fill="#181818" points="352.2552,711.9141,360.5886,732.7474,368.9219,711.9141,360.5886,720.2474" style="stroke:#181818;stroke-width:2.0833;"/><line style="stroke:#181818;stroke-width:2.0833;" x1="708.3344" x2="708.3344" y1="632.8776" y2="703.6458"/><polygon fill="#181818" points="700.001,682.8125,708.3344,703.6458,716.6677,682.8125,708.3344,691.1458" style="stroke:#181818;stroke-width:2.0833;"/><line style="stroke:#181818;stroke-width:2.0833;" x1="477.5091" x2="360.5886" y1="516.276" y2="516.276"/><line style="stroke:#181818;stroke-width:2.0833;" x1="360.5886" x2="360.5886" y1="516.276" y2="562.1094"/><polygon fill="#181818" points="352.2552,541.276,360.5886,562.1094,368.9219,541.276,360.5886,549.6094" style="stroke:#181818;stroke-width:2.0833;"/><line style="stroke:#181818;stroke-width:2.0833;" x1="591.4139" x2="708.3344" y1="516.276" y2="516.276"/><line style="stroke:#181818;stroke-width:2.0833;" x1="708.3344" x2="708.3344" y1="516.276" y2="562.1094"/><polygon fill="#181818" points="700.001,541.276,708.3344,562.1094,716.6677,541.276,708.3344,549.6094" style="stroke:#181818;stroke-width:2.0833;"/><line style="stroke:#181818;stroke-width:2.0833;" x1="534.4615" x2="534.4615" y1="449.6094" y2="491.276"/><polygon fill="#181818" points="526.1281,470.4427,534.4615,491.276,542.7948,470.4427,534.4615,478.776" style="stroke:#181818;stroke-width:2.0833;"/><line style="stroke:#181818;stroke-width:2.0833;" x1="534.4615" x2="534.4615" y1="1189.6077" y2="1231.2744"/><polygon fill="#181818" points="526.1281,1210.4411,534.4615,1231.2744,542.7948,1210.4411,534.4615,1218.7744" style="stroke:#181818;stroke-width:2.0833;"/><!--SRC=[XP6xRiCm34LtVWM1B8c15kbZieSYwDAfo90kJJEe4MqJSIb3KbmaNryz72CTYd8HA8c7bxpkmD8hgxvGzuptooMqf3HPL7lF0_iJUFOTuNDB-mEkZhx5sbXiU219Vum0EA-iX_BDXRhUce4rEIoAlILDubbrhYX0YKRVKhXdyIIQz5XV51LijogWvURIzTODpMutEr7NcUyoD-SQhuWVGRPpIT5h1U5jlWxvqoBs49oVo2q0GsJo-J_oCMZFIChGzogL_mscpX7EnUGinYoeArTffhYaJzP1R3KzY_5KuijciyR7vSDq7LO1uyar_AOcObhhKU8OnlAPT4P675fkMZz1xouWoB1POubaz2MEfjDe41sCLboxM0KNJVy3]--></g></svg>