<svg xmlns="http://www.w3.org/2000/svg" xmlns:xlink="http://www.w3.org/1999/xlink" contentStyleType="text/css" data-diagram-type="ACTIVITY" height="624px" preserveAspectRatio="none" style="width:520px;height:624px;background:#FFFFFF;" version="1.1" viewBox="0 0 520 624" width="520px" zoomAndPan="magnify"><title>Check Auth for given action</title><defs/><g><g class="header" data-source-line="1"><text fill="#888888" font-family="sans-serif" font-size="10" lengthAdjust="spacing" textLength="36.8604" x="470.8594" y="19.2822">activity</text></g><g class="title" data-source-line="2"><text fill="#000000" font-family="sans-serif" font-size="14" font-weight="bold" lengthAdjust="spacing" textLength="219.1465" x="149.2866" y="45.6357">Check Auth for given action</text></g><ellipse cx="256.5415" cy="69.9375" fill="#222222" rx="10" ry="10" style="stroke:#222222;stroke-width:1;"/><rect fill="#F1F1F1" height="47.9375" rx="12.5" ry="12.5" style="stroke:#181818;stroke-width:0.5;" width="182.2051" x="165.439" y="99.9375"/><text fill="#000000" font-family="sans-serif" font-size="12" lengthAdjust="spacing" textLength="82.7461" x="175.439" y="121.0762">User provides</text><text fill="#000000" font-family="sans-serif" font-size="12" font-weight="bold" lengthAdjust="spacing" textLength="75.6445" x="261.9995" y="121.0762">credentials</text><text fill="#000000" font-family="sans-serif" font-size="12" lengthAdjust="spacing" textLength="46.084" x="175.439" y="135.0449">and the</text><text fill="#000000" font-family="sans-serif" font-size="12" font-weight="bold" lengthAdjust="spacing" textLength="106.418" x="225.3374" y="135.0449">intended action</text><a href="authn-activity.svg" target="_top" title="authn-activity.svg" xlink:actuate="onRequest" xlink:href="authn-activity.svg" xlink:show="new" xlink:title="authn-activity.svg" xlink:type="simple"><rect fill="#FFFF00" height="47.9375" rx="12.5" ry="12.5" style="stroke:#181818;stroke-width:0.5;" width="138.5996" x="187.2417" y="167.875"/><text fill="#000000" font-family="sans-serif" font-size="12" lengthAdjust="spacing" textLength="118.5996" x="197.2417" y="189.0137">Check if credentials</text><text fill="#000000" font-family="sans-serif" font-size="12" lengthAdjust="spacing" textLength="68.3906" x="197.2417" y="202.9824">pass AuthN</text></a><polygon fill="#F1F1F1" points="241.2043,235.8125,271.8787,235.8125,283.8787,247.8125,271.8787,259.8125,241.2043,259.8125,229.2043,247.8125,241.2043,235.8125" style="stroke:#181818;stroke-width:0.5;"/><text fill="#000000" font-family="sans-serif" font-size="11" lengthAdjust="spacing" textLength="30.6743" x="241.2043" y="251.6206">Pass?</text><text fill="#000000" font-family="sans-serif" font-size="11" lengthAdjust="spacing" textLength="19.0083" x="210.196" y="245.2183">yes</text><text fill="#000000" font-family="sans-serif" font-size="11" lengthAdjust="spacing" textLength="13.7017" x="283.8787" y="245.2183">no</text><a href="authz-activity.svg" target="_top" title="authz-activity.svg" xlink:actuate="onRequest" xlink:href="authz-activity.svg" xlink:show="new" xlink:title="authz-activity.svg" xlink:type="simple"><rect fill="#FFFF00" height="47.9375" rx="12.5" ry="12.5" style="stroke:#181818;stroke-width:0.5;" width="101.2695" x="122.4478" y="269.8125"/><text fill="#000000" font-family="sans-serif" font-size="12" lengthAdjust="spacing" textLength="78.2754" x="132.4478" y="290.9512">Check if user</text><text fill="#000000" font-family="sans-serif" font-size="12" lengthAdjust="spacing" textLength="81.2695" x="132.4478" y="304.9199">passes AuthZ</text></a><path d="M10,404.5391 L10,429.6719 A0,0 0 0 0 10,429.6719 L93.4419,429.6719 A0,0 0 0 0 93.4419,429.6719 L93.4419,422.5391 L113.4419,417.1055 L93.4419,414.5391 L93.4419,414.5391 L83.4419,404.5391 L10,404.5391 A0,0 0 0 0 10,404.5391" fill="#FEFFDD" style="stroke:#181818;stroke-width:0.5;"/><path d="M83.4419,404.5391 L83.4419,414.5391 L93.4419,414.5391 L83.4419,404.5391" fill="#FEFFDD" style="stroke:#181818;stroke-width:0.5;"/><text fill="#000000" font-family="sans-serif" font-size="13" lengthAdjust="spacing" textLength="62.4419" x="16" y="421.606">HTTP 403</text><rect fill="#FF0000" height="33.9688" rx="12.5" ry="12.5" style="stroke:#181818;stroke-width:0.5;" width="119.2813" x="113.4419" y="400.1211"/><text fill="#000000" font-family="sans-serif" font-size="12" lengthAdjust="spacing" textLength="99.2813" x="123.4419" y="421.2598">Action forbidden</text><ellipse cx="173.0825" cy="471.0742" fill="none" rx="10" ry="10" style="stroke:#222222;stroke-width:1.5;"/><line style="stroke:#222222;stroke-width:2.5;" x1="166.8953" x2="179.2697" y1="464.887" y2="477.2614"/><line style="stroke:#222222;stroke-width:2.5;" x1="179.2697" x2="166.8953" y1="464.887" y2="477.2614"/><polygon fill="#F1F1F1" points="157.7454,351.7188,188.4197,351.7188,200.4197,363.7188,188.4197,375.7188,157.7454,375.7188,145.7454,363.7188,157.7454,351.7188" style="stroke:#181818;stroke-width:0.5;"/><text fill="#000000" font-family="sans-serif" font-size="11" lengthAdjust="spacing" textLength="13.7017" x="177.0825" y="385.9292">no</text><text fill="#000000" font-family="sans-serif" font-size="11" lengthAdjust="spacing" textLength="30.6743" x="157.7454" y="367.5269">Pass?</text><text fill="#000000" font-family="sans-serif" font-size="11" lengthAdjust="spacing" textLength="19.0083" x="200.4197" y="361.1245">yes</text><path d="M425.2778,274.2305 L425.2778,282.7969 L405.2778,286.7969 L425.2778,290.7969 L425.2778,299.3633 A0,0 0 0 0 425.2778,299.3633 L508.7197,299.3633 A0,0 0 0 0 508.7197,299.3633 L508.7197,284.2305 L498.7197,274.2305 L425.2778,274.2305 A0,0 0 0 0 425.2778,274.2305" fill="#FEFFDD" style="stroke:#181818;stroke-width:0.5;"/><path d="M498.7197,274.2305 L498.7197,284.2305 L508.7197,284.2305 L498.7197,274.2305" fill="#FEFFDD" style="stroke:#181818;stroke-width:0.5;"/><text fill="#000000" font-family="sans-serif" font-size="13" lengthAdjust="spacing" textLength="62.4419" x="431.2778" y="291.2974">HTTP 401</text><rect fill="#FF0000" height="33.9688" rx="12.5" ry="12.5" style="stroke:#181818;stroke-width:0.5;" width="130.5547" x="274.7231" y="269.8125"/><text fill="#000000" font-family="sans-serif" font-size="12" lengthAdjust="spacing" textLength="110.5547" x="284.7231" y="290.9512">User unauthorized</text><ellipse cx="340.0005" cy="347.75" fill="none" rx="10" ry="10" style="stroke:#222222;stroke-width:1.5;"/><line style="stroke:#222222;stroke-width:2.5;" x1="333.8133" x2="346.1877" y1="341.5628" y2="353.9372"/><line style="stroke:#222222;stroke-width:2.5;" x1="346.1877" x2="333.8133" y1="341.5628" y2="353.9372"/><rect fill="#008000" height="47.9375" rx="12.5" ry="12.5" style="stroke:#181818;stroke-width:0.5;" width="137.6152" x="187.7339" y="523.0742"/><text fill="#000000" font-family="sans-serif" font-size="12" lengthAdjust="spacing" textLength="105.5801" x="197.7339" y="544.2129">User passed Auth</text><text fill="#000000" font-family="sans-serif" font-size="12" lengthAdjust="spacing" textLength="117.6152" x="197.7339" y="558.1816">for the given action</text><ellipse cx="256.5415" cy="602.0117" fill="none" rx="11" ry="11" style="stroke:#222222;stroke-width:1;"/><ellipse cx="256.5415" cy="602.0117" fill="#222222" rx="6" ry="6" style="stroke:#222222;stroke-width:1;"/><line style="stroke:#181818;stroke-width:1;" x1="256.5415" x2="256.5415" y1="79.9375" y2="99.9375"/><polygon fill="#181818" points="252.5415,89.9375,256.5415,99.9375,260.5415,89.9375,256.5415,93.9375" style="stroke:#181818;stroke-width:1;"/><line style="stroke:#181818;stroke-width:1;" x1="256.5415" x2="256.5415" y1="147.875" y2="167.875"/><polygon fill="#181818" points="252.5415,157.875,256.5415,167.875,260.5415,157.875,256.5415,161.875" style="stroke:#181818;stroke-width:1;"/><line style="stroke:#181818;stroke-width:1;" x1="173.0825" x2="173.0825" y1="434.0898" y2="461.0742"/><polygon fill="#181818" points="169.0825,451.0742,173.0825,461.0742,177.0825,451.0742,173.0825,455.0742" style="stroke:#181818;stroke-width:1;"/><line style="stroke:#181818;stroke-width:1;" x1="173.0825" x2="173.0825" y1="375.7188" y2="400.1211"/><polygon fill="#181818" points="169.0825,390.1211,173.0825,400.1211,177.0825,390.1211,173.0825,394.1211" style="stroke:#181818;stroke-width:1;"/><line style="stroke:#181818;stroke-width:1;" x1="200.4197" x2="256.5415" y1="363.7188" y2="363.7188"/><polygon fill="#181818" points="252.5415,444.0898,256.5415,454.0898,260.5415,444.0898,256.5415,448.0898" style="stroke:#181818;stroke-width:1;"/><line style="stroke:#181818;stroke-width:1;" x1="256.5415" x2="256.5415" y1="363.7188" y2="523.0742"/><polygon fill="#181818" points="252.5415,513.0742,256.5415,523.0742,260.5415,513.0742,256.5415,517.0742" style="stroke:#181818;stroke-width:1;"/><line style="stroke:#181818;stroke-width:1;" x1="173.0825" x2="173.0825" y1="317.75" y2="351.7188"/><polygon fill="#181818" points="169.0825,341.7188,173.0825,351.7188,177.0825,341.7188,173.0825,345.7188" style="stroke:#181818;stroke-width:1;"/><line style="stroke:#181818;stroke-width:1;" x1="340.0005" x2="340.0005" y1="303.7813" y2="337.75"/><polygon fill="#181818" points="336.0005,327.75,340.0005,337.75,344.0005,327.75,340.0005,331.75" style="stroke:#181818;stroke-width:1;"/><line style="stroke:#181818;stroke-width:1;" x1="229.2043" x2="173.0825" y1="247.8125" y2="247.8125"/><line style="stroke:#181818;stroke-width:1;" x1="173.0825" x2="173.0825" y1="247.8125" y2="269.8125"/><polygon fill="#181818" points="169.0825,259.8125,173.0825,269.8125,177.0825,259.8125,173.0825,263.8125" style="stroke:#181818;stroke-width:1;"/><line style="stroke:#181818;stroke-width:1;" x1="283.8787" x2="340.0005" y1="247.8125" y2="247.8125"/><line style="stroke:#181818;stroke-width:1;" x1="340.0005" x2="340.0005" y1="247.8125" y2="269.8125"/><polygon fill="#181818" points="336.0005,259.8125,340.0005,269.8125,344.0005,259.8125,340.0005,263.8125" style="stroke:#181818;stroke-width:1;"/><line style="stroke:#181818;stroke-width:1;" x1="256.5415" x2="256.5415" y1="215.8125" y2="235.8125"/><polygon fill="#181818" points="252.5415,225.8125,256.5415,235.8125,260.5415,225.8125,256.5415,229.8125" style="stroke:#181818;stroke-width:1;"/><line style="stroke:#181818;stroke-width:1;" x1="256.5415" x2="256.5415" y1="571.0117" y2="591.0117"/><polygon fill="#181818" points="252.5415,581.0117,256.5415,591.0117,260.5415,581.0117,256.5415,585.0117" style="stroke:#181818;stroke-width:1;"/><!--SRC=[XP4zJyGm38Rt_0fBNNgHG22OsW6TM9ZG3SV2SKDet3QYSgh4LzJxzUIZLnq3majaEtxyyVQeD3fG3Pl9y2pOy83mt6Fp1TiJzz1Q1vsPaD8VIq9uLev5zUP3tUZiP3HwaB9ng97OgC5BAHHfu1v3t10ZQTHBlPIrE1nKGDFDfUkjdxhZiPXn6EntbPkR5gw87pGgxzD4hxK8kN8N_ATDx45GpkWt0e9byla_yYdCdf6OeUzrAlyRZ8D7ACbcBreHfgksQQTuf4-Zmx3rcYRBMC7BVh-3nxk7DHnE8PRNjE8tDH7JMKyKrx3Ed55dPCI1CrtFA_J-0X8PLdGEaHPTucewhIQYWb6AQnNheA8TVm00]--></g></svg>