<svg xmlns="http://www.w3.org/2000/svg" xmlns:xlink="http://www.w3.org/1999/xlink" contentStyleType="text/css" data-diagram-type="ACTIVITY" height="589px" preserveAspectRatio="none" style="width:234px;height:589px;background:#FFFFFF;" version="1.1" viewBox="0 0 234 589" width="234px" zoomAndPan="magnify"><title>Export Entry</title><defs/><g><g class="header" data-source-line="1"><text fill="#888888" font-family="sans-serif" font-size="10" lengthAdjust="spacing" textLength="36.8604" x="184.999" y="19.2822">activity</text></g><g class="title" data-source-line="2"><text fill="#000000" font-family="sans-serif" font-size="14" font-weight="bold" lengthAdjust="spacing" textLength="98.957" x="66.4512" y="45.6357">Export Entry</text></g><ellipse cx="112.3652" cy="69.9375" fill="#222222" rx="10" ry="10" style="stroke:#222222;stroke-width:1;"/><a href="auth-activity.svg" target="_top" title="auth-activity.svg" xlink:actuate="onRequest" xlink:href="auth-activity.svg" xlink:show="new" xlink:title="auth-activity.svg" xlink:type="simple"><rect fill="#FFFF00" height="47.9375" rx="12.5" ry="12.5" style="stroke:#181818;stroke-width:0.5;" width="133.4961" x="45.6172" y="99.9375"/><text fill="#000000" font-family="sans-serif" font-size="12" lengthAdjust="spacing" textLength="104.2148" x="55.6172" y="121.0762">User passes Auth</text><text fill="#000000" font-family="sans-serif" font-size="12" lengthAdjust="spacing" textLength="113.4961" x="55.6172" y="135.0449">for exporting entry</text></a><rect fill="#F1F1F1" height="61.9063" rx="12.5" ry="12.5" style="stroke:#181818;stroke-width:0.5;" width="202.7305" x="11" y="167.875"/><text fill="#000000" font-family="sans-serif" font-size="12" lengthAdjust="spacing" textLength="132.3633" x="21" y="189.0137">Check if the entry has</text><text fill="#000000" font-family="sans-serif" font-size="12" lengthAdjust="spacing" textLength="182.7305" x="21" y="202.9824">already been converted to the</text><text fill="#000000" font-family="sans-serif" font-size="12" lengthAdjust="spacing" textLength="147.6387" x="21" y="216.9512">requested format before</text><rect fill="#F1F1F1" height="61.9063" rx="12.5" ry="12.5" style="stroke:#181818;stroke-width:0.5;" width="152.8906" x="35.9199" y="298.1836"/><text fill="#000000" font-family="sans-serif" font-size="12" lengthAdjust="spacing" textLength="132.8906" x="45.9199" y="319.3223">Convert the simplified</text><text fill="#000000" font-family="sans-serif" font-size="12" lengthAdjust="spacing" textLength="120.8555" x="45.9199" y="333.291">entry content to the</text><text fill="#000000" font-family="sans-serif" font-size="12" lengthAdjust="spacing" textLength="104.9414" x="45.9199" y="347.2598">requested format</text><rect fill="#F1F1F1" height="47.9375" rx="12.5" ry="12.5" style="stroke:#181818;stroke-width:0.5;" width="172.9883" x="25.8711" y="390.6055"/><text fill="#000000" font-family="sans-serif" font-size="12" lengthAdjust="spacing" textLength="152.9883" x="35.8711" y="411.7441">Save the converted entry</text><text fill="#000000" font-family="sans-serif" font-size="12" lengthAdjust="spacing" textLength="75.9609" x="35.8711" y="425.7129">file for reuse</text><polygon fill="#F1F1F1" points="41.1284,249.7813,183.6021,249.7813,195.6021,261.7813,183.6021,273.7813,41.1284,273.7813,29.1284,261.7813,41.1284,249.7813" style="stroke:#181818;stroke-width:0.5;"/><text fill="#000000" font-family="sans-serif" font-size="11" lengthAdjust="spacing" textLength="13.7017" x="116.3652" y="283.9917">no</text><text fill="#000000" font-family="sans-serif" font-size="11" lengthAdjust="spacing" textLength="142.4736" x="41.1284" y="265.5894">Converted version exists?</text><text fill="#000000" font-family="sans-serif" font-size="11" lengthAdjust="spacing" textLength="19.0083" x="195.6021" y="259.187">yes</text><polygon fill="#F1F1F1" points="112.3652,458.543,124.3652,470.543,112.3652,482.543,100.3652,470.543,112.3652,458.543" style="stroke:#181818;stroke-width:0.5;"/><rect fill="#008000" height="33.9688" rx="12.5" ry="12.5" style="stroke:#181818;stroke-width:0.5;" width="175.9121" x="24.4092" y="502.543"/><text fill="#000000" font-family="sans-serif" font-size="12" lengthAdjust="spacing" textLength="155.9121" x="34.4092" y="523.6816">Show the converted entry</text><ellipse cx="112.3652" cy="567.5117" fill="none" rx="11" ry="11" style="stroke:#222222;stroke-width:1;"/><ellipse cx="112.3652" cy="567.5117" fill="#222222" rx="6" ry="6" style="stroke:#222222;stroke-width:1;"/><line style="stroke:#181818;stroke-width:1;" x1="112.3652" x2="112.3652" y1="79.9375" y2="99.9375"/><polygon fill="#181818" points="108.3652,89.9375,112.3652,99.9375,116.3652,89.9375,112.3652,93.9375" style="stroke:#181818;stroke-width:1;"/><line style="stroke:#181818;stroke-width:1;" x1="112.3652" x2="112.3652" y1="147.875" y2="167.875"/><polygon fill="#181818" points="108.3652,157.875,112.3652,167.875,116.3652,157.875,112.3652,161.875" style="stroke:#181818;stroke-width:1;"/><line style="stroke:#181818;stroke-width:1;" x1="112.3652" x2="112.3652" y1="360.0898" y2="390.6055"/><polygon fill="#181818" points="108.3652,380.6055,112.3652,390.6055,116.3652,380.6055,112.3652,384.6055" style="stroke:#181818;stroke-width:1;"/><line style="stroke:#181818;stroke-width:1;" x1="112.3652" x2="112.3652" y1="273.7813" y2="298.1836"/><polygon fill="#181818" points="108.3652,288.1836,112.3652,298.1836,116.3652,288.1836,112.3652,292.1836" style="stroke:#181818;stroke-width:1;"/><line style="stroke:#181818;stroke-width:1;" x1="195.6021" x2="208.8594" y1="261.7813" y2="261.7813"/><polygon fill="#181818" points="204.8594,360.6055,208.8594,370.6055,212.8594,360.6055,208.8594,364.6055" style="stroke:#181818;stroke-width:1;"/><line style="stroke:#181818;stroke-width:1;" x1="208.8594" x2="208.8594" y1="261.7813" y2="470.543"/><line style="stroke:#181818;stroke-width:1;" x1="208.8594" x2="124.3652" y1="470.543" y2="470.543"/><polygon fill="#181818" points="134.3652,466.543,124.3652,470.543,134.3652,474.543,130.3652,470.543" style="stroke:#181818;stroke-width:1;"/><line style="stroke:#181818;stroke-width:1;" x1="112.3652" x2="112.3652" y1="438.543" y2="458.543"/><polygon fill="#181818" points="108.3652,448.543,112.3652,458.543,116.3652,448.543,112.3652,452.543" style="stroke:#181818;stroke-width:1;"/><line style="stroke:#181818;stroke-width:1;" x1="112.3652" x2="112.3652" y1="229.7813" y2="249.7813"/><polygon fill="#181818" points="108.3652,239.7813,112.3652,249.7813,116.3652,239.7813,112.3652,243.7813" style="stroke:#181818;stroke-width:1;"/><line style="stroke:#181818;stroke-width:1;" x1="112.3652" x2="112.3652" y1="482.543" y2="502.543"/><polygon fill="#181818" points="108.3652,492.543,112.3652,502.543,116.3652,492.543,112.3652,496.543" style="stroke:#181818;stroke-width:1;"/><line style="stroke:#181818;stroke-width:1;" x1="112.3652" x2="112.3652" y1="536.5117" y2="556.5117"/><polygon fill="#181818" points="108.3652,546.5117,112.3652,556.5117,116.3652,546.5117,112.3652,550.5117" style="stroke:#181818;stroke-width:1;"/><!--SRC=[TL2zJiD03Dxz59Qw90CyG38WLFK9AgRIuKYSdCNrBfoTb7jxd4J00fCjw_kr9zTJHjSfBwm5b3KGdZwdb1LFKNC147LPuN9ni_g7R-IZBEFrUYWKGhetBs8YanCXmMU3lSOXPQHDXkE8j2grq1mzTU_80wgd_OZU2RYGBKV1DwA8NOeBPQKUDQquoFGnawm74xqvDPWjr8BfLCSVj0tX5CsLHUMfNhaHgq9I0mKXh6AgBS9Es188twR00rCFUnZpLjl-SxO6PxVGnlsDkL5XO7lSsZhJB1QEOiy37CPidPgpJ_U_MAqzDqrV]--></g></svg>