<svg xmlns="http://www.w3.org/2000/svg" xmlns:xlink="http://www.w3.org/1999/xlink" contentStyleType="text/css" data-diagram-type="ACTIVITY" height="783.3333px" preserveAspectRatio="none" style="width:918px;height:783px;background:#FFFFFF;" version="1.1" viewBox="0 0 918 783" width="918.75px" zoomAndPan="magnify"><title>Fetch Entry</title><defs/><g><g class="header" data-source-line="2"><text fill="#888888" font-family="sans-serif" font-size="20.8333" lengthAdjust="spacing" textLength="76.7924" x="815.1703" y="40.1713">activity</text></g><g class="title" data-source-line="3"><text fill="#000000" font-family="sans-serif" font-size="29.1667" font-weight="bold" lengthAdjust="spacing" textLength="189.8824" x="361.4568" y="95.0745">Fetch Entry</text></g><ellipse cx="545.4877" cy="145.7031" fill="#222222" rx="20.8333" ry="20.8333" style="stroke:#222222;stroke-width:2.0833;"/><rect fill="#FFFF00" height="99.8698" rx="26.0417" ry="26.0417" style="stroke:#181818;stroke-width:1.0417;" width="236.9548" x="427.0103" y="208.2031"/><text fill="#000000" font-family="sans-serif" font-size="25" lengthAdjust="spacing" textLength="154.3091" x="447.8437" y="252.242">Retrieve the</text><text fill="#000000" font-family="sans-serif" font-size="25" lengthAdjust="spacing" textLength="195.2881" x="447.8437" y="281.3436">entry contents*</text><polygon fill="#F1F1F1" points="439.5093,349.7396,651.4661,349.7396,676.4661,374.7396,651.4661,399.7396,439.5093,399.7396,414.5093,374.7396,439.5093,349.7396" style="stroke:#181818;stroke-width:1.0417;"/><text fill="#000000" font-family="sans-serif" font-size="22.9167" lengthAdjust="spacing" textLength="211.9568" x="439.5093" y="382.6731">Retrieval success?</text><text fill="#000000" font-family="sans-serif" font-size="22.9167" lengthAdjust="spacing" textLength="39.6006" x="374.9087" y="369.3349">yes</text><text fill="#000000" font-family="sans-serif" font-size="22.9167" lengthAdjust="spacing" textLength="28.5451" x="676.4661" y="369.3349">no</text><rect fill="#FFFF00" height="70.7682" rx="26.0417" ry="26.0417" style="stroke:#181818;stroke-width:1.0417;" width="332.4015" x="140.3173" y="420.5729"/><text fill="#000000" font-family="sans-serif" font-size="25" lengthAdjust="spacing" textLength="290.7349" x="161.1506" y="464.6118">Simplify entry content*</text><polygon fill="#F1F1F1" points="174.2269,533.0078,438.8092,533.0078,463.8092,558.0078,438.8092,583.0078,174.2269,583.0078,149.2269,558.0078,174.2269,533.0078" style="stroke:#181818;stroke-width:1.0417;"/><text fill="#000000" font-family="sans-serif" font-size="22.9167" lengthAdjust="spacing" textLength="264.5823" x="174.2269" y="565.9414">Simplification success?</text><text fill="#000000" font-family="sans-serif" font-size="22.9167" lengthAdjust="spacing" textLength="39.6006" x="109.6263" y="552.6031">yes</text><text fill="#000000" font-family="sans-serif" font-size="22.9167" lengthAdjust="spacing" textLength="28.5451" x="463.8092" y="552.6031">no</text><rect fill="#008000" height="70.7682" rx="26.0417" ry="26.0417" style="stroke:#181818;stroke-width:1.0417;" width="210.9538" x="22.9167" y="603.8411"/><text fill="#000000" font-family="sans-serif" font-size="25" lengthAdjust="spacing" textLength="169.2871" x="43.75" y="647.88">Entry fetched</text><ellipse cx="128.3936" cy="739.1927" fill="none" rx="22.9167" ry="22.9167" style="stroke:#222222;stroke-width:2.0833;"/><ellipse cx="128.3936" cy="739.1927" fill="#222222" rx="12.5" ry="12.5" style="stroke:#222222;stroke-width:2.0833;"/><rect fill="#FF0000" height="70.7682" rx="26.0417" ry="26.0417" style="stroke:#181818;stroke-width:1.0417;" width="251.2858" x="358.9996" y="603.8411"/><text fill="#000000" font-family="sans-serif" font-size="25" lengthAdjust="spacing" textLength="209.6191" x="379.833" y="647.88">Conversion error</text><ellipse cx="484.6425" cy="739.1927" fill="none" rx="22.9167" ry="22.9167" style="stroke:#222222;stroke-width:2.0833;"/><ellipse cx="484.6425" cy="739.1927" fill="#222222" rx="12.5" ry="12.5" style="stroke:#222222;stroke-width:2.0833;"/><rect fill="#FF0000" height="70.7682" rx="26.0417" ry="26.0417" style="stroke:#181818;stroke-width:1.0417;" width="223.3439" x="672.7854" y="420.5729"/><text fill="#000000" font-family="sans-serif" font-size="25" lengthAdjust="spacing" textLength="181.6772" x="693.6188" y="464.6118">Retrieval error</text><ellipse cx="784.4574" cy="555.9245" fill="none" rx="22.9167" ry="22.9167" style="stroke:#222222;stroke-width:2.0833;"/><ellipse cx="784.4574" cy="555.9245" fill="#222222" rx="12.5" ry="12.5" style="stroke:#222222;stroke-width:2.0833;"/><line style="stroke:#181818;stroke-width:2.0833;" x1="545.4877" x2="545.4877" y1="166.5365" y2="208.2031"/><polygon fill="#181818" points="537.1544,187.3698,545.4877,208.2031,553.8211,187.3698,545.4877,195.7031" style="stroke:#181818;stroke-width:2.0833;"/><line style="stroke:#181818;stroke-width:2.0833;" x1="128.3936" x2="128.3936" y1="674.6094" y2="716.276"/><polygon fill="#181818" points="120.0602,695.4427,128.3936,716.276,136.7269,695.4427,128.3936,703.776" style="stroke:#181818;stroke-width:2.0833;"/><line style="stroke:#181818;stroke-width:2.0833;" x1="484.6425" x2="484.6425" y1="674.6094" y2="716.276"/><polygon fill="#181818" points="476.3092,695.4427,484.6425,716.276,492.9759,695.4427,484.6425,703.776" style="stroke:#181818;stroke-width:2.0833;"/><line style="stroke:#181818;stroke-width:2.0833;" x1="149.2269" x2="128.3936" y1="558.0078" y2="558.0078"/><line style="stroke:#181818;stroke-width:2.0833;" x1="128.3936" x2="128.3936" y1="558.0078" y2="603.8411"/><polygon fill="#181818" points="120.0602,583.0078,128.3936,603.8411,136.7269,583.0078,128.3936,591.3411" style="stroke:#181818;stroke-width:2.0833;"/><line style="stroke:#181818;stroke-width:2.0833;" x1="463.8092" x2="484.6425" y1="558.0078" y2="558.0078"/><line style="stroke:#181818;stroke-width:2.0833;" x1="484.6425" x2="484.6425" y1="558.0078" y2="603.8411"/><polygon fill="#181818" points="476.3092,583.0078,484.6425,603.8411,492.9759,583.0078,484.6425,591.3411" style="stroke:#181818;stroke-width:2.0833;"/><line style="stroke:#181818;stroke-width:2.0833;" x1="306.518" x2="306.518" y1="491.3411" y2="533.0078"/><polygon fill="#181818" points="298.1847,512.1745,306.518,533.0078,314.8514,512.1745,306.518,520.5078" style="stroke:#181818;stroke-width:2.0833;"/><line style="stroke:#181818;stroke-width:2.0833;" x1="784.4574" x2="784.4574" y1="491.3411" y2="533.0078"/><polygon fill="#181818" points="776.1241,512.1745,784.4574,533.0078,792.7907,512.1745,784.4574,520.5078" style="stroke:#181818;stroke-width:2.0833;"/><line style="stroke:#181818;stroke-width:2.0833;" x1="414.5093" x2="306.518" y1="374.7396" y2="374.7396"/><line style="stroke:#181818;stroke-width:2.0833;" x1="306.518" x2="306.518" y1="374.7396" y2="420.5729"/><polygon fill="#181818" points="298.1847,399.7396,306.518,420.5729,314.8514,399.7396,306.518,408.0729" style="stroke:#181818;stroke-width:2.0833;"/><line style="stroke:#181818;stroke-width:2.0833;" x1="676.4661" x2="784.4574" y1="374.7396" y2="374.7396"/><line style="stroke:#181818;stroke-width:2.0833;" x1="784.4574" x2="784.4574" y1="374.7396" y2="420.5729"/><polygon fill="#181818" points="776.1241,399.7396,784.4574,420.5729,792.7907,399.7396,784.4574,408.0729" style="stroke:#181818;stroke-width:2.0833;"/><line style="stroke:#181818;stroke-width:2.0833;" x1="545.4877" x2="545.4877" y1="308.0729" y2="349.7396"/><polygon fill="#181818" points="537.1544,328.9063,545.4877,349.7396,553.8211,328.9063,545.4877,337.2396" style="stroke:#181818;stroke-width:2.0833;"/><!--SRC=[TO_1JWCX48RlFCKaNhQU6e_RWmUZ3s2VWC2_xaGAcvbn3M_lGjhQ9ie9mlTzCFh9UV7YJnGNfgVztitm4K8-6AzirHbR0ht1maolsQGwf-R5t4D5IkLxV8S9OmNP38T6K2ZPjfq-7XnFD9m9dqY_Ge3gywx1cOOAtJdQrYLsvDEIUAfq5zew3MgjCy316vVyVx17FmJ8O_yrJMq2nCFrLgqi_O2ae26N6r4GnvUILuYsLo1Iv2ypHvxSlT_TtublrAvrvGS0]--></g></svg>