<svg xmlns="http://www.w3.org/2000/svg" xmlns:xlink="http://www.w3.org/1999/xlink" contentStyleType="text/css" data-diagram-type="ACTIVITY" height="376px" preserveAspectRatio="none" style="width:441px;height:376px;background:#FFFFFF;" version="1.1" viewBox="0 0 441 376" width="441px" zoomAndPan="magnify"><title>Fetch Entry</title><defs/><g><g class="header" data-source-line="1"><text fill="#888888" font-family="sans-serif" font-size="10" lengthAdjust="spacing" textLength="36.8604" x="391.2817" y="19.2822">activity</text></g><g class="title" data-source-line="2"><text fill="#000000" font-family="sans-serif" font-size="14" font-weight="bold" lengthAdjust="spacing" textLength="91.1436" x="173.4993" y="45.6357">Fetch Entry</text></g><ellipse cx="261.8341" cy="69.9375" fill="#222222" rx="10" ry="10" style="stroke:#222222;stroke-width:1;"/><rect fill="#FFFF00" height="47.9375" rx="12.5" ry="12.5" style="stroke:#181818;stroke-width:0.5;" width="113.7383" x="204.965" y="99.9375"/><text fill="#000000" font-family="sans-serif" font-size="12" lengthAdjust="spacing" textLength="74.0684" x="214.965" y="121.0762">Retrieve the</text><text fill="#000000" font-family="sans-serif" font-size="12" lengthAdjust="spacing" textLength="93.7383" x="214.965" y="135.0449">entry contents*</text><polygon fill="#F1F1F1" points="210.9645,167.875,312.7037,167.875,324.7037,179.875,312.7037,191.875,210.9645,191.875,198.9645,179.875,210.9645,167.875" style="stroke:#181818;stroke-width:0.5;"/><text fill="#000000" font-family="sans-serif" font-size="11" lengthAdjust="spacing" textLength="101.7393" x="210.9645" y="183.6831">Retrieval success?</text><text fill="#000000" font-family="sans-serif" font-size="11" lengthAdjust="spacing" textLength="19.0083" x="179.9562" y="177.2808">yes</text><text fill="#000000" font-family="sans-serif" font-size="11" lengthAdjust="spacing" textLength="13.7017" x="324.7037" y="177.2808">no</text><rect fill="#FFFF00" height="33.9688" rx="12.5" ry="12.5" style="stroke:#181818;stroke-width:0.5;" width="159.5527" x="67.3523" y="201.875"/><text fill="#000000" font-family="sans-serif" font-size="12" lengthAdjust="spacing" textLength="139.5527" x="77.3523" y="223.0137">Simplify entry content*</text><polygon fill="#F1F1F1" points="83.6289,255.8438,210.6284,255.8438,222.6284,267.8438,210.6284,279.8438,83.6289,279.8438,71.6289,267.8438,83.6289,255.8438" style="stroke:#181818;stroke-width:0.5;"/><text fill="#000000" font-family="sans-serif" font-size="11" lengthAdjust="spacing" textLength="126.9995" x="83.6289" y="271.6519">Simplification success?</text><text fill="#000000" font-family="sans-serif" font-size="11" lengthAdjust="spacing" textLength="19.0083" x="52.6206" y="265.2495">yes</text><text fill="#000000" font-family="sans-serif" font-size="11" lengthAdjust="spacing" textLength="13.7017" x="222.6284" y="265.2495">no</text><rect fill="#008000" height="33.9688" rx="12.5" ry="12.5" style="stroke:#181818;stroke-width:0.5;" width="101.2578" x="11" y="289.8438"/><text fill="#000000" font-family="sans-serif" font-size="12" lengthAdjust="spacing" textLength="81.2578" x="21" y="310.9824">Entry fetched</text><ellipse cx="61.6289" cy="354.8125" fill="none" rx="11" ry="11" style="stroke:#222222;stroke-width:1;"/><ellipse cx="61.6289" cy="354.8125" fill="#222222" rx="6" ry="6" style="stroke:#222222;stroke-width:1;"/><rect fill="#FF0000" height="33.9688" rx="12.5" ry="12.5" style="stroke:#181818;stroke-width:0.5;" width="120.6172" x="172.3198" y="289.8438"/><text fill="#000000" font-family="sans-serif" font-size="12" lengthAdjust="spacing" textLength="100.6172" x="182.3198" y="310.9824">Conversion error</text><ellipse cx="232.6284" cy="354.8125" fill="none" rx="11" ry="11" style="stroke:#222222;stroke-width:1;"/><ellipse cx="232.6284" cy="354.8125" fill="#222222" rx="6" ry="6" style="stroke:#222222;stroke-width:1;"/><rect fill="#FF0000" height="33.9688" rx="12.5" ry="12.5" style="stroke:#181818;stroke-width:0.5;" width="107.2051" x="322.937" y="201.875"/><text fill="#000000" font-family="sans-serif" font-size="12" lengthAdjust="spacing" textLength="87.2051" x="332.937" y="223.0137">Retrieval error</text><ellipse cx="376.5396" cy="266.8438" fill="none" rx="11" ry="11" style="stroke:#222222;stroke-width:1;"/><ellipse cx="376.5396" cy="266.8438" fill="#222222" rx="6" ry="6" style="stroke:#222222;stroke-width:1;"/><line style="stroke:#181818;stroke-width:1;" x1="261.8341" x2="261.8341" y1="79.9375" y2="99.9375"/><polygon fill="#181818" points="257.8341,89.9375,261.8341,99.9375,265.8341,89.9375,261.8341,93.9375" style="stroke:#181818;stroke-width:1;"/><line style="stroke:#181818;stroke-width:1;" x1="61.6289" x2="61.6289" y1="323.8125" y2="343.8125"/><polygon fill="#181818" points="57.6289,333.8125,61.6289,343.8125,65.6289,333.8125,61.6289,337.8125" style="stroke:#181818;stroke-width:1;"/><line style="stroke:#181818;stroke-width:1;" x1="232.6284" x2="232.6284" y1="323.8125" y2="343.8125"/><polygon fill="#181818" points="228.6284,333.8125,232.6284,343.8125,236.6284,333.8125,232.6284,337.8125" style="stroke:#181818;stroke-width:1;"/><line style="stroke:#181818;stroke-width:1;" x1="71.6289" x2="61.6289" y1="267.8438" y2="267.8438"/><line style="stroke:#181818;stroke-width:1;" x1="61.6289" x2="61.6289" y1="267.8438" y2="289.8438"/><polygon fill="#181818" points="57.6289,279.8438,61.6289,289.8438,65.6289,279.8438,61.6289,283.8438" style="stroke:#181818;stroke-width:1;"/><line style="stroke:#181818;stroke-width:1;" x1="222.6284" x2="232.6284" y1="267.8438" y2="267.8438"/><line style="stroke:#181818;stroke-width:1;" x1="232.6284" x2="232.6284" y1="267.8438" y2="289.8438"/><polygon fill="#181818" points="228.6284,279.8438,232.6284,289.8438,236.6284,279.8438,232.6284,283.8438" style="stroke:#181818;stroke-width:1;"/><line style="stroke:#181818;stroke-width:1;" x1="147.1287" x2="147.1287" y1="235.8438" y2="255.8438"/><polygon fill="#181818" points="143.1287,245.8438,147.1287,255.8438,151.1287,245.8438,147.1287,249.8438" style="stroke:#181818;stroke-width:1;"/><line style="stroke:#181818;stroke-width:1;" x1="376.5396" x2="376.5396" y1="235.8438" y2="255.8438"/><polygon fill="#181818" points="372.5396,245.8438,376.5396,255.8438,380.5396,245.8438,376.5396,249.8438" style="stroke:#181818;stroke-width:1;"/><line style="stroke:#181818;stroke-width:1;" x1="198.9645" x2="147.1287" y1="179.875" y2="179.875"/><line style="stroke:#181818;stroke-width:1;" x1="147.1287" x2="147.1287" y1="179.875" y2="201.875"/><polygon fill="#181818" points="143.1287,191.875,147.1287,201.875,151.1287,191.875,147.1287,195.875" style="stroke:#181818;stroke-width:1;"/><line style="stroke:#181818;stroke-width:1;" x1="324.7037" x2="376.5396" y1="179.875" y2="179.875"/><line style="stroke:#181818;stroke-width:1;" x1="376.5396" x2="376.5396" y1="179.875" y2="201.875"/><polygon fill="#181818" points="372.5396,191.875,376.5396,201.875,380.5396,191.875,376.5396,195.875" style="stroke:#181818;stroke-width:1;"/><line style="stroke:#181818;stroke-width:1;" x1="261.8341" x2="261.8341" y1="147.875" y2="167.875"/><polygon fill="#181818" points="257.8341,157.875,261.8341,167.875,265.8341,157.875,261.8341,161.875" style="stroke:#181818;stroke-width:1;"/><!--SRC=[TOzDZW8X44RtdA8IDwr7Q1SkZ7E0yGI4_jgk1C5KbJtXzjCGVnDb1U6z1pN13n3omNXcAyxO8kW75YOw99FYd9eNSwk26FDV_miJnWoo2GwLe92JBJlTR1sFrDq87qcl8K1rjwvmegv0ruwMTOyT-No9F1Pw2osT2jNM3U3WZNFw7cpHam2fRx-ciKw0OVkuLSkNTa1KK9VoYoWO-drECqJhAn39yibC0u_ktM_kS-8NjMbD-GS0]--></g></svg>