<svg xmlns="http://www.w3.org/2000/svg" xmlns:xlink="http://www.w3.org/1999/xlink" contentStyleType="text/css" data-diagram-type="ACTIVITY" height="910px" preserveAspectRatio="none" style="width:279px;height:910px;background:#FFFFFF;" version="1.1" viewBox="0 0 279 910" width="279px" zoomAndPan="magnify"><title>Import From Wallabag</title><defs/><g><g class="header" data-source-line="1"><text fill="#888888" font-family="sans-serif" font-size="10" lengthAdjust="spacing" textLength="36.8604" x="229.6768" y="19.2822">activity</text></g><g class="title" data-source-line="2"><text fill="#000000" font-family="sans-serif" font-size="14" font-weight="bold" lengthAdjust="spacing" textLength="176.8799" x="49.8286" y="45.6357">Import From Wallabag</text></g><ellipse cx="136.6992" cy="69.9375" fill="#222222" rx="10" ry="10" style="stroke:#222222;stroke-width:1;"/><a href="auth-activity.svg" target="_top" title="auth-activity.svg" xlink:actuate="onRequest" xlink:href="auth-activity.svg" xlink:show="new" xlink:title="auth-activity.svg" xlink:type="simple"><rect fill="#FFFF00" height="47.9375" rx="12.5" ry="12.5" style="stroke:#181818;stroke-width:0.5;" width="125.3867" x="74.0059" y="99.9375"/><text fill="#000000" font-family="sans-serif" font-size="12" lengthAdjust="spacing" textLength="104.2148" x="84.0059" y="121.0762">User passes Auth</text><text fill="#000000" font-family="sans-serif" font-size="12" lengthAdjust="spacing" textLength="105.3867" x="84.0059" y="135.0449">for creating entry</text></a><rect fill="#F1F1F1" height="47.9375" rx="12.5" ry="12.5" style="stroke:#181818;stroke-width:0.5;" width="227.498" x="22.9502" y="167.875"/><text fill="#000000" font-family="sans-serif" font-size="12" lengthAdjust="spacing" textLength="157.9395" x="32.9502" y="189.0137">User Provides a link to the</text><text fill="#000000" font-family="sans-serif" font-size="12" lengthAdjust="spacing" textLength="207.498" x="32.9502" y="202.9824">Wallabag API and credentials for it</text><rect fill="#F1F1F1" height="47.9375" rx="12.5" ry="12.5" style="stroke:#181818;stroke-width:0.5;" width="251.3984" x="11" y="235.8125"/><text fill="#000000" font-family="sans-serif" font-size="12" lengthAdjust="spacing" textLength="231.3984" x="21" y="256.9512">Check if provided credentials are valid</text><text fill="#000000" font-family="sans-serif" font-size="12" lengthAdjust="spacing" textLength="211.0605" x="21" y="270.9199">for the provided Wallabag instance</text><rect fill="#FF0000" height="33.9688" rx="12.5" ry="12.5" style="stroke:#181818;stroke-width:0.5;" width="129.1543" x="72.1221" y="352.1523"/><text fill="#000000" font-family="sans-serif" font-size="12" lengthAdjust="spacing" textLength="109.1543" x="82.1221" y="373.291">Show import error</text><ellipse cx="136.6992" cy="423.6367" fill="none" rx="10" ry="10" style="stroke:#222222;stroke-width:1.5;"/><line style="stroke:#222222;stroke-width:2.5;" x1="130.512" x2="142.8864" y1="417.4495" y2="429.8239"/><line style="stroke:#222222;stroke-width:2.5;" x1="142.8864" x2="130.512" y1="417.4495" y2="429.8239"/><polygon fill="#F1F1F1" points="87.5645,303.75,185.834,303.75,197.834,315.75,185.834,327.75,87.5645,327.75,75.5645,315.75,87.5645,303.75" style="stroke:#181818;stroke-width:0.5;"/><text fill="#000000" font-family="sans-serif" font-size="11" lengthAdjust="spacing" textLength="13.7017" x="140.6992" y="337.9604">no</text><text fill="#000000" font-family="sans-serif" font-size="11" lengthAdjust="spacing" textLength="98.2695" x="87.5645" y="319.5581">Credentials valid?</text><text fill="#000000" font-family="sans-serif" font-size="11" lengthAdjust="spacing" textLength="19.0083" x="197.834" y="313.1558">yes</text><rect fill="#F1F1F1" height="33.9688" rx="12.5" ry="12.5" style="stroke:#181818;stroke-width:0.5;" width="178.4434" x="47.4775" y="475.6367"/><text fill="#000000" font-family="sans-serif" font-size="12" lengthAdjust="spacing" textLength="158.4434" x="57.4775" y="496.7754">Get entries from Wallabag</text><rect fill="#F1F1F1" height="47.9375" rx="12.5" ry="12.5" style="stroke:#181818;stroke-width:0.5;" width="133.4668" x="69.9658" y="573.6055"/><text fill="#000000" font-family="sans-serif" font-size="12" lengthAdjust="spacing" textLength="102.7324" x="79.9658" y="594.7441">Compute hash of</text><text fill="#000000" font-family="sans-serif" font-size="12" lengthAdjust="spacing" textLength="113.4668" x="79.9658" y="608.7129">the next entry URL</text><rect fill="#F1F1F1" height="47.9375" rx="12.5" ry="12.5" style="stroke:#181818;stroke-width:0.5;" width="165.6758" x="53.8613" y="689.9453"/><text fill="#000000" font-family="sans-serif" font-size="12" lengthAdjust="spacing" textLength="102.7207" x="63.8613" y="711.084">Save the content</text><text fill="#000000" font-family="sans-serif" font-size="12" lengthAdjust="spacing" textLength="145.6758" x="63.8613" y="725.0527">from the imported entry</text><polygon fill="#F1F1F1" points="61.187,641.543,212.2114,641.543,224.2114,653.543,212.2114,665.543,61.187,665.543,49.187,653.543,61.187,641.543" style="stroke:#181818;stroke-width:0.5;"/><text fill="#000000" font-family="sans-serif" font-size="11" lengthAdjust="spacing" textLength="13.7017" x="140.6992" y="675.7534">no</text><text fill="#000000" font-family="sans-serif" font-size="11" lengthAdjust="spacing" textLength="151.0244" x="61.187" y="657.3511">Entry with this hash exists?</text><text fill="#000000" font-family="sans-serif" font-size="11" lengthAdjust="spacing" textLength="19.0083" x="224.2114" y="650.9487">yes</text><polygon fill="#F1F1F1" points="136.6992,757.8828,148.6992,769.8828,136.6992,781.8828,124.6992,769.8828,136.6992,757.8828" style="stroke:#181818;stroke-width:0.5;"/><polygon fill="#F1F1F1" points="93.4888,529.6055,179.9097,529.6055,191.9097,541.6055,179.9097,553.6055,93.4888,553.6055,81.4888,541.6055,93.4888,529.6055" style="stroke:#181818;stroke-width:0.5;"/><text fill="#000000" font-family="sans-serif" font-size="11" lengthAdjust="spacing" textLength="86.4209" x="93.4888" y="545.4136">Entries remain?</text><rect fill="#008000" height="33.9688" rx="12.5" ry="12.5" style="stroke:#181818;stroke-width:0.5;" width="156.2246" x="58.5869" y="823.8828"/><text fill="#000000" font-family="sans-serif" font-size="12" lengthAdjust="spacing" textLength="136.2246" x="68.5869" y="845.0215">Show imported entries</text><ellipse cx="136.6992" cy="888.8516" fill="none" rx="11" ry="11" style="stroke:#222222;stroke-width:1;"/><ellipse cx="136.6992" cy="888.8516" fill="#222222" rx="6" ry="6" style="stroke:#222222;stroke-width:1;"/><line style="stroke:#181818;stroke-width:1;" x1="136.6992" x2="136.6992" y1="79.9375" y2="99.9375"/><polygon fill="#181818" points="132.6992,89.9375,136.6992,99.9375,140.6992,89.9375,136.6992,93.9375" style="stroke:#181818;stroke-width:1;"/><line style="stroke:#181818;stroke-width:1;" x1="136.6992" x2="136.6992" y1="147.875" y2="167.875"/><polygon fill="#181818" points="132.6992,157.875,136.6992,167.875,140.6992,157.875,136.6992,161.875" style="stroke:#181818;stroke-width:1;"/><line style="stroke:#181818;stroke-width:1;" x1="136.6992" x2="136.6992" y1="215.8125" y2="235.8125"/><polygon fill="#181818" points="132.6992,225.8125,136.6992,235.8125,140.6992,225.8125,136.6992,229.8125" style="stroke:#181818;stroke-width:1;"/><line style="stroke:#181818;stroke-width:1;" x1="136.6992" x2="136.6992" y1="386.1211" y2="413.6367"/><polygon fill="#181818" points="132.6992,403.6367,136.6992,413.6367,140.6992,403.6367,136.6992,407.6367" style="stroke:#181818;stroke-width:1;"/><line style="stroke:#181818;stroke-width:1;" x1="136.6992" x2="136.6992" y1="327.75" y2="352.1523"/><polygon fill="#181818" points="132.6992,342.1523,136.6992,352.1523,140.6992,342.1523,136.6992,346.1523" style="stroke:#181818;stroke-width:1;"/><line style="stroke:#181818;stroke-width:1;" x1="197.834" x2="211.2764" y1="315.75" y2="315.75"/><polygon fill="#181818" points="207.2764,383.6367,211.2764,393.6367,215.2764,383.6367,211.2764,387.6367" style="stroke:#181818;stroke-width:1;"/><line style="stroke:#181818;stroke-width:1;" x1="211.2764" x2="211.2764" y1="315.75" y2="455.6367"/><line style="stroke:#181818;stroke-width:1;" x1="211.2764" x2="136.6992" y1="455.6367" y2="455.6367"/><line style="stroke:#181818;stroke-width:1;" x1="136.6992" x2="136.6992" y1="455.6367" y2="475.6367"/><polygon fill="#181818" points="132.6992,465.6367,136.6992,475.6367,140.6992,465.6367,136.6992,469.6367" style="stroke:#181818;stroke-width:1;"/><line style="stroke:#181818;stroke-width:1;" x1="136.6992" x2="136.6992" y1="283.75" y2="303.75"/><polygon fill="#181818" points="132.6992,293.75,136.6992,303.75,140.6992,293.75,136.6992,297.75" style="stroke:#181818;stroke-width:1;"/><line style="stroke:#181818;stroke-width:1;" x1="136.6992" x2="136.6992" y1="665.543" y2="689.9453"/><polygon fill="#181818" points="132.6992,679.9453,136.6992,689.9453,140.6992,679.9453,136.6992,683.9453" style="stroke:#181818;stroke-width:1;"/><line style="stroke:#181818;stroke-width:1;" x1="224.2114" x2="236.2114" y1="653.543" y2="653.543"/><polygon fill="#181818" points="232.2114,703.9141,236.2114,713.9141,240.2114,703.9141,236.2114,707.9141" style="stroke:#181818;stroke-width:1;"/><line style="stroke:#181818;stroke-width:1;" x1="236.2114" x2="236.2114" y1="653.543" y2="769.8828"/><line style="stroke:#181818;stroke-width:1;" x1="236.2114" x2="148.6992" y1="769.8828" y2="769.8828"/><polygon fill="#181818" points="158.6992,765.8828,148.6992,769.8828,158.6992,773.8828,154.6992,769.8828" style="stroke:#181818;stroke-width:1;"/><line style="stroke:#181818;stroke-width:1;" x1="136.6992" x2="136.6992" y1="737.8828" y2="757.8828"/><polygon fill="#181818" points="132.6992,747.8828,136.6992,757.8828,140.6992,747.8828,136.6992,751.8828" style="stroke:#181818;stroke-width:1;"/><line style="stroke:#181818;stroke-width:1;" x1="136.6992" x2="136.6992" y1="621.543" y2="641.543"/><polygon fill="#181818" points="132.6992,631.543,136.6992,641.543,140.6992,631.543,136.6992,635.543" style="stroke:#181818;stroke-width:1;"/><line style="stroke:#181818;stroke-width:1;" x1="136.6992" x2="136.6992" y1="553.6055" y2="573.6055"/><polygon fill="#181818" points="132.6992,563.6055,136.6992,573.6055,140.6992,563.6055,136.6992,567.6055" style="stroke:#181818;stroke-width:1;"/><line style="stroke:#181818;stroke-width:1;" x1="136.6992" x2="136.6992" y1="781.8828" y2="791.8828"/><line style="stroke:#181818;stroke-width:1;" x1="136.6992" x2="253.5371" y1="791.8828" y2="791.8828"/><polygon fill="#181818" points="249.5371,670.4453,253.5371,660.4453,257.5371,670.4453,253.5371,666.4453" style="stroke:#181818;stroke-width:1;"/><line style="stroke:#181818;stroke-width:1;" x1="253.5371" x2="253.5371" y1="541.6055" y2="791.8828"/><line style="stroke:#181818;stroke-width:1;" x1="253.5371" x2="191.9097" y1="541.6055" y2="541.6055"/><polygon fill="#181818" points="201.9097,537.6055,191.9097,541.6055,201.9097,545.6055,197.9097,541.6055" style="stroke:#181818;stroke-width:1;"/><line style="stroke:#181818;stroke-width:1;" x1="81.4888" x2="31.8613" y1="541.6055" y2="541.6055"/><polygon fill="#181818" points="27.8613,656.4453,31.8613,666.4453,35.8613,656.4453,31.8613,660.4453" style="stroke:#181818;stroke-width:1;"/><line style="stroke:#181818;stroke-width:1;" x1="31.8613" x2="31.8613" y1="541.6055" y2="803.8828"/><line style="stroke:#181818;stroke-width:1;" x1="31.8613" x2="136.6992" y1="803.8828" y2="803.8828"/><line style="stroke:#181818;stroke-width:1;" x1="136.6992" x2="136.6992" y1="803.8828" y2="823.8828"/><polygon fill="#181818" points="132.6992,813.8828,136.6992,823.8828,140.6992,813.8828,136.6992,817.8828" style="stroke:#181818;stroke-width:1;"/><line style="stroke:#181818;stroke-width:1;" x1="136.6992" x2="136.6992" y1="509.6055" y2="529.6055"/><polygon fill="#181818" points="132.6992,519.6055,136.6992,529.6055,140.6992,519.6055,136.6992,523.6055" style="stroke:#181818;stroke-width:1;"/><line style="stroke:#181818;stroke-width:1;" x1="136.6992" x2="136.6992" y1="857.8516" y2="877.8516"/><polygon fill="#181818" points="132.6992,867.8516,136.6992,877.8516,140.6992,867.8516,136.6992,871.8516" style="stroke:#181818;stroke-width:1;"/><!--SRC=[LPB1Ri8m38RlUGfBNE2mFG0z88JOXBG36a8xC0vUwnABa5I9AVJjvwQmGQNq4F__RtzkBM554R0KRbaw8ooEO7LgGXHuY-44N-WS_k31c2GOnUnsU1RxSdUyflQmtuywSYvSfjkaOGscH0dcAllsTOXGHa9XVm3o4hl23B9r32rNAaHmx8yW0SIIkVU3-Ne5wAlUNQcHqINeqrWqOM6fF0BNq0mfppAC12qwhanlqDH_sLyyU-Nn9HL6KyQB1tTspYQzpyEuepGnv1B1s8U90Nr6AfvkRBW03ukY64CiSeryPVHmRSpqdIGZiqBMZxiiZBbOraMFbxTof1EodmtvqqKuDMSXi9WiX3fVzXIUhaDY1zlFZw5XF_qoNrrOhCeu3JwwSfBqp94dV6B9_JROKcvG1Y-Q_rV9K_U50LJtT_k4DrJ5r7TcCQD39FAFUxd9bQ_GdoSqlm00]--></g></svg>