<svg xmlns="http://www.w3.org/2000/svg" xmlns:xlink="http://www.w3.org/1999/xlink" contentStyleType="text/css" data-diagram-type="MINDMAP" height="795px" preserveAspectRatio="none" style="width:769px;height:795px;background:#FFFFFF;" version="1.1" viewBox="0 0 769 795" width="769px" zoomAndPan="magnify"><title>RBAC Permissions Hierarchy</title><defs/><g><g class="header" data-source-line="1"><text fill="#888888" font-family="sans-serif" font-size="10" lengthAdjust="spacing" textLength="47.4219" x="708.9219" y="19.2822">mindmap</text></g><g class="title" data-source-line="2"><text fill="#000000" font-family="sans-serif" font-size="14" font-weight="bold" lengthAdjust="spacing" textLength="224.3965" x="270.9736" y="45.6357">RBAC Permissions Hierarchy</text></g><rect fill="#DAA520" height="36.2969" rx="12.5" ry="12.5" style="stroke:#181818;stroke-width:1.5;" width="103.5488" x="10" y="403.4609"/><text fill="#000000" font-family="sans-serif" font-size="14" lengthAdjust="spacing" textLength="83.5488" x="20" y="426.4561">Permissions</text><rect fill="#87CEFA" height="78.8906" rx="12.5" ry="12.5" style="stroke:#181818;stroke-width:1.5;" width="173.7607" x="163.5488" y="106.2344"/><text fill="#000000" font-family="sans-serif" font-size="14" lengthAdjust="spacing" textLength="44.8643" x="173.5488" y="129.2295">Admin</text><line style="stroke:#181818;stroke-width:1;" x1="163.5488" x2="337.3096" y1="137.5313" y2="137.5313"/><text fill="#000000" font-family="sans-serif" font-size="14" lengthAdjust="spacing" textLength="143.3633" x="173.5488" y="155.5264">Administrative tasks</text><text fill="#000000" font-family="sans-serif" font-size="14" lengthAdjust="spacing" textLength="153.7607" x="173.5488" y="171.8232">not related to content</text><rect fill="#F08080" height="36.2969" rx="12.5" ry="12.5" style="stroke:#181818;stroke-width:1.5;" width="59.2041" x="387.3096" y="127.5313"/><text fill="#000000" font-family="sans-serif" font-size="14" lengthAdjust="spacing" textLength="39.2041" x="397.3096" y="150.5264">Users</text><rect fill="#EEE8AA" height="36.2969" rx="12.5" ry="12.5" style="stroke:#181818;stroke-width:1.5;" width="75.6104" x="496.5137" y="69.9375"/><text fill="#000000" font-family="sans-serif" font-size="14" lengthAdjust="spacing" textLength="55.6104" x="506.5137" y="92.9326">Manage</text><path d="M446.5137,145.6797 L456.5137,145.6797 C471.5137,145.6797 471.5137,88.0859 486.5137,88.0859 L496.5137,88.0859" fill="none" style="stroke:#181818;stroke-width:1;"/><rect fill="#EEE8AA" height="95.1875" rx="12.5" ry="12.5" style="stroke:#181818;stroke-width:1.5;" width="170.0215" x="496.5137" y="126.2344"/><text fill="#000000" font-family="sans-serif" font-size="14" lengthAdjust="spacing" textLength="143.0762" x="506.5137" y="149.2295">ChangeAdminStatus</text><line style="stroke:#181818;stroke-width:1;" x1="496.5137" x2="666.5352" y1="157.5313" y2="157.5313"/><text fill="#000000" font-family="sans-serif" font-size="14" lengthAdjust="spacing" textLength="146.5693" x="506.5137" y="175.5264">Allows to change the</text><text fill="#000000" font-family="sans-serif" font-size="14" lengthAdjust="spacing" textLength="150.0215" x="506.5137" y="191.8232">user admin status for</text><text fill="#000000" font-family="sans-serif" font-size="14" lengthAdjust="spacing" textLength="79.5771" x="506.5137" y="208.1201">other users</text><path d="M446.5137,145.6797 L456.5137,145.6797 C471.5137,145.6797 471.5137,173.8281 486.5137,173.8281 L496.5137,173.8281" fill="none" style="stroke:#181818;stroke-width:1;"/><path d="M337.3096,145.6797 L347.3096,145.6797 C362.3096,145.6797 362.3096,145.6797 377.3096,145.6797 L387.3096,145.6797" fill="none" style="stroke:#181818;stroke-width:1;"/><path d="M113.5488,421.6094 L123.5488,421.6094 C138.5488,421.6094 138.5488,145.6797 153.5488,145.6797 L163.5488,145.6797" fill="none" style="stroke:#181818;stroke-width:1;"/><rect fill="#87CEFA" height="36.2969" rx="12.5" ry="12.5" style="stroke:#181818;stroke-width:1.5;" width="59.2041" x="163.5488" y="241.4219"/><text fill="#000000" font-family="sans-serif" font-size="14" lengthAdjust="spacing" textLength="39.2041" x="173.5488" y="264.417">Users</text><rect fill="#F08080" height="36.2969" rx="12.5" ry="12.5" style="stroke:#181818;stroke-width:1.5;" width="46.3184" x="272.7529" y="241.4219"/><text fill="#000000" font-family="sans-serif" font-size="14" lengthAdjust="spacing" textLength="26.3184" x="282.7529" y="264.417">Self</text><rect fill="#EEE8AA" height="36.2969" rx="12.5" ry="12.5" style="stroke:#181818;stroke-width:1.5;" width="93.3975" x="369.0713" y="241.4219"/><text fill="#000000" font-family="sans-serif" font-size="14" lengthAdjust="spacing" textLength="73.3975" x="379.0713" y="264.417">ReadWrite</text><path d="M319.0713,259.5703 L329.0713,259.5703 C344.0713,259.5703 344.0713,259.5703 359.0713,259.5703 L369.0713,259.5703" fill="none" style="stroke:#181818;stroke-width:1;"/><path d="M222.7529,259.5703 L232.7529,259.5703 C247.7529,259.5703 247.7529,259.5703 262.7529,259.5703 L272.7529,259.5703" fill="none" style="stroke:#181818;stroke-width:1;"/><path d="M113.5488,421.6094 L123.5488,421.6094 C138.5488,421.6094 138.5488,259.5703 153.5488,259.5703 L163.5488,259.5703" fill="none" style="stroke:#181818;stroke-width:1;"/><rect fill="#87CEFA" height="36.2969" rx="12.5" ry="12.5" style="stroke:#181818;stroke-width:1.5;" width="68.7607" x="163.5488" y="410.3125"/><text fill="#000000" font-family="sans-serif" font-size="14" lengthAdjust="spacing" textLength="48.7607" x="173.5488" y="433.3076">Entries</text><rect fill="#F08080" height="36.2969" rx="12.5" ry="12.5" style="stroke:#181818;stroke-width:1.5;" width="71.707" x="282.3096" y="325.8672"/><text fill="#000000" font-family="sans-serif" font-size="14" lengthAdjust="spacing" textLength="51.707" x="292.3096" y="348.8623">MyOwn</text><rect fill="#EEE8AA" height="36.2969" rx="12.5" ry="12.5" style="stroke:#181818;stroke-width:1.5;" width="75.6104" x="404.0166" y="297.7188"/><text fill="#000000" font-family="sans-serif" font-size="14" lengthAdjust="spacing" textLength="55.6104" x="414.0166" y="320.7139">Manage</text><path d="M354.0166,344.0156 L364.0166,344.0156 C379.0166,344.0156 379.0166,315.8672 394.0166,315.8672 L404.0166,315.8672" fill="none" style="stroke:#181818;stroke-width:1;"/><rect fill="#EEE8AA" height="36.2969" rx="12.5" ry="12.5" style="stroke:#181818;stroke-width:1.5;" width="65.8281" x="404.0166" y="354.0156"/><text fill="#000000" font-family="sans-serif" font-size="14" lengthAdjust="spacing" textLength="45.8281" x="414.0166" y="377.0107">Export</text><path d="M354.0166,344.0156 L364.0166,344.0156 C379.0166,344.0156 379.0166,372.1641 394.0166,372.1641 L404.0166,372.1641" fill="none" style="stroke:#181818;stroke-width:1;"/><path d="M232.3096,428.4609 L242.3096,428.4609 C257.3096,428.4609 257.3096,344.0156 272.3096,344.0156 L282.3096,344.0156" fill="none" style="stroke:#181818;stroke-width:1;"/><rect fill="#F08080" height="111.4844" rx="12.5" ry="12.5" style="stroke:#181818;stroke-width:1.5;" width="152.6445" x="282.3096" y="429.0156"/><text fill="#000000" font-family="sans-serif" font-size="14" lengthAdjust="spacing" textLength="17.3564" x="292.3096" y="452.0107">All</text><line style="stroke:#181818;stroke-width:1;" x1="282.3096" x2="434.9541" y1="460.3125" y2="460.3125"/><text fill="#000000" font-family="sans-serif" font-size="14" lengthAdjust="spacing" textLength="118.1934" x="292.3096" y="478.3076">It does not make</text><text fill="#000000" font-family="sans-serif" font-size="14" lengthAdjust="spacing" textLength="115.5615" x="292.3096" y="494.6045">sense to be able</text><text fill="#000000" font-family="sans-serif" font-size="14" lengthAdjust="spacing" textLength="116.2314" x="292.3096" y="510.9014">to create entries</text><text fill="#000000" font-family="sans-serif" font-size="14" lengthAdjust="spacing" textLength="132.6445" x="292.3096" y="527.1982">on behalf of others</text><rect fill="#EEE8AA" height="36.2969" rx="12.5" ry="12.5" style="stroke:#181818;stroke-width:1.5;" width="93.3975" x="484.9541" y="410.3125"/><text fill="#000000" font-family="sans-serif" font-size="14" lengthAdjust="spacing" textLength="73.3975" x="494.9541" y="433.3076">ReadWrite</text><path d="M434.9541,484.7578 L444.9541,484.7578 C459.9541,484.7578 459.9541,428.4609 474.9541,428.4609 L484.9541,428.4609" fill="none" style="stroke:#181818;stroke-width:1;"/><rect fill="#EEE8AA" height="36.2969" rx="12.5" ry="12.5" style="stroke:#181818;stroke-width:1.5;" width="65.999" x="484.9541" y="466.6094"/><text fill="#000000" font-family="sans-serif" font-size="14" lengthAdjust="spacing" textLength="45.999" x="494.9541" y="489.6045">Delete</text><path d="M434.9541,484.7578 L444.9541,484.7578 C459.9541,484.7578 459.9541,484.7578 474.9541,484.7578 L484.9541,484.7578" fill="none" style="stroke:#181818;stroke-width:1;"/><rect fill="#EEE8AA" height="36.2969" rx="12.5" ry="12.5" style="stroke:#181818;stroke-width:1.5;" width="65.8281" x="484.9541" y="522.9063"/><text fill="#000000" font-family="sans-serif" font-size="14" lengthAdjust="spacing" textLength="45.8281" x="494.9541" y="545.9014">Export</text><path d="M434.9541,484.7578 L444.9541,484.7578 C459.9541,484.7578 459.9541,541.0547 474.9541,541.0547 L484.9541,541.0547" fill="none" style="stroke:#181818;stroke-width:1;"/><path d="M232.3096,428.4609 L242.3096,428.4609 C257.3096,428.4609 257.3096,484.7578 272.3096,484.7578 L282.3096,484.7578" fill="none" style="stroke:#181818;stroke-width:1;"/><path d="M113.5488,421.6094 L123.5488,421.6094 C138.5488,421.6094 138.5488,428.4609 153.5488,428.4609 L163.5488,428.4609" fill="none" style="stroke:#181818;stroke-width:1;"/><rect fill="#87CEFA" height="111.4844" rx="12.5" ry="12.5" style="stroke:#181818;stroke-width:1.5;" width="218.9941" x="163.5488" y="620.5"/><text fill="#000000" font-family="sans-serif" font-size="14" lengthAdjust="spacing" textLength="69.9727" x="173.5488" y="643.4951">APIClients</text><line style="stroke:#181818;stroke-width:1;" x1="163.5488" x2="382.543" y1="651.7969" y2="651.7969"/><text fill="#000000" font-family="sans-serif" font-size="14" lengthAdjust="spacing" textLength="125.9727" x="173.5488" y="669.792">API Clients can be</text><text fill="#000000" font-family="sans-serif" font-size="14" lengthAdjust="spacing" textLength="185.1582" x="173.5488" y="686.0889">used to authorize external</text><text fill="#000000" font-family="sans-serif" font-size="14" lengthAdjust="spacing" textLength="192.0693" x="173.5488" y="702.3857">applications to manage the</text><text fill="#000000" font-family="sans-serif" font-size="14" lengthAdjust="spacing" textLength="198.9941" x="173.5488" y="718.6826">entries on behalf of the user</text><rect fill="#F08080" height="95.1875" rx="12.5" ry="12.5" style="stroke:#181818;stroke-width:1.5;" width="181.4033" x="432.543" y="579.2031"/><text fill="#000000" font-family="sans-serif" font-size="14" lengthAdjust="spacing" textLength="17.3564" x="442.543" y="602.1982">All</text><line style="stroke:#181818;stroke-width:1;" x1="432.543" x2="613.9463" y1="610.5" y2="610.5"/><text fill="#000000" font-family="sans-serif" font-size="14" lengthAdjust="spacing" textLength="161.4033" x="442.543" y="628.4951">Access to editing other</text><text fill="#000000" font-family="sans-serif" font-size="14" lengthAdjust="spacing" textLength="143.9102" x="442.543" y="644.792">user's clients except</text><text fill="#000000" font-family="sans-serif" font-size="14" lengthAdjust="spacing" textLength="57.4629" x="442.543" y="661.0889">creation</text><rect fill="#EEE8AA" height="36.2969" rx="12.5" ry="12.5" style="stroke:#181818;stroke-width:1.5;" width="93.3975" x="663.9463" y="580.5"/><text fill="#000000" font-family="sans-serif" font-size="14" lengthAdjust="spacing" textLength="73.3975" x="673.9463" y="603.4951">ReadWrite</text><path d="M613.9463,626.7969 L623.9463,626.7969 C638.9463,626.7969 638.9463,598.6484 653.9463,598.6484 L663.9463,598.6484" fill="none" style="stroke:#181818;stroke-width:1;"/><rect fill="#EEE8AA" height="36.2969" rx="12.5" ry="12.5" style="stroke:#181818;stroke-width:1.5;" width="65.999" x="663.9463" y="636.7969"/><text fill="#000000" font-family="sans-serif" font-size="14" lengthAdjust="spacing" textLength="45.999" x="673.9463" y="659.792">Delete</text><path d="M613.9463,626.7969 L623.9463,626.7969 C638.9463,626.7969 638.9463,654.9453 653.9463,654.9453 L663.9463,654.9453" fill="none" style="stroke:#181818;stroke-width:1;"/><path d="M382.543,676.2422 L392.543,676.2422 C407.543,676.2422 407.543,626.7969 422.543,626.7969 L432.543,626.7969" fill="none" style="stroke:#181818;stroke-width:1;"/><rect fill="#F08080" height="78.8906" rx="12.5" ry="12.5" style="stroke:#181818;stroke-width:1.5;" width="170.9375" x="432.543" y="694.3906"/><text fill="#000000" font-family="sans-serif" font-size="14" lengthAdjust="spacing" textLength="51.707" x="442.543" y="717.3857">MyOwn</text><line style="stroke:#181818;stroke-width:1;" x1="432.543" x2="603.4805" y1="725.6875" y2="725.6875"/><text fill="#000000" font-family="sans-serif" font-size="14" lengthAdjust="spacing" textLength="150.9375" x="442.543" y="743.6826">Access only to clients</text><text fill="#000000" font-family="sans-serif" font-size="14" lengthAdjust="spacing" textLength="140.2393" x="442.543" y="759.9795">created by this user</text><rect fill="#EEE8AA" height="36.2969" rx="12.5" ry="12.5" style="stroke:#181818;stroke-width:1.5;" width="75.6104" x="653.4805" y="715.6875"/><text fill="#000000" font-family="sans-serif" font-size="14" lengthAdjust="spacing" textLength="55.6104" x="663.4805" y="738.6826">Manage</text><path d="M603.4805,733.8359 L613.4805,733.8359 C628.4805,733.8359 628.4805,733.8359 643.4805,733.8359 L653.4805,733.8359" fill="none" style="stroke:#181818;stroke-width:1;"/><path d="M382.543,676.2422 L392.543,676.2422 C407.543,676.2422 407.543,733.8359 422.543,733.8359 L432.543,733.8359" fill="none" style="stroke:#181818;stroke-width:1;"/><path d="M113.5488,421.6094 L123.5488,421.6094 C138.5488,421.6094 138.5488,676.2422 153.5488,676.2422 L163.5488,676.2422" fill="none" style="stroke:#181818;stroke-width:1;"/><!--SRC=[xLHDJnin4BtxLymDY1HAKgZe1bMGX5BIH4H9eMTdTvAruhKZUpQGLlptZfrDGoYYjqgLiFPWUxxUUvwTSq_IKQ5CLiW5k8bCwmjqXV9UMUFhbK7aA3Dqi3cI8eqmQbzqOBZrXYyAdNHflX9ddbOQFuageAlapCa2VWhWbMIue7p_wA0wXzMMwNpcR6coZjNMmPNL6PgHpQB7etWQs7WjiAzcEOtdgxOkyONOvbzZEzP9_KBa-zSYXrBZSyYFuknT9SFUZapZ8BceFRqJebPBBZAMIzHvYRXLdfmajKGWwUTU64lWK4l23CX2QWsXeHQ7rk3Me_DXLuE1D7A6SPzqScbc6BDnLIfzbLvhU-zZakW0bACeEGN8u0e- -iBKEc7Pv23OV2kWt5Q2CUhfkkI8s-ExKuJHuzAGKxZs6QnkxiqVkE3oOM631e6rrcjGrmIPHG-1PY7dA3mQZm7a145ED8g0ro7p1wnAMCF6NEefMFu2LDzw3YaUkwYHTeklDHzUTxJYT1jbXjTGNK0gG_QWIzHRbfHRftvmzGT2PxXBv6AXLSfl59wLNOf8CQfP8OGTX6o8KhPscL-aAVgO03D5oipMLEABx36E2Wy-fDo98ah05Lyb6WkinNzQmXgzYizUSLxBcS64RtFbj-1-FzTkwrwQJ9oZoJQ3G9o_pOz_C3_UPiNRhFWFPiNEP1XgQUXsq8Sb2yqGe77OF6gU71xlZoL1hpJGF8L68pdwc3HFuFPR1uBvGEnV3VlWRUbIX2oqjPgKWSA1wCcbX55fI1MOmCq2JQ_xTNF1dRHKpfg2iOhUtM3hyE6utbR47UWO2TmDH1UdijJ44QdDMC64gt-kdue-jtV9F19k6T7XdvFSYctZNm00]--></g></svg>