<svg xmlns="http://www.w3.org/2000/svg" xmlns:xlink="http://www.w3.org/1999/xlink" contentStyleType="text/css" data-diagram-type="MINDMAP" height="468px" preserveAspectRatio="none" style="width:613px;height:468px;background:#FFFFFF;" version="1.1" viewBox="0 0 613 468" width="613px" zoomAndPan="magnify"><title>RBAC Action Aliases</title><defs/><g><g class="header" data-source-line="1"><text fill="#888888" font-family="sans-serif" font-size="10" lengthAdjust="spacing" textLength="47.4219" x="552.5977" y="19.2822">mindmap</text></g><g class="title" data-source-line="2"><text fill="#000000" font-family="sans-serif" font-size="14" font-weight="bold" lengthAdjust="spacing" textLength="158.5596" x="225.73" y="45.6357">RBAC Action Aliases</text></g><rect fill="#EEE8AA" height="127.7813" rx="12.5" ry="12.5" style="stroke:#181818;stroke-width:1.5;" width="190.0508" x="10" y="194.3828"/><text fill="#000000" font-family="sans-serif" font-size="14" lengthAdjust="spacing" textLength="97.6787" x="20" y="217.3779">Action Aliases</text><line style="stroke:#181818;stroke-width:1;" x1="10" x2="200.0508" y1="225.6797" y2="225.6797"/><text fill="#000000" font-family="sans-serif" font-size="14" lengthAdjust="spacing" textLength="170.0508" x="20" y="243.6748">Expansion of the aliases</text><text fill="#000000" font-family="sans-serif" font-size="14" lengthAdjust="spacing" textLength="158.0469" x="20" y="259.9717">is the set of all actions</text><text fill="#000000" font-family="sans-serif" font-size="14" lengthAdjust="spacing" textLength="87.8076" x="20" y="276.2686">for the alias.</text><text fill="#000000" font-family="sans-serif" font-size="14" lengthAdjust="spacing" textLength="4.4502" x="20" y="292.5654">&#160;</text><text fill="#000000" font-family="sans-serif" font-size="14" lengthAdjust="spacing" textLength="112.3965" x="20" y="308.8623">Used for brevity</text><rect fill="#F08080" height="95.1875" rx="12.5" ry="12.5" style="stroke:#181818;stroke-width:1.5;" width="153.7725" x="250.0508" y="98.0859"/><text fill="#000000" font-family="sans-serif" font-size="14" lengthAdjust="spacing" textLength="73.3975" x="260.0508" y="121.0811">ReadWrite</text><line style="stroke:#181818;stroke-width:1;" x1="250.0508" x2="403.8232" y1="129.3828" y2="129.3828"/><text fill="#000000" font-family="sans-serif" font-size="14" lengthAdjust="spacing" textLength="114.0576" x="260.0508" y="147.3779">For cases where</text><text fill="#000000" font-family="sans-serif" font-size="14" lengthAdjust="spacing" textLength="133.7725" x="260.0508" y="163.6748">some CRUD makes</text><text fill="#000000" font-family="sans-serif" font-size="14" lengthAdjust="spacing" textLength="62.5762" x="260.0508" y="179.9717">no sense</text><rect fill="#B0C4DE" height="36.2969" rx="12.5" ry="12.5" style="stroke:#181818;stroke-width:1.5;" width="70.7021" x="453.8232" y="69.9375"/><text fill="#000000" font-family="sans-serif" font-size="14" lengthAdjust="spacing" textLength="50.7021" x="463.8232" y="92.9326">Update</text><path d="M403.8232,145.6797 L413.8232,145.6797 C428.8232,145.6797 428.8232,88.0859 443.8232,88.0859 L453.8232,88.0859" fill="none" style="stroke:#181818;stroke-width:1;"/><rect fill="#B0C4DE" height="95.1875" rx="12.5" ry="12.5" style="stroke:#181818;stroke-width:1.5;" width="147.1963" x="453.8232" y="126.2344"/><text fill="#000000" font-family="sans-serif" font-size="14" lengthAdjust="spacing" textLength="35.8066" x="463.8232" y="149.2295">Read</text><line style="stroke:#181818;stroke-width:1;" x1="453.8232" x2="601.0195" y1="157.5313" y2="157.5313"/><text fill="#000000" font-family="sans-serif" font-size="14" lengthAdjust="spacing" textLength="127.1963" x="463.8232" y="175.5264">Read includes List</text><text fill="#000000" font-family="sans-serif" font-size="14" lengthAdjust="spacing" textLength="126.9502" x="463.8232" y="191.8232">and Search where</text><text fill="#000000" font-family="sans-serif" font-size="14" lengthAdjust="spacing" textLength="71.7979" x="463.8232" y="208.1201">applicable</text><path d="M403.8232,145.6797 L413.8232,145.6797 C428.8232,145.6797 428.8232,173.8281 443.8232,173.8281 L453.8232,173.8281" fill="none" style="stroke:#181818;stroke-width:1;"/><path d="M200.0508,258.2734 L210.0508,258.2734 C225.0508,258.2734 225.0508,145.6797 240.0508,145.6797 L250.0508,145.6797" fill="none" style="stroke:#181818;stroke-width:1;"/><rect fill="#F08080" height="78.8906" rx="12.5" ry="12.5" style="stroke:#181818;stroke-width:1.5;" width="144.7627" x="250.0508" y="304.5703"/><text fill="#000000" font-family="sans-serif" font-size="14" lengthAdjust="spacing" textLength="55.6104" x="260.0508" y="327.5654">Manage</text><line style="stroke:#181818;stroke-width:1;" x1="250.0508" x2="394.8135" y1="335.8672" y2="335.8672"/><text fill="#000000" font-family="sans-serif" font-size="14" lengthAdjust="spacing" textLength="99.1826" x="260.0508" y="353.8623">For cases that</text><text fill="#000000" font-family="sans-serif" font-size="14" lengthAdjust="spacing" textLength="124.7627" x="260.0508" y="370.1592">support full CRUD</text><rect fill="#B0C4DE" height="36.2969" rx="12.5" ry="12.5" style="stroke:#181818;stroke-width:1.5;" width="66.8262" x="444.8135" y="241.4219"/><text fill="#000000" font-family="sans-serif" font-size="14" lengthAdjust="spacing" textLength="46.8262" x="454.8135" y="264.417">Create</text><path d="M394.8135,344.0156 L404.8135,344.0156 C419.8135,344.0156 419.8135,259.5703 434.8135,259.5703 L444.8135,259.5703" fill="none" style="stroke:#181818;stroke-width:1;"/><rect fill="#B0C4DE" height="36.2969" rx="12.5" ry="12.5" style="stroke:#181818;stroke-width:1.5;" width="55.8066" x="444.8135" y="297.7188"/><text fill="#000000" font-family="sans-serif" font-size="14" lengthAdjust="spacing" textLength="35.8066" x="454.8135" y="320.7139">Read</text><path d="M394.8135,344.0156 L404.8135,344.0156 C419.8135,344.0156 419.8135,315.8672 434.8135,315.8672 L444.8135,315.8672" fill="none" style="stroke:#181818;stroke-width:1;"/><rect fill="#B0C4DE" height="36.2969" rx="12.5" ry="12.5" style="stroke:#181818;stroke-width:1.5;" width="70.7021" x="444.8135" y="354.0156"/><text fill="#000000" font-family="sans-serif" font-size="14" lengthAdjust="spacing" textLength="50.7021" x="454.8135" y="377.0107">Update</text><path d="M394.8135,344.0156 L404.8135,344.0156 C419.8135,344.0156 419.8135,372.1641 434.8135,372.1641 L444.8135,372.1641" fill="none" style="stroke:#181818;stroke-width:1;"/><rect fill="#B0C4DE" height="36.2969" rx="12.5" ry="12.5" style="stroke:#181818;stroke-width:1.5;" width="65.999" x="444.8135" y="410.3125"/><text fill="#000000" font-family="sans-serif" font-size="14" lengthAdjust="spacing" textLength="45.999" x="454.8135" y="433.3076">Delete</text><path d="M394.8135,344.0156 L404.8135,344.0156 C419.8135,344.0156 419.8135,428.4609 434.8135,428.4609 L444.8135,428.4609" fill="none" style="stroke:#181818;stroke-width:1;"/><path d="M200.0508,258.2734 L210.0508,258.2734 C225.0508,258.2734 225.0508,344.0156 240.0508,344.0156 L250.0508,344.0156" fill="none" style="stroke:#181818;stroke-width:1;"/><!--SRC=[xLDTRzem57s_l-A-3P32WBLJbrOJ4DfA33G4etk-n1TYrR4Zss53K__xd91kwuSsJPhsL3_5llVSStnyCdIUhC-b5ZaLQ3UKHWNRN3edZOv8INBiegOE6PDWY_TRBxrYN8v72OvI7m0uEWBWmlc3ulVGT4uaxIpb-0qmh5XmuRDMhztigpMcz7PdJQb5OfInk235rqO9raiZwgux-1NS_nru9dUPJumbzGnoy4VaoZEhiIhv6VIRlnLz1nUl6pDUFN89LvNtq8aVcHU51PTV2zBL8w3PeiyOcxS0wUgjOrzLI2ca6kvW6oJywEm2h1qBh0utblVI7yu1Efru6TxmivMUZpnNePxMQhvaR1cSoHcJvNg2ETq6Ecq2bNPy7h0TN1U20hBJp3cEgBvGwbIL8eoPIUU1jC0LaqspPYmLXP8fRHGVLSn9q-w919-H1rSMXR4UjsMuMwNaI9rORgYnfdue1oUiE7m-yVXI2nXoI66JMHY-9Fw_9VubslymsWzIl52a_Ne-mptRsif-Tz0Rd7PFMYloE2qr3iwmtuzxx-B1AQu_9LYLsz2wNipGcTAcZ29SnyfDMLdSXYdj2PUbzZBd63yMhAUJ3_S7uJVQIsjqpjh3z6R-i-7jIJIMFZXYWnAycSE4jrGg7n2f4LBlui1-5Pt1ZFIk3CR4o1gI425l3w6s-Wu0]--></g></svg>