<svg xmlns="http://www.w3.org/2000/svg" xmlns:xlink="http://www.w3.org/1999/xlink" contentStyleType="text/css" data-diagram-type="MINDMAP" height="851px" preserveAspectRatio="none" style="width:769px;height:851px;background:#FFFFFF;" version="1.1" viewBox="0 0 769 851" width="769px" zoomAndPan="magnify"><title>RBAC Permissions Hierarchy</title><defs/><g><g class="header" data-source-line="1"><text fill="#888888" font-family="sans-serif" font-size="10" lengthAdjust="spacing" textLength="47.4219" x="708.9219" y="19.2822">mindmap</text></g><g class="title" data-source-line="2"><text fill="#000000" font-family="sans-serif" font-size="14" font-weight="bold" lengthAdjust="spacing" textLength="224.3965" x="270.9736" y="45.6357">RBAC Permissions Hierarchy</text></g><rect fill="#DAA520" height="36.2969" rx="12.5" ry="12.5" style="stroke:#181818;stroke-width:1.5;" width="103.5488" x="10" y="431.6094"/><text fill="#000000" font-family="sans-serif" font-size="14" lengthAdjust="spacing" textLength="83.5488" x="20" y="454.6045">Permissions</text><rect fill="#87CEFA" height="78.8906" rx="12.5" ry="12.5" style="stroke:#181818;stroke-width:1.5;" width="173.7607" x="163.5488" y="134.3828"/><text fill="#000000" font-family="sans-serif" font-size="14" lengthAdjust="spacing" textLength="44.8643" x="173.5488" y="157.3779">Admin</text><line style="stroke:#181818;stroke-width:1;" x1="163.5488" x2="337.3096" y1="165.6797" y2="165.6797"/><text fill="#000000" font-family="sans-serif" font-size="14" lengthAdjust="spacing" textLength="143.3633" x="173.5488" y="183.6748">Administrative tasks</text><text fill="#000000" font-family="sans-serif" font-size="14" lengthAdjust="spacing" textLength="153.7607" x="173.5488" y="199.9717">not related to content</text><rect fill="#F08080" height="36.2969" rx="12.5" ry="12.5" style="stroke:#181818;stroke-width:1.5;" width="77.4219" x="387.3096" y="69.9375"/><text fill="#000000" font-family="sans-serif" font-size="14" lengthAdjust="spacing" textLength="57.4219" x="397.3096" y="92.9326">Settings</text><rect fill="#EEE8AA" height="36.2969" rx="12.5" ry="12.5" style="stroke:#181818;stroke-width:1.5;" width="93.3975" x="514.7314" y="69.9375"/><text fill="#000000" font-family="sans-serif" font-size="14" lengthAdjust="spacing" textLength="73.3975" x="524.7314" y="92.9326">ReadWrite</text><path d="M464.7314,88.0859 L474.7314,88.0859 C489.7314,88.0859 489.7314,88.0859 504.7314,88.0859 L514.7314,88.0859" fill="none" style="stroke:#181818;stroke-width:1;"/><path d="M337.3096,173.8281 L347.3096,173.8281 C362.3096,173.8281 362.3096,88.0859 377.3096,88.0859 L387.3096,88.0859" fill="none" style="stroke:#181818;stroke-width:1;"/><rect fill="#F08080" height="36.2969" rx="12.5" ry="12.5" style="stroke:#181818;stroke-width:1.5;" width="59.2041" x="387.3096" y="183.8281"/><text fill="#000000" font-family="sans-serif" font-size="14" lengthAdjust="spacing" textLength="39.2041" x="397.3096" y="206.8232">Users</text><rect fill="#EEE8AA" height="36.2969" rx="12.5" ry="12.5" style="stroke:#181818;stroke-width:1.5;" width="75.6104" x="496.5137" y="126.2344"/><text fill="#000000" font-family="sans-serif" font-size="14" lengthAdjust="spacing" textLength="55.6104" x="506.5137" y="149.2295">Manage</text><path d="M446.5137,201.9766 L456.5137,201.9766 C471.5137,201.9766 471.5137,144.3828 486.5137,144.3828 L496.5137,144.3828" fill="none" style="stroke:#181818;stroke-width:1;"/><rect fill="#EEE8AA" height="95.1875" rx="12.5" ry="12.5" style="stroke:#181818;stroke-width:1.5;" width="170.0215" x="496.5137" y="182.5313"/><text fill="#000000" font-family="sans-serif" font-size="14" lengthAdjust="spacing" textLength="143.0762" x="506.5137" y="205.5264">ChangeAdminStatus</text><line style="stroke:#181818;stroke-width:1;" x1="496.5137" x2="666.5352" y1="213.8281" y2="213.8281"/><text fill="#000000" font-family="sans-serif" font-size="14" lengthAdjust="spacing" textLength="146.5693" x="506.5137" y="231.8232">Allows to change the</text><text fill="#000000" font-family="sans-serif" font-size="14" lengthAdjust="spacing" textLength="150.0215" x="506.5137" y="248.1201">user admin status for</text><text fill="#000000" font-family="sans-serif" font-size="14" lengthAdjust="spacing" textLength="79.5771" x="506.5137" y="264.417">other users</text><path d="M446.5137,201.9766 L456.5137,201.9766 C471.5137,201.9766 471.5137,230.125 486.5137,230.125 L496.5137,230.125" fill="none" style="stroke:#181818;stroke-width:1;"/><path d="M337.3096,173.8281 L347.3096,173.8281 C362.3096,173.8281 362.3096,201.9766 377.3096,201.9766 L387.3096,201.9766" fill="none" style="stroke:#181818;stroke-width:1;"/><path d="M113.5488,449.7578 L123.5488,449.7578 C138.5488,449.7578 138.5488,173.8281 153.5488,173.8281 L163.5488,173.8281" fill="none" style="stroke:#181818;stroke-width:1;"/><rect fill="#87CEFA" height="36.2969" rx="12.5" ry="12.5" style="stroke:#181818;stroke-width:1.5;" width="59.2041" x="163.5488" y="297.7188"/><text fill="#000000" font-family="sans-serif" font-size="14" lengthAdjust="spacing" textLength="39.2041" x="173.5488" y="320.7139">Users</text><rect fill="#F08080" height="36.2969" rx="12.5" ry="12.5" style="stroke:#181818;stroke-width:1.5;" width="46.3184" x="272.7529" y="297.7188"/><text fill="#000000" font-family="sans-serif" font-size="14" lengthAdjust="spacing" textLength="26.3184" x="282.7529" y="320.7139">Self</text><rect fill="#EEE8AA" height="36.2969" rx="12.5" ry="12.5" style="stroke:#181818;stroke-width:1.5;" width="93.3975" x="369.0713" y="297.7188"/><text fill="#000000" font-family="sans-serif" font-size="14" lengthAdjust="spacing" textLength="73.3975" x="379.0713" y="320.7139">ReadWrite</text><path d="M319.0713,315.8672 L329.0713,315.8672 C344.0713,315.8672 344.0713,315.8672 359.0713,315.8672 L369.0713,315.8672" fill="none" style="stroke:#181818;stroke-width:1;"/><path d="M222.7529,315.8672 L232.7529,315.8672 C247.7529,315.8672 247.7529,315.8672 262.7529,315.8672 L272.7529,315.8672" fill="none" style="stroke:#181818;stroke-width:1;"/><path d="M113.5488,449.7578 L123.5488,449.7578 C138.5488,449.7578 138.5488,315.8672 153.5488,315.8672 L163.5488,315.8672" fill="none" style="stroke:#181818;stroke-width:1;"/><rect fill="#87CEFA" height="36.2969" rx="12.5" ry="12.5" style="stroke:#181818;stroke-width:1.5;" width="68.7607" x="163.5488" y="466.6094"/><text fill="#000000" font-family="sans-serif" font-size="14" lengthAdjust="spacing" textLength="48.7607" x="173.5488" y="489.6045">Entries</text><rect fill="#F08080" height="36.2969" rx="12.5" ry="12.5" style="stroke:#181818;stroke-width:1.5;" width="71.707" x="282.3096" y="382.1641"/><text fill="#000000" font-family="sans-serif" font-size="14" lengthAdjust="spacing" textLength="51.707" x="292.3096" y="405.1592">MyOwn</text><rect fill="#EEE8AA" height="36.2969" rx="12.5" ry="12.5" style="stroke:#181818;stroke-width:1.5;" width="75.6104" x="404.0166" y="354.0156"/><text fill="#000000" font-family="sans-serif" font-size="14" lengthAdjust="spacing" textLength="55.6104" x="414.0166" y="377.0107">Manage</text><path d="M354.0166,400.3125 L364.0166,400.3125 C379.0166,400.3125 379.0166,372.1641 394.0166,372.1641 L404.0166,372.1641" fill="none" style="stroke:#181818;stroke-width:1;"/><rect fill="#EEE8AA" height="36.2969" rx="12.5" ry="12.5" style="stroke:#181818;stroke-width:1.5;" width="65.8281" x="404.0166" y="410.3125"/><text fill="#000000" font-family="sans-serif" font-size="14" lengthAdjust="spacing" textLength="45.8281" x="414.0166" y="433.3076">Export</text><path d="M354.0166,400.3125 L364.0166,400.3125 C379.0166,400.3125 379.0166,428.4609 394.0166,428.4609 L404.0166,428.4609" fill="none" style="stroke:#181818;stroke-width:1;"/><path d="M232.3096,484.7578 L242.3096,484.7578 C257.3096,484.7578 257.3096,400.3125 272.3096,400.3125 L282.3096,400.3125" fill="none" style="stroke:#181818;stroke-width:1;"/><rect fill="#F08080" height="111.4844" rx="12.5" ry="12.5" style="stroke:#181818;stroke-width:1.5;" width="152.6445" x="282.3096" y="485.3125"/><text fill="#000000" font-family="sans-serif" font-size="14" lengthAdjust="spacing" textLength="17.3564" x="292.3096" y="508.3076">All</text><line style="stroke:#181818;stroke-width:1;" x1="282.3096" x2="434.9541" y1="516.6094" y2="516.6094"/><text fill="#000000" font-family="sans-serif" font-size="14" lengthAdjust="spacing" textLength="118.1934" x="292.3096" y="534.6045">It does not make</text><text fill="#000000" font-family="sans-serif" font-size="14" lengthAdjust="spacing" textLength="115.5615" x="292.3096" y="550.9014">sense to be able</text><text fill="#000000" font-family="sans-serif" font-size="14" lengthAdjust="spacing" textLength="116.2314" x="292.3096" y="567.1982">to create entries</text><text fill="#000000" font-family="sans-serif" font-size="14" lengthAdjust="spacing" textLength="132.6445" x="292.3096" y="583.4951">on behalf of others</text><rect fill="#EEE8AA" height="36.2969" rx="12.5" ry="12.5" style="stroke:#181818;stroke-width:1.5;" width="93.3975" x="484.9541" y="466.6094"/><text fill="#000000" font-family="sans-serif" font-size="14" lengthAdjust="spacing" textLength="73.3975" x="494.9541" y="489.6045">ReadWrite</text><path d="M434.9541,541.0547 L444.9541,541.0547 C459.9541,541.0547 459.9541,484.7578 474.9541,484.7578 L484.9541,484.7578" fill="none" style="stroke:#181818;stroke-width:1;"/><rect fill="#EEE8AA" height="36.2969" rx="12.5" ry="12.5" style="stroke:#181818;stroke-width:1.5;" width="65.999" x="484.9541" y="522.9063"/><text fill="#000000" font-family="sans-serif" font-size="14" lengthAdjust="spacing" textLength="45.999" x="494.9541" y="545.9014">Delete</text><path d="M434.9541,541.0547 L444.9541,541.0547 C459.9541,541.0547 459.9541,541.0547 474.9541,541.0547 L484.9541,541.0547" fill="none" style="stroke:#181818;stroke-width:1;"/><rect fill="#EEE8AA" height="36.2969" rx="12.5" ry="12.5" style="stroke:#181818;stroke-width:1.5;" width="65.8281" x="484.9541" y="579.2031"/><text fill="#000000" font-family="sans-serif" font-size="14" lengthAdjust="spacing" textLength="45.8281" x="494.9541" y="602.1982">Export</text><path d="M434.9541,541.0547 L444.9541,541.0547 C459.9541,541.0547 459.9541,597.3516 474.9541,597.3516 L484.9541,597.3516" fill="none" style="stroke:#181818;stroke-width:1;"/><path d="M232.3096,484.7578 L242.3096,484.7578 C257.3096,484.7578 257.3096,541.0547 272.3096,541.0547 L282.3096,541.0547" fill="none" style="stroke:#181818;stroke-width:1;"/><path d="M113.5488,449.7578 L123.5488,449.7578 C138.5488,449.7578 138.5488,484.7578 153.5488,484.7578 L163.5488,484.7578" fill="none" style="stroke:#181818;stroke-width:1;"/><rect fill="#87CEFA" height="111.4844" rx="12.5" ry="12.5" style="stroke:#181818;stroke-width:1.5;" width="218.9941" x="163.5488" y="676.7969"/><text fill="#000000" font-family="sans-serif" font-size="14" lengthAdjust="spacing" textLength="69.9727" x="173.5488" y="699.792">APIClients</text><line style="stroke:#181818;stroke-width:1;" x1="163.5488" x2="382.543" y1="708.0938" y2="708.0938"/><text fill="#000000" font-family="sans-serif" font-size="14" lengthAdjust="spacing" textLength="125.9727" x="173.5488" y="726.0889">API Clients can be</text><text fill="#000000" font-family="sans-serif" font-size="14" lengthAdjust="spacing" textLength="185.1582" x="173.5488" y="742.3857">used to authorize external</text><text fill="#000000" font-family="sans-serif" font-size="14" lengthAdjust="spacing" textLength="192.0693" x="173.5488" y="758.6826">applications to manage the</text><text fill="#000000" font-family="sans-serif" font-size="14" lengthAdjust="spacing" textLength="198.9941" x="173.5488" y="774.9795">entries on behalf of the user</text><rect fill="#F08080" height="95.1875" rx="12.5" ry="12.5" style="stroke:#181818;stroke-width:1.5;" width="181.4033" x="432.543" y="635.5"/><text fill="#000000" font-family="sans-serif" font-size="14" lengthAdjust="spacing" textLength="17.3564" x="442.543" y="658.4951">All</text><line style="stroke:#181818;stroke-width:1;" x1="432.543" x2="613.9463" y1="666.7969" y2="666.7969"/><text fill="#000000" font-family="sans-serif" font-size="14" lengthAdjust="spacing" textLength="161.4033" x="442.543" y="684.792">Access to editing other</text><text fill="#000000" font-family="sans-serif" font-size="14" lengthAdjust="spacing" textLength="143.9102" x="442.543" y="701.0889">user's clients except</text><text fill="#000000" font-family="sans-serif" font-size="14" lengthAdjust="spacing" textLength="57.4629" x="442.543" y="717.3857">creation</text><rect fill="#EEE8AA" height="36.2969" rx="12.5" ry="12.5" style="stroke:#181818;stroke-width:1.5;" width="93.3975" x="663.9463" y="636.7969"/><text fill="#000000" font-family="sans-serif" font-size="14" lengthAdjust="spacing" textLength="73.3975" x="673.9463" y="659.792">ReadWrite</text><path d="M613.9463,683.0938 L623.9463,683.0938 C638.9463,683.0938 638.9463,654.9453 653.9463,654.9453 L663.9463,654.9453" fill="none" style="stroke:#181818;stroke-width:1;"/><rect fill="#EEE8AA" height="36.2969" rx="12.5" ry="12.5" style="stroke:#181818;stroke-width:1.5;" width="65.999" x="663.9463" y="693.0938"/><text fill="#000000" font-family="sans-serif" font-size="14" lengthAdjust="spacing" textLength="45.999" x="673.9463" y="716.0889">Delete</text><path d="M613.9463,683.0938 L623.9463,683.0938 C638.9463,683.0938 638.9463,711.2422 653.9463,711.2422 L663.9463,711.2422" fill="none" style="stroke:#181818;stroke-width:1;"/><path d="M382.543,732.5391 L392.543,732.5391 C407.543,732.5391 407.543,683.0938 422.543,683.0938 L432.543,683.0938" fill="none" style="stroke:#181818;stroke-width:1;"/><rect fill="#F08080" height="78.8906" rx="12.5" ry="12.5" style="stroke:#181818;stroke-width:1.5;" width="170.9375" x="432.543" y="750.6875"/><text fill="#000000" font-family="sans-serif" font-size="14" lengthAdjust="spacing" textLength="51.707" x="442.543" y="773.6826">MyOwn</text><line style="stroke:#181818;stroke-width:1;" x1="432.543" x2="603.4805" y1="781.9844" y2="781.9844"/><text fill="#000000" font-family="sans-serif" font-size="14" lengthAdjust="spacing" textLength="150.9375" x="442.543" y="799.9795">Access only to clients</text><text fill="#000000" font-family="sans-serif" font-size="14" lengthAdjust="spacing" textLength="140.2393" x="442.543" y="816.2764">created by this user</text><rect fill="#EEE8AA" height="36.2969" rx="12.5" ry="12.5" style="stroke:#181818;stroke-width:1.5;" width="75.6104" x="653.4805" y="771.9844"/><text fill="#000000" font-family="sans-serif" font-size="14" lengthAdjust="spacing" textLength="55.6104" x="663.4805" y="794.9795">Manage</text><path d="M603.4805,790.1328 L613.4805,790.1328 C628.4805,790.1328 628.4805,790.1328 643.4805,790.1328 L653.4805,790.1328" fill="none" style="stroke:#181818;stroke-width:1;"/><path d="M382.543,732.5391 L392.543,732.5391 C407.543,732.5391 407.543,790.1328 422.543,790.1328 L432.543,790.1328" fill="none" style="stroke:#181818;stroke-width:1;"/><path d="M113.5488,449.7578 L123.5488,449.7578 C138.5488,449.7578 138.5488,732.5391 153.5488,732.5391 L163.5488,732.5391" fill="none" style="stroke:#181818;stroke-width:1;"/><!--SRC=[xLJVJnf147xVlsBUL1AiK6tiOHe5h9L2953jyt8tS1lsTidk74eR__VEBaSHQ-nRaoPkU63dntxVV3CtvvwaeqAPh90BS1EPrXVe2kMziiRNAuV8KMReO7CbHHfXrBxem70R3LyKEkdIV2NEFAqqVX9LGbV9cPC5_1J09ybmGVd-qK5r3wSjq_dCsT9a7QkjWokhCpGZcyM8H_4qiV5QOb_DSXhFLsrTuWkvpR_cTgoJ-eNCzwzb3gN6vvGVnTcxIeQz7Pd6GN9HUseJebPBBZAMIzJvYFXNUNAIr1A1f9zxOIo1Goq9Co0BgJM4XbgSMeCn4Yapy-5IWn6twxjJXD5twz5LZe4qSXQjjQIJIpF3YCICgFGLjDRstaU0602KeoZv2P0X57oCXQbrmhBBGV3vLgXWYyHyzFGvbn1nQSWfNCSCLZVtvWzUSFcmi46Ve8ZMQrBN19b53q62GivHU3GU0ya9Wfne586lGzO6i8AmXfsvr5Em_0jKVUi5UMhGHOsq2xxkn_2wenK_jr5cU0sL0L8PNW-wn5x8adBhr0z6Vo1qXYT8BXPQfTo_q78EAMA9KSsA8UmmP4UKihLR-KMQeeyFOAP2YzUbn8xiCO-A3pwaFAKYIi28hnOQ0TRYFuMmHgzYswkQrt9cC65hhloMtEzsxOxrfSd4EPfiioJ4-Tjk-GUxvMsFlEsH_toFx6oDePQ6RWTzMBBGJ04QXysZvidXyVvO4lHA0yrJQ3IIeuz9ymHkltKWk0_4_jMm3zwMBaN8miYhIHbAE10zkPGmAWsf0XEuMQ3fTRzk33n9I-MiAPYhwDqDjW4VZkjjHJo1Zfd0tK1qSIfBJPoHsemLJ1ZzS_rKz7cyIwuZuP4H7VvmoQtOD_u5]--></g></svg>