<svg xmlns="http://www.w3.org/2000/svg" xmlns:xlink="http://www.w3.org/1999/xlink" contentStyleType="text/css" data-diagram-type="ACTIVITY" height="430px" preserveAspectRatio="none" style="width:474px;height:430px;background:#FFFFFF;" version="1.1" viewBox="0 0 474 430" width="474px" zoomAndPan="magnify"><title>Refetch Entry</title><defs/><g><g class="header" data-source-line="1"><text fill="#888888" font-family="sans-serif" font-size="10" lengthAdjust="spacing" textLength="36.8604" x="424.7783" y="19.2822">activity</text></g><g class="title" data-source-line="2"><text fill="#000000" font-family="sans-serif" font-size="14" font-weight="bold" lengthAdjust="spacing" textLength="107.9463" x="181.8462" y="45.6357">Refetch Entry</text></g><ellipse cx="256.3215" cy="69.9375" fill="#222222" rx="10" ry="10" style="stroke:#222222;stroke-width:1;"/><a href="auth-activity.svg" target="_top" title="auth-activity.svg" xlink:actuate="onRequest" xlink:href="auth-activity.svg" xlink:show="new" xlink:title="auth-activity.svg" xlink:type="simple"><rect fill="#FFFF00" height="47.9375" rx="12.5" ry="12.5" style="stroke:#181818;stroke-width:0.5;" width="124.2148" x="194.2141" y="99.9375"/><text fill="#000000" font-family="sans-serif" font-size="12" lengthAdjust="spacing" textLength="104.2148" x="204.2141" y="121.0762">User passes Auth</text><text fill="#000000" font-family="sans-serif" font-size="12" lengthAdjust="spacing" textLength="97.4531" x="204.2141" y="135.0449">for editing entry</text></a><rect fill="#F1F1F1" height="33.9688" rx="12.5" ry="12.5" style="stroke:#181818;stroke-width:0.5;" width="173.6563" x="169.4934" y="167.875"/><text fill="#000000" font-family="sans-serif" font-size="12" lengthAdjust="spacing" textLength="153.6563" x="179.4934" y="189.0137">User provides an entry ID</text><polygon fill="#F1F1F1" points="188.1597,221.8438,324.4834,221.8438,336.4834,233.8438,324.4834,245.8438,188.1597,245.8438,176.1597,233.8438,188.1597,221.8438" style="stroke:#181818;stroke-width:0.5;"/><text fill="#000000" font-family="sans-serif" font-size="11" lengthAdjust="spacing" textLength="136.3237" x="188.1597" y="237.6519">Entry with this ID exists?</text><text fill="#000000" font-family="sans-serif" font-size="11" lengthAdjust="spacing" textLength="19.0083" x="157.1514" y="231.2495">yes</text><text fill="#000000" font-family="sans-serif" font-size="11" lengthAdjust="spacing" textLength="13.7017" x="336.4834" y="231.2495">no</text><a href="fetch-entry.activity.puml" target="_top" title="fetch-entry.activity.puml" xlink:actuate="onRequest" xlink:href="fetch-entry.activity.puml" xlink:show="new" xlink:title="fetch-entry.activity.puml" xlink:type="simple"><rect fill="#FFFF00" height="33.9688" rx="12.5" ry="12.5" style="stroke:#181818;stroke-width:0.5;" width="88.7363" x="90.2163" y="255.8438"/><text fill="#000000" font-family="sans-serif" font-size="12" lengthAdjust="spacing" textLength="68.7363" x="100.2163" y="276.9824">Fetch entry</text></a><polygon fill="#F1F1F1" points="109.5256,309.8125,159.6433,309.8125,171.6433,321.8125,159.6433,333.8125,109.5256,333.8125,97.5256,321.8125,109.5256,309.8125" style="stroke:#181818;stroke-width:0.5;"/><text fill="#000000" font-family="sans-serif" font-size="11" lengthAdjust="spacing" textLength="50.1177" x="109.5256" y="325.6206">Success?</text><text fill="#000000" font-family="sans-serif" font-size="11" lengthAdjust="spacing" textLength="19.0083" x="78.5173" y="319.2183">yes</text><text fill="#000000" font-family="sans-serif" font-size="11" lengthAdjust="spacing" textLength="13.7017" x="171.6433" y="319.2183">no</text><rect fill="#008000" height="33.9688" rx="12.5" ry="12.5" style="stroke:#181818;stroke-width:0.5;" width="111.4297" x="11" y="343.8125"/><text fill="#000000" font-family="sans-serif" font-size="12" lengthAdjust="spacing" textLength="91.4297" x="21" y="364.9512">Show the entry</text><ellipse cx="66.7148" cy="408.7813" fill="none" rx="11" ry="11" style="stroke:#222222;stroke-width:1;"/><ellipse cx="66.7148" cy="408.7813" fill="#222222" rx="6" ry="6" style="stroke:#222222;stroke-width:1;"/><rect fill="#FF0000" height="33.9688" rx="12.5" ry="12.5" style="stroke:#181818;stroke-width:0.5;" width="120.0488" x="142.4297" y="343.8125"/><text fill="#000000" font-family="sans-serif" font-size="12" lengthAdjust="spacing" textLength="100.0488" x="152.4297" y="364.9512">Show fetch error</text><ellipse cx="202.4541" cy="407.7813" fill="none" rx="10" ry="10" style="stroke:#222222;stroke-width:1.5;"/><line style="stroke:#222222;stroke-width:2.5;" x1="196.2669" x2="208.6413" y1="401.5941" y2="413.9684"/><line style="stroke:#222222;stroke-width:2.5;" x1="208.6413" x2="196.2669" y1="401.5941" y2="413.9684"/><rect fill="#FF0000" height="33.9688" rx="12.5" ry="12.5" style="stroke:#181818;stroke-width:0.5;" width="171.1602" x="292.4785" y="255.8438"/><text fill="#000000" font-family="sans-serif" font-size="12" lengthAdjust="spacing" textLength="151.1602" x="302.4785" y="276.9824">Show entry missing error</text><ellipse cx="378.0586" cy="319.8125" fill="none" rx="10" ry="10" style="stroke:#222222;stroke-width:1.5;"/><line style="stroke:#222222;stroke-width:2.5;" x1="371.8714" x2="384.2458" y1="313.6253" y2="325.9997"/><line style="stroke:#222222;stroke-width:2.5;" x1="384.2458" x2="371.8714" y1="313.6253" y2="325.9997"/><line style="stroke:#181818;stroke-width:1;" x1="256.3215" x2="256.3215" y1="79.9375" y2="99.9375"/><polygon fill="#181818" points="252.3215,89.9375,256.3215,99.9375,260.3215,89.9375,256.3215,93.9375" style="stroke:#181818;stroke-width:1;"/><line style="stroke:#181818;stroke-width:1;" x1="256.3215" x2="256.3215" y1="147.875" y2="167.875"/><polygon fill="#181818" points="252.3215,157.875,256.3215,167.875,260.3215,157.875,256.3215,161.875" style="stroke:#181818;stroke-width:1;"/><line style="stroke:#181818;stroke-width:1;" x1="66.7148" x2="66.7148" y1="377.7813" y2="397.7813"/><polygon fill="#181818" points="62.7148,387.7813,66.7148,397.7813,70.7148,387.7813,66.7148,391.7813" style="stroke:#181818;stroke-width:1;"/><line style="stroke:#181818;stroke-width:1;" x1="202.4541" x2="202.4541" y1="377.7813" y2="397.7813"/><polygon fill="#181818" points="198.4541,387.7813,202.4541,397.7813,206.4541,387.7813,202.4541,391.7813" style="stroke:#181818;stroke-width:1;"/><line style="stroke:#181818;stroke-width:1;" x1="97.5256" x2="66.7148" y1="321.8125" y2="321.8125"/><line style="stroke:#181818;stroke-width:1;" x1="66.7148" x2="66.7148" y1="321.8125" y2="343.8125"/><polygon fill="#181818" points="62.7148,333.8125,66.7148,343.8125,70.7148,333.8125,66.7148,337.8125" style="stroke:#181818;stroke-width:1;"/><line style="stroke:#181818;stroke-width:1;" x1="171.6433" x2="202.4541" y1="321.8125" y2="321.8125"/><line style="stroke:#181818;stroke-width:1;" x1="202.4541" x2="202.4541" y1="321.8125" y2="343.8125"/><polygon fill="#181818" points="198.4541,333.8125,202.4541,343.8125,206.4541,333.8125,202.4541,337.8125" style="stroke:#181818;stroke-width:1;"/><line style="stroke:#181818;stroke-width:1;" x1="134.5845" x2="134.5845" y1="289.8125" y2="309.8125"/><polygon fill="#181818" points="130.5845,299.8125,134.5845,309.8125,138.5845,299.8125,134.5845,303.8125" style="stroke:#181818;stroke-width:1;"/><line style="stroke:#181818;stroke-width:1;" x1="378.0586" x2="378.0586" y1="289.8125" y2="309.8125"/><polygon fill="#181818" points="374.0586,299.8125,378.0586,309.8125,382.0586,299.8125,378.0586,303.8125" style="stroke:#181818;stroke-width:1;"/><line style="stroke:#181818;stroke-width:1;" x1="176.1597" x2="134.5845" y1="233.8438" y2="233.8438"/><line style="stroke:#181818;stroke-width:1;" x1="134.5845" x2="134.5845" y1="233.8438" y2="255.8438"/><polygon fill="#181818" points="130.5845,245.8438,134.5845,255.8438,138.5845,245.8438,134.5845,249.8438" style="stroke:#181818;stroke-width:1;"/><line style="stroke:#181818;stroke-width:1;" x1="336.4834" x2="378.0586" y1="233.8438" y2="233.8438"/><line style="stroke:#181818;stroke-width:1;" x1="378.0586" x2="378.0586" y1="233.8438" y2="255.8438"/><polygon fill="#181818" points="374.0586,245.8438,378.0586,255.8438,382.0586,245.8438,378.0586,249.8438" style="stroke:#181818;stroke-width:1;"/><line style="stroke:#181818;stroke-width:1;" x1="256.3215" x2="256.3215" y1="201.8438" y2="221.8438"/><polygon fill="#181818" points="252.3215,211.8438,256.3215,221.8438,260.3215,211.8438,256.3215,215.8438" style="stroke:#181818;stroke-width:1;"/><!--SRC=[RP0nRiCm34LtdO905cT83X0FHO6sGDS4dPmCWarR11J946cxldraoOrRe5eayF_tIT6WRZ20heL6aba9YKKuOujI6tXt4cQbM7GGLLLw47FuiHvvx6wttOpM-kdqnJ6bryp8y1fjLzVw0DYGaEi0bvnIhQxWHsgYJxiimETRgQY58hM3YSI06E9O1_mc5dxPnm8wA6RalO9ugYfDU4W1n-TC_N2tsr0VwHDhyuLQcbo6kaR-9tBN1KHtkXW_BT9lZiNtwO6M4GhdCv6eW4rcyiem11_AfuokKUjDhVgBRsXUmvsOqxQsY0LFw0C0]--></g></svg>