<svg xmlns="http://www.w3.org/2000/svg" xmlns:xlink="http://www.w3.org/1999/xlink" contentStyleType="text/css" data-diagram-type="ACTIVITY" height="895.8333px" preserveAspectRatio="none" style="width:987px;height:895px;background:#FFFFFF;" version="1.1" viewBox="0 0 987 895" width="987.5px" zoomAndPan="magnify"><title>Refetch Entry</title><defs/><g><g class="header" data-source-line="2"><text fill="#888888" font-family="sans-serif" font-size="20.8333" lengthAdjust="spacing" textLength="76.7924" x="884.9548" y="40.1713">activity</text></g><g class="title" data-source-line="3"><text fill="#000000" font-family="sans-serif" font-size="29.1667" font-weight="bold" lengthAdjust="spacing" textLength="224.8881" x="378.8462" y="95.0745">Refetch Entry</text></g><ellipse cx="534.0032" cy="145.7031" fill="#222222" rx="20.8333" ry="20.8333" style="stroke:#222222;stroke-width:2.0833;"/><a href="auth-activity.svg" target="_top" title="auth-activity.svg" xlink:actuate="onRequest" xlink:href="auth-activity.svg" xlink:show="new" xlink:title="auth-activity.svg" xlink:type="simple"><rect fill="#FFFF00" height="99.8698" rx="26.0417" ry="26.0417" style="stroke:#181818;stroke-width:1.0417;" width="258.7809" x="404.6127" y="208.2031"/><text fill="#000000" font-family="sans-serif" font-size="25" lengthAdjust="spacing" textLength="217.1143" x="425.4461" y="252.242">User passes Auth</text><text fill="#000000" font-family="sans-serif" font-size="25" lengthAdjust="spacing" textLength="203.0273" x="425.4461" y="281.3436">for editing entry</text></a><rect fill="#F1F1F1" height="70.7682" rx="26.0417" ry="26.0417" style="stroke:#181818;stroke-width:1.0417;" width="361.7839" x="353.1113" y="349.7396"/><text fill="#000000" font-family="sans-serif" font-size="25" lengthAdjust="spacing" textLength="320.1172" x="373.9446" y="393.7785">User provides an entry ID</text><polygon fill="#F1F1F1" points="391.9993,462.1745,676.0071,462.1745,701.0071,487.1745,676.0071,512.1745,391.9993,512.1745,366.9993,487.1745,391.9993,462.1745" style="stroke:#181818;stroke-width:1.0417;"/><text fill="#000000" font-family="sans-serif" font-size="22.9167" lengthAdjust="spacing" textLength="284.0078" x="391.9993" y="495.108">Entry with this ID exists?</text><text fill="#000000" font-family="sans-serif" font-size="22.9167" lengthAdjust="spacing" textLength="39.6006" x="327.3987" y="481.7698">yes</text><text fill="#000000" font-family="sans-serif" font-size="22.9167" lengthAdjust="spacing" textLength="28.5451" x="701.0071" y="481.7698">no</text><a href="fetch-entry.activity.puml" target="_top" title="fetch-entry.activity.puml" xlink:actuate="onRequest" xlink:href="fetch-entry.activity.puml" xlink:show="new" xlink:title="fetch-entry.activity.puml" xlink:type="simple"><rect fill="#FFFF00" height="70.7682" rx="26.0417" ry="26.0417" style="stroke:#181818;stroke-width:1.0417;" width="184.8674" x="187.9506" y="533.0078"/><text fill="#000000" font-family="sans-serif" font-size="25" lengthAdjust="spacing" textLength="143.2007" x="208.784" y="577.0467">Fetch entry</text></a><polygon fill="#F1F1F1" points="228.1784,645.4427,332.5902,645.4427,357.5902,670.4427,332.5902,695.4427,228.1784,695.4427,203.1784,670.4427,228.1784,645.4427" style="stroke:#181818;stroke-width:1.0417;"/><text fill="#000000" font-family="sans-serif" font-size="22.9167" lengthAdjust="spacing" textLength="104.4118" x="228.1784" y="678.3763">Success?</text><text fill="#000000" font-family="sans-serif" font-size="22.9167" lengthAdjust="spacing" textLength="39.6006" x="163.5778" y="665.038">yes</text><text fill="#000000" font-family="sans-serif" font-size="22.9167" lengthAdjust="spacing" textLength="28.5451" x="357.5902" y="665.038">no</text><rect fill="#008000" height="70.7682" rx="26.0417" ry="26.0417" style="stroke:#181818;stroke-width:1.0417;" width="232.1452" x="22.9167" y="716.276"/><text fill="#000000" font-family="sans-serif" font-size="25" lengthAdjust="spacing" textLength="190.4785" x="43.75" y="760.3149">Show the entry</text><ellipse cx="138.9893" cy="851.6276" fill="none" rx="22.9167" ry="22.9167" style="stroke:#222222;stroke-width:2.0833;"/><ellipse cx="138.9893" cy="851.6276" fill="#222222" rx="12.5" ry="12.5" style="stroke:#222222;stroke-width:2.0833;"/><rect fill="#FF0000" height="70.7682" rx="26.0417" ry="26.0417" style="stroke:#181818;stroke-width:1.0417;" width="250.1017" x="296.7285" y="716.276"/><text fill="#000000" font-family="sans-serif" font-size="25" lengthAdjust="spacing" textLength="208.4351" x="317.5618" y="760.3149">Show fetch error</text><ellipse cx="421.7794" cy="849.5443" fill="none" rx="20.8333" ry="20.8333" style="stroke:#222222;stroke-width:3.125;"/><line style="stroke:#222222;stroke-width:5.2083;" x1="408.8894" x2="434.6693" y1="836.6543" y2="862.4342"/><line style="stroke:#222222;stroke-width:5.2083;" x1="434.6693" x2="408.8894" y1="836.6543" y2="862.4342"/><rect fill="#FF0000" height="70.7682" rx="26.0417" ry="26.0417" style="stroke:#181818;stroke-width:1.0417;" width="356.5837" x="609.3302" y="533.0078"/><text fill="#000000" font-family="sans-serif" font-size="25" lengthAdjust="spacing" textLength="314.917" x="630.1636" y="577.0467">Show entry missing error</text><ellipse cx="787.6221" cy="666.276" fill="none" rx="20.8333" ry="20.8333" style="stroke:#222222;stroke-width:3.125;"/><line style="stroke:#222222;stroke-width:5.2083;" x1="774.7321" x2="800.512" y1="653.3861" y2="679.166"/><line style="stroke:#222222;stroke-width:5.2083;" x1="800.512" x2="774.7321" y1="653.3861" y2="679.166"/><line style="stroke:#181818;stroke-width:2.0833;" x1="534.0032" x2="534.0032" y1="166.5365" y2="208.2031"/><polygon fill="#181818" points="525.6699,187.3698,534.0032,208.2031,542.3365,187.3698,534.0032,195.7031" style="stroke:#181818;stroke-width:2.0833;"/><line style="stroke:#181818;stroke-width:2.0833;" x1="534.0032" x2="534.0032" y1="308.0729" y2="349.7396"/><polygon fill="#181818" points="525.6699,328.9063,534.0032,349.7396,542.3365,328.9063,534.0032,337.2396" style="stroke:#181818;stroke-width:2.0833;"/><line style="stroke:#181818;stroke-width:2.0833;" x1="138.9893" x2="138.9893" y1="787.0443" y2="828.7109"/><polygon fill="#181818" points="130.6559,807.8776,138.9893,828.7109,147.3226,807.8776,138.9893,816.2109" style="stroke:#181818;stroke-width:2.0833;"/><line style="stroke:#181818;stroke-width:2.0833;" x1="421.7794" x2="421.7794" y1="787.0443" y2="828.7109"/><polygon fill="#181818" points="413.446,807.8776,421.7794,828.7109,430.1127,807.8776,421.7794,816.2109" style="stroke:#181818;stroke-width:2.0833;"/><line style="stroke:#181818;stroke-width:2.0833;" x1="203.1784" x2="138.9893" y1="670.4427" y2="670.4427"/><line style="stroke:#181818;stroke-width:2.0833;" x1="138.9893" x2="138.9893" y1="670.4427" y2="716.276"/><polygon fill="#181818" points="130.6559,695.4427,138.9893,716.276,147.3226,695.4427,138.9893,703.776" style="stroke:#181818;stroke-width:2.0833;"/><line style="stroke:#181818;stroke-width:2.0833;" x1="357.5902" x2="421.7794" y1="670.4427" y2="670.4427"/><line style="stroke:#181818;stroke-width:2.0833;" x1="421.7794" x2="421.7794" y1="670.4427" y2="716.276"/><polygon fill="#181818" points="413.446,695.4427,421.7794,716.276,430.1127,695.4427,421.7794,703.776" style="stroke:#181818;stroke-width:2.0833;"/><line style="stroke:#181818;stroke-width:2.0833;" x1="280.3843" x2="280.3843" y1="603.776" y2="645.4427"/><polygon fill="#181818" points="272.051,624.6094,280.3843,645.4427,288.7177,624.6094,280.3843,632.9427" style="stroke:#181818;stroke-width:2.0833;"/><line style="stroke:#181818;stroke-width:2.0833;" x1="787.6221" x2="787.6221" y1="603.776" y2="645.4427"/><polygon fill="#181818" points="779.2887,624.6094,787.6221,645.4427,795.9554,624.6094,787.6221,632.9427" style="stroke:#181818;stroke-width:2.0833;"/><line style="stroke:#181818;stroke-width:2.0833;" x1="366.9993" x2="280.3843" y1="487.1745" y2="487.1745"/><line style="stroke:#181818;stroke-width:2.0833;" x1="280.3843" x2="280.3843" y1="487.1745" y2="533.0078"/><polygon fill="#181818" points="272.051,512.1745,280.3843,533.0078,288.7177,512.1745,280.3843,520.5078" style="stroke:#181818;stroke-width:2.0833;"/><line style="stroke:#181818;stroke-width:2.0833;" x1="701.0071" x2="787.6221" y1="487.1745" y2="487.1745"/><line style="stroke:#181818;stroke-width:2.0833;" x1="787.6221" x2="787.6221" y1="487.1745" y2="533.0078"/><polygon fill="#181818" points="779.2887,512.1745,787.6221,533.0078,795.9554,512.1745,787.6221,520.5078" style="stroke:#181818;stroke-width:2.0833;"/><line style="stroke:#181818;stroke-width:2.0833;" x1="534.0032" x2="534.0032" y1="420.5078" y2="462.1745"/><polygon fill="#181818" points="525.6699,441.3411,534.0032,462.1745,542.3365,441.3411,534.0032,449.6745" style="stroke:#181818;stroke-width:2.0833;"/><!--SRC=[RP0nRuCm48Lt_ugJif0XKTGn35MbjbBNHfre1WiV-1ImaU-0ykzh30sjL2-sxhtltVduHgxJGRTWEeA7qqbPr0O3w59e89cKa3G8xrYXb1PUd8H9AHOTH1M5xiKUVgn77khhTJTXq_Zn_C4nfTFCoF0KRP-kyW7Ga92h0UUSNAsku0SoqQVT8i3RSwweWYorWv74WbZYM0Vy8XP-tCS2EiWcvBs2U8eYJNX80SVxJ5tVDjjGh-aJQ_EPcfjS-h94_YToLmT4TxvOFyxIRux5T-c13IDapYz4eWAQXLbMXY7uaDzbT4QjDrNgBxwXonfQOaxRsY9cFA7V]--></g></svg>