<svg xmlns="http://www.w3.org/2000/svg" xmlns:xlink="http://www.w3.org/1999/xlink" contentStyleType="text/css" data-diagram-type="ACTIVITY" height="424px" preserveAspectRatio="none" style="width:361px;height:424px;background:#FFFFFF;" version="1.1" viewBox="0 0 361 424" width="361px" zoomAndPan="magnify"><title>Remove Entry</title><defs/><g><g class="header" data-source-line="1"><text fill="#888888" font-family="sans-serif" font-size="10" lengthAdjust="spacing" textLength="36.8604" x="311.3569" y="19.2822">activity</text></g><g class="title" data-source-line="2"><text fill="#000000" font-family="sans-serif" font-size="14" font-weight="bold" lengthAdjust="spacing" textLength="110.2295" x="123.9939" y="45.6357">Remove Entry</text></g><ellipse cx="174.4753" cy="69.9375" fill="#222222" rx="10" ry="10" style="stroke:#222222;stroke-width:1;"/><a href="auth-activity.svg" target="_top" title="auth-activity.svg" xlink:actuate="onRequest" xlink:href="auth-activity.svg" xlink:show="new" xlink:title="auth-activity.svg" xlink:type="simple"><rect fill="#FFFF00" height="47.9375" rx="12.5" ry="12.5" style="stroke:#181818;stroke-width:0.5;" width="132.8633" x="108.0437" y="99.9375"/><text fill="#000000" font-family="sans-serif" font-size="12" lengthAdjust="spacing" textLength="104.2148" x="118.0437" y="121.0762">User passes Auth</text><text fill="#000000" font-family="sans-serif" font-size="12" lengthAdjust="spacing" textLength="112.8633" x="118.0437" y="135.0449">for removing entry</text></a><rect fill="#F1F1F1" height="33.9688" rx="12.5" ry="12.5" style="stroke:#181818;stroke-width:0.5;" width="173.6563" x="87.6472" y="167.875"/><text fill="#000000" font-family="sans-serif" font-size="12" lengthAdjust="spacing" textLength="153.6563" x="97.6472" y="189.0137">User provides an entry ID</text><polygon fill="#F1F1F1" points="106.3135,221.8438,242.6372,221.8438,254.6372,233.8438,242.6372,245.8438,106.3135,245.8438,94.3135,233.8438,106.3135,221.8438" style="stroke:#181818;stroke-width:0.5;"/><text fill="#000000" font-family="sans-serif" font-size="11" lengthAdjust="spacing" textLength="136.3237" x="106.3135" y="237.6519">Entry with this ID exists?</text><text fill="#000000" font-family="sans-serif" font-size="11" lengthAdjust="spacing" textLength="19.0083" x="75.3052" y="231.2495">yes</text><text fill="#000000" font-family="sans-serif" font-size="11" lengthAdjust="spacing" textLength="13.7017" x="254.6372" y="231.2495">no</text><rect fill="#F1F1F1" height="33.9688" rx="12.5" ry="12.5" style="stroke:#181818;stroke-width:0.5;" width="128.2871" x="20.1699" y="255.8438"/><text fill="#000000" font-family="sans-serif" font-size="12" lengthAdjust="spacing" textLength="108.2871" x="30.1699" y="276.9824">Remove the entry</text><rect fill="#008000" height="61.9063" rx="12.5" ry="12.5" style="stroke:#181818;stroke-width:0.5;" width="146.627" x="11" y="309.8125"/><text fill="#000000" font-family="sans-serif" font-size="12" lengthAdjust="spacing" textLength="104.9355" x="21" y="330.9512">Respond with the</text><text fill="#000000" font-family="sans-serif" font-size="12" lengthAdjust="spacing" textLength="126.627" x="21" y="344.9199">contents of the entry</text><text fill="#000000" font-family="sans-serif" font-size="12" lengthAdjust="spacing" textLength="81.6152" x="21" y="358.8887">(if requested)</text><ellipse cx="84.3135" cy="402.7188" fill="none" rx="11" ry="11" style="stroke:#222222;stroke-width:1;"/><ellipse cx="84.3135" cy="402.7188" fill="#222222" rx="6" ry="6" style="stroke:#222222;stroke-width:1;"/><rect fill="#FF0000" height="33.9688" rx="12.5" ry="12.5" style="stroke:#181818;stroke-width:0.5;" width="171.1602" x="179.0571" y="255.8438"/><text fill="#000000" font-family="sans-serif" font-size="12" lengthAdjust="spacing" textLength="151.1602" x="189.0571" y="276.9824">Show entry missing error</text><ellipse cx="264.6372" cy="319.8125" fill="none" rx="10" ry="10" style="stroke:#222222;stroke-width:1.5;"/><line style="stroke:#222222;stroke-width:2.5;" x1="258.45" x2="270.8244" y1="313.6253" y2="325.9997"/><line style="stroke:#222222;stroke-width:2.5;" x1="270.8244" x2="258.45" y1="313.6253" y2="325.9997"/><line style="stroke:#181818;stroke-width:1;" x1="174.4753" x2="174.4753" y1="79.9375" y2="99.9375"/><polygon fill="#181818" points="170.4753,89.9375,174.4753,99.9375,178.4753,89.9375,174.4753,93.9375" style="stroke:#181818;stroke-width:1;"/><line style="stroke:#181818;stroke-width:1;" x1="174.4753" x2="174.4753" y1="147.875" y2="167.875"/><polygon fill="#181818" points="170.4753,157.875,174.4753,167.875,178.4753,157.875,174.4753,161.875" style="stroke:#181818;stroke-width:1;"/><line style="stroke:#181818;stroke-width:1;" x1="84.3135" x2="84.3135" y1="289.8125" y2="309.8125"/><polygon fill="#181818" points="80.3135,299.8125,84.3135,309.8125,88.3135,299.8125,84.3135,303.8125" style="stroke:#181818;stroke-width:1;"/><line style="stroke:#181818;stroke-width:1;" x1="84.3135" x2="84.3135" y1="371.7188" y2="391.7188"/><polygon fill="#181818" points="80.3135,381.7188,84.3135,391.7188,88.3135,381.7188,84.3135,385.7188" style="stroke:#181818;stroke-width:1;"/><line style="stroke:#181818;stroke-width:1;" x1="264.6372" x2="264.6372" y1="289.8125" y2="309.8125"/><polygon fill="#181818" points="260.6372,299.8125,264.6372,309.8125,268.6372,299.8125,264.6372,303.8125" style="stroke:#181818;stroke-width:1;"/><line style="stroke:#181818;stroke-width:1;" x1="94.3135" x2="84.3135" y1="233.8438" y2="233.8438"/><line style="stroke:#181818;stroke-width:1;" x1="84.3135" x2="84.3135" y1="233.8438" y2="255.8438"/><polygon fill="#181818" points="80.3135,245.8438,84.3135,255.8438,88.3135,245.8438,84.3135,249.8438" style="stroke:#181818;stroke-width:1;"/><line style="stroke:#181818;stroke-width:1;" x1="254.6372" x2="264.6372" y1="233.8438" y2="233.8438"/><line style="stroke:#181818;stroke-width:1;" x1="264.6372" x2="264.6372" y1="233.8438" y2="255.8438"/><polygon fill="#181818" points="260.6372,245.8438,264.6372,255.8438,268.6372,245.8438,264.6372,249.8438" style="stroke:#181818;stroke-width:1;"/><line style="stroke:#181818;stroke-width:1;" x1="174.4753" x2="174.4753" y1="201.8438" y2="221.8438"/><polygon fill="#181818" points="170.4753,211.8438,174.4753,221.8438,178.4753,211.8438,174.4753,215.8438" style="stroke:#181818;stroke-width:1;"/><!--SRC=[HO-zRiCm38HtFGK1B_RGFe0p50NQeMk3Jca68JhR0Xp99HcxVllIVwW0BNV7xyWEFe39tpIEKMUdKNlG9-vv1BqdvTavKS_gBXV_qExfI3xBs5wlnOo-prFz9GOPl0Y4NYtsdPhCn0icffQmW4vkZx69mO8-RGPzl9rSRAXS-sYAsf5sKKmd_4PHUQbCGA9oXbIExDNxYYOVz4KkMWQIcJBa50uKQ3LlEQbbXNBpFxSwfRKpVXuGHQWsb6WU77e1bIblfGKZrESkJ_lUzoYodiUSUPj22iv-RFu0]--></g></svg>