<svg xmlns="http://www.w3.org/2000/svg" xmlns:xlink="http://www.w3.org/1999/xlink" contentStyleType="text/css" data-diagram-type="ACTIVITY" height="883.3333px" preserveAspectRatio="none" style="width:752px;height:883px;background:#FFFFFF;" version="1.1" viewBox="0 0 752 883" width="752.0833px" zoomAndPan="magnify"><title>Remove Entry</title><defs/><g><g class="header" data-source-line="2"><text fill="#888888" font-family="sans-serif" font-size="20.8333" lengthAdjust="spacing" textLength="76.7924" x="648.6603" y="40.1713">activity</text></g><g class="title" data-source-line="3"><text fill="#000000" font-family="sans-serif" font-size="29.1667" font-weight="bold" lengthAdjust="spacing" textLength="229.6448" x="258.3206" y="95.0745">Remove Entry</text></g><ellipse cx="363.4903" cy="145.7031" fill="#222222" rx="20.8333" ry="20.8333" style="stroke:#222222;stroke-width:2.0833;"/><a href="auth.activity.svg" target="_top" title="auth.activity.svg" xlink:actuate="onRequest" xlink:href="auth.activity.svg" xlink:show="new" xlink:title="auth.activity.svg" xlink:type="simple"><rect fill="#FFFF00" height="99.8698" rx="26.0417" ry="26.0417" style="stroke:#181818;stroke-width:1.0417;" width="276.7985" x="225.091" y="208.2031"/><text fill="#000000" font-family="sans-serif" font-size="25" lengthAdjust="spacing" textLength="217.1143" x="245.9244" y="252.242">User passes Auth</text><text fill="#000000" font-family="sans-serif" font-size="25" lengthAdjust="spacing" textLength="235.1318" x="245.9244" y="281.3436">for removing entry</text></a><rect fill="#F1F1F1" height="70.7682" rx="26.0417" ry="26.0417" style="stroke:#181818;stroke-width:1.0417;" width="361.7839" x="182.5984" y="349.7396"/><text fill="#000000" font-family="sans-serif" font-size="25" lengthAdjust="spacing" textLength="320.1172" x="203.4317" y="393.7785">User provides an entry ID</text><polygon fill="#F1F1F1" points="221.4864,462.1745,505.4942,462.1745,530.4942,487.1745,505.4942,512.1745,221.4864,512.1745,196.4864,487.1745,221.4864,462.1745" style="stroke:#181818;stroke-width:1.0417;"/><text fill="#000000" font-family="sans-serif" font-size="22.9167" lengthAdjust="spacing" textLength="284.0078" x="221.4864" y="495.108">Entry with this ID exists?</text><text fill="#000000" font-family="sans-serif" font-size="22.9167" lengthAdjust="spacing" textLength="39.6006" x="156.8858" y="481.7698">yes</text><text fill="#000000" font-family="sans-serif" font-size="22.9167" lengthAdjust="spacing" textLength="28.5451" x="530.4942" y="481.7698">no</text><rect fill="#F1F1F1" height="70.7682" rx="26.0417" ry="26.0417" style="stroke:#181818;stroke-width:1.0417;" width="267.2648" x="42.0207" y="533.0078"/><text fill="#000000" font-family="sans-serif" font-size="25" lengthAdjust="spacing" textLength="225.5981" x="62.854" y="577.0467">Remove the entry</text><rect fill="#008000" height="128.9714" rx="26.0417" ry="26.0417" style="stroke:#181818;stroke-width:1.0417;" width="305.4728" x="22.9167" y="645.4427"/><text fill="#000000" font-family="sans-serif" font-size="25" lengthAdjust="spacing" textLength="218.6157" x="43.75" y="689.4816">Respond with the</text><text fill="#000000" font-family="sans-serif" font-size="25" lengthAdjust="spacing" textLength="263.8062" x="43.75" y="718.5832">contents of the entry</text><text fill="#000000" font-family="sans-serif" font-size="25" lengthAdjust="spacing" textLength="170.0317" x="43.75" y="747.6847">(if requested)</text><ellipse cx="175.6531" cy="838.9974" fill="none" rx="22.9167" ry="22.9167" style="stroke:#222222;stroke-width:2.0833;"/><ellipse cx="175.6531" cy="838.9974" fill="#222222" rx="12.5" ry="12.5" style="stroke:#222222;stroke-width:2.0833;"/><rect fill="#FF0000" height="70.7682" rx="26.0417" ry="26.0417" style="stroke:#181818;stroke-width:1.0417;" width="356.5837" x="373.0357" y="533.0078"/><text fill="#000000" font-family="sans-serif" font-size="25" lengthAdjust="spacing" textLength="314.917" x="393.869" y="577.0467">Show entry missing error</text><ellipse cx="551.3275" cy="666.276" fill="none" rx="20.8333" ry="20.8333" style="stroke:#222222;stroke-width:3.125;"/><line style="stroke:#222222;stroke-width:5.2083;" x1="538.4375" x2="564.2175" y1="653.3861" y2="679.166"/><line style="stroke:#222222;stroke-width:5.2083;" x1="564.2175" x2="538.4375" y1="653.3861" y2="679.166"/><line style="stroke:#181818;stroke-width:2.0833;" x1="363.4903" x2="363.4903" y1="166.5365" y2="208.2031"/><polygon fill="#181818" points="355.157,187.3698,363.4903,208.2031,371.8236,187.3698,363.4903,195.7031" style="stroke:#181818;stroke-width:2.0833;"/><line style="stroke:#181818;stroke-width:2.0833;" x1="363.4903" x2="363.4903" y1="308.0729" y2="349.7396"/><polygon fill="#181818" points="355.157,328.9063,363.4903,349.7396,371.8236,328.9063,363.4903,337.2396" style="stroke:#181818;stroke-width:2.0833;"/><line style="stroke:#181818;stroke-width:2.0833;" x1="175.6531" x2="175.6531" y1="603.776" y2="645.4427"/><polygon fill="#181818" points="167.3197,624.6094,175.6531,645.4427,183.9864,624.6094,175.6531,632.9427" style="stroke:#181818;stroke-width:2.0833;"/><line style="stroke:#181818;stroke-width:2.0833;" x1="175.6531" x2="175.6531" y1="774.4141" y2="816.0807"/><polygon fill="#181818" points="167.3197,795.2474,175.6531,816.0807,183.9864,795.2474,175.6531,803.5807" style="stroke:#181818;stroke-width:2.0833;"/><line style="stroke:#181818;stroke-width:2.0833;" x1="551.3275" x2="551.3275" y1="603.776" y2="645.4427"/><polygon fill="#181818" points="542.9942,624.6094,551.3275,645.4427,559.6608,624.6094,551.3275,632.9427" style="stroke:#181818;stroke-width:2.0833;"/><line style="stroke:#181818;stroke-width:2.0833;" x1="196.4864" x2="175.6531" y1="487.1745" y2="487.1745"/><line style="stroke:#181818;stroke-width:2.0833;" x1="175.6531" x2="175.6531" y1="487.1745" y2="533.0078"/><polygon fill="#181818" points="167.3197,512.1745,175.6531,533.0078,183.9864,512.1745,175.6531,520.5078" style="stroke:#181818;stroke-width:2.0833;"/><line style="stroke:#181818;stroke-width:2.0833;" x1="530.4942" x2="551.3275" y1="487.1745" y2="487.1745"/><line style="stroke:#181818;stroke-width:2.0833;" x1="551.3275" x2="551.3275" y1="487.1745" y2="533.0078"/><polygon fill="#181818" points="542.9942,512.1745,551.3275,533.0078,559.6608,512.1745,551.3275,520.5078" style="stroke:#181818;stroke-width:2.0833;"/><line style="stroke:#181818;stroke-width:2.0833;" x1="363.4903" x2="363.4903" y1="420.5078" y2="462.1745"/><polygon fill="#181818" points="355.157,441.3411,363.4903,462.1745,371.8236,441.3411,363.4903,449.6745" style="stroke:#181818;stroke-width:2.0833;"/><!--SRC=[HO-zRiCm38HtFGK1B_OI11sTeIZG3brJT4eo215j4xKbbsJi-ErB_w42jDmTloFbXsBlsNSGUeANuz4rw0Co-BlIG3ev9MqHpjYb0U4ZAa_EYNfMTxduXpQ7FNcGeRxTiWdRDetbjnYazo8ey6QnQwmI0yyOYZNW33gvBSOc1Wlwk1hm-NvoL46-zC58se0s9AO3FabKNWiJC48-eHGEx9NRYYRlz5dEQaQCPagVOjXH28jvJr4jAv2g_xd5oQsTyVU1eXYA5IMQUeUj8EGnhQKPOoY_cZHkUtSaifp7d7YTmXYSVQh-0000]--></g></svg>